<?xml version="1.0" encoding="UTF-8"?>
<svg id="_レイヤー_2" data-name="レイヤー 2" xmlns="http://www.w3.org/2000/svg" viewBox="0 0 163.66 141.93">
  <defs>
    <style>
      .cls-1 {
        fill: #58cddd;
      }

      .cls-1, .cls-2, .cls-3, .cls-4, .cls-5, .cls-6, .cls-7, .cls-8, .cls-9 {
        stroke-width: 0px;
      }

      .cls-2 {
        fill: #535350;
      }

      .cls-3 {
        fill: #efb824;
      }

      .cls-4 {
        fill: #262626;
      }

      .cls-5 {
        fill: #e2d1b5;
      }

      .cls-6 {
        fill: #d9d2aa;
      }

      .cls-7 {
        fill: #1e79b5;
      }

      .cls-8 {
        fill: #000;
      }

      .cls-9 {
        fill: #fff;
      }
    </style>
  </defs>
  <g id="_レイヤー_1-2" data-name=" レイヤー 1">
    <g>
      <path class="cls-3" d="M148.5,8.33h-.6l-25-6.6c-3-.8-6.2,1-7,4.1-1.7,6.4-3.3,12.8-5,19.3h0l-.9,3.5h0l-6.8,26.1c-.9,3.4,1.2,6.9,4.6,7.8l9.1,2.4c3.4.9,6.9-1.2,7.8-4.6l2.6-9.9c1.2-4.6,5.8-7.3,10.4-6.1l.8.2c9.9,2.7,20.3-3.2,23-13.1s-3.2-20.3-13.1-23h.1v-.1ZM154,29.63c-1.7,5.8-7.8,9.2-13.7,7.4l-5-1.3c-6.4-1.7-12.9,2.2-14.5,8.5l-2.9,11.1c-.2.9-1.2,1.5-2.1,1.2l-3.1-.8c-.9-.2-1.5-1.2-1.2-2.1l6-23.2h0l.7-2.7.4-1.4h0c1.1-4.3,2.3-8.7,3.4-13,.5-2,2.5-3.2,4.5-2.6l19.4,5c.2,0,.5,0,.7.2,5.8,1.7,9.2,7.8,7.4,13.7h0Z"/>
      <path class="cls-8" d="M118.51,66.64c-.67,0-1.33-.09-1.99-.26l-9.1-2.4c-2.03-.54-3.74-1.83-4.82-3.65-1.08-1.83-1.39-3.95-.85-5.99l7.7-29.59c.73-2.78,1.43-5.54,2.14-8.28.95-3.69,1.89-7.36,2.86-11.03.48-1.86,1.67-3.43,3.35-4.41,1.68-.98,3.63-1.25,5.49-.75l24.81,6.55h1.91v.52c4.64,1.58,8.51,4.79,10.98,9.14,2.68,4.71,3.38,10.16,1.97,15.34-1.41,5.17-4.79,9.5-9.5,12.18-4.71,2.68-10.16,3.38-15.34,1.97l-.77-.19c-1.85-.48-3.75-.23-5.35.71s-2.75,2.47-3.23,4.31l-2.6,9.9c-.54,2.03-1.83,3.75-3.65,4.82-1.24.73-2.61,1.11-3.99,1.11ZM121.44,3.04c-.74,0-1.47.2-2.14.59-.98.57-1.68,1.49-1.96,2.58-.98,3.67-1.92,7.34-2.86,11.02-.71,2.75-1.41,5.51-2.14,8.29l-.9,3.49-6.8,26.1c-.69,2.6.9,5.27,3.53,5.97l9.1,2.4c1.25.33,2.56.14,3.69-.53,1.13-.67,1.94-1.74,2.28-3.01l2.6-9.9c.68-2.61,2.32-4.79,4.62-6.14s5-1.71,7.61-1.03l.79.2c4.43,1.21,9.07.61,13.09-1.67,4.02-2.29,6.89-5.97,8.09-10.37,1.2-4.41.6-9.05-1.68-13.06-2.29-4.02-5.97-6.9-10.37-8.09l-.49-.1-25-6.6c-.35-.09-.71-.14-1.07-.14ZM116.28,58.1c-.3,0-.61-.04-.9-.14l-3.06-.79c-.8-.18-1.55-.74-1.99-1.52-.43-.76-.53-1.65-.28-2.45l7.1-27.3c.54-2.11,1.12-4.29,1.69-6.47.57-2.17,1.15-4.35,1.7-6.49.34-1.36,1.23-2.54,2.44-3.23,1.2-.68,2.61-.84,3.95-.44l19.17,4.94c.29.01.75.07,1.18.34,3.11.98,5.66,3.09,7.21,5.97,1.58,2.94,1.92,6.32.94,9.52-.95,3.22-3.09,5.87-6.04,7.46-2.94,1.58-6.32,1.92-9.53.94l-4.94-1.28c-2.69-.72-5.49-.33-7.89,1.08-2.4,1.41-4.1,3.66-4.78,6.34l-2.9,11.11c-.18.8-.73,1.54-1.52,1.99-.48.27-1.02.41-1.55.41ZM125.45,12.08c-.35,0-.68.09-.98.26-.5.29-.86.77-1.01,1.36-.55,2.16-1.13,4.34-1.71,6.53-.57,2.17-1.15,4.34-1.7,6.48l-.41,1.44-6.72,25.96c.05.13.09.16.1.16l3.25.84c.13-.05.16-.09.16-.1l2.91-11.15c.88-3.45,3.07-6.36,6.16-8.18,3.1-1.82,6.71-2.31,10.17-1.39l4.99,1.3c2.5.76,5.06.51,7.29-.69,2.24-1.21,3.87-3.23,4.59-5.68v-.02c.75-2.44.5-5-.71-7.23-1.21-2.24-3.23-3.87-5.68-4.59l-.65-.19-19.4-5c-.23-.07-.46-.1-.68-.1Z"/>
    </g>
    <g>
      <path class="cls-7" d="M55,63.53l-3.3-17.3c-1.4-7.4-8.6-12.3-16-10.9l-5.2,1c-1,.2-2.1.4-3.3.6-5.6.8-12.9.8-15.7-6.3-.4-1.1-.7-2.4-.9-3.9-.2-1.4-.2-2.7-.2-3.7.8-8.5,9.9-10.2,15.5-11.3l16.5-3.1c1.2-.2,2-1.4,1.7-2.6l-.5-2.6c-.2-1.3-1.5-2.1-2.7-1.9l-16.9,3.2c-8.5,1.6-13.4,3.6-17.4,7.6S1.7,19.73,1.5,24.13h0v.5h0c0,1.6.1,2.8.2,3.6.2,1.1.3,1.6.4,2.1.2.8.5,1.5.7,2,4.3,12.8,17.5,12.6,25.8,11.4,1.6-.2,3.1-.5,4.2-.7l1.3-.2c.6,0,1.2-.2,1.9,0,3.6.2,6.6,2.8,7.2,6.3l3,16c.3,1.5,1.7,2.5,3.2,2.2l3.4-.6c1.5-.3,2.5-1.7,2.2-3.2Z"/>
      <path class="cls-8" d="M48.87,68.88c-1.95,0-3.73-1.42-4.14-3.46l-3-16.02c-.49-2.84-2.87-4.92-5.81-5.08l-.33-.06c-.18-.05-.38-.03-.73,0-.21.02-.42.04-.63.05l-1.77.29c-1.03.19-2.31.43-3.67.6-14.7,2.12-23.93-2.05-27.41-12.41l-.05-.11c-.21-.51-.49-1.2-.69-2.01-.12-.58-.22-1.08-.42-2.19-.15-1.21-.22-2.48-.22-3.87v-.5c.21-4.76,1.22-8.54,5.54-12.86C9.66,7.14,14.59,4.97,23.72,3.25L40.62.05c1.04-.18,2.1.08,2.95.69.82.6,1.36,1.47,1.51,2.45l.49,2.55c.23.89.05,1.94-.5,2.78-.55.84-1.44,1.42-2.42,1.58l-16.63,3.13c-5.33,1.05-13.39,2.63-14.12,9.87,0,.96,0,2.15.19,3.42.19,1.4.46,2.6.82,3.6,1.89,4.79,6.24,6.45,14.08,5.33,1.15-.19,2.23-.39,3.22-.59l5.21-1c8.23-1.55,16.2,3.87,17.76,12.09l3.3,17.29c.45,2.27-1.06,4.49-3.38,4.96l-3.43.61c-.27.05-.53.08-.79.08ZM36.24,41.34c4.27.3,7.73,3.38,8.44,7.53l3,15.98c.07.33.26.63.53.82.19.13.5.27.9.19l3.43-.61c.67-.14,1.12-.77.99-1.43h0s-3.3-17.31-3.3-17.31c-1.25-6.6-7.64-10.95-14.25-9.71l-5.2,1c-1,.2-2.12.4-3.34.61-3.42.49-13.72,1.96-17.34-7.23-.45-1.24-.78-2.65-.99-4.25-.21-1.49-.21-2.88-.21-3.9v-.14c.9-9.53,10.69-11.45,16.54-12.6l.17-.03,16.51-3.1c.25-.04.38-.19.44-.28.06-.08.14-.26.08-.49l-.52-2.68c-.05-.29-.2-.45-.32-.54-.2-.14-.44-.21-.66-.17l-16.87,3.19c-8.47,1.59-12.97,3.54-16.62,7.19-3.67,3.67-4.47,6.63-4.66,10.81v.43c0,1.57.1,2.73.19,3.42.19,1,.28,1.5.38,1.99.13.53.36,1.09.54,1.54l.08.2c2.98,8.87,11.11,12.36,24.19,10.47,1.3-.16,2.53-.39,3.52-.58l2.19-.34c.14,0,.28-.02.43-.03.44-.05,1.03-.11,1.71.05Z"/>
    </g>
    <g>
      <path class="cls-5" d="M119,54.73H46.7c-7.1,0-12.9,5.8-12.9,12.9v30.4h-11.1c-5.3,0-9.6,4.3-9.6,9.6v23.2c0,5.3,4.3,9.6,9.6,9.6h99.8c5.7,0,10.3-4.6,10.3-10.3v-61.8c0-7.6-6.1-13.7-13.7-13.7h-.1v.1Z"/>
      <path class="cls-8" d="M122.5,141.93H22.7c-6.12,0-11.1-4.98-11.1-11.1v-23.2c0-6.12,4.98-11.1,11.1-11.1h9.6v-28.9c0-7.94,6.46-14.4,14.4-14.4h70.8v-.1h1.6c8.38,0,15.2,6.82,15.2,15.2v61.8c0,6.51-5.29,11.8-11.8,11.8ZM22.7,99.53c-4.47,0-8.1,3.63-8.1,8.1v23.2c0,4.47,3.63,8.1,8.1,8.1h99.8c4.85,0,8.8-3.95,8.8-8.8v-61.8c0-6.25-4.73-11.42-10.8-12.12v.02H46.7c-6.29,0-11.4,5.11-11.4,11.4v31.9h-12.6Z"/>
    </g>
    <g>
      <ellipse class="cls-9" cx="92.3" cy="90.03" rx="15.7" ry="21.1"/>
      <path class="cls-8" d="M92.3,112.63c-9.48,0-17.2-10.14-17.2-22.6s7.72-22.6,17.2-22.6,17.2,10.14,17.2,22.6-7.72,22.6-17.2,22.6ZM92.3,70.43c-7.83,0-14.2,8.79-14.2,19.6s6.37,19.6,14.2,19.6,14.2-8.79,14.2-19.6-6.37-19.6-14.2-19.6Z"/>
    </g>
    <g>
      <ellipse class="cls-9" cx="55.8" cy="89.63" rx="15.7" ry="20.7"/>
      <path class="cls-8" d="M55.8,111.83c-9.48,0-17.2-9.96-17.2-22.2s7.72-22.2,17.2-22.2,17.2,9.96,17.2,22.2-7.72,22.2-17.2,22.2ZM55.8,70.43c-7.83,0-14.2,8.61-14.2,19.2s6.37,19.2,14.2,19.2,14.2-8.61,14.2-19.2-6.37-19.2-14.2-19.2Z"/>
    </g>
    <ellipse class="cls-6" cx="13.6" cy="100.73" rx="6.2" ry="7.8"/>
    <g>
      <ellipse class="cls-2" cx="10.7" cy="98.13" rx="9.1" ry="10.7"/>
      <path class="cls-2" d="M10.7,109.83c-5.57,0-10.1-5.25-10.1-11.7s4.53-11.7,10.1-11.7,10.1,5.25,10.1,11.7-4.53,11.7-10.1,11.7ZM10.7,88.43c-4.47,0-8.1,4.35-8.1,9.7s3.63,9.7,8.1,9.7,8.1-4.35,8.1-9.7-3.63-9.7-8.1-9.7Z"/>
    </g>
    <ellipse class="cls-8" cx="51.8" cy="82.43" rx="9.5" ry="12"/>
    <circle class="cls-9" cx="8.2" cy="94.43" r="2.7"/>
    <path class="cls-4" d="M11.2,106.83c-.63,0-1.21-.4-1.42-1.03-.26-.79.16-1.64.95-1.9.4-.13,1.81-.68,2.88-2.09,1.09-1.48,1.09-2.99,1.09-3.49,0-.83.67-1.5,1.5-1.5s1.5.67,1.5,1.5c0,1.99-.57,3.77-1.69,5.29-1.57,2.05-3.55,2.87-4.33,3.13-.16.05-.32.08-.47.08Z"/>
    <ellipse class="cls-8" cx="87.8" cy="82.43" rx="9.6" ry="12"/>
    <g>
      <path class="cls-1" d="M99.66,128.46c-.47,2.75-3.02,4.79-5.96,4.78-2.92-.01-5.43-2.05-5.9-4.78,0-5.24,5.83-15.73,5.86-15.73s6,10.49,6,15.73Z"/>
      <path class="cls-8" d="M93.73,134.74h-.04c-3.68-.02-6.78-2.55-7.37-6.03l-.02-.25c0-2.39,1.03-5.91,3.05-10.44,3.03-6.79,3.4-6.79,4.31-6.79s1.28,0,4.38,6.78c2.07,4.54,3.12,8.06,3.12,10.45l-.02.25c-.58,3.44-3.77,6.03-7.41,6.03ZM89.3,128.33c.39,1.94,2.26,3.4,4.4,3.41h.02c2.15,0,4.03-1.45,4.43-3.41-.07-3.28-2.78-9.13-4.48-12.44-1.66,3.32-4.31,9.17-4.38,12.44Z"/>
    </g>
  </g>
</svg>