<?xml version="1.0" encoding="UTF-8"?>
<svg id="_レイヤー_2" data-name="レイヤー 2" xmlns="http://www.w3.org/2000/svg" viewBox="0 0 163.66 141.93">
  <defs>
    <style>
      .cls-1 {
        fill: #535350;
      }

      .cls-1, .cls-2, .cls-3, .cls-4, .cls-5, .cls-6, .cls-7, .cls-8 {
        stroke-width: 0px;
      }

      .cls-2 {
        fill: #efb824;
      }

      .cls-3 {
        fill: #262626;
      }

      .cls-4 {
        fill: #e2d1b5;
      }

      .cls-5 {
        fill: #d9d2aa;
      }

      .cls-6 {
        fill: #1e79b5;
      }

      .cls-7 {
        fill: #000;
      }

      .cls-8 {
        fill: #fff;
      }
    </style>
  </defs>
  <g id="_レイヤー_1-2" data-name=" レイヤー 1">
    <g>
      <path class="cls-2" d="M148.5,8.33h-.6l-25-6.6c-3-.8-6.2,1-7,4.1-1.7,6.4-3.3,12.8-5,19.3h0l-.9,3.5h0l-6.8,26.1c-.9,3.4,1.2,6.9,4.6,7.8l9.1,2.4c3.4.9,6.9-1.2,7.8-4.6l2.6-9.9c1.2-4.6,5.8-7.3,10.4-6.1l.8.2c9.9,2.7,20.3-3.2,23-13.1s-3.2-20.3-13.1-23h.1v-.1ZM154,29.63c-1.7,5.8-7.8,9.2-13.7,7.4l-5-1.3c-6.4-1.7-12.9,2.2-14.5,8.5l-2.9,11.1c-.2.9-1.2,1.5-2.1,1.2l-3.1-.8c-.9-.2-1.5-1.2-1.2-2.1l6-23.2h0l.7-2.7.4-1.4h0c1.1-4.3,2.3-8.7,3.4-13,.5-2,2.5-3.2,4.5-2.6l19.4,5c.2,0,.5,0,.7.2,5.8,1.7,9.2,7.8,7.4,13.7h0Z"/>
      <path class="cls-7" d="M118.51,66.64c-.67,0-1.33-.09-1.99-.26l-9.1-2.4c-4.24-1.12-6.78-5.44-5.67-9.63l7.7-29.59c.72-2.76,1.43-5.51,2.13-8.24.95-3.7,1.9-7.39,2.88-11.08.48-1.86,1.67-3.43,3.35-4.41,1.68-.98,3.63-1.25,5.49-.75l24.81,6.55h1.9v.52c4.64,1.58,8.51,4.79,10.99,9.14,2.68,4.71,3.38,10.16,1.97,15.34-2.93,10.74-14.08,17.09-24.84,14.15l-.77-.19c-1.85-.48-3.75-.23-5.35.71-1.61.94-2.75,2.47-3.23,4.31l-2.6,9.9c-.54,2.03-1.83,3.75-3.65,4.82-1.24.73-2.61,1.11-3.99,1.11ZM121.44,3.04c-.74,0-1.47.2-2.14.59-.98.57-1.68,1.49-1.96,2.58-.98,3.69-1.92,7.37-2.87,11.06-.7,2.73-1.41,5.48-2.13,8.24l-.9,3.49-6.8,26.1c-.69,2.6.9,5.27,3.53,5.97l9.1,2.4c2.59.68,5.27-.9,5.97-3.53l2.6-9.9c.68-2.61,2.32-4.79,4.62-6.14,2.3-1.35,5-1.71,7.61-1.03l.79.2c9.2,2.51,18.7-2.9,21.19-12.04,1.2-4.41.6-9.05-1.68-13.06-2.29-4.02-5.97-6.9-10.37-8.09l-.49-.1-25-6.6c-.35-.09-.71-.14-1.07-.14ZM116.28,58.1c-.3,0-.61-.04-.9-.14l-3.06-.79c-.8-.18-1.55-.73-1.99-1.52-.43-.76-.53-1.65-.28-2.45l7.1-27.29c.54-2.11,1.12-4.29,1.69-6.47.57-2.17,1.15-4.34,1.7-6.49.34-1.36,1.23-2.54,2.44-3.23,1.2-.69,2.61-.84,3.95-.44l19.17,4.94c.29.01.75.07,1.18.34,3.11.98,5.66,3.09,7.21,5.97,1.59,2.94,1.92,6.32.94,9.53h0c-.95,3.22-3.09,5.87-6.04,7.46-2.94,1.59-6.32,1.92-9.53.94l-4.94-1.28c-2.69-.71-5.49-.33-7.89,1.08-2.4,1.41-4.1,3.66-4.78,6.34l-2.9,11.11c-.18.8-.73,1.54-1.52,1.99-.48.27-1.02.41-1.55.41ZM125.45,12.08c-.35,0-.68.09-.98.26-.5.29-.86.77-1.01,1.36-.55,2.16-1.13,4.34-1.71,6.52-.57,2.17-1.15,4.34-1.7,6.49l-.41,1.44-6.72,25.96c.05.13.09.16.1.16l3.25.84c.13-.05.16-.09.16-.1l2.91-11.15c.88-3.45,3.07-6.36,6.16-8.18,3.1-1.82,6.71-2.31,10.17-1.39l4.99,1.3c2.5.76,5.06.51,7.29-.69,2.24-1.21,3.87-3.23,4.59-5.68v-.02c.75-2.44.5-5-.71-7.23-1.21-2.24-3.23-3.87-5.68-4.59l-.65-.19-19.4-5c-.23-.07-.46-.1-.68-.1Z"/>
    </g>
    <g>
      <path class="cls-6" d="M55,63.53l-3.3-17.3c-1.4-7.4-8.6-12.3-16-10.9l-5.2,1c-1,.2-2.1.4-3.3.6-5.6.8-12.9.8-15.7-6.3-.4-1.1-.7-2.4-.9-3.9-.2-1.4-.2-2.7-.2-3.7.8-8.5,9.9-10.2,15.5-11.3l16.5-3.1c1.2-.2,2-1.4,1.7-2.6l-.5-2.6c-.2-1.3-1.5-2.1-2.7-1.9l-16.9,3.2c-8.5,1.6-13.4,3.6-17.4,7.6S1.7,19.73,1.5,24.13h0v.5h0c0,1.6.1,2.8.2,3.6.2,1.1.3,1.6.4,2.1.2.8.5,1.5.7,2,4.3,12.8,17.5,12.6,25.8,11.4,1.6-.2,3.1-.5,4.2-.7l1.3-.2c.6,0,1.2-.2,1.9,0,3.6.2,6.6,2.8,7.2,6.3l3,16c.3,1.5,1.7,2.5,3.2,2.2l3.4-.6c1.5-.3,2.5-1.7,2.2-3.2Z"/>
      <path class="cls-7" d="M48.87,68.88c-1.95,0-3.73-1.42-4.14-3.46l-3-16.02c-.49-2.84-2.87-4.92-5.81-5.08l-.33-.06c-.18-.05-.38-.03-.73,0-.21.02-.42.04-.63.05l-1.79.29c-1.02.19-2.3.43-3.66.6-14.7,2.13-23.93-2.05-27.41-12.41l-.04-.1c-.21-.51-.49-1.21-.69-2.01l-.02-.11c-.1-.49-.2-1-.4-2.09-.15-1.19-.22-2.5-.22-3.87v-.5c.21-4.76,1.22-8.54,5.54-12.86C9.66,7.14,14.59,4.97,23.72,3.25L40.62.05c1.04-.17,2.1.08,2.95.69.82.6,1.36,1.47,1.51,2.45l.49,2.54c.23.89.05,1.93-.5,2.78-.55.84-1.44,1.42-2.42,1.58l-16.63,3.13c-5.33,1.05-13.39,2.63-14.12,9.87,0,.96,0,2.15.18,3.42.19,1.4.46,2.61.83,3.6,1.89,4.79,6.23,6.45,14.08,5.33,1.15-.19,2.23-.39,3.22-.59l5.21-1c3.98-.75,8.02.09,11.38,2.38,3.36,2.29,5.63,5.74,6.38,9.71l3.3,17.29c.22,1.12-.01,2.26-.67,3.19-.64.92-1.6,1.54-2.71,1.76l-3.43.61c-.27.05-.53.08-.79.08ZM36.24,41.34c4.27.3,7.73,3.38,8.44,7.53l3,15.98c.14.69.77,1.14,1.43,1.01l3.43-.61c.31-.06.61-.25.8-.53.13-.19.27-.49.19-.9h0s-3.3-17.31-3.3-17.31c-1.25-6.6-7.64-10.96-14.25-9.71l-5.2,1c-1,.2-2.12.4-3.34.61-3.42.49-13.72,1.96-17.34-7.23-.45-1.23-.78-2.65-.99-4.25-.21-1.49-.21-2.88-.21-3.9v-.14c.9-9.53,10.69-11.45,16.54-12.6l.17-.03,16.51-3.1c.25-.04.38-.19.44-.28s.14-.26.08-.49l-.52-2.68c-.05-.3-.2-.45-.32-.54-.2-.14-.44-.21-.66-.17l-16.87,3.19c-8.47,1.59-12.97,3.54-16.62,7.19s-4.47,6.63-4.66,10.81v.43c0,1.58.1,2.73.19,3.41.18.98.28,1.47.38,1.96.14.57.37,1.13.55,1.58l.08.19c2.98,8.87,11.11,12.36,24.19,10.47,1.3-.16,2.52-.39,3.51-.57l2.21-.34c.14,0,.28-.02.43-.03.44-.05,1.03-.11,1.71.05Z"/>
    </g>
    <g>
      <path class="cls-4" d="M119,54.73H46.7c-7.1,0-12.9,5.8-12.9,12.9v30.4h-11.1c-5.3,0-9.6,4.3-9.6,9.6v23.2c0,5.3,4.3,9.6,9.6,9.6h99.8c5.7,0,10.3-4.6,10.3-10.3v-61.8c0-7.6-6.1-13.7-13.7-13.7h-.1v.1Z"/>
      <path class="cls-7" d="M122.5,141.93H22.7c-6.12,0-11.1-4.98-11.1-11.1v-23.2c0-6.12,4.98-11.1,11.1-11.1h9.6v-28.9c0-7.94,6.46-14.4,14.4-14.4h70.81v-.1h1.49c8.48,0,15.3,6.82,15.3,15.2v61.8c0,6.51-5.29,11.8-11.8,11.8ZM22.7,99.53c-4.47,0-8.1,3.63-8.1,8.1v23.2c0,4.47,3.63,8.1,8.1,8.1h99.8c4.85,0,8.8-3.95,8.8-8.8v-61.8c0-6.26-4.73-11.43-10.81-12.12v.02H46.7c-6.29,0-11.4,5.11-11.4,11.4v31.9h-12.6Z"/>
    </g>
    <g>
      <ellipse class="cls-8" cx="55.8" cy="89.63" rx="15.7" ry="20.7"/>
      <path class="cls-7" d="M55.8,111.83c-9.48,0-17.2-9.96-17.2-22.2s7.72-22.2,17.2-22.2,17.2,9.96,17.2,22.2-7.72,22.2-17.2,22.2ZM55.8,70.43c-7.83,0-14.2,8.61-14.2,19.2s6.37,19.2,14.2,19.2,14.2-8.61,14.2-19.2-6.37-19.2-14.2-19.2Z"/>
    </g>
    <ellipse class="cls-5" cx="13.6" cy="100.73" rx="6.2" ry="7.8"/>
    <g>
      <ellipse class="cls-1" cx="10.7" cy="98.13" rx="9.1" ry="10.7"/>
      <path class="cls-1" d="M10.7,109.83c-5.57,0-10.1-5.25-10.1-11.7s4.53-11.7,10.1-11.7,10.1,5.25,10.1,11.7-4.53,11.7-10.1,11.7ZM10.7,88.43c-4.47,0-8.1,4.35-8.1,9.7s3.63,9.7,8.1,9.7,8.1-4.35,8.1-9.7-3.63-9.7-8.1-9.7Z"/>
    </g>
    <ellipse class="cls-7" cx="61.3" cy="91.73" rx="9.5" ry="12"/>
    <circle class="cls-8" cx="8.2" cy="94.43" r="2.7"/>
    <path class="cls-3" d="M11.2,106.83c-.63,0-1.21-.4-1.42-1.03-.26-.79.16-1.64.95-1.9.4-.14,1.81-.69,2.88-2.09,1.09-1.48,1.09-2.99,1.09-3.49,0-.83.67-1.5,1.5-1.5s1.5.67,1.5,1.5c0,1.99-.57,3.77-1.69,5.29-1.56,2.05-3.55,2.87-4.33,3.13-.16.05-.32.08-.47.08Z"/>
    <path class="cls-7" d="M79.64,96.71c-.4,0-.79-.16-1.09-.47-.57-.6-.55-1.55.06-2.12,1.43-1.36,6.72-5.79,14.87-5.99,8.74-.22,14.45,4.53,15.99,5.99.6.57.63,1.52.06,2.12-.57.6-1.52.63-2.12.06-1.33-1.26-6.24-5.35-13.85-5.16-7.07.17-11.64,3.99-12.87,5.16-.29.28-.66.41-1.03.41Z"/>
  </g>
</svg>