<?xml version="1.0" encoding="UTF-8"?>
<svg id="_レイヤー_1" data-name="レイヤー 1" xmlns="http://www.w3.org/2000/svg" version="1.1" viewBox="0 0 500 500">
  <defs>
    <style>
      .cls-1 {
        fill: #535350;
      }

      .cls-1, .cls-2, .cls-3, .cls-4, .cls-5, .cls-6, .cls-7, .cls-8, .cls-9, .cls-10, .cls-11, .cls-12, .cls-13, .cls-14, .cls-15, .cls-16, .cls-17, .cls-18, .cls-19, .cls-20, .cls-21, .cls-22, .cls-23, .cls-24, .cls-25, .cls-26, .cls-27, .cls-28, .cls-29, .cls-30, .cls-31, .cls-32 {
        stroke-width: 0px;
      }

      .cls-2 {
        fill: #efb824;
      }

      .cls-3 {
        fill: #262626;
      }

      .cls-4, .cls-5, .cls-6, .cls-9, .cls-12, .cls-15, .cls-16, .cls-17, .cls-19, .cls-25, .cls-26, .cls-27, .cls-29, .cls-30, .cls-32 {
        isolation: isolate;
      }

      .cls-4, .cls-5, .cls-12, .cls-16, .cls-19, .cls-25, .cls-32 {
        opacity: .5;
      }

      .cls-4, .cls-14, .cls-15 {
        fill: #e8d651;
      }

      .cls-5, .cls-20 {
        fill: #79bcd7;
      }

      .cls-6, .cls-8, .cls-16 {
        fill: #5da1dd;
      }

      .cls-6, .cls-15, .cls-17, .cls-26, .cls-27, .cls-29, .cls-30 {
        opacity: .3;
      }

      .cls-7, .cls-30 {
        fill: #3a57ab;
      }

      .cls-9 {
        opacity: .2;
      }

      .cls-9, .cls-17, .cls-19 {
        fill: #ae6430;
      }

      .cls-10 {
        fill: #e2d1b5;
      }

      .cls-11 {
        fill: #d9d2aa;
      }

      .cls-12, .cls-23, .cls-27 {
        fill: #283035;
      }

      .cls-13 {
        fill: #1e79b5;
      }

      .cls-18 {
        fill: #000;
      }

      .cls-21, .cls-25, .cls-29 {
        fill: #e5922d;
      }

      .cls-22 {
        fill: #e4e4e4;
      }

      .cls-24, .cls-26, .cls-32 {
        fill: #ebedbd;
      }

      .cls-28 {
        fill: #fff;
      }

      .cls-31 {
        fill: #d6c39d;
      }
    </style>
  </defs>
  <g id="BACKGROUND">
    <rect class="cls-7" y="0" width="500" height="500"/>
  </g>
  <g id="OBJECTS">
    <g>
      <path class="cls-20" d="M71.6,339v82.1h-32.1c0-10.9-4.4-20.7-11.5-27.9-7.1-7.1-17-11.6-27.9-11.6v-54.6s33.4,7.4,71.6,12Z"/>
      <path class="cls-15" d="M71.6,339v82.1h-32.1c0-10.9-4.4-20.7-11.5-27.9-7.1-7.1-17-11.6-27.9-11.6v-54.6s33.4,7.4,71.6,12Z"/>
    </g>
    <g>
      <path class="cls-6" d="M191.7,242.6s11.6,39.1,53,42.8c13.7,1.2,27.4-2,39.3-8.7,10-5.6,25.1-15.3,43.9-31l-11.5-1.4-46.8,25.8-33.2-3.3-30.9-14.8-13.8-9.5Z"/>
      <circle class="cls-6" cx="249" cy="189.9" r="16.6"/>
      <circle class="cls-6" cx="348.8" cy="266.9" r="16.6"/>
      <path class="cls-6" d="M0,74.1s15.1,26.6,59.8,43.5c36.9,14,77.6,14.5,115.2,2.6,30-9.5,77.1-17.2,106.4,13l-62.6,1.2-84.5,33.5-83.7-9.1L0,138.3"/>
      <path class="cls-6" d="M0,177.2s118.4,51,195-14.6l-98.7,1.1-80-4.9L0,138.3v38.9Z"/>
      <path class="cls-20" d="M219.2,201.5h-.3c0,0,.1,0,.1,0h.1s0,0,0,0c0,0,0,0,0,0Z"/>
      <path class="cls-20" d="M369,258.2c0,1.2-.2,2-.3,3-.4,3.8-1.4,7.6-2.9,11.3-1.5,3.7-3.7,7.2-6.7,10.3-1.5,1.5-3.2,2.9-5.2,3.9-1,.5-2,1.1-3.2,1.4-1.1.4-2.3.6-3.5.8-4.8.5-9.3-.9-12.9-3.2-3.6-2.4-6.7-5.7-8.3-10.2-.8-2.2-1.1-4.7-.7-7.2.4-2.5,1.4-4.8,2.7-6.6,2.7-3.7,6.3-5.9,9.8-7.5l3.6,7.7c-2.6,1.3-4.9,3-6.1,4.9-1.2,1.9-1.3,3.6-.6,5.6.8,1.9,2.5,3.8,4.6,5.1,2.1,1.2,4.5,1.7,6.5,1.4.5,0,1-.2,1.4-.4.5-.2.9-.4,1.4-.7,1-.6,1.9-1.4,2.8-2.3,1.7-1.9,3.1-4.3,4-6.9.9-2.6,1.5-5.5,1.7-8.4,0-.7.1-1.6.1-2.1,0-.6,0-1.2-.1-1.7-.2-1.1-.5-2.2-1-3.3-1.9-4.2-6.2-7.2-11.4-8.2-5.2-1.1-11.2-.5-17,1.1-5.8,1.6-11.6,4.2-17.1,7.3-2.8,1.6-5.5,3.3-8.1,5.1-.7.4-1.3.9-2,1.4l-2.1,1.5c-1.5,1.1-3.1,2.1-4.7,3-12.7,7.7-27.7,12.2-43,12.1-7.6,0-15.3-1.2-22.7-3.6-7.4-2.4-14.5-6-20.9-10.9-6.3-4.9-11.9-11.3-15.7-19-1.9-3.8-3.2-8-4-12.3-.4-2.1-.6-4.3-.7-6.5,0-.6,0-1.2,0-1.8,0-1.3,0-2.6,0-4,.1-3.9.5-8,1.5-12.2,1-4.2,2.5-8.6,5.3-12.8,1.4-2.1,3-4.1,4.9-5.9,1.9-1.8,4.1-3.4,6.4-4.7,2.4-1.3,4.8-2.3,7.4-2.9,1.3-.3,2.6-.6,3.9-.7.7,0,1.4-.1,2.1-.2.4,0,.7,0,1.1,0h.6s.4,0,.4,0h.6s-2.1,22.9-2.1,22.9c-.1,0-.2,0-.3,0-.3,0-.7,0-1.1.1-.7.1-1.4.4-2.1.7-1.3.6-2.4,1.5-3.5,3-2.2,2.9-3.6,8.1-4,13.7-.1,1.4-.1,2.9-.2,4.3,0,1.3,0,2.4.2,3.7.3,2.4,1,4.8,2,7.1,2,4.6,5.3,9,9.5,12.6,4.2,3.6,9.2,6.5,14.7,8.5,5.4,2,11.3,3.2,17.2,3.5,11.9.6,24-2.3,34.8-8.2,1.3-.7,2.7-1.5,4-2.3l2.1-1.3c.8-.5,1.5-1,2.3-1.4,3-1.9,6.2-3.7,9.4-5.3,6.5-3.3,13.3-6.1,20.6-7.7,3.7-.8,7.5-1.4,11.4-1.5,3.9-.1,7.9.2,11.9,1.3,4,1,8,2.8,11.4,5.6,3.5,2.7,6.3,6.4,8,10.5.8,2.1,1.4,4.3,1.6,6.5.1,1.1.1,2.2.1,3.3Z"/>
      <path class="cls-16" d="M221,178.6l-2.1,22.9c-.1,0-.2,0-.3,0-.3,0-.7,0-1.1.1-.7.1-1.4.4-2.1.7-1.3.6-2.4,1.5-3.5,3-2.2,2.9-3.6,8.1-4,13.7-.1,1.4-.1,2.9-.2,4.3l-21-1.3c0-1.3,0-2.6,0-4,.1-3.9.5-8,1.5-12.2,1-4.2,2.5-8.6,5.3-12.8,1.4-2.1,3-4.1,4.9-5.9,1.9-1.8,4.1-3.4,6.4-4.7,2.4-1.3,4.8-2.3,7.4-2.9,1.3-.3,2.6-.6,3.9-.7.7,0,1.4-.1,2.1-.2.4,0,.7,0,1.1,0h.6s.4,0,.4,0h.6Z"/>
      <path class="cls-20" d="M219.2,201.5s0,0,0,0c0,0,0,0,0,0h-.3c0,0,.1,0,.1,0h.2Z"/>
      <path class="cls-20" d="M305.9,196.1c-.3,3.3-.9,6.6-1.7,9.9-1.6,6.6-4.4,13.1-8.6,19-2.1,2.9-4.5,5.7-7.2,8.2-2.7,2.5-5.8,4.6-9,6.4-6.5,3.6-13.6,5.3-20.4,5.9-6.3.4-12.7.4-19.3-.7-6.6-1.2-13.4-3.4-19.6-7.6-6.2-4.1-11.4-10.6-13.9-17.9-.4-.9-.6-1.8-.8-2.7-.2-.9-.5-1.8-.6-2.8-.3-1.9-.6-3.7-.6-5.6-.2-3.7.4-7.4,1.3-10.8,1.9-6.9,5.6-13.3,10.9-18.1,2.6-2.5,5.7-4.4,8.9-5.9,1.7-.6,3.3-1.4,5-1.7.9-.2,1.7-.4,2.6-.6l2.6-.3h1.3c.4-.1.9-.1,1.3-.1h2.5c.9,0,1.7.3,2.5.4l2.4.4c1.6.4,3.1.9,4.6,1.4,1.4.6,2.9,1.2,4.3,1.9l-3.2,8.7c-4.9-1-9.6-1.1-13.6.2-.5.2-1,.3-1.5.5l-1.4.6c-.9.4-1.8,1-2.6,1.5-1.6,1.2-3.1,2.5-4.3,4.1-.7.7-1.1,1.6-1.7,2.4-.3.4-.5.9-.7,1.3-.2.4-.5.9-.6,1.4l-.5,1.4c-.2.5-.3,1-.4,1.4-.3.9-.4,1.9-.6,2.9-.2,1.9-.2,3.8,0,5.6,0,.9.4,1.8.6,2.6,0,.4.3.8.5,1.2.2.4.3.8.5,1.2.2.4.4.8.6,1.1,0,.2.2.4.3.5l.4.5c.3.3.4.7.7,1,.3.3.6.6.8.9.2.3.6.6.9.9.3.3.6.6.9.9l1.1.7c.4.2.7.5,1.1.7,3.1,1.8,7.1,2.9,11.4,3.5,4.4.5,9.1.4,13.8,0,4.2-.5,8-1.6,11.2-3.4,1.6-.9,3.1-2,4.4-3.3,1.4-1.3,2.6-2.7,3.6-4.3,2.1-3.2,3.8-7,4.7-11.2,1.9-8.3,1.3-17.8-1.4-26.3-2.7-8.5-7.6-16.2-14-21.4-6.4-5.2-14.2-7.9-22.8-7.9-8.6-.1-17.7,2.5-26.6,6.4l-3.3,1.6c-1.1.5-2.2,1.1-3.3,1.7-1.1.6-2.2,1.2-3.3,1.8l-3.4,2-7.7,4.4c-.6.4-1.3.7-1.9,1.1l-2,1-4,1.9c-10.7,5.1-21.9,9.4-33.5,12.3-11.6,2.9-23.5,4.7-35.4,5.2-11.9.5-23.9-.2-35.6-2.1-11.7-1.9-23.2-4.9-34.3-8.8-11.1-3.9-21.8-8.8-32-14.4C12.9,156.9,5.8,152.6,0,148.9v-28.5l2.8,1.8c.5.4,1,.7,1.5,1.1,1,.7,2.1,1.5,3.1,2.2,2.1,1.4,4.3,2.8,6.5,4.2,4.4,2.7,9,5.3,13.6,7.7,9.3,4.8,18.9,8.8,28.8,12.1,19.7,6.6,40.3,9.7,60.6,8.7,10.2-.5,20.2-2.1,30.1-4.6,9.9-2.4,19.5-6.1,28.7-10.5l3.5-1.7,1.7-.8c.6-.3,1.1-.6,1.7-.9l6.7-3.8c1.1-.6,2.5-1.4,3.8-2.1,1.3-.8,2.6-1.5,4-2.2,1.4-.7,2.7-1.4,4.1-2.1l4.2-2c5.7-2.5,11.6-4.6,17.9-6.1s12.9-2.4,19.7-2.2c6.8.1,13.7,1.3,20.4,3.7,6.6,2.3,12.8,6,18.1,10.4,2.7,2.2,5.1,4.7,7.4,7.3,2.2,2.6,4.2,5.4,6,8.2,3.6,5.7,6.2,11.8,8.1,18.1,1.9,6.3,3,12.8,3.2,19.4.1,3.3,0,6.6-.3,9.9Z"/>
    </g>
    <g>
      <circle class="cls-14" cx="106.8" cy="62.7" r="21"/>
      <path class="cls-25" d="M106.8,41.7v42c-11.6,0-21-9.4-21-21s9.4-21,21-21Z"/>
      <circle class="cls-24" cx="106.8" cy="62.7" r="11.4"/>
      <circle class="cls-21" cx="106.8" cy="62.7" r="4.4"/>
    </g>
    <g>
      <circle class="cls-5" cx="35.2" cy="224" r="28.1"/>
      <circle class="cls-14" cx="35.1" cy="224" r="20.4"/>
      <circle class="cls-24" cx="35.2" cy="224" r="11.1"/>
    </g>
    <rect class="cls-12" y="421.1" width="500" height="78.9"/>
    <g>
      <path class="cls-12" d="M39.4,421.1H0v-39.4c10.9,0,20.7,4.4,27.9,11.5,7.1,7.1,11.5,17,11.5,27.9Z"/>
      <path class="cls-12" d="M35.9,439.4h0c-19.8,0-35.9,16.1-35.9,35.9v24.7h35.9v-60.6Z"/>
    </g>
    <g>
      <path class="cls-5" d="M492.4,154.2c0,44.6-36.2,80.8-80.7,80.8s-80.8-36.2-80.8-80.8,36.2-80.7,80.8-80.7c44.6,0,80.7,36.2,80.7,80.7Z"/>
      <path class="cls-14" d="M481.4,154.2c0,38.6-31.3,69.8-69.8,69.8s-69.8-31.3-69.8-69.8,31.3-69.8,69.8-69.8c38.6,0,69.8,31.3,69.8,69.8Z"/>
      <path class="cls-29" d="M411.6,84.4v139.6c-38.6,0-69.8-31.3-69.8-69.8s31.3-69.8,69.8-69.8Z"/>
      <circle class="cls-24" cx="411.6" cy="154.2" r="51.6"/>
      <path class="cls-15" d="M463.2,154.2c0,28.5-23.1,51.6-51.6,51.6h0c-28.5,0-51.6-23.1-51.6-51.6s23.1-51.6,51.6-51.6h0c28.5,0,51.6,23.1,51.6,51.6Z"/>
      <path class="cls-15" d="M411.6,102.6v103.3c-28.5,0-51.6-23.1-51.6-51.6s23.1-51.6,51.6-51.6Z"/>
      <circle class="cls-24" cx="411.6" cy="154.2" r="38.7"/>
      <g>
        <path class="cls-14" d="M450.3,156c-.7,16-11.5,30.6-27.7,35.4-20.5,6-42-5.7-48-26.2-6-20.5,5.7-42,26.2-48,16.3-4.8,33.2,1.6,42.5,14.7-6.4-6.3-16-9-25.3-6.3-13.6,4-21.5,18.3-17.4,32,4,13.6,18.3,21.5,32,17.4,9.3-2.7,15.8-10.2,17.8-19Z"/>
        <path class="cls-25" d="M450.3,156c-.7,16-11.5,30.6-27.7,35.4-20.5,6-42-5.7-48-26.2-6-20.5,5.7-42,26.2-48,16.3-4.8,33.2,1.6,42.5,14.7-6.4-6.3-16-9-25.3-6.3-13.6,4-21.5,18.3-17.4,32,4,13.6,18.3,21.5,32,17.4,9.3-2.7,15.8-10.2,17.8-19Z"/>
      </g>
    </g>
    <path class="cls-12" d="M421.5,349.1v57.3H130.5l1.2-14.7c2.1-.5,4.2-1.2,6.4-2.2,18.1-7.8,41.7-29.6,64.7-34.8,25.4-5.7,30.8,18.5,30.8,18.5,0,0,23.8,17.4,72.7-18.5,30.9-22.7,61-29,83.9-24.2,4.9,1,9.5,2.6,13.7,4.6,7.2,3.4,13.2,8.2,17.8,14Z"/>
    <g>
      <rect class="cls-8" x="326" y="463" width="52.7" height="17.7"/>
      <rect class="cls-7" x="326" y="480.8" width="52.7" height="19.2"/>
      <rect class="cls-23" x="326" y="480.8" width="52.7" height="7.3"/>
    </g>
    <path class="cls-7" d="M500,349.1v72h-235.2v-14.7l78.1-4.9c12.5-.8,23.6-8.3,28.7-19.7.7-1.6,1.5-3.1,2.3-4.6,8.3-14.6,23-25,40.2-27.6,2.4-.4,4.8-.6,7.3-.6.3,0,.6,0,1,0h77.5Z"/>
    <g>
      <path class="cls-23" d="M500,286.1v63h-77.5c-.3,0-.6,0-1,0h0c-4.6-5.8-10.6-10.6-17.8-14l40.6-10.2,9-2.1c7.4-1.7,12.7-8.4,12.7-16s1.3-7.4,3.6-10.2c2.3-2.8,5.5-4.9,9.2-5.8l21.1-4.7Z"/>
      <path class="cls-20" d="M500,236.7v49.4l-21.1,4.7c-3.7.8-6.9,2.9-9.2,5.8-2.3,2.8-3.6,6.4-3.6,10.2,0,7.6-5.2,14.2-12.7,16l-9,2.1-40.6,10.2c-4.2-2-8.8-3.5-13.7-4.6-22.9-4.8-52.9,1.5-83.9,24.2-48.9,35.9-72.7,18.5-72.7,18.5,0,0-5.4-24.1-30.8-18.5-23,5.1-46.6,27-64.7,34.8l-48.1-21.8-.7-26.7s36.9,0,80.9-1,67.5-23.3,105.8-31.3c38.3-8,32.6,20.2,32.6,20.2l37.6-12c8.4-2.7,16.3-6.8,23.2-12.1,7-5.3,13-11.8,17.8-19.2,10.6-16.3,27-28,45.9-32.6l66.8-16.5Z"/>
      <path class="cls-15" d="M500,236.7v49.4l-21.1,4.7c-3.7.8-6.9,2.9-9.2,5.8-2.3,2.8-3.6,6.4-3.6,10.2,0,7.6-5.2,14.2-12.7,16l-9,2.1-40.6,10.2c-4.2-2-8.8-3.5-13.7-4.6-22.9-4.8-52.9,1.5-83.9,24.2-48.9,35.9-72.7,18.5-72.7,18.5,0,0-5.4-24.1-30.8-18.5-23,5.1-46.6,27-64.7,34.8l-48.1-21.8-.7-26.7s36.9,0,80.9-1,67.5-23.3,105.8-31.3c38.3-8,32.6,20.2,32.6,20.2l37.6-12c8.4-2.7,16.3-6.8,23.2-12.1,7-5.3,13-11.8,17.8-19.2,10.6-16.3,27-28,45.9-32.6l66.8-16.5Z"/>
    </g>
    <g>
      <path class="cls-6" d="M358.6,433.2h0c-11.1,0-20.1,9-20.1,20.1v2.1h40.1v-2.1c0-11.1-9-20.1-20.1-20.1Z"/>
      <path class="cls-6" d="M406.2,441.3h0c-11.1,0-20.1,9-20.1,20.1v2.1h40.1v-2.1c0-11.1-9-20.1-20.1-20.1Z"/>
      <path class="cls-6" d="M311,425.2h0c-11.1,0-20.1,9-20.1,20.1v2.1h40.1v-2.1c0-11.1-9-20.1-20.1-20.1Z"/>
      <path class="cls-6" d="M453.9,449.3h0c-11.1,0-20.1,9-20.1,20.1v2.1h40.1v-2.1c0-11.1-9-20.1-20.1-20.1Z"/>
    </g>
    <g>
      <path class="cls-20" d="M413,436.2s14.5,1.1,18.5,13.1c0,0,7.4-7.9,26.8-8.2,19.4-.3,41.7,0,41.7,0v-8h-87v3h0Z"/>
      <path class="cls-15" d="M413,436.2s14.5,1.1,18.5,13.1c0,0,7.4-7.9,26.8-8.2,19.4-.3,41.7,0,41.7,0v-8h-87v3h0Z"/>
    </g>
    <g>
      <path class="cls-12" d="M388.3,470.5h20.8c5.7,0,10.2,4.6,10.2,10.2h-20.8c-5.7,0-10.2-4.6-10.2-10.2Z"/>
      <path class="cls-27" d="M406.8,480.8h20.8c5.7,0,10.2,4.6,10.2,10.2h-20.8c-5.7,0-10.2-4.6-10.2-10.2Z"/>
    </g>
    <g>
      <path class="cls-16" d="M437.8,388.2h20.8c5.7,0,10.2,4.6,10.2,10.2h-20.8c-5.7,0-10.2-4.6-10.2-10.2Z"/>
      <path class="cls-6" d="M456.3,398.4h20.8c5.7,0,10.2,4.6,10.2,10.2h-20.8c-5.7,0-10.2-4.6-10.2-10.2Z"/>
    </g>
    <g>
      <path class="cls-12" d="M357.7,371.5h-20.8c-5.7,0-10.2,4.6-10.2,10.2h20.8c5.7,0,10.2-4.6,10.2-10.2Z"/>
      <path class="cls-27" d="M339.2,381.7h-20.8c-5.7,0-10.2,4.6-10.2,10.2h20.8c5.7,0,10.2-4.6,10.2-10.2Z"/>
    </g>
    <g>
      <path class="cls-7" d="M219.9,398.4h0c-11.1,0-20.1,9-20.1,20.1v2.1h40.1v-2.1c0-11.1-9-20.1-20.1-20.1Z"/>
      <path class="cls-6" d="M219.9,398.4h0c-11.1,0-20.1,9-20.1,20.1v2.1h40.1v-2.1c0-11.1-9-20.1-20.1-20.1Z"/>
    </g>
    <g>
      <path class="cls-23" d="M76.3,122.2h0c-13,0-23.5-10.5-23.5-23.5V0h23.5v122.2Z"/>
      <path class="cls-23" d="M107.1,260.7h-35.5V88.1h0c19.6,0,35.5,15.9,35.5,35.5,0,0,0,137,0,137Z"/>
      <rect class="cls-23" x="89.3" y="180.1" width="17.8" height="319.9"/>
      <path class="cls-23" d="M115.6,263.2h10.6v-97.9h0c-5.8,0-10.6,4.7-10.6,10.6v87.3Z"/>
      <rect class="cls-23" x="89.3" y="210.1" width="36.9" height="130.9"/>
      <path class="cls-23" d="M134.4,420.4h-27.3v-129.8c0-15.1,12.2-27.3,27.3-27.3h0v157.1Z"/>
      <path class="cls-23" d="M90,241.2v148.4c-27.2,0-49.3-22.1-49.3-49.3v-49.8c0-13.6,5.5-25.9,14.4-34.8,4.6-4.6,10.2-8.4,16.4-10.9,5.7-2.3,11.9-3.6,18.5-3.6Z"/>
      <path class="cls-9" d="M71.6,244.8v38.2c0,20.1-12.9,37.2-30.8,43.4v-36c0-13.6,5.5-25.9,14.4-34.8,4.6-4.6,10.2-8.4,16.4-10.9Z"/>
      <path class="cls-23" d="M22.2,500h67.8v-132.3h0c-37.4,0-67.8,30.4-67.8,67.8v64.5h0Z"/>
      <g>
        <path class="cls-23" d="M165.6,375.9h-18.8v-80.2h0c10.4,0,18.8,8.4,18.8,18.8v61.5h0Z"/>
        <path class="cls-23" d="M186.9,431.1h-40v-95.3h0c22.1,0,40,17.9,40,40v55.2h0Z"/>
      </g>
      <rect class="cls-23" x="96.2" y="378.7" width="90.6" height="121.3"/>
      <path class="cls-9" d="M134.4,500h-28.5v-85.5h0c15.8,0,28.5,12.8,28.5,28.5v56.9Z"/>
    </g>
    <g>
      <g>
        <rect class="cls-20" x="221" y="452.4" width="54.7" height="21.6"/>
        <rect class="cls-26" x="221" y="452.4" width="54.7" height="21.6"/>
        <g>
          <rect class="cls-8" x="231.4" y="473.9" width="27.6" height="26.1"/>
          <rect class="cls-30" x="231.4" y="473.9" width="27.6" height="6.8"/>
        </g>
        <polygon class="cls-20" points="292.5 473.8 292.5 500 259 500 259 473.8 275.7 452.4 292.5 473.8"/>
        <rect class="cls-23" x="269.8" y="476.2" width="12.4" height="23.8"/>
      </g>
      <g>
        <polygon class="cls-20" points="236.4 459.4 236.4 500 184.4 500 184.4 459.4 210.4 426.1 236.4 459.4"/>
        <rect class="cls-23" x="199.8" y="466.5" width="21.3" height="33.5"/>
        <polygon class="cls-7" points="245.1 465.1 236.5 465.1 210.4 431.6 184.3 465.1 175.6 465.1 210.4 420.6 245.1 465.1"/>
      </g>
      <g>
        <rect class="cls-20" x="253.4" y="430" width="22.4" height="22.4"/>
        <rect class="cls-23" x="259.5" y="436.7" width="10.1" height="15.7"/>
        <polygon class="cls-8" points="275.7 410.8 253.4 410.8 246.3 430 283.3 430 275.7 410.8"/>
        <polygon class="cls-8" points="264.8 335.7 264.8 335.7 253.4 410.8 275.7 410.8 264.8 335.7"/>
      </g>
    </g>
    <g>
      <path class="cls-19" d="M40.5,436.5h0v20.8c0,5.7,4.6,10.2,10.2,10.2h0v-20.8c0-5.7-4.6-10.2-10.2-10.2Z"/>
      <path class="cls-17" d="M50.7,455h0v20.8c0,5.7,4.6,10.2,10.2,10.2h0v-20.8c0-5.7-4.6-10.2-10.2-10.2Z"/>
    </g>
    <g>
      <path class="cls-19" d="M105.9,356.8h0v20.8c0,5.7-4.6,10.2-10.2,10.2h0v-20.8c0-5.7,4.6-10.2,10.2-10.2Z"/>
      <path class="cls-17" d="M95.7,375.3h0v20.8c0,5.7-4.6,10.2-10.2,10.2h0v-20.8c0-5.7,4.6-10.2,10.2-10.2Z"/>
    </g>
    <g>
      <path class="cls-19" d="M105.9,240.2h0v20.8c0,5.7-4.6,10.2-10.2,10.2h0v-20.8c0-5.7,4.6-10.2,10.2-10.2Z"/>
      <path class="cls-17" d="M95.7,258.7h0v20.8c0,5.7-4.6,10.2-10.2,10.2h0v-20.8c0-5.7,4.6-10.2,10.2-10.2Z"/>
    </g>
    <g>
      <path class="cls-19" d="M146.8,396.3h0v20.8c0,5.7,4.6,10.2,10.2,10.2h0v-20.8c0-5.7-4.6-10.2-10.2-10.2Z"/>
      <path class="cls-17" d="M157,414.9h0v20.8c0,5.7,4.6,10.2,10.2,10.2h0v-20.8c0-5.7-4.6-10.2-10.2-10.2Z"/>
    </g>
    <g>
      <path class="cls-24" d="M221,301c0,13.8-11.2,25-25,25s-25-11.2-25-25,11.2-25,25-25c13.8,0,25,11.2,25,25Z"/>
      <path class="cls-4" d="M196,276v50c-13.8,0-25-11.2-25-25s11.2-25,25-25Z"/>
      <circle class="cls-29" cx="196" cy="301" r="9.4"/>
    </g>
    <g>
      <circle class="cls-14" cx="186.9" cy="189.9" r="15.2"/>
      <circle class="cls-24" cx="186.9" cy="189.9" r="8.3"/>
    </g>
    <g>
      <circle class="cls-24" cx="308.2" cy="121" r="15.2"/>
      <path class="cls-4" d="M308.2,105.8v30.4c-8.4,0-15.2-6.8-15.2-15.2s6.8-15.2,15.2-15.2Z"/>
      <circle class="cls-14" cx="308.2" cy="121" r="8.3"/>
    </g>
    <g>
      <circle class="cls-5" cx="370.1" cy="38.3" r="28.1"/>
      <circle class="cls-14" cx="370.1" cy="38.3" r="20.4"/>
      <circle class="cls-24" cx="370.1" cy="38.3" r="11.1"/>
    </g>
    <g>
      <path class="cls-16" d="M420.1,28h20.8c5.7,0,10.2,4.6,10.2,10.2h-20.8c-5.7,0-10.2-4.6-10.2-10.2Z"/>
      <path class="cls-6" d="M438.7,38.3h20.8c5.7,0,10.2,4.6,10.2,10.2h-20.8c-5.7,0-10.2-4.6-10.2-10.2Z"/>
    </g>
    <g>
      <path class="cls-16" d="M137.4,239.8h20.8c5.7,0,10.2,4.6,10.2,10.2h-20.8c-5.7,0-10.2-4.6-10.2-10.2Z"/>
      <path class="cls-6" d="M155.9,250h20.8c5.7,0,10.2,4.6,10.2,10.2h-20.8c-5.7,0-10.2-4.6-10.2-10.2Z"/>
    </g>
    <g>
      <path class="cls-16" d="M109.7,16.9h20.8c5.7,0,10.2,4.6,10.2,10.2h-20.8c-5.7,0-10.2-4.6-10.2-10.2Z"/>
      <path class="cls-6" d="M128.2,27.2h20.8c5.7,0,10.2,4.6,10.2,10.2h-20.8c-5.7,0-10.2-4.6-10.2-10.2Z"/>
    </g>
    <g>
      <path class="cls-4" d="M467.1,260h-20.8c-5.7,0-10.2,4.6-10.2,10.2h20.8c5.7,0,10.2-4.6,10.2-10.2Z"/>
      <path class="cls-15" d="M448.6,270.2h-20.8c-5.7,0-10.2,4.6-10.2,10.2h20.8c5.7,0,10.2-4.6,10.2-10.2Z"/>
    </g>
    <g>
      <path class="cls-32" d="M438.7,296.9h-20.8c-5.7,0-10.2,4.6-10.2,10.2h20.8c5.7,0,10.2-4.6,10.2-10.2Z"/>
      <path class="cls-26" d="M420.1,307.1h-20.8c-5.7,0-10.2,4.6-10.2,10.2h20.8c5.7,0,10.2-4.6,10.2-10.2Z"/>
    </g>
  </g>
  <g>
    <ellipse class="cls-22" cx="379.2" cy="521" rx="68.9" ry="11.1"/>
    <g>
      <circle class="cls-10" cx="426" cy="493.2" r="19.8"/>
      <path class="cls-18" d="M426,515.1c-12.1,0-21.9-9.8-21.9-21.9s9.8-21.9,21.9-21.9,21.9,9.8,21.9,21.9-9.8,21.9-21.9,21.9ZM426,475.6c-9.7,0-17.7,7.9-17.7,17.7s7.9,17.7,17.7,17.7,17.7-7.9,17.7-17.7-7.9-17.7-17.7-17.7Z"/>
    </g>
    <g>
      <path class="cls-2" d="M469.9,237.1h-.8l-35.1-9.3c-4.2-1.1-8.7,1.4-9.8,5.8-2.4,9-4.6,18-7,27.1h0l-1.3,4.9h0l-9.5,36.6c-1.3,4.8,1.7,9.7,6.5,10.9l12.8,3.4c4.8,1.3,9.7-1.7,10.9-6.5l3.6-13.9c1.7-6.5,8.1-10.2,14.6-8.6l1.1.3c13.9,3.8,28.5-4.5,32.3-18.4s-4.5-28.5-18.4-32.3h0,0ZM477.6,267c-2.4,8.1-10.9,12.9-19.2,10.4l-7-1.8c-9-2.4-18.1,3.1-20.3,11.9l-4.1,15.6c-.3,1.3-1.7,2.1-2.9,1.7l-4.3-1.1c-1.3-.3-2.1-1.7-1.7-2.9l8.4-32.5h0l1-3.8.6-2h0c1.5-6,3.2-12.2,4.8-18.2.7-2.8,3.5-4.5,6.3-3.6l27.2,7c.3,0,.7,0,1,.3,8.1,2.4,12.9,10.9,10.4,19.2l-.2-.2Z"/>
      <path class="cls-18" d="M427.9,318.9c-.9,0-1.9,0-2.8-.4l-12.8-3.4c-2.9-.8-5.3-2.6-6.8-5.1-1.5-2.6-1.9-5.5-1.2-8.4l10.8-41.5c1-3.9,2-7.7,3-11.5,1.3-5.2,2.7-10.4,4-15.6.7-2.6,2.3-4.8,4.7-6.2s5.1-1.8,7.7-1.1l34.8,9.2h2.7v.7c6.5,2.2,11.9,6.7,15.4,12.8,3.8,6.6,4.7,14.2,2.8,21.5-4.1,15.1-19.7,24-34.8,19.8l-1.1-.3c-5.4-1.4-10.6,1.7-12,7l-3.6,13.9c-1.3,5-5.8,8.3-10.7,8.3v.3ZM432,229.7c-1,0-2.1.3-3,.8-1.4.8-2.4,2.1-2.7,3.6-1.4,5.2-2.7,10.4-4,15.6-1,3.8-2,7.6-3,11.5l-1.3,4.9-9.5,36.6c-.5,1.8-.2,3.6.7,5.2s2.4,2.7,4.2,3.2l12.8,3.4c3.6,1,7.4-1.3,8.4-5l3.6-13.9c2-7.6,9.5-12,17.2-10.1l1.1.3c12.9,3.5,26.2-4.1,29.7-16.9,1.7-6.2.8-12.7-2.4-18.3-3.2-5.6-8.4-9.7-14.5-11.4h-.7c0-.1-35.1-9.4-35.1-9.4-.5-.1-1-.2-1.5-.2h0ZM424.7,307c-.4,0-.9,0-1.3-.2l-4.3-1.1c-1.1-.2-2.2-1-2.8-2.1s-.7-2.3-.4-3.4l10-38.3c.8-3,1.6-6,2.4-9,.8-3.1,1.6-6.1,2.4-9.1.5-1.9,1.7-3.6,3.4-4.5,1.7-1,3.7-1.2,5.5-.6l26.9,6.9c.4,0,1,0,1.7.5,4.4,1.4,7.9,4.3,10.1,8.4,2.2,4.1,2.7,8.9,1.3,13.4-1.3,4.5-4.3,8.2-8.5,10.5-4.1,2.2-8.9,2.7-13.4,1.3l-6.9-1.8c-3.8-1-7.7-.5-11.1,1.5-3.4,2-5.7,5.1-6.7,8.9l-4.1,15.6c-.2,1.1-1,2.2-2.1,2.8-.7.4-1.4.6-2.2.6v-.3ZM437.6,242.4c-.5,0-1,.1-1.4.4-.7.4-1.2,1.1-1.4,1.9-.8,3-1.6,6.1-2.4,9.2-.8,3-1.6,6.1-2.4,9.1l-.6,2-9.4,36.4c0,.2.1.2.1.2l4.6,1.2c.2,0,.2,0,.2,0l4.1-15.6c1.2-4.8,4.3-8.9,8.6-11.5s9.4-3.2,14.3-2l7,1.8c3.5,1.1,7.1.7,10.2-1s5.4-4.5,6.4-8h0c1-3.4.7-7-1-10.2-1.7-3.1-4.5-5.4-8-6.4l-.9-.3-27.2-7c-.3,0-.6-.1-.9-.1h0Z"/>
    </g>
    <g>
      <path class="cls-10" d="M416.9,419.5l-3.2,2.8h-84l-3.5-2.8-27.5,33.2c-1.4,1.7-1.1,4.2.6,5.6l10.2,8.4c1.4,1.1,3.4,1,4.6-.4l12.5-15v65.2c0,1.8,1.5,3.4,3.4,3.4h19.5c2.1,0,3.9-1.7,3.9-3.9v-20.6h38.7v21.2c0,1.8,1.5,3.4,3.4,3.4h19.5c2.1,0,3.9-1.7,3.9-3.9v-61.9l9.8,11.8c1.5,1.7,4.1,2,6,.6l9.8-8.1c1.5-1.3,1.7-3.4.6-4.9l-28.3-33.8h.1v-.3Z"/>
      <path class="cls-18" d="M414.9,522h-19.5c-3,0-5.5-2.5-5.5-5.5v-19.1h-34.5v18.5c0,3.3-2.7,6-6,6h-19.5c-3,0-5.5-2.5-5.5-5.5v-59.4l-8.8,10.5c-2,2.3-5.3,2.6-7.6.7l-10.3-8.4c-2.6-2.2-3-6-.8-8.6l28.8-34.8,4.5,3.6h82.5l.9-.8-1.6-1.9h3.7l3.1-2.7v4.2l27.8,33.2c1.8,2.5,1.4,5.8-.9,7.8l-9.9,8.2c-2.8,2-6.5,1.6-8.8-.9l-6.2-7.4v56c0,3.3-2.7,6-6,6v.3ZM351.3,493.2h42.9v23.3c0,.7.6,1.3,1.3,1.3h19.5c.9,0,1.8-.7,1.8-1.8v-67.7l13.5,16.2c.8.8,2.1,1,3.1.2l9.8-8.1c.7-.6.6-1.4.2-2l-26.9-32.1-2.1,1.8h-85.5l-2.5-2-26.2,31.6c-.3.4-.5.9-.4,1.4,0,.5.3,1,.7,1.3l10.2,8.4c.5.4,1.2.3,1.7-.2l16.1-19.4v71c0,.7.6,1.3,1.3,1.3h19.5c.9,0,1.8-.7,1.8-1.8v-22.7h.2Z"/>
    </g>
    <path class="cls-31" d="M413.4,429.6h-83c-1.5,0-2.8-1.3-2.8-2.8s1.3-2.8,2.8-2.8h83c1.5,0,2.8,1.3,2.8,2.8s-1.3,2.8-2.8,2.8Z"/>
    <g>
      <path class="cls-13" d="M338.8,314.6l-4.6-24.3c-2-10.4-12.1-17.3-22.4-15.3l-7.3,1.4c-1.4.3-2.9.6-4.6.8-7.9,1.1-18.1,1.1-22-8.8-.6-1.5-1-3.4-1.3-5.5-.3-2-.3-3.8-.3-5.2,1.1-11.9,13.9-14.3,21.7-15.8l23.1-4.3c1.7-.3,2.8-2,2.4-3.6l-.7-3.6c-.3-1.8-2.1-2.9-3.8-2.7l-23.7,4.5c-11.9,2.2-18.8,5-24.4,10.7-5.6,5.6-6.9,10.4-7.2,16.6h0v.7h0c0,2.2.1,3.9.3,5,.3,1.5.4,2.2.6,2.9.3,1.1.7,2.1,1,2.8,6,18,24.5,17.7,36.2,16,2.2-.3,4.3-.7,5.9-1l1.8-.3c.8,0,1.7-.3,2.7,0,5,.3,9.3,3.9,10.1,8.8l4.2,22.4c.4,2.1,2.4,3.5,4.5,3.1l4.8-.8c2.1-.4,3.5-2.4,3.1-4.5h-.1Z"/>
      <path class="cls-18" d="M330.2,322.1c-1.2,0-2.3-.4-3.3-1.1-1.3-.9-2.2-2.2-2.5-3.8l-4.2-22.5c-.7-4-4-6.9-8.1-7.1h-.5c-.3-.2-.5,0-1,0h-.9l-2.5.4c-1.4.3-3.2.6-5.2.8-20.6,3-33.6-2.9-38.4-17.4h0c-.3-.9-.7-1.8-1-3-.2-.8-.3-1.5-.6-3.1-.2-1.2-.3-3-.3-5.4v-.7c.3-6.7,1.7-12,7.8-18s12.7-8.8,25.5-11.2l23.7-4.5c1.5-.2,3,.1,4.1,1,1.2.8,1.9,2.1,2.1,3.4l.7,3.6c.3,1.3,0,2.7-.7,3.9-.8,1.2-2,2-3.4,2.2l-23.3,4.4c-7.5,1.5-18.8,3.7-19.8,13.8,0,1.4,0,3,.3,4.8.3,2,.7,3.7,1.2,5,2.7,6.7,8.7,9,19.7,7.5,1.6-.3,3.1-.5,4.5-.8l7.3-1.4c11.5-2.2,22.7,5.4,24.9,17l4.6,24.3c.3,1.6,0,3.2-.9,4.5s-2.2,2.2-3.8,2.5l-4.8.9c-.4,0-.7,0-1.1,0h-.1ZM312.5,283.4c6,.4,10.8,4.7,11.8,10.6l4.2,22.4c0,.5.4.9.7,1.1.3.2.7.4,1.3.3l4.8-.9c.9-.2,1.6-1.1,1.4-2h0l-4.6-24.3c-.8-4.5-3.4-8.3-7.2-10.9s-8.3-3.5-12.8-2.7l-7.3,1.4c-1.4.3-3,.6-4.7.9-4.8.7-19.2,2.8-24.3-10.1-.6-1.7-1.1-3.7-1.4-6-.3-2.1-.3-4-.3-5.5v-.2c1.3-13.4,15-16.1,23.2-17.7h.2l23.2-4.4c.4,0,.5-.3.6-.4,0-.1.2-.4.1-.7l-.7-3.8c0-.4-.3-.6-.4-.8-.3-.2-.6-.3-.9-.2l-23.7,4.5c-11.9,2.2-18.2,5-23.3,10.1-5.2,5.2-6.3,9.3-6.5,15.2v.6c0,2.2.1,3.8.3,4.8.3,1.4.4,2.1.5,2.8.2.7.5,1.5.8,2.2v.3c4.3,12.4,15.7,17.3,34,14.7,1.8-.2,3.6-.6,4.9-.8l3.1-.5h.6c.6,0,1.4-.2,2.4,0h0Z"/>
    </g>
    <g>
      <path class="cls-10" d="M428.5,302.2h-101.4c-10,0-18.1,8.1-18.1,18.1v42.7h-15.6c-7.4,0-13.5,6-13.5,13.5v32.5c0,7.4,6,13.5,13.5,13.5h140c8,0,14.4-6.5,14.4-14.4v-86.7c0-10.7-8.6-19.2-19.2-19.2h-.1,0Z"/>
      <path class="cls-18" d="M433.5,424.5h-140c-8.6,0-15.6-7-15.6-15.6v-32.5c0-8.6,7-15.6,15.6-15.6h13.5v-40.5c0-11.1,9.1-20.2,20.2-20.2h99.3c0,0,2.1,0,2.1,0,11.9,0,21.5,9.6,21.5,21.3v86.7c0,9.1-7.4,16.6-16.6,16.6h0ZM293.5,365.1c-6.3,0-11.4,5.1-11.4,11.4v32.5c0,6.3,5.1,11.4,11.4,11.4h140c6.8,0,12.3-5.5,12.3-12.3v-86.7c0-9-7-16.4-15.8-17.1h-102.8c-8.8,0-16,7.2-16,16v44.8h-17.7Z"/>
    </g>
    <g>
      <ellipse class="cls-28" cx="391.1" cy="351.7" rx="22" ry="29.6"/>
      <path class="cls-18" d="M391.1,383.4c-13.3,0-24.1-14.2-24.1-31.7s10.8-31.7,24.1-31.7,24.1,14.2,24.1,31.7-10.8,31.7-24.1,31.7ZM391.1,324.2c-11,0-19.9,12.3-19.9,27.5s8.9,27.5,19.9,27.5,19.9-12.3,19.9-27.5-8.9-27.5-19.9-27.5Z"/>
    </g>
    <g>
      <ellipse class="cls-28" cx="339.9" cy="351.2" rx="22" ry="29"/>
      <path class="cls-18" d="M339.9,382.3c-13.3,0-24.1-14-24.1-31.1s10.8-31.1,24.1-31.1,24.1,14,24.1,31.1-10.8,31.1-24.1,31.1ZM339.9,324.2c-11,0-19.9,12.1-19.9,26.9s8.9,26.9,19.9,26.9,19.9-12.1,19.9-26.9-8.9-26.9-19.9-26.9Z"/>
    </g>
    <ellipse class="cls-11" cx="280.7" cy="366.7" rx="8.7" ry="10.9"/>
    <g>
      <ellipse class="cls-1" cx="276.6" cy="363.1" rx="12.8" ry="15"/>
      <path class="cls-1" d="M276.6,379.5c-7.8,0-14.2-7.4-14.2-16.4s6.4-16.4,14.2-16.4,14.2,7.4,14.2,16.4-6.4,16.4-14.2,16.4ZM276.6,349.5c-6.3,0-11.4,6.1-11.4,13.6s5.1,13.6,11.4,13.6,11.4-6.1,11.4-13.6-5.1-13.6-11.4-13.6Z"/>
    </g>
    <ellipse class="cls-18" cx="345.3" cy="339.7" rx="13.3" ry="16.8"/>
    <circle class="cls-28" cx="273.1" cy="357.9" r="3.8"/>
    <path class="cls-3" d="M277.3,375.3c-.9,0-1.7-.6-2-1.4-.4-1.1.2-2.3,1.3-2.7.6-.2,2.5-1,4-2.9,1.5-2.1,1.5-4.2,1.5-4.9,0-1.2.9-2.1,2.1-2.1s2.1.9,2.1,2.1c0,2.8-.8,5.3-2.4,7.4-2.2,2.9-5,4-6.1,4.4-.2,0-.4.1-.7.1h.2Z"/>
    <ellipse class="cls-18" cx="395.8" cy="339.7" rx="13.5" ry="16.8"/>
    <path class="cls-31" d="M389.6,491.8h-35.3c-1.5,0-2.8-1.3-2.8-2.8s1.3-2.8,2.8-2.8h35.3c1.5,0,2.8,1.3,2.8,2.8s-1.3,2.8-2.8,2.8Z"/>
  </g>
</svg>