<?xml version="1.0" encoding="utf-8"?>
<!-- Generator: Adobe Illustrator 28.3.0, SVG Export Plug-In . SVG Version: 6.00 Build 0)  -->
<svg version="1.1" id="_レイヤー_1" xmlns="http://www.w3.org/2000/svg" xmlns:xlink="http://www.w3.org/1999/xlink" x="0px"
	 y="0px" viewBox="0 0 994.1 117.2" style="enable-background:new 0 0 994.1 117.2;" xml:space="preserve">
<style type="text/css">
	.st0{fill:#FACF59;}
	.st1{fill:#62A0CB;}
	.st2{fill:#E4E4E4;}
	.st3{fill:#EDEDED;}
	.st4{fill:#ACCDE3;}
	.st5{fill:#D5E5F0;}
	.st6{fill:#F8BB12;}
	.st7{fill:#1E79B5;}
	.st8{fill:#63A1CA;}
</style>
<g>
	<path d="M141.6,100.1V21.7h27.3c18.4,0,32.5,13.8,32.5,30.8c0,20.2-13.4,34-34.1,34h-9.4v13.6H141.6L141.6,100.1z M166.8,71.8
		c11.6,0,18.1-7,18.1-18.1c0-9.6-5.7-17.3-17.1-17.3H158v35.4H166.8L166.8,71.8z"/>
	<path d="M209.4,60.9c0-22.4,18.1-40.6,40.6-40.6s40.7,18.1,40.7,40.6s-18.1,40.7-40.6,40.7S209.4,83.2,209.4,60.9z M226.1,60.9
		c0,13.9,10.4,25,23.9,25s23.8-10.9,23.8-25s-10.7-25-23.9-25C236.7,35.9,226.1,47,226.1,60.9z"/>
	<path d="M318.5,86.5v13.6h-16.3V21.7h27.3c18.4,0,32.5,13.8,32.5,30.8c0,14.1-6.7,24.4-17.7,29.4l17,18.1h-21.7l-12.8-13.6
		C326.7,86.5,318.5,86.5,318.5,86.5z M327.5,71.8c11.6,0,18.1-7,18.1-18.1c0-9.6-5.7-17.3-17.1-17.3h-9.8v35.4H327.5L327.5,71.8z"/>
	<path d="M387.2,100.1V36.5h-19.3V21.7h56.3v14.8h-20.6v63.6C403.5,100.1,387.2,100.1,387.2,100.1z"/>
	<path d="M449.9,100.1h-16.3V21.7h16.3V100.1z"/>
	<path d="M516.6,89.6h-38l-5,10.5h-16.9L498,20.3l41.5,79.8h-17.8L516.6,89.6L516.6,89.6z M485.6,74.8h23.8l-12-24.4L485.6,74.8z"/>
	<path d="M679.7,21.7h17l-39.9,79.8l-17.2-32.3l-16.1,32.2l-41.8-79.8h18.8l23.8,45.9l7.4-14.2L615,21.6h18.8l23.8,45.9L679.7,21.7
		L679.7,21.7z"/>
	<path d="M699.3,60.9c0-22.4,18.1-40.6,40.6-40.6s40.7,18.1,40.7,40.6s-18.1,40.7-40.6,40.7C717.5,101.4,699.3,83.2,699.3,60.9z
		 M716,60.9c0,13.9,10.4,25,23.9,25s23.8-10.9,23.8-25s-10.7-25-23.9-25S716,47,716,60.9z"/>
	<path d="M808.4,86.5v13.6h-16.3V21.7h27.2c18.4,0,32.5,13.8,32.5,30.8c0,14.1-6.7,24.4-17.7,29.4l17,18.1h-21.7l-12.8-13.6
		L808.4,86.5L808.4,86.5z M817.3,71.8c11.6,0,18.1-7,18.1-18.1c0-9.6-5.7-17.3-17.1-17.3h-9.8v35.4H817.3L817.3,71.8z"/>
	<path d="M879.4,58.7l37-37h21.8l-38.6,38.6l39.7,39.9h-22L888,70.8l-8.8,8.8v20.7H863V21.7h16.3L879.4,58.7L879.4,58.7z"/>
	<path d="M942.8,42.9c0-13.2,12.2-22.6,23.1-22.6c7.7,0,15.1,2.9,21.2,10.1l-12.8,9.4c-2.1-2.2-5.6-3.9-8.3-3.9
		c-4.3,0-7.3,2.6-7.3,6.9c0,3.6,2.6,6.8,10.9,7.4C983,51,994.1,60,994.1,75.3s-12.8,26.3-26.5,26.3c-8.9,0-17.9-3.3-25.3-11.5
		l13.5-9.8c3.6,4.6,7.3,5.7,11.8,5.7c5.4,0,9.6-4.3,9.6-9.4c0-6.3-4.2-10.2-11.8-11C951.6,63.8,942.8,55.2,942.8,42.9L942.8,42.9z"
		/>
</g>
<path class="st0" d="M68.7,24.5c2.2,0.3,4.3,0.7,6.4,1.5c9,3.8,14.3,10.6,16.4,20c0.1,0.6,0,1.3,0.4,1.8v6.7
	c-0.4,0.6-0.4,1.3-0.5,1.9c-1.9,8.2-6.7,14-14.6,17.1c-1.5,0.6-2.9,1.2-4.4,1.8c-0.1-0.6,0.4-0.7,0.8-0.9c5.9-4.2,9.1-9.9,9.8-17.1
	c0.9-8.7-2-16-8.1-22.1c-3.7-3.7-8.3-6-13.6-6.7c-0.3,0-0.7,0-0.9-0.4c0-0.4,0.3-0.5,0.6-0.7c2.3-1,4.6-2,7-3
	C68.2,24.5,68.4,24.4,68.7,24.5L68.7,24.5z"/>
<path class="st1" d="M68.7,24.5c-2.4,1.1-4.9,2.1-7.3,3.2c-0.3,0.1-0.6,0.3-0.8,0.4s-0.3,0.1-0.5,0c-0.7-2.1-1.3-4.3-2.2-6.3
	c-2.8-6-7.3-10.3-13.3-13.1c-4.4-2-9.1-2.9-13.8-3.3C25.9,5,20.9,4.8,16,4.5C11.7,4.4,7.5,4.1,3.3,4C3,4,2.6,4,2.4,3.7
	c2.4-1.1,4.8-2.1,7.2-3.2c0.3-0.1,0.6-0.2,0.8-0.5h2.8c0.4,0.2,0.9,0.1,1.4,0.1c0.4,0,0.7-0.1,1,0.1C21.8,0.5,28,0.8,34.2,1.1
	c5.1,0.3,10.2,0.7,15,2.2C59.8,6.7,66.3,13.8,68.7,24.5L68.7,24.5z"/>
<path class="st2" d="M57.1,94.6c0.3,1.4,0.1,2.9,0.2,4.3c0,0.7,0.2,1.1,0.7,1.6c2.8,2.7,3.5,6.4,0.8,9.5c-1.9,2.2-4.2,3.5-6.8,4.6
	c-3.6,1.4-7.3,2.3-11.1,2.4c-0.5,0.3-1.2-0.1-1.7,0.2h-4.5c-0.5-0.3-1.2,0.1-1.7-0.2c-5.9-0.4-11.4-1.7-16.3-5.2
	c-1.3-0.9-2.5-2.1-3.1-3.7c-1.3-3.2-0.2-5.5,2.1-7.8c1.5-1.4,3.3-2.3,5.1-3.2c0.4,0.4,0.3,0.8,0.3,1.3c0,1.3-0.1,2.5,0.1,3.8
	c0.5,3.9,3,7.8,8.7,8c3.3,0.1,6.6,0.3,9.8,0.5c2.1,0.1,4-0.2,5.8-1.2c2.5-0.9,5-1.9,7.3-3.1c2.6-1.3,4-3.6,4-6.5c0-1.3,0-2.6,0-3.9
	C56.7,95.3,56.7,94.9,57.1,94.6L57.1,94.6z"/>
<path class="st3" d="M32.7,116.9c0.6,0.1,1.2-0.2,1.7,0.2h-1.7C32.8,117,32.8,117,32.7,116.9L32.7,116.9z"/>
<path class="st3" d="M39,117.1c0.5-0.4,1.2-0.1,1.7-0.2c0,0.1,0,0.1,0,0.2H39L39,117.1z"/>
<path class="st4" d="M14.5,0.2c-0.4,0-0.9,0.2-1.3-0.2h1.3C14.6,0,14.6,0.1,14.5,0.2C14.6,0.2,14.6,0.2,14.5,0.2L14.5,0.2z"/>
<path class="st5" d="M14.5,0.2c0-0.1,0-0.1,0-0.2h1.1c0,0.1,0,0.1,0,0.2C15.3,0.2,14.9,0.2,14.5,0.2z"/>
<path class="st6" d="M45.5,109.5c-1.7,1-3.5,1.5-5.5,1.3c-3.8-0.3-7.6-0.4-11.4-0.7c-4-0.3-7.1-3.3-7.8-7.3c-0.3-2-0.1-4-0.2-5.9
	c0-1.8,0-3.5,0-5.3c-0.5-1.6-0.4-3.2-0.5-4.8c-0.1-3.2-0.1-6.3,0-9.5c0.1-5.2-0.3-10.4-0.2-15.7c0-0.6-0.1-1.2,0.2-1.8
	c0.4-0.4,0.9-0.5,1.5-0.5c2.6-0.1,5.2,0.3,7.8,0.2c0.2,0,0.4,0.1,0.6,0.2c0.5,1,0.4,2.1,0.5,3.2c0.1,0.7,0,1.4,0,2.2
	c-0.2,10.5,0.3,21,0.2,31.4c0,0.7,0,1.3,0.3,1.9s0.7,1,1.4,1.1c1.3,0.3,2.7,0.4,4,0.2c1.5-0.2,2-0.8,2.1-2.3
	c0.1-1.8-0.1-3.6-0.2-5.4c-0.1-3.5,0-6.9,0-10.4c0-0.9,0.2-1.7,0.4-2.6c1.2-5.4,4.4-9.1,9.5-11.2c2.1-0.9,4.3-1.7,6.4-2.7
	c3.3-1.7,6.8-1.7,10.4-1.4c1.3,0.1,2.6,0.1,3.9,0.1c0.6,0,1-0.2,1.3-0.7c1.9-2.5,3-5.2,3.1-8.4c0.2-4.4-1.3-8.1-4.1-11.3
	c-0.6-0.6-1.2-1.1-1.8-1.7c-2.2-1.7-4.6-2.7-7.3-2.9c-3.8-0.2-7.7-0.4-11.5-0.6c-3.4-0.1-6.7-0.3-10.1-0.5c-1.3,0-2.6-0.3-4-0.2
	c-2.6,0.1-4.2,1.6-4.2,4.2c0,2.1,0,4.2,0,6.4c0,0.5,0,1-0.1,1.5c0,0.1-0.1,0.2-0.2,0.3c-0.2,0.1-0.5,0.2-0.7,0.2
	c-2.8-0.2-5.7-0.2-8.5-0.5c-0.2,0-0.3-0.1-0.5-0.2c-0.4-0.9-0.4-1.8-0.1-2.7c0-4.4,0-8.8,0-13.2c0-3.4,1.9-6,5.2-7
	c2.2-1,4.6-0.3,6.8-0.2c1.9,0,3.7,0.2,5.6,0.3c3.5,0.2,7,0.5,10.6,0.5c2.1,0.3,4.3,0.3,6.5,0.4c1.5,0.1,3,0.3,4.5,0.3
	c0.4,0,0.7,0.2,1,0.3c0.1,0,0.3,0,0.4,0c1.3,0.4,2.7,0.5,4,0.8c4.9,1.4,8.9,4,12.3,7.9c3.2,3.7,5.2,7.8,6.2,12.5
	c1.1,5.3,0.6,10.5-1.5,15.5c-1.8,4.2-4.6,7.7-8.6,10.1C73,75,73,75.1,72.8,75.3c-4.1,2.1-8.3,3.3-13,2.9c-0.4,0.2-0.7,0.3-1.2,0.3
	c-4.6,0.1-8.5,3.6-9.4,8.5c-0.3,1.6-0.2,3.3-0.2,4.9c0.2,4,0.2,7.9,0,11.9C48.7,106.2,47.6,108.2,45.5,109.5L45.5,109.5z"/>
<path class="st7" d="M20.2,49.4c3.2,0.2,6.5,0.3,9.7,0.5c1.1-0.4,2.3-0.4,3.5-0.5c3.9-0.2,7.7-1.1,10.8-3.7c1.9-1.7,3.1-3.8,3.8-6.3
	c0.1-0.5,0.2-0.9,0.6-1.3c1.2-0.2,2.3,0,3.5,0.1c2.8,0.1,5.5,0.3,8.3,0.5c0.6,0.4,0.5,0.9,0.4,1.5c-1,6.3-3.8,11.5-9.2,15.1
	c-0.2,0.2-0.5,0.3-0.7,0.5c-3.9,2.2-8,3.4-12.4,4c-2.4,0.3-4.8,0.5-7.2,0.5c-0.4,0-0.9,0-1.2-0.2c-2.5-0.1-5.1-0.2-7.6-0.3
	c-0.7,0-1.4,0.1-2.1,0.2c-0.3,0.3-0.6,0.5-1,0.6c-3.9,1.5-6.2,5-6.3,9.2c-0.1,5,0,9.9,0.2,14.9c0.1,2.7,0,5.4,0,8.1
	c0,1.3-0.4,2.4-1.6,3.1c-0.9,0.6-1.8,0.7-2.8,0.7c-1.2-0.1-2.4-0.2-3.7-0.2c-2.4-0.1-4.1-1.7-4.2-4.1c-0.1-1.6,0-3.2,0-4.9
	c-0.1-6.7-0.2-13.4-0.2-20c0-8.4,4.7-14.9,12.8-17.6c1.7-0.7,3.5-0.8,5.4-0.8C19.4,48.9,19.9,48.9,20.2,49.4L20.2,49.4z"/>
<path class="st7" d="M60.1,28.2c-0.6,0.3-1.1,0-1.7,0c-3.2-0.1-6.3-0.3-9.5-0.5c-0.3,0-0.6-0.1-0.8-0.2c-0.8-1.3-1.3-2.8-1.9-4.2
	c-2.1-3.5-5.3-5.5-9.1-6.7c-3.7-1.2-7.5-1.5-11.3-1.7c-7.4-0.4-14.8-0.8-22.2-1.1C1.1,13.7,0,12.4,0,10.1C0,9,0,7.9,0,6.8
	c0-1.7,0.7-2.6,2.3-3.2c4,0.2,8.1,0.3,12.1,0.5c3.9,0.2,7.8,0.4,11.7,0.6c5.5,0.4,11,0.8,16.2,2.8c6.4,2.4,11.5,6.4,14.8,12.4
	C58.6,22.6,59.6,25.3,60.1,28.2L60.1,28.2z"/>
<path class="st1" d="M11.5,95.8c1.1-1,1.4-2.2,1.3-3.6c-0.1-3.6,0.1-7.2-0.1-10.7c-0.2-3.9-0.1-7.8-0.1-11.7c0-3.8,1.6-6.8,4.8-8.9
	c0.9-0.5,1.8-0.9,2.8-1.1c0.1,9.4,0.2,18.7,0.3,28.1c0,1.2,0.1,2.4,0,3.7c-1.4,1.2-3.1,1.7-4.8,2.4C14.4,94.7,12.9,95.2,11.5,95.8
	L11.5,95.8z"/>
<path class="st0" d="M46.2,23.4c1,1.2,1.4,2.7,1.9,4.2c-3.7-0.1-7.4-0.2-11.1-0.5c-2.7-0.2-5.4-0.3-8-0.4c-1.3-0.1-2.6-0.2-3.8,0
	c2.7-1.3,5.4-2.5,8.2-3.5c2.5-0.8,5,0,7.5,0C42.6,23.1,44.4,23.3,46.2,23.4z"/>
<path class="st8" d="M20.2,49.4c-2-0.3-3.9-0.2-5.9,0.2c-0.3,0-0.6,0.1-0.9,0.1c2.1-1.1,4.3-2,6.6-2.8
	C20.1,47.7,20.1,48.5,20.2,49.4L20.2,49.4z"/>
<path class="st0" d="M45.5,109.5c0.4-0.4,0.8-0.8,1.2-1.3c1.2-1.4,1.8-3,1.9-4.8c0-3.6,0.1-7.2,0-10.8c-0.1-2.1-0.2-4.2,0.3-6.2
	c1.1-4.9,5.5-8.5,10.7-8c-1.5,1.6-2.3,3.6-2.4,5.8c-0.1,3.5,0,7,0,10.5c0,1.7,0,3.3,0,5c0,3.2-1.8,6-4.8,7.2
	C50,107.7,47.8,108.7,45.5,109.5L45.5,109.5z"/>
<path class="st0" d="M38.6,59.5c0,2,0,4,0,6c0,4.2,0.1,8.4,0.2,12.6c0,0.3-0.1,0.6,0.2,0.8c-0.7,3-0.4,6-0.4,9
	c0,3.2,0.1,6.3,0.2,9.5c0,1.9-0.8,2.7-2.7,2.8c-1.3,0.1-2.6-0.1-3.9-0.2c-1.1-0.2-1.9-1.3-1.9-2.9c0-4.4,0.1-8.9,0-13.3
	c-0.3-7-0.1-14.1-0.2-21.1c0-0.9-0.2-1.8-0.2-2.7C32.8,59.9,35.7,59.8,38.6,59.5L38.6,59.5z"/>
<path class="st0" d="M30,49.7c0-2.8,0-5.5,0-8.3c0-2.2,1.9-4,4.1-4.1c1.5-0.1,2.9,0.2,4.4,0.2c0.2,0.2,0.3,0.5,0.3,0.8
	c0,2.5,0.1,5-0.1,7.6c-0.1,0.4-0.4,0.7-0.8,0.8c-2.2,1-4.4,1.9-6.6,2.8C30.8,49.7,30.4,49.9,30,49.7L30,49.7z"/>
<path class="st1" d="M67.5,41.7c-2,5.4-5.8,9.1-11,11.4c-1.9,0.9-3.8,1.8-5.8,2.4c1.1-1,2.3-1.8,3.4-2.8c3.5-3.2,5.3-7.3,6.1-11.8
	c0.1-0.7,0.4-1.5,0-2.2C63,39,65.4,39.9,67.5,41.7L67.5,41.7z"/>
<path class="st1" d="M38.4,46.1c2,0.1,4-0.1,6-0.3C42,48,39,49,35.8,49.4c-2,0.3-3.9,0.3-5.9,0.4c0-0.1,0-0.1,0-0.2
	C32.8,48.7,35.6,47.3,38.4,46.1z"/>
</svg>
