<?xml version="1.0" encoding="UTF-8"?>
<svg id="_レイヤー_1" data-name="レイヤー 1" xmlns="http://www.w3.org/2000/svg" viewBox="0 0 900.81 569.74">
  <defs>
    <style>
      .cls-1 {
        fill: #d3c19b;
      }

      .cls-1, .cls-2, .cls-3, .cls-4, .cls-5, .cls-6, .cls-7, .cls-8, .cls-9, .cls-10, .cls-11, .cls-12, .cls-13, .cls-14, .cls-15 {
        stroke-width: 0px;
      }

      .cls-2 {
        fill: #e4e4e4;
      }

      .cls-3 {
        fill: #535350;
      }

      .cls-4 {
        fill: #2373ab;
      }

      .cls-5 {
        fill: #f7e5ac;
      }

      .cls-6 {
        fill: #d6cfa8;
      }

      .cls-7 {
        fill: #bbc2d1;
      }

      .cls-8 {
        fill: #5e6169;
      }

      .cls-9 {
        fill: #040000;
      }

      .cls-10 {
        fill: #e6b32d;
      }

      .cls-11 {
        fill: #262626;
      }

      .cls-12 {
        fill: #e0cfb4;
      }

      .cls-13 {
        fill: #fff;
      }

      .cls-14 {
        fill: #edc238;
      }

      .cls-15 {
        fill: #2c2c2c;
      }
    </style>
  </defs>
  <g>
    <ellipse class="cls-2" cx="611.06" cy="445.34" rx="68.87" ry="11.08"/>
    <g>
      <circle class="cls-12" cx="657.91" cy="417.57" r="19.78"/>
      <path class="cls-9" d="M657.91,439.45c-12.07,0-21.88-9.82-21.88-21.88s9.82-21.88,21.88-21.88,21.88,9.82,21.88,21.88-9.82,21.88-21.88,21.88ZM657.91,399.9c-9.75,0-17.67,7.93-17.67,17.67s7.93,17.67,17.67,17.67,17.67-7.93,17.67-17.67-7.93-17.67-17.67-17.67Z"/>
    </g>
    <g>
      <path class="cls-10" d="M701.81,161.46h-.84l-35.06-9.26c-4.21-1.12-8.7,1.4-9.82,5.75-2.38,8.98-4.63,17.95-7.01,27.07h0l-1.26,4.91h0l-9.54,36.61c-1.26,4.77,1.68,9.68,6.45,10.94l12.76,3.37c4.77,1.26,9.68-1.68,10.94-6.45l3.65-13.89c1.68-6.45,8.13-10.24,14.59-8.56l1.12.28c13.89,3.79,28.47-4.49,32.26-18.37,3.79-13.89-4.49-28.47-18.37-32.26h.14v-.14ZM709.52,191.34c-2.38,8.13-10.94,12.9-19.22,10.38l-7.01-1.82c-8.98-2.38-18.09,3.09-20.34,11.92l-4.07,15.57c-.28,1.26-1.68,2.1-2.95,1.68l-4.35-1.12c-1.26-.28-2.1-1.68-1.68-2.95l8.42-32.54h0l.98-3.79.56-1.96h0c1.54-6.03,3.23-12.2,4.77-18.23.7-2.81,3.51-4.49,6.31-3.65l27.21,7.01c.28,0,.7,0,.98.28,8.13,2.38,12.9,10.94,10.38,19.22Z"/>
      <path class="cls-9" d="M659.74,243.25c-.92,0-1.86-.12-2.79-.36l-12.76-3.37c-2.85-.75-5.25-2.57-6.76-5.12-1.52-2.56-1.94-5.55-1.19-8.4l10.8-41.5c1.01-3.86,1.99-7.68,2.97-11.49,1.34-5.22,2.67-10.41,4.05-15.59.67-2.61,2.34-4.81,4.69-6.19,2.36-1.38,5.09-1.76,7.7-1.06l34.79,9.19h2.67v.73c6.51,2.22,11.93,6.72,15.4,12.81,3.76,6.61,4.74,14.25,2.76,21.51-4.11,15.06-19.74,23.97-34.84,19.85l-1.08-.27c-5.37-1.39-10.65,1.7-12.04,7.05l-3.65,13.89c-1.32,5-5.83,8.32-10.72,8.32ZM663.86,154.04c-1.04,0-2.06.28-3,.82-1.38.8-2.35,2.09-2.74,3.62-1.38,5.19-2.71,10.37-4.04,15.57-.98,3.82-1.96,7.65-2.97,11.5l-1.26,4.9-9.54,36.61c-.47,1.76-.2,3.6.74,5.18.94,1.59,2.44,2.72,4.22,3.19l12.76,3.37c3.64.96,7.39-1.26,8.37-4.96l3.64-13.88c1.99-7.63,9.54-12.05,17.15-10.06l1.1.28c12.91,3.52,26.22-4.06,29.72-16.89,1.69-6.18.85-12.69-2.36-18.32-3.21-5.64-8.37-9.67-14.54-11.35l-.68-.14-35.06-9.26c-.5-.13-1-.2-1.5-.2ZM656.62,231.28c-.43,0-.85-.06-1.26-.19l-4.29-1.11c-1.13-.25-2.17-1.03-2.79-2.13-.6-1.06-.74-2.31-.39-3.44l9.96-38.28c.75-2.95,1.56-5.99,2.36-9.03.81-3.06,1.62-6.12,2.39-9.14.48-1.91,1.72-3.56,3.42-4.53,1.69-.96,3.65-1.18,5.54-.61l26.89,6.93c.41.02,1.05.1,1.65.47,4.36,1.38,7.94,4.34,10.12,8.37,2.22,4.12,2.69,8.86,1.32,13.36-1.33,4.52-4.34,8.23-8.48,10.47-4.12,2.22-8.87,2.69-13.37,1.32l-6.93-1.8c-3.77-1-7.7-.46-11.07,1.51-3.37,1.98-5.75,5.14-6.7,8.89l-4.07,15.58c-.25,1.12-1.03,2.17-2.13,2.79-.68.38-1.43.58-2.18.58ZM669.48,166.72c-.49,0-.96.12-1.38.36-.71.4-1.21,1.08-1.42,1.9-.78,3.05-1.59,6.12-2.4,9.19-.8,3.03-1.6,6.06-2.37,9.06l-.58,2.02-9.42,36.41c.08.19.13.22.14.23l4.56,1.18c.18-.07.22-.12.23-.14l4.08-15.64c1.23-4.84,4.3-8.92,8.65-11.47,4.34-2.55,9.4-3.25,14.27-1.95l7,1.82c3.5,1.07,7.1.71,10.23-.97,3.15-1.7,5.43-4.52,6.44-7.96v-.02c1.05-3.42.69-7.02-.99-10.14-1.7-3.15-4.52-5.43-7.96-6.44l-.91-.26-27.21-7.01c-.33-.1-.64-.14-.95-.14Z"/>
    </g>
    <g>
      <path class="cls-12" d="M648.79,343.8l-3.23,2.81h-84.01l-3.51-2.81-27.49,33.24c-1.4,1.68-1.12,4.21.56,5.61l10.24,8.42c1.4,1.12,3.37.98,4.63-.42l12.48-15.01v65.22c0,1.82,1.54,3.37,3.37,3.37h19.5c2.1,0,3.93-1.68,3.93-3.93v-20.62h38.71v21.18c0,1.82,1.54,3.37,3.37,3.37h19.5c2.1,0,3.93-1.68,3.93-3.93v-61.85l9.82,11.78c1.54,1.68,4.07,1.96,6.03.56l9.82-8.13c1.54-1.26,1.68-3.37.56-4.91l-28.33-33.8h.14v-.14Z"/>
      <path class="cls-9" d="M646.83,446.32h-19.49c-2.97,0-5.47-2.51-5.47-5.47v-19.07h-34.5v18.51c0,3.33-2.71,6.03-6.03,6.03h-19.49c-2.97,0-5.47-2.51-5.47-5.47v-59.4l-8.76,10.53c-2.04,2.27-5.27,2.55-7.56.72l-10.26-8.43c-2.61-2.17-2.98-6.02-.84-8.58l28.8-34.83,4.55,3.64h82.49l.92-.8-1.56-1.86h3.7l3.05-2.65v4.16l27.79,33.16c1.82,2.51,1.42,5.85-.93,7.77l-9.93,8.22c-2.81,2.01-6.51,1.65-8.81-.85l-6.16-7.39v56.04c0,3.33-2.71,6.03-6.03,6.03ZM583.15,417.57h42.92v23.28c0,.66.6,1.26,1.26,1.26h19.49c.88,0,1.82-.7,1.82-1.82v-67.67l13.54,16.25c.77.84,2.08.96,3.14.23l9.75-8.08c.71-.58.62-1.43.23-2l-26.91-32.1-2.05,1.79h-85.54l-2.47-1.97-26.17,31.65c-.32.38-.46.86-.41,1.35.05.51.3.97.69,1.3l10.23,8.41c.53.42,1.23.35,1.73-.2l16.15-19.42v71.04c0,.66.6,1.26,1.26,1.26h19.49c.88,0,1.82-.7,1.82-1.82v-22.72Z"/>
    </g>
    <path class="cls-1" d="M645.28,353.89h-83.03c-1.55,0-2.81-1.26-2.81-2.81s1.26-2.81,2.81-2.81h83.03c1.55,0,2.81,1.26,2.81,2.81s-1.26,2.81-2.81,2.81Z"/>
    <g>
      <path class="cls-4" d="M570.67,238.88l-4.63-24.26c-1.96-10.38-12.06-17.25-22.44-15.29l-7.29,1.4c-1.4.28-2.95.56-4.63.84-7.85,1.12-18.09,1.12-22.02-8.84-.56-1.54-.98-3.37-1.26-5.47-.28-1.96-.28-3.79-.28-5.19,1.12-11.92,13.89-14.31,21.74-15.85l23.14-4.35c1.68-.28,2.81-1.96,2.38-3.65l-.7-3.65c-.28-1.82-2.1-2.95-3.79-2.66l-23.7,4.49c-11.92,2.24-18.79,5.05-24.4,10.66-5.61,5.61-6.87,10.38-7.15,16.55h0v.7h0c0,2.24.14,3.93.28,5.05.28,1.54.42,2.24.56,2.95.28,1.12.7,2.1.98,2.81,6.03,17.95,24.54,17.67,36.19,15.99,2.24-.28,4.35-.7,5.89-.98l1.82-.28c.84,0,1.68-.28,2.66,0,5.05.28,9.26,3.93,10.1,8.84l4.21,22.44c.42,2.1,2.38,3.51,4.49,3.09l4.77-.84c2.1-.42,3.51-2.38,3.09-4.49Z"/>
      <path class="cls-9" d="M562.06,246.4c-1.17,0-2.32-.36-3.32-1.05-1.28-.89-2.16-2.24-2.48-3.81l-4.21-22.47c-.68-3.98-4.03-6.9-8.15-7.12l-.46-.08c-.25-.07-.54-.05-1.03,0-.3.03-.59.06-.88.07l-2.48.41c-1.44.27-3.24.6-5.15.84-20.62,2.99-33.56-2.87-38.44-17.41l-.06-.14c-.29-.71-.68-1.69-.97-2.83-.16-.81-.31-1.52-.59-3.08-.15-1.19-.32-2.99-.32-5.43v-.7c.3-6.68,1.71-11.97,7.77-18.04,5.78-5.78,12.69-8.83,25.5-11.24l23.7-4.49c1.46-.24,2.95.11,4.14.97,1.15.84,1.91,2.06,2.12,3.44l.69,3.57c.32,1.25.07,2.71-.71,3.9-.78,1.18-2.01,1.99-3.4,2.22l-23.33,4.39c-7.48,1.47-18.77,3.69-19.79,13.84,0,1.35,0,3.02.26,4.79.26,1.96.65,3.65,1.16,5.05,2.65,6.72,8.75,9.05,19.75,7.47,1.61-.27,3.13-.55,4.51-.82l7.31-1.41c11.54-2.19,22.72,5.42,24.91,16.96l4.63,24.25c.31,1.57-.02,3.16-.93,4.48-.89,1.28-2.24,2.16-3.81,2.48l-4.81.85c-.37.07-.75.11-1.12.11ZM544.35,207.76c5.99.43,10.84,4.74,11.84,10.57l4.2,22.41c.09.46.36.88.75,1.15.26.18.69.37,1.26.26l4.82-.85c.94-.19,1.58-1.07,1.39-2v-.02s-4.63-24.26-4.63-24.26c-.85-4.47-3.4-8.35-7.18-10.93s-8.33-3.53-12.8-2.69l-7.29,1.4c-1.41.28-2.97.57-4.68.85-4.8.69-19.24,2.75-24.32-10.14-.63-1.73-1.09-3.72-1.39-5.96-.3-2.09-.3-4.04-.3-5.47v-.2c1.27-13.36,14.99-16.06,23.19-17.67l.25-.05,23.16-4.35c.36-.06.53-.27.61-.39.08-.12.2-.37.12-.68l-.73-3.76c-.07-.41-.28-.63-.44-.75-.27-.2-.62-.29-.93-.24l-23.66,4.48c-11.88,2.24-18.2,4.97-23.31,10.08s-6.27,9.3-6.54,15.16v.61c0,2.22.15,3.83.27,4.79.26,1.41.4,2.11.54,2.8.19.75.51,1.54.77,2.17l.11.27c4.18,12.44,15.59,17.34,33.93,14.69,1.83-.23,3.56-.55,4.95-.81l3.07-.47c.2,0,.4-.03.6-.05.62-.07,1.44-.16,2.39.06Z"/>
    </g>
    <g>
      <path class="cls-12" d="M660.43,226.54h-101.41c-9.96,0-18.09,8.13-18.09,18.09v42.64h-15.57c-7.43,0-13.46,6.03-13.46,13.46v32.54c0,7.43,6.03,13.46,13.46,13.46h139.98c7.99,0,14.45-6.45,14.45-14.45v-86.68c0-10.66-8.56-19.22-19.22-19.22h-.14v.14Z"/>
      <path class="cls-9" d="M665.34,348.84h-139.98c-8.59,0-15.57-6.98-15.57-15.57v-32.54c0-8.59,6.98-15.57,15.57-15.57h13.46v-40.53c0-11.14,9.06-20.2,20.2-20.2h99.3v-.14h2.1c11.9,0,21.46,9.56,21.46,21.32v86.68c0,9.13-7.42,16.55-16.55,16.55ZM525.36,289.38c-6.26,0-11.36,5.1-11.36,11.36v32.54c0,6.26,5.1,11.36,11.36,11.36h139.98c6.81,0,12.34-5.54,12.34-12.34v-86.68c0-9.01-7-16.42-15.85-17.07l-1.41.09h-101.41c-8.82,0-15.99,7.17-15.99,15.99v44.74h-17.67Z"/>
    </g>
    <g>
      <ellipse class="cls-13" cx="622.98" cy="276.05" rx="22.02" ry="29.59"/>
      <path class="cls-9" d="M622.98,307.75c-13.3,0-24.12-14.22-24.12-31.7s10.82-31.7,24.12-31.7,24.12,14.22,24.12,31.7-10.82,31.7-24.12,31.7ZM622.98,248.56c-10.98,0-19.92,12.33-19.92,27.49s8.93,27.49,19.92,27.49,19.92-12.33,19.92-27.49-8.93-27.49-19.92-27.49Z"/>
    </g>
    <g>
      <ellipse class="cls-13" cx="571.79" cy="275.49" rx="22.02" ry="29.03"/>
      <path class="cls-9" d="M571.79,306.63c-13.3,0-24.12-13.97-24.12-31.14s10.82-31.14,24.12-31.14,24.12,13.97,24.12,31.14-10.82,31.14-24.12,31.14ZM571.79,248.56c-10.98,0-19.92,12.08-19.92,26.93s8.93,26.93,19.92,26.93,19.92-12.08,19.92-26.93-8.93-26.93-19.92-26.93Z"/>
    </g>
    <ellipse class="cls-6" cx="512.6" cy="291.06" rx="8.7" ry="10.94"/>
    <g>
      <ellipse class="cls-3" cx="508.53" cy="287.41" rx="12.76" ry="15.01"/>
      <path class="cls-3" d="M508.53,303.82c-7.81,0-14.17-7.36-14.17-16.41s6.36-16.41,14.17-16.41,14.17,7.36,14.17,16.41-6.35,16.41-14.17,16.41ZM508.53,273.81c-6.26,0-11.36,6.1-11.36,13.61s5.1,13.6,11.36,13.6,11.36-6.1,11.36-13.6-5.1-13.61-11.36-13.61Z"/>
    </g>
    <ellipse class="cls-9" cx="564.22" cy="284.05" rx="13.32" ry="16.83"/>
    <circle class="cls-13" cx="505.03" cy="282.22" r="3.79"/>
    <path class="cls-11" d="M509.23,299.62c-.88,0-1.7-.56-2-1.44-.37-1.1.23-2.29,1.33-2.66.57-.19,2.54-.96,4.04-2.93,1.53-2.08,1.53-4.2,1.53-4.89,0-1.16.94-2.1,2.1-2.1s2.1.94,2.1,2.1c0,2.79-.8,5.28-2.38,7.42-2.19,2.87-4.98,4.03-6.08,4.4-.22.07-.45.11-.67.11Z"/>
    <ellipse class="cls-9" cx="614.71" cy="284.05" rx="13.46" ry="16.83"/>
    <path class="cls-1" d="M621.44,416.17h-35.34c-1.55,0-2.81-1.26-2.81-2.81s1.26-2.81,2.81-2.81h35.34c1.55,0,2.81,1.26,2.81,2.81s-1.26,2.81-2.81,2.81Z"/>
  </g>
  <g>
    <g>
      <g>
        <g>
          <path class="cls-13" d="M279.75,452.52l15.75,5.75c-.82-6.82-1.82-15.95-2.88-26.26-3.35,5.68-7.49,12.27-12.87,20.5Z"/>
          <path class="cls-13" d="M242.96,374.83c-6.22,2.66-11.63,6.85-15.73,12.12-5.21,6.7-8.31,15.1-8.31,24.25v17.07c7.4-17.12,15.67-35.69,24.04-53.45Z"/>
          <path class="cls-13" d="M233.59,505.08c-5.49-.87-10.44-2.89-14.67-5.74v24.28l66.21-.06c.73-3.36,1.45-6.7,2.16-9.97l-53.7-8.52Z"/>
        </g>
        <g>
          <path class="cls-14" d="M450.06,271.98c-2.48-2.27-4.91-4.41-6.89-7.23-1.12-1.6-2.08-3.42-2.75-5.53-.78-2.41-1.19-5.19-1.19-8.47v-.08s0,0,0,0c0,0,0-.02,0-.02v-.03h0c.02-7.41.98-13.17,2.38-18.1,1.4-4.94,3.21-9.02,4.86-13.12,1.1-2.74,2.15-5.49,3.01-8.57,1.15-4.1,1.98-8.8,2.17-14.83h0c.05-1.53.07-3.1.07-4.71,0-10.59-1.07-22.71-3.7-34.5-2.62-11.79-6.8-23.24-12.91-32.49-4.07-6.18-8.99-11.37-14.87-15.14h0c-2.88-1.85-5.07-2.79-6.93-3.3-1.87-.51-3.46-.6-5.31-.6-.27,0-.5-.04-.75-.12-8.7-2.89-18.33-4.5-26.91-4.5h-.18c-9.76.03-20.76,2.68-31.23,9.95-10.47,7.28-20.48,19.21-28.1,38.04-5.08,12.55-9.08,28.16-11.4,47.44-.3,2.53-.4,4.98-.4,7.36,0,4.08.29,7.98.3,11.79,0,4.09-.35,8.11-1.95,12.02-1.59,3.91-4.46,7.57-9.07,10.88-7.36,5.3-12.56,10.05-16.14,14.39-3.59,4.35-5.57,8.26-6.61,12.01-.69,2.5-.97,4.95-.97,7.45,0,4.97,1.13,10.16,2.22,15.96h0c.19,1.01.28,2.01.28,2.99,0,3.68-1.31,6.98-3.22,9.78-1.91,2.8-4.42,5.16-7.03,7.17-7.89,6.08-13.64,13.66-17.44,22.02-3.8,8.35-5.64,17.48-5.64,26.61,0,4.61.47,9.21,1.39,13.71,5.55-11.64,11.11-22.83,16.46-32.9,6.41-12.06,12.52-22.51,18-30.27,3.14-4.44,6.06-7.99,8.81-10.52,1.47-1.34,2.9-2.4,4.38-3.12.09-.04.18-.08.27-.11,4.49-1.54,8.54-2.29,12.21-2.29.1,0,.2,0,.3,0,5.75-3.16,12.1-5.48,18.56-7.25,11.31-3.11,22.95-4.57,32.04-5.8,1.27-.17,2.46.7,2.68,1.97l.16.94,3.42-.43v-40.86c-.34-.26-.69-.5-1.02-.77h0s0,0,0,0h0s0,0,0,0h0s0,0,0,0c-.55-.45-1.06-.9-1.54-1.34h0s-.16-.12-.36-.3h0c-.11-.11-.22-.22-.33-.33-1.07-1.01-2.09-2.08-3.04-3.19h0c-6.81-7.19-11.97-16.72-15.46-27.36-.38-.13-.77-.27-1.15-.43-.06-.03-.13-.04-.19-.07l-.05-.02-.05-.02h0c-.26-.11-.52-.23-.78-.36l-.03-.02-.19-.1h.01c-.14-.06-.25-.12-.33-.16h0c-.08-.04-.18-.09-.31-.16l-.03-.02-.25-.14-.06-.03h0c-.16-.09-.33-.18-.5-.29h0c-.13-.08-.23-.14-.31-.19,0,0,0,0,0,0,0,0,0,0,0,0-.12-.07-.21-.13-.29-.18h-.01s-.19-.12-.19-.12l-.03-.02c-.13-.08-.24-.16-.34-.22h.01c-.16-.1-.33-.21-.5-.33h0c-.11-.08-.22-.16-.33-.24l-.03-.02-.06-.04c-.12-.09-.24-.18-.37-.28h-.01c-.11-.09-.22-.18-.33-.27h0c-.14-.11-.27-.21-.4-.31h0l-.03-.02h0s-.02-.01-.02-.02c-.11-.09-.22-.19-.33-.28h0c-.15-.13-.29-.26-.43-.37h0c-.09-.09-.2-.18-.33-.3l-.02-.02-.17-.16h0s0,0,0,0l-.2-.19h-.01s0-.02,0-.02c-.08-.08-.19-.18-.31-.3h0s-.03-.03-.03-.03l-.19-.19h0s-.17-.17-.17-.17h-.01c-.09-.1-.18-.2-.29-.31l-.04-.05-.16-.18h0s-.19-.21-.19-.21l-.02-.02h0c-.06-.07-.15-.17-.26-.3l-.03-.03-.07-.08v.02c-.1-.13-.2-.26-.31-.39h0s0-.01,0-.01h0s-.2-.24-.2-.24l-.03-.03c-.18-.23-.36-.46-.52-.69h0s-.11-.14-.11-.14h0c-.12-.17-.19-.29-.23-.34h0c-.08-.11-.19-.26-.31-.44-.01-.02-.02-.03-.03-.05h0s-.16-.26-.16-.26v-.02s-.09-.13-.09-.13c0,0,0,0,0,0h0s0,0,0,0c-.06-.1-.14-.23-.24-.39h0c-.09-.14-.15-.26-.19-.34v-.02c-.09-.14-.18-.3-.29-.5,0,0,0,0,0,0h0c-.08-.16-.14-.29-.19-.37,0,0,0,0,0,0h0s0,0,0,0c-.08-.15-.16-.32-.25-.5h0c-.03-.07-.05-.11-.07-.17-.02-.03-.03-.07-.05-.1-.02-.04-.05-.1-.06-.14h0c-.06-.14-.14-.31-.22-.5,0,0,0,0,0,.02v-.02s0,0,0,0c-.06-.14-.1-.25-.14-.36h0s0,0,0,0c0-.01,0-.02-.01-.03h0s-.01-.04-.01-.04l-.08-.23h0s0,0,0,0h0s0,0,0,0c0,0,0,0,0,0l-.07-.2v-.03c-.06-.15-.11-.29-.15-.42,0,0,0,0,0,0h0s0,0,0,0v-.04h-.01l-.04-.14s0,0,0,0h0s0,0,0,0c-.02-.08-.06-.19-.1-.32h0c-.04-.14-.08-.28-.11-.44v-.05s-.06-.22-.06-.22l-.05-.2s0-.03,0-.04h0s0,0,0,0c-.03-.14-.06-.29-.08-.43h0s-.01-.04-.01-.06l-.04-.25h0s-.03-.19-.03-.19v-.04c-.02-.12-.04-.26-.06-.43,0,0,0,0,0,0,0,0,0,0,0,0,0-.02,0-.04,0-.06h0l-.02-.2h0s0,0,0,0l-.02-.25v-.02c0-.11-.02-.25-.03-.42h0s0-.01,0-.02c0,0,0,0,0-.02h0c0-.13,0-.24,0-.32,0-.09,0-.17,0-.23v-.02c0-.06,0-.2,0-.4h0c.01-.25.03-.44.04-.59,0-.07.01-.2.04-.4,0,0,0,0,0,0h0s0,0,0,0c.02-.2.05-.32.06-.37h0s.04-.23.04-.23v-.06s.05-.25.05-.25h0s0-.05.01-.07c.06-.27.11-.42.11-.46v-.02c.02-.07.06-.24.14-.52l.02-.07h0s0,0,0,0c.06-.19.12-.36.18-.55.53-1.59,1.16-2.89,1.95-3.94.88-1.18,1.99-2.04,3.17-2.49.79-.31,1.59-.43,2.34-.43,1.35,0,2.52.39,3.47.82.87.4,1.56.86,2.08,1.25.05.04.11.08.15.11l.14.12s.04.03.06.05c.77.13,1.56.22,2.38.24.1,0,.2,0,.31,0,.23,0,.47,0,.71-.01.34-.01.69-.04,1.04-.07.47-.04.95-.11,1.43-.19.12-.02.24-.04.36-.06.49-.09.98-.18,1.48-.3,1-.24,2.06-.56,3.14-.94h0c.31-.1.52-.17.64-.21h0c2.32-.86,4.71-1.99,7.14-3.36.9-.5,1.81-1.06,2.74-1.64h0c.48-.3.94-.58,1.38-.87h0c2.07-1.35,4.14-2.82,6.19-4.39h0c.68-.52,1.36-1.06,2.04-1.6h0c4.42-3.53,8.7-7.42,12.62-11.25,3.29-3.21,6.32-5.92,8.95-8.21,2.63-2.29,4.88-4.18,6.57-5.73,1.13-1.03,2.01-1.92,2.58-2.62.8-.98,2.21-1.16,3.24-.43.54.38,1.14.83,1.8,1.34h0c.66.51,1.38,1.08,2.14,1.7h0s.22.2.22.2c.08.07.18.16.29.27.23.21.52.48.87.82h0c.52.51,1.18,1.16,1.95,1.94h0c1.27,1.3,2.82,2.95,4.51,4.88h0c.67.78,1.37,1.59,2.08,2.45.35.43.71.87,1.07,1.32.36.45.72.91,1.08,1.38.36.47.72.95,1.09,1.43,0,0,0,0,0,0h0s0,0,0,0c0,0,0,0,0,0,0,0,0,0,0,0,0,0,0,0,0,0,.34.46.68.92,1.02,1.39.16.22.31.45.47.68.34.49.68.98,1.02,1.48.17.25.35.49.52.75h0c.32.48.63.97.94,1.46.02.03.04.06.05.08.6.95,1.18,1.92,1.74,2.91.06.1.11.2.17.3.56.99,1.09,2,1.6,3.02.02.03.03.06.05.09.04.08.08.16.12.24.2.4.39.8.57,1.21.05.1.1.21.14.31.47,1.03.9,2.07,1.29,3.13.05.12.09.25.13.37.14.4.28.8.42,1.2.05.15.1.3.15.45.15.48.3.95.43,1.43.02.09.05.18.07.27.13.46.24.92.35,1.39,0,.03.01.05.02.08.21-.09.42-.17.64-.25,0,0,0,0,0,0h0s0,0,0,0h0s0,0,0,0c.08-.03.16-.05.24-.07.68-.21,1.44-.36,2.26-.36h0s.05,0,.08,0c.27,0,.55.02.83.06.17.02.33.05.5.09.11.02.22.05.32.08.13.04.26.07.39.12h0s0,0,0,0h0s0,0,0,0h0s0,0,0,0c0,0,0,0,0,0,.38.13.75.3,1.11.51h0c.9.52,1.72,1.28,2.41,2.24h0c.21.29.4.6.59.92h0s0,0,0,0c0,0,0,0,0,0,.17.29.33.61.48.93.05.1.09.2.13.29.11.25.22.51.32.78.04.1.08.2.12.3.13.37.26.75.39,1.16l.04.16v.03s0,0,0,0c.07.26.14.52.2.79,0,0,0,0,0-.01v.02s0,0,0,0c0,.04.01.06.02.09,0,0,0,0,0,.01.02.14.04.23.04.25.03.17.07.38.1.64v.08s.02.11.02.11h0s.02.2.02.2h0s0,0,0,0h0s0,0,0,0h0s0,0,0,0h0s0,0,0,0h0s0,0,0,0c.01.15.03.34.04.58v.05c0,.17,0,.3,0,.38v.02s0,0,0,0h0s0,0,0,0c0,.06,0,.13,0,.22,0,.1,0,.21,0,.31v.1s0,.04,0,.04h0c0,.11-.01.21-.02.29h0s0,.02,0,.02h0c-.01.15-.02.33-.04.54v.05s-.03.19-.03.19h0s-.02.17-.02.17v.04s0,0,0,0h0c-.02.16-.05.33-.08.53h0c-.03.15-.06.29-.09.43,0,0,0,0,0,0v.02s0,0,0-.01c-.04.17-.07.34-.11.5h0s0,.01,0,.01v.02s0,0,0,0c-.03.12-.07.26-.11.42h0s0,0,0,0c0,0,0,0,0,0,0,0,0,0,0,0,0,.01,0,.02,0,.03-.05.16-.09.32-.14.48h0s-.04.13-.04.13h0s-.08.25-.08.25v.04s-.01,0-.01,0h0s0,0,0,0c0,0,0,0,0,0v.03s-.01,0-.01,0h0c-.06.17-.12.32-.17.46h0s-.06.17-.06.17h0s0,.02,0,.02l-.07.17s-.01.03-.02.05h0s0,0,0,0h0s0,0,0,.01c0,.02-.02.05-.03.07-.06.15-.12.28-.17.4,0,.02-.01.03-.02.04-.04.1-.1.22-.16.37h0s0,.01,0,.01l-.02.04h0s0,0,0,0c-.08.16-.15.3-.21.43,0,0,0,.02-.01.02l-.08.16h0s-.08.16-.08.16l-.03.05c-.1.18-.19.35-.28.5h0s-.08.14-.08.14h0s-.09.18-.09.18h0s-.01.02-.02.04c0,0,0,0,0,0,0,0,0,0,0,0-.12.2-.23.37-.33.53h0s-.08.15-.19.3c0,0,0,0,0,0h0s0,0,0,0c-.15.23-.3.45-.46.66h0s-.02.03-.02.03h0s-.02.03-.03.04h0s-.02.04-.04.06l-.11.15v.02c-.17.21-.33.43-.51.65h0c-.11.14-.19.23-.23.29h-.01c-.11.15-.24.31-.39.48h0c-.12.14-.22.24-.28.31h0c-.12.13-.25.28-.4.44l-.03.03-.07.07-.19.2h0s0,0,0,0c-.12.12-.25.26-.4.4,0,0,0,0,0,0h0s0,0,0,0c-.11.11-.21.21-.31.3h0s0,0,0,0c0,0,0,0-.01.01h0c-.13.12-.26.25-.4.38h-.02c-.11.12-.22.21-.31.29l-.02.02c-.13.12-.27.24-.4.35h-.01c-.11.11-.22.2-.33.29h-.01c-.15.13-.29.24-.43.35,0,0,0,0,0,0,0,0,0,0-.01.01h0s-.21.16-.21.16h0s-.1.08-.1.08h-.01c-.16.13-.31.24-.46.35h0c-.1.08-.21.16-.33.24h-.01s0,0,0,.01l-.03.02h0c-.14.1-.27.19-.41.28h0s-.02.02-.02.02h0s0,0,0,0c-.09.06-.2.13-.33.21h0s-.01.01-.02.02c-.17.11-.34.21-.49.31h0s-.12.07-.12.07h0s0,0,0,0h0s-.16.1-.16.1h0s-.01.01-.02.02c0,0,0,0,0,0h0c-.19.11-.38.22-.56.32h0s-.09.05-.09.05h0s-.17.09-.17.09l-.03.02h0s0,0,0,0c0,0-.02,0-.03.01h-.03s0,.02,0,.02h0s-.07.03-.1.05c-.16.08-.31.16-.45.23h0l-.1.05h-.02s-.09.05-.09.05l-.03.02c-.27.13-.53.25-.79.36h-.01s0,0,0,0h0s0,0,0,0h0s0,0,0,0h0s0,0,0,0l-.07.03c-.44.19-.89.34-1.34.49-.14.43-.28.86-.42,1.28h0c-.09.26-.18.5-.26.73h0c-.21.59-.42,1.17-.64,1.75h0c-.09.24-.18.5-.29.77,0,0,0,0,0,0,0,0,0,0,0,0-.27.69-.54,1.39-.83,2.07h0c-.03.05-.07.16-.13.3,0,0,0,0,0,0h0s0,0,0,0h0s0,0,0,0c-.32.76-.65,1.51-.98,2.25h0c-.13.28-.26.55-.37.79h0c-.23.49-.47.99-.71,1.48h0c-.14.28-.28.56-.42.85h0c-.27.53-.55,1.06-.83,1.58h0c-.1.18-.21.39-.34.64h0c-.36.67-.73,1.31-1.11,1.95h0c-.18.31-.36.59-.52.86h0c-.24.4-.49.79-.73,1.18h0c-.19.3-.38.6-.58.9h0c-.27.4-.53.79-.8,1.17,0,0,0,0,0,0h0s0,0,0,0c-.2.29-.42.61-.65.93h0s0,0,0,0c0,0,0,0,0,0-.38.52-.76,1.04-1.15,1.55h0c-.24.3-.46.58-.67.85h0c-.25.32-.51.63-.77.95h0c-.24.29-.48.57-.72.85h0c-.28.33-.57.64-.84.93h0c-.2.22-.42.47-.68.73-1.88,2.19-3.98,4.19-6.3,5.95v40.63h.35c.1,0,.22,0,.32.02l1.84.25.07-.49c.19-1.3,1.39-2.21,2.69-2.03,9.58,1.3,21.97,2.85,33.84,6.32,3.11.91,6.19,1.95,9.19,3.16,1.62-.51,3.3-.8,5.01-.8.37,0,.75.03,1.12.05-.18-.35-.36-.7-.53-1.04-3.52-6.56-7.46-10.24-11.19-13.65Z"/>
          <path class="cls-13" d="M404.97,284.96c-.63,0-1.25-.26-1.69-.7-.45-.45-.7-1.06-.7-1.69v-44.21c0-.78.38-1.51,1.02-1.96,2.4-1.68,4.55-3.7,6.5-5.98h0s.05-.06.08-.09c.18-.19.39-.43.63-.68h0c.26-.29.52-.57.76-.85h0c.22-.25.44-.51.66-.78.24-.28.47-.57.71-.87.22-.27.43-.53.61-.77h0c.36-.47.71-.94,1.06-1.42h0c.19-.27.39-.56.6-.86h0c.25-.37.5-.73.74-1.09h0c.18-.27.36-.55.54-.84h0c.23-.35.46-.72.68-1.09h0c.17-.29.34-.55.49-.8.35-.6.7-1.2,1.03-1.81.09-.17.2-.37.32-.6h0c.26-.49.52-.98.77-1.47h0c.13-.26.26-.52.4-.8h0c.23-.46.45-.92.67-1.39h0c.12-.27.24-.51.34-.74h0c.32-.71.63-1.41.93-2.12h0c.02-.06.06-.15.11-.28h0c.27-.66.53-1.31.79-1.98h0c.09-.22.18-.46.27-.72h0c.21-.55.41-1.1.6-1.66h0c.09-.25.17-.48.24-.7h0c.27-.78.53-1.56.77-2.34.25-.79.88-1.39,1.68-1.6.17-.05.36-.1.56-.16h.03c.45-.15.9-.32,1.36-.51h.02s.01-.01.01-.01h0s.01,0,.01,0c.21-.09.42-.18.62-.28l.06-.03.09-.05.03-.02c.18-.09.34-.17.49-.25l.15-.08h0s.09-.05.09-.05h0c.15-.08.3-.16.44-.24l.15-.09h-.01s.12-.07.12-.07h0c.15-.09.29-.18.42-.26h0c.07-.05.15-.1.25-.17h.02c.13-.1.26-.19.39-.28.08-.06.17-.12.26-.19h0c.13-.1.25-.19.37-.28h-.01s.1-.07.1-.07h0s.21-.16.21-.16c0,0,0,0,0,0,.12-.09.23-.18.34-.27h0c.09-.08.18-.16.27-.23h0c.12-.1.23-.2.34-.3h0c.1-.1.19-.17.26-.24h0c.1-.1.21-.2.32-.31l.02-.02c.09-.09.17-.16.24-.23h0c.1-.1.2-.21.32-.34h0s.19-.2.19-.2h0s.05-.06.05-.06c.09-.1.19-.21.31-.34h0c.11-.12.18-.21.23-.25h0c.09-.11.2-.24.32-.39l.02-.03c.08-.1.14-.17.17-.21h0c.13-.17.27-.35.4-.53h.01s0-.01,0-.01l.08-.11.03-.05c.14-.2.27-.39.4-.57h0s.06-.11.15-.24h0c.1-.15.18-.28.25-.4l.08-.14.08-.14h0c.08-.15.15-.28.21-.39l.07-.13h0s.08-.15.08-.15c0,0,0-.01,0-.01.07-.14.13-.26.18-.36h0c.03-.08.08-.17.13-.3,0-.01,0-.02.01-.02.06-.13.11-.25.15-.34h0s.06-.15.06-.15h0s.06-.17.06-.17h0c.05-.12.09-.23.13-.33l.07-.22h0s.04-.11.04-.11c.04-.11.07-.23.1-.34h0c.02-.08.05-.19.08-.3.03-.12.06-.24.08-.35v-.02c.03-.1.04-.19.06-.28h0c.02-.1.03-.22.05-.35l.02-.13h0s.02-.16.02-.16c0-.09.02-.2.03-.35h0c0-.11.01-.19.01-.24v-.05s0-.15,0-.15v-.2s0,0,0,0c0-.14,0-.23,0-.26h0c0-.08-.01-.19-.03-.34h0s0-.02,0-.02h0s-.02-.22-.02-.22h0s0-.05,0-.05c-.01-.08-.03-.2-.06-.37v-.03c-.02-.11-.03-.17-.03-.18h0c-.04-.19-.08-.38-.14-.57v-.04c-.32-1.05-.67-1.85-1-2.43h0c-.11-.2-.22-.37-.33-.51h0c-.36-.49-.66-.74-.91-.89-.11-.06-.2-.1-.28-.13h0c-.18-.06-.35-.09-.56-.09-.28,0-.61.06-.96.18h0c-.14.05-.27.1-.41.16h-.01s-.2.1-.2.1c-.13.07-.27.14-.4.21-.3.18-.57.36-.79.52l-.12.11-.02.02c-.24.2-.47.39-.48.39-.68.54-1.6.67-2.41.34-.8-.33-1.36-1.08-1.46-1.94-.66-5.95-3.56-12.34-7.19-18.08h0c-.3-.48-.61-.95-.91-1.42h0c-.62-.94-1.25-1.86-1.89-2.75h0c-.32-.45-.64-.89-.96-1.32h0c-.69-.93-1.38-1.82-2.07-2.68-.34-.43-.69-.85-1.02-1.26-.68-.82-1.35-1.61-1.99-2.35h0c-1.62-1.86-3.11-3.44-4.32-4.68h0c-.73-.74-1.35-1.36-1.84-1.84-.31-.3-.56-.54-.76-.72-.19-.18-.33-.3-.36-.33h0c-.71-.58-1.37-1.11-1.98-1.58-.46.46-.96.93-1.5,1.43-1.21,1.11-2.61,2.31-4.18,3.67-3.14,2.71-6.97,6-11.23,10.17-4.01,3.91-8.4,7.91-12.98,11.56h0c-.7.56-1.41,1.12-2.12,1.66,0,0,0,0,0,0h0s0,0,0,0c-2.13,1.63-4.3,3.18-6.48,4.6h0c-.5.33-.99.63-1.45.92h0c-.96.6-1.94,1.19-2.93,1.75-1.96,1.1-3.92,2.08-5.88,2.9-.65.27-1.3.53-1.95.77h0s0,0,0,0h0c-.33.12-.57.19-.72.24h0c-1.19.42-2.39.79-3.61,1.08h0c-1.31.31-2.62.53-3.92.65-.43.04-.87.07-1.3.09h0c-.3.01-.6.02-.9.02-.13,0-.26,0-.39,0-1.29-.02-2.56-.16-3.81-.42-.37-.08-.7-.23-1-.47,0,0-.11-.09-.25-.2-.11-.09-.24-.2-.36-.31-.33-.25-.81-.57-1.32-.81-.52-.25-1.06-.38-1.46-.38-.23,0-.42.03-.61.11-.19.08-.41.2-.66.44-.51.48-1.22,1.52-1.81,3.51v.02s-.03.1-.08.31v-.02c-.04.17-.06.25-.07.27l-.03.16v.03s-.05.25-.05.25h0c-.02.11-.03.17-.03.18h0,0s0,.1-.02.24c-.01.16-.02.29-.03.37,0,.02,0,.12,0,.28v-.02s0,.2,0,.2v.14s0,.03,0,.03c0,.06,0,.14.02.26v-.02s.02.25.02.25v.15c.02.07.03.15.05.25l.03.17h0s.03.2.03.2c.02.1.04.19.06.28h0s.04.17.04.17h0s.04.21.04.21c.02.08.05.18.07.28.01.05.04.13.07.24h0s.04.14.04.14c.03.1.06.19.09.27l.06.18h0s.07.2.07.2c.04.12.08.21.11.29v.02c.05.09.1.21.16.35h0c.05.13.1.23.13.3.05.11.11.23.18.37h0c.07.14.11.23.14.29,0,0,0,0,0,0,.05.1.13.23.21.38v.02c.08.12.13.21.16.26h0c.04.07.1.17.18.3h0s.08.14.08.14v.02s.14.21.14.21c.06.09.13.19.23.33h0c.09.14.14.22.16.25l.11.14h0c.13.2.27.37.4.54l.18.22v.02c.11.11.2.22.29.33v.02s.06.05.06.05c.04.05.11.13.21.23v.02s.18.19.18.19h0s.14.17.14.17c.07.07.15.15.23.24l.17.17h0s.17.18.17.18h0c.06.06.14.14.24.24l.19.18h0s.16.15.16.15c.07.06.15.14.26.23.12.11.24.21.35.3h0c.09.07.18.15.26.22l.02.02h.02c.12.11.23.2.34.28h0c.09.07.17.14.26.21h0c.11.08.22.16.34.25l.02.02.03.03c.09.07.18.13.26.19h0c.13.09.26.18.4.27h.01c.1.07.18.13.25.17l.17.11h0c.11.06.19.12.25.16,0,0,0,0,0,0,.11.07.19.12.25.15.13.08.28.16.44.25h.02s.22.14.22.14c.04.02.11.06.21.11h.02c.11.07.2.12.26.14h.02s.17.09.17.09c.21.1.42.2.63.29l.04.02h0c.46.2.92.37,1.37.51h0s.02,0,.03.01h0c.21.06.39.11.56.16.8.21,1.43.81,1.68,1.6,3.32,10.58,8.33,19.92,14.75,26.68h0s.09.1.09.1c.97,1.14,1.99,2.21,3.07,3.2.02.02.12.1.31.26h0c.46.42.9.82,1.34,1.17h0c.57.47,1.16.91,1.77,1.34.63.45,1.02,1.18,1.02,1.96v44.21c0,.63-.26,1.25-.7,1.69-.45.45-1.06.7-1.69.7h-.28s-4.72.6-4.72.6l2.22,12.99c7.32,2.78,14.41,3.84,20.97,3.85,9.61,0,18.09-2.26,24.36-4.66l1.8-12.55-1.65-.22h-2.58Z"/>
        </g>
        <path class="cls-7" d="M469.76,294.92c-3.17-2.48-6.22-3.52-9.09-3.53-1.44,0-2.85.27-4.24.79-.57.22-1.21.21-1.77-.03-3.05-1.28-6.26-2.37-9.53-3.32-10.48-3.06-21.6-4.61-30.79-5.85l-.17,1.2-2.24,15.61-1.04,7.29-21.64,150.87c-.17,1.16-1.16,2.04-2.34,2.05-1.18.02-2.19-.83-2.39-1.99l-26.17-152.78-.78-4.53-2.69-15.69-.35-2.04c-8.7,1.17-19.13,2.62-29.12,5.37-6.42,1.76-12.64,4.06-18.07,7.13-.39.22-.82.32-1.26.31-.26,0-.52-.01-.79-.01-2.97,0-6.46.6-10.49,1.97-.86.43-1.94,1.2-3.14,2.3-1.25,1.14-2.62,2.62-4.09,4.4-2.93,3.57-6.22,8.33-9.73,13.99-7.02,11.32-14.92,26.24-22.95,42.61-16.08,32.75-32.72,71.34-44.28,99.04-1.52,3.65-2.23,7.37-2.23,11.01,0,6.96,2.6,13.66,7.14,18.93,4.55,5.27,11.02,9.1,18.81,10.34l56.21,8.92c.65.1,1.23.47,1.6,1.01.37.54.5,1.22.36,1.86-.81,3.72-1.65,7.55-2.48,11.42h94.05l.79-3.6,1.07-4.85,3.14-14.28c.14-.63.53-1.19,1.09-1.53.55-.34,1.22-.44,1.85-.28l1.83.48c2.69-1.56,11.2-6.51,17.57-10.08,2.56-1.43,4.76-2.64,6.17-3.35,1.57-.79,3.27-1.43,4.98-1.88,1.71-.45,3.42-.72,5.04-.72.87,0,1.71.08,2.54.27.82.2,1.63.52,2.37,1.07.49.37.94.84,1.27,1.41.45.76.67,1.66.66,2.53,0,.38-.05.76-.11,1.13.42.11.85.23,1.29.36,1.53.45,3.18.98,4.7,1.5,2.72.92,5.03,1.77,5.51,1.95.19.05.47.14.84.3.54.24,1.24.61,1.93,1.25.46.42.92.96,1.29,1.62.49.89.8,2,.8,3.22,0,.42-.03.85-.1,1.29h0c-.15.98-.44,1.87-.85,2.64-.41.77-.93,1.42-1.51,1.93-.57.5-1.16.86-1.76,1.13.13.53.22,1.11.21,1.72,0,.87-.14,1.82-.44,2.84-.31,1.08-.84,2.02-1.45,2.78-.61.77-1.3,1.37-1.97,1.91-1.35,1.07-2.66,1.92-3.82,3.1-.78.78-1.5,1.7-2.16,2.95-.22.43-.45.81-.68,1.18h35.62l1.52-12.9.96-8.13c-3.08-14.74-5.66-26.86-6.76-32.02-.37-1.74-.57-2.68-.58-2.68-.06-.29-.07-.6-.02-.9.62-3.71,1.54-10.98,2.6-20.27,1.07-9.3,2.28-20.66,3.51-32.65.11-1.05.89-1.9,1.92-2.1,1.04-.2,2.08.3,2.57,1.23,1.94,3.67,3.94,7.44,5.95,11.23l1.8-15.3,4.22-35.89c.99-8.44,8.14-14.8,16.64-14.8h9.14c-7.51-12.85-15.26-25.35-22.75-36.12-8.16-11.74-16.04-21.46-22.77-27.33ZM299.84,463.73c-.65.52-1.53.66-2.31.38l-22.26-8.13c-.69-.25-1.22-.8-1.45-1.5-.23-.7-.13-1.45.27-2.07,8.44-12.84,13.93-21.76,18.05-29.2.51-.92,1.55-1.4,2.57-1.19,1.03.21,1.79,1.06,1.9,2.1,1.58,15.5,3.05,29.13,4.11,37.43.11.82-.23,1.65-.88,2.17Z"/>
        <path class="cls-13" d="M383.03,307.18c-6.29,0-13.06-.92-20.04-3.22l.08.47,23.6,137.79,19.95-139.11c-6.36,2.19-14.46,4.07-23.59,4.07Z"/>
        <path class="cls-13" d="M445.39,498.8c-.3-.28-.76-.46-.86-.49h-.01s0,0,0,0c-.09-.02-.17-.05-.26-.08,0,0-.08-.03-.24-.09-.16-.06-.4-.15-.7-.25-.6-.22-1.44-.52-2.41-.86-1.95-.69-4.46-1.53-6.61-2.16-1.42-.42-2.72-.74-3.45-.84-.77-.11-1.43-.59-1.78-1.28-.35-.69-.35-1.51.01-2.2.49-.93.6-1.54.6-1.77,0-.07,0-.09,0-.11-.03-.03-.26-.19-.75-.29-.34-.07-.78-.11-1.29-.11-1.07,0-2.43.19-3.82.56-1.39.37-2.81.9-4.05,1.53-1.1.56-2.92,1.55-5.05,2.73-2.13,1.19-4.58,2.58-7.01,3.97-4.85,2.77-9.59,5.52-11.45,6.61-.53.31-.83.48-.83.48-.47.27-1.01.38-1.55.3l-2.16-.31-3.23,14.33,1.18.13c.1.01.16.02.26.04l6.54,1.47h.04s14.17,3.46,14.17,3.46h19.54c.31-.37.61-.72.89-1.08.52-.65,1.01-1.34,1.53-2.32,1-1.91,2.21-3.36,3.4-4.49,1.19-1.12,2.34-1.94,3.26-2.63.61-.46,1.11-.87,1.47-1.24.49-.51.74-.9.91-1.48.19-.66.25-1.16.25-1.5,0-.34-.05-.54-.1-.67-.05-.13-.1-.2-.14-.25-.09-.11-.23-.18-.24-.18h0c-1.18-.35-1.91-1.54-1.68-2.75.24-1.25,1.42-2.08,2.68-1.91h0s0,0,0,0h.07c.07.01.19.02.34.02.28,0,.67-.03,1.04-.11.38-.09.72-.23,1-.43.18-.13.34-.28.49-.5.19-.28.39-.69.49-1.37.03-.21.05-.4.05-.56,0-.41-.08-.65-.16-.84-.09-.19-.21-.34-.36-.48Z"/>
        <path class="cls-14" d="M668.02,363.16h-161.88c-6.07,0-11.18,4.54-11.89,10.57l-4.22,35.89-2.7,22.91-7.24,61.52-1.02,8.65-1,8.52c-.14,1.2-1.16,2.11-2.38,2.11h-59.19c-3.49,0-6.63,1.41-8.93,3.7-1.75,1.75-2.98,4.01-3.46,6.53h258.49l17.3-147.03c.06-.48.08-.96.08-1.42,0-3.25-1.32-6.23-3.48-8.41-2.17-2.18-5.14-3.53-8.49-3.53Z"/>
      </g>
      <g>
        <path class="cls-13" d="M78.41,392.83l-.03-.36-1.56.13.03.36c.07.79-.32,1.5-.93,1.91l.23,2.71c.09,1.02-.58,1.95-1.57,2.2l-2.25.56,3.13,28.13.21-.02c1.11-.12,2.13.65,2.29,1.76l2,13.29h4l-4.18-48.9c-.74-.27-1.29-.94-1.36-1.78Z"/>
        <path class="cls-7" d="M95.87,376.04c-.08-.06-.17-.12-.24-.2-.39-.39-.61-.93-.61-1.48v-3.45c0-.43.14-.85.38-1.2v-7.06h-3.87v7.06c.24.35.38.77.38,1.2v3.45c0,.55-.22,1.09-.61,1.48-.07.07-.16.13-.24.2v67.47h4.8v-67.47Z"/>
        <g>
          <path class="cls-5" d="M121.99,441.76h0c-.17-4.2-1.44-8.07-2.69-10.88-.97-2.19-1.92-3.74-2.3-4.32-.85-.62-1.63-1.36-2.32-2.24h0c-1.51-1.94-2.47-4.29-2.85-6.81l-3.19,26h13.38s0-.09,0-.13c0-.59,0-1.14-.03-1.62Z"/>
          <path class="cls-5" d="M112.9,408.82c.46-1.06,1.03-2.06,1.73-2.97,1.02-1.32,2.25-2.39,3.64-3.12,1.38-.74,2.93-1.14,4.51-1.14h0c1.58,0,3.12.39,4.51,1.12.22.11.42.25.63.38l1.84-15.02-14.1-1.73-2.76,22.48Z"/>
        </g>
        <path class="cls-13" d="M146.63,410.07c-.99-1.44-2.27-2.34-3.77-2.63h0c-.34-.07-.67-.1-1.01-.1-1.41,0-2.86.56-4.25,1.78-1.64,1.44-2.86,3.63-3.34,6.16h0c-.14.76-.21,1.51-.21,2.23,0,2.99,1.17,5.56,2.84,6.96.26.22.47.52.59.84.05.13.09.24.12.31l.04.11.09.28c.03.12.2.85.2,1.95,0,.83-.09,1.87-.43,3.02-.33,1.15-.92,2.4-1.87,3.6-2.64,3.33-3.97,4.48-4.1,4.59-.46.39-1.07.56-1.67.47-.6-.09-1.13-.44-1.45-.95l-3.06-4.86h0c-.11-.18-.51-.84-.82-1.98h0c-.03-.11-.05-.23-.08-.35-.08-.34-.15-.71-.19-1.11-.05-.4-.08-.84-.08-1.31,0-.41.03-.85.08-1.31,0-.04,0-.07.01-.11.05-.45.13-.93.24-1.42.12-.56.27-1.13.49-1.74.15-.44.44-.81.83-1.06.04-.02.12-.09.27-.19h.02c.57-.42,1.1-.91,1.57-1.53,1.33-1.72,2.12-4.08,2.11-6.64v-.04c0-2.46-.75-4.74-2-6.44h0c-.08-.12-.13-.19-.15-.21h0s0,0,0,0c-.7-.89-1.48-1.54-2.3-1.97-.82-.43-1.67-.64-2.57-.64-.89,0-1.74.22-2.56.65-.82.43-1.6,1.09-2.29,1.99-1.33,1.72-2.12,4.08-2.11,6.64v.04c0,2.57.81,4.95,2.16,6.66.53.67,1.11,1.21,1.73,1.62.22.15.39.32.55.53.08.12.69,1,1.48,2.46.16.3.33.63.51.97.09.18.18.36.27.54.05.11.11.22.16.33.15.31.3.64.46.99,1.39,3.14,2.83,7.47,3.04,12.4h0c.02.56.03,1.16.03,1.8,0,.04,0,.09,0,.13h5.73c.17-.65.33-1.22.48-1.66,0,0,0,0,0,0h0s0,0,0,0c.44-1.29,1.1-2.69,1.87-4.15.78-1.46,1.68-2.97,2.61-4.45,1.87-2.94,3.84-5.7,5.19-7.4h0s.03-.03.03-.03c.2-.26.46-.46.76-.6.61-.29,1.22-.68,1.81-1.2,1.64-1.44,2.86-3.63,3.34-6.16.14-.76.21-1.51.21-2.24,0-2.17-.61-4.13-1.59-5.57Z"/>
        <polygon class="cls-14" points="70.46 447.99 76.94 523.63 129.99 523.63 136.47 447.99 70.46 447.99"/>
      </g>
      <path class="cls-13" d="M599.54,496.11c0-.27,0-.55,0-.84h0c-.09-3.77-.69-6.88-1.69-9.28-1.01-2.41-2.38-4.12-4.16-5.34-1.04-.71-2.13-1.19-3.27-1.49-1.13-.31-2.32-.44-3.53-.44-1.12,0-2.26.12-3.38.31-.74.13-1.5-.1-2.04-.61-.55-.51-.82-1.25-.74-2l1.01-9.4h-65.43l5.06,56.6h54.31l.56-5.21c.13-1.23,1.18-2.16,2.42-2.14h.22c2.08,0,4.64-.2,7.21-.89,2.57-.69,5.13-1.84,7.32-3.71,2.03-1.73,3.54-3.84,4.58-6.41,1.03-2.57,1.58-5.61,1.58-9.16ZM594.42,503.29c-.77,2.12-1.99,3.96-3.63,5.36-1.75,1.49-3.77,2.37-5.72,2.9-1.95.53-3.86.71-5.48.75-.69.02-1.35-.26-1.82-.77-.47-.51-.69-1.19-.62-1.87l2.57-23.99c.1-.97.78-1.77,1.72-2.04,1.69-.48,3.54-.9,5.43-.9.76,0,1.54.07,2.31.26.77.19,1.55.5,2.26.98.98.67,1.69,1.56,2.21,2.49.53.94.88,1.93,1.15,2.95.53,2.03.7,4.15.75,5.98h0c0,.25,0,.49,0,.73,0,2.66-.35,5.07-1.13,7.19Z"/>
      <path class="cls-5" d="M790.52,528.41H39.74c-9.66,0-18.38,3.91-24.72,10.24-6.33,6.33-10.24,15.06-10.24,24.72v1.58h820.69v-1.58c0-9.66-3.91-18.38-10.24-24.72-6.33-6.33-15.06-10.24-24.72-10.24Z"/>
      <g>
        <path class="cls-15" d="M790.52,523.63h-123.09l17.24-146.53c.08-.67.12-1.33.12-1.98,0-4.56-1.85-8.75-4.87-11.78-3.01-3.04-7.22-4.95-11.89-4.95h-147.2c-7.98-13.77-16.29-27.25-24.36-38.85-8.31-11.95-16.32-21.9-23.61-28.26l-.09-.07c-1.63-1.29-3.31-2.29-5.01-3.03-.26-.63-.53-1.24-.8-1.83-2.41-5.25-5.16-9.12-7.9-12.19-2.05-2.3-4.08-4.16-5.91-5.83-1.38-1.25-2.64-2.41-3.75-3.56-1.66-1.73-2.95-3.44-3.88-5.57-.92-2.14-1.49-4.77-1.49-8.42v-.07c.02-6.26.72-11.11,1.78-15.31.8-3.15,1.79-5.94,2.87-8.68,1.62-4.11,3.44-8.12,4.93-12.94,1.49-4.81,2.61-10.41,2.83-17.6h0c.05-1.58.07-3.2.07-4.86,0-14.54-1.95-31.8-7.09-47.59-2.57-7.89-5.94-15.42-10.31-22.04-4.36-6.62-9.73-12.34-16.28-16.54-3.18-2.04-5.83-3.23-8.26-3.89-2.27-.62-4.29-.75-6.18-.76-9.1-2.97-19-4.62-28.04-4.63h-.2c-7.07.02-14.76,1.31-22.47,4.51-11.56,4.79-23.11,13.89-32.56,29.12-9.47,15.24-16.88,36.58-20.43,66.01-.33,2.77-.44,5.42-.44,7.93,0,4.31.3,8.24.3,11.79,0,3.83-.34,7.17-1.59,10.2-1.25,3.03-3.4,5.89-7.44,8.81-10.12,7.29-16.54,13.74-20.46,19.93-1.96,3.09-3.28,6.11-4.11,9.08-.82,2.97-1.14,5.88-1.14,8.73,0,5.69,1.24,11.14,2.3,16.84h0c.14.73.2,1.42.2,2.1,0,2.54-.88,4.86-2.39,7.08-1.51,2.22-3.65,4.27-5.99,6.08-8.52,6.57-14.77,14.8-18.87,23.82-4.1,9.02-6.07,18.83-6.07,28.59,0,4.79.49,9.57,1.42,14.25-6.69,2.99-12.5,7.58-16.95,13.29-5.84,7.5-9.32,16.95-9.32,27.19v28.22c-2.83,6.65-5.5,12.97-7.94,18.81-1.77,4.23-2.6,8.59-2.6,12.85,0,8.16,3.04,15.95,8.31,22.05.7.82,1.45,1.6,2.23,2.35v28.14h-79.35l6.67-77.82c.06-.66-.17-1.33-.62-1.82-.45-.49-1.1-.77-1.76-.77h-2.73s0,0,0,0h0c.32-.95.89-2.19,1.6-3.53,2.05-3.85,5.27-8.49,7.15-10.91.81-.43,1.59-.96,2.32-1.6,2.42-2.14,4.04-5.16,4.68-8.51.19-1.02.28-2.02.28-3.01,0-2.94-.81-5.7-2.31-7.91-1.49-2.2-3.73-3.87-6.44-4.39,0,0,0,0,0,0-.6-.11-1.2-.17-1.79-.17-2.55,0-5,1.04-7.01,2.82-.85.75-1.6,1.62-2.25,2.57-.27-.59-.59-1.14-.93-1.69l2.5-20.37c.14-1.14-.67-2.18-1.82-2.33l-18.25-2.24c-.55-.07-1.11.09-1.54.43-.43.34-.72.84-.79,1.39l-7.3,59.45h-4.42v-68.84c0-.55-.22-1.09-.61-1.48-.07-.07-.16-.13-.24-.19v-.58c.24-.35.38-.77.38-1.2v-10.34c0-.55-.22-1.09-.61-1.48-.39-.39-.93-.61-1.48-.61h-8.04c-.55,0-1.09.22-1.48.61-.39.39-.61.93-.61,1.48v10.34c0,.43.14.85.38,1.2v.58c-.08.06-.17.12-.24.19-.39.39-.61.93-.61,1.48v54.58l-3.13-36.58c-.07-.83-.63-1.5-1.36-1.78l-.05-.56c-.05-.55-.31-1.06-.73-1.42-.42-.35-.97-.53-1.52-.48l-5.72.49c-1.15.1-2,1.11-1.9,2.26l.05.62c-.62.41-1,1.12-.93,1.91l.24,2.76-2.3.57c-1.01.25-1.68,1.22-1.57,2.25l3.56,32.02c.06.55.34,1.06.77,1.4.43.34.99.51,1.53.44l.29-.03,1.56,10.37h-7.83c-.67,0-1.31.28-1.76.77-.45.49-.68,1.16-.62,1.82l6.67,77.82h-32.4c-21.95,0-39.74,17.79-39.74,39.74v3.97c0,.63.26,1.25.7,1.69.45.45,1.06.7,1.69.7h825.47c.63,0,1.25-.26,1.69-.7.45-.45.7-1.06.7-1.69v-3.97c0-21.95-17.79-39.74-39.74-39.74ZM668.02,363.16c3.35,0,6.33,1.36,8.49,3.53,2.16,2.18,3.48,5.16,3.48,8.41,0,.47-.03.94-.08,1.42l-17.3,147.03h-82.14l.27-2.55c1.98-.1,4.22-.39,6.54-1,3.09-.82,6.33-2.26,9.19-4.69,2.62-2.23,4.61-5.02,5.91-8.26,1.31-3.24,1.93-6.91,1.93-10.95,0-.31,0-.63-.01-.94h0c-.1-4.22-.76-7.9-2.06-11.02-1.29-3.12-3.27-5.68-5.88-7.45-1.51-1.03-3.11-1.72-4.71-2.16-1.61-.43-3.22-.61-4.77-.61-.37,0-.73,0-1.1.03l.97-9.08c.07-.67-.15-1.35-.6-1.85-.45-.5-1.1-.79-1.78-.79h-70.71c-.67,0-1.31.28-1.77.78-.46.5-.68,1.16-.62,1.83l5.24,58.72h-105.86l-6.15-1.5c.62-1.92,1.68-3.64,3.07-5.04,2.29-2.29,5.43-3.7,8.93-3.7h60.02c.87,0,1.6-.66,1.69-1.53l.86-9.1,1.02-8.65,7.24-61.52,2.7-22.91,4.22-35.89c.71-6.03,5.82-10.57,11.89-10.57h161.88ZM581.45,478.42c.55.51,1.3.74,2.04.61,1.12-.19,2.26-.31,3.38-.31,1.21,0,2.39.13,3.53.44,1.14.31,2.22.78,3.27,1.49,1.78,1.21,3.15,2.93,4.16,5.34,1,2.4,1.6,5.51,1.69,9.29h0c0,.28,0,.56,0,.83,0,3.55-.55,6.59-1.59,9.16-1.04,2.57-2.55,4.67-4.58,6.41-2.19,1.87-4.75,3.02-7.32,3.71-2.56.68-5.12.89-7.21.89h-.22c-1.23-.02-2.28.91-2.42,2.13l-.55,5.15h-54.32l-5.05-56.54h65.43l-1.01,9.4c-.08.75.19,1.49.74,2ZM428.85,492c0,.07,0,.13.02.2.03.11.08.22.12.33.03.07.04.14.08.21h0c.35.69,1.02,1.17,1.78,1.28.73.1,2.02.42,3.45.84,2.15.63,4.66,1.47,6.61,2.16.98.34,1.82.65,2.41.86.3.11.53.2.7.25.16.06.24.09.24.09.08.03.17.06.26.08h0s.01,0,.01,0c.1.02.56.21.86.49.15.14.27.29.36.48.09.19.16.43.16.84,0,.16-.01.34-.05.56-.01.09-.03.16-.05.24-.05.23-.1.43-.17.6-.09.22-.18.39-.28.53-.15.21-.31.36-.49.5-.27.2-.62.34-1,.43-.37.09-.76.12-1.04.11-.13,0-.23,0-.31-.01-.01,0-.03,0-.03,0h-.07s0,0,0,0h0c-.16-.02-.31-.03-.47-.02-1.07.06-2,.84-2.21,1.93-.22,1.15.43,2.27,1.5,2.67.06.02.12.05.18.07h0s.16.08.24.19c.05.06.09.12.14.25.03.09.06.23.08.4h-25.38c-7.87,0-14.51,5.22-16.67,12.38l-3.35-.82h-.04s-6.4-1.45-6.4-1.45l.55-2.52,2.6-11.8.65.09s.08,0,.13,0c.05,0,.1,0,.16,0,.1,0,.2,0,.3-.01.05,0,.09,0,.14-.01.11-.02.22-.04.32-.08.04-.01.07-.02.11-.03.14-.05.27-.11.4-.18,0,0,.3-.17.83-.48,1.86-1.09,6.6-3.84,11.45-6.61,2.42-1.39,4.88-2.78,7.01-3.97,2.13-1.19,3.95-2.18,5.05-2.73,1.24-.63,2.66-1.16,4.05-1.53,1.39-.37,2.75-.56,3.82-.56.51,0,.95.04,1.29.11.5.1.72.25.75.29,0,.02,0,.04,0,.11,0,.22-.11.84-.59,1.76,0,0,0,0,0,0h0c-.04.07-.06.15-.09.23-.04.1-.09.2-.12.31-.02.1-.03.2-.04.3-.01.09-.03.17-.03.26,0,.12.02.24.04.36ZM471.72,467.26c.65-4,1.53-11.06,2.56-20.06.83-7.27,1.76-15.79,2.7-24.87,1.82,3.43,3.66,6.91,5.51,10.39l-6.46,54.88c-2.27-10.77-3.92-18.48-4.32-20.34ZM249.41,329.87c3.8-8.35,9.56-15.94,17.44-22.02,2.6-2.01,5.11-4.37,7.03-7.17,1.91-2.79,3.22-6.09,3.22-9.78,0-.98-.09-1.97-.28-2.99h0c-1.1-5.8-2.23-10.99-2.22-15.96,0-2.5.28-4.95.97-7.45,1.04-3.75,3.03-7.67,6.61-12.01,3.58-4.34,8.78-9.1,16.14-14.39,4.61-3.31,7.47-6.97,9.07-10.88,1.6-3.91,1.94-7.93,1.95-12.02,0-3.81-.3-7.7-.3-11.79,0-2.38.1-4.83.4-7.36,2.32-19.28,6.32-34.89,11.4-47.44,7.62-18.83,17.63-30.76,28.1-38.04,10.47-7.27,21.47-9.92,31.23-9.95h.18c8.58,0,18.21,1.6,26.91,4.5.25.08.49.12.75.12,1.85,0,3.44.09,5.31.6,1.87.51,4.05,1.46,6.93,3.3h0c5.88,3.77,10.79,8.97,14.87,15.14,6.11,9.26,10.29,20.7,12.91,32.49,2.62,11.79,3.7,23.91,3.7,34.5,0,1.61-.02,3.18-.07,4.71h0c-.19,6.03-1.02,10.73-2.17,14.83-.86,3.08-1.9,5.83-3.01,8.57-1.65,4.1-3.46,8.18-4.86,13.12-1.4,4.93-2.36,10.69-2.38,18.1h0v.03s0,.02,0,.02h0v.08c0,3.28.41,6.06,1.19,8.47.68,2.11,1.63,3.93,2.75,5.53,1.97,2.81,4.41,4.96,6.89,7.23,3.74,3.41,7.67,7.09,11.19,13.65.18.34.36.69.53,1.04-.38-.03-.75-.05-1.12-.05-1.71,0-3.39.28-5.01.8-2.99-1.21-6.08-2.25-9.19-3.16-11.88-3.46-24.27-5.02-33.84-6.32-1.3-.18-2.5.73-2.69,2.03l-.51,3.54.44-3.05-1.84-.25c-.1-.01-.22-.02-.32-.02h-.35v-40.63c2.32-1.76,4.42-3.76,6.3-5.95.25-.27.48-.52.68-.74h0c.27-.29.55-.6.84-.93h0c.25-.28.49-.57.72-.85h0c.26-.32.52-.63.77-.95h0c.21-.26.44-.54.67-.85h0c.39-.5.78-1.02,1.15-1.54h0s0,0,0,0c.23-.33.45-.64.65-.93h0s0,0,0,0c0,0,0,0,0,0,.26-.38.53-.77.8-1.17h0c.2-.3.4-.6.58-.9h0c.25-.4.49-.79.73-1.18h0c.16-.27.34-.55.52-.86h0c.37-.64.74-1.28,1.11-1.94h0c.13-.25.24-.46.34-.64h0c.28-.52.55-1.04.83-1.58h0c.15-.29.29-.57.42-.85h0c.24-.49.48-.99.71-1.48h0c.11-.24.24-.51.37-.79h0c.33-.73.66-1.48.98-2.24,0,0,0,0,0,0h0s0,0,0,0h0s0,0,0,0c.06-.14.1-.25.13-.31h0c.28-.68.56-1.37.83-2.06.1-.27.2-.52.29-.76h0c.22-.58.43-1.17.64-1.76h0c.08-.23.17-.47.26-.73.14-.42.28-.85.42-1.27.45-.15.9-.31,1.34-.49l.07-.03h0s0,0,0,0h0s0,0,0,0h.01c.26-.12.52-.24.79-.36l.03-.02.09-.05h.02s.1-.06.1-.06h0c.14-.07.3-.15.45-.23.04-.02.07-.03.1-.05h0s0,0,0,0h.03s.02-.02.03-.03c0,0,0,0,0,0h0s.03-.02.03-.02l.17-.09h0s.09-.04.09-.04h0c.18-.1.37-.21.56-.32h0s0,0,0,0c0,0,.01-.01.02-.02h0s.16-.1.16-.1c0,0,0,0,0,0h0s.12-.08.12-.08h0c.16-.1.32-.2.49-.31,0,0,.01,0,.02-.01h0c.13-.09.23-.16.32-.22h0s0,0,0,0h.02s0-.02,0-.02c.13-.09.27-.18.41-.28h0s.03-.03.03-.03c0,0,0,0,0,0h.01c.11-.09.22-.17.33-.24h0c.15-.12.3-.23.46-.35h.01s.1-.09.1-.09h0s.21-.16.21-.16h0s0,0,.01-.01c0,0,0,0,0,0,.14-.11.28-.22.43-.34h.01c.11-.1.21-.19.33-.28h.01c.13-.12.26-.24.4-.36l.02-.02c.09-.08.2-.18.31-.28h.02c.14-.14.27-.27.4-.39h0s0,0,.01-.01c0,0,0,0,0,0,.1-.09.2-.19.31-.3.15-.15.28-.28.4-.4h0,0s.19-.21.19-.21l.07-.07.03-.03c.15-.16.28-.31.4-.44h0c.06-.07.15-.17.28-.31h0c.15-.18.28-.33.39-.47h.01c.04-.07.13-.16.23-.3h0c.17-.22.34-.44.49-.65v-.02s.12-.15.12-.15c.01-.02.02-.04.04-.06h0s.02-.03.03-.04h0s.02-.03.02-.03h0c.15-.21.31-.43.46-.66.1-.15.16-.26.19-.29h0c.1-.17.21-.34.33-.54,0,0,0,0,0,0,0,0,0,0,0,0,0-.01.01-.02.02-.04h0s.09-.16.09-.16h0s.08-.16.08-.16h0c.09-.14.18-.31.28-.49l.03-.05.08-.15h0s.08-.18.08-.18c0,0,0-.02.01-.02.06-.13.14-.27.21-.43h0s0,0,0,0l.02-.04s0,0,0,0h0c.07-.15.12-.27.16-.37,0-.01.01-.03.02-.04.05-.12.11-.26.17-.4,0-.02.02-.05.03-.07,0,0,0,0,0-.01,0,0,0,0,0,0h0s.01-.03.02-.05l.07-.17s0,0,0,0h0s0,0,0,0h0s0,0,0,0l.06-.16h0c.05-.15.11-.31.17-.47h0s0,0,0,0v-.03s.01,0,.01,0c0,0,0,0,0,0h0v-.04s.09-.25.09-.25h0s.04-.11.04-.11h0c.05-.17.1-.33.14-.49,0-.01,0-.02,0-.03,0,0,0,0,0,0,0,0,0,0,0,0,0,0,0,0,0,0h0c.04-.15.08-.29.11-.42h0v-.02s0,0,0,0h0c.04-.17.08-.34.11-.51.03-.14.06-.28.09-.43.03-.2.06-.37.08-.53h0v-.04s.03-.16.03-.16h0s.02-.2.02-.2v-.05c.03-.21.04-.39.05-.53h0s0,0,0,0h0c0-.09.01-.2.02-.3h0v-.04s0-.1,0-.1c0-.11,0-.21,0-.31,0-.09,0-.16,0-.22h0s0,0,0,0h0s0-.02,0-.02c0-.08,0-.21,0-.38v-.05c-.01-.24-.03-.44-.04-.58h0s0,0,0,0h0s0,0,0,0h0s-.02-.21-.02-.21h0s0-.11,0-.11v-.08c-.04-.26-.08-.47-.11-.64,0-.02-.02-.11-.04-.25,0,0,0,0,0-.01,0-.03,0-.05-.02-.09-.05-.27-.12-.53-.2-.79h0s0-.03,0-.03l-.04-.16c-.12-.41-.25-.79-.39-1.16-.04-.1-.08-.2-.12-.3-.1-.27-.21-.53-.32-.78-.04-.1-.09-.2-.13-.29-.15-.32-.31-.64-.48-.93-.19-.33-.38-.63-.59-.92h0c-.69-.96-1.51-1.72-2.41-2.24h0c-.35-.21-.73-.38-1.11-.51h0,0c-.13-.05-.26-.08-.39-.12-.11-.03-.22-.06-.32-.08-.17-.04-.33-.07-.5-.09-.28-.04-.56-.06-.83-.06-.02,0-.05,0-.08,0h0c-.83,0-1.58.15-2.26.36-.08.02-.16.05-.24.07,0,0,0,0,0,0h0s0,0,0,0c-.22.08-.43.16-.64.25,0-.03-.01-.05-.02-.08-.11-.46-.22-.93-.35-1.39-.02-.09-.05-.18-.07-.27-.13-.48-.28-.95-.43-1.43-.05-.15-.1-.3-.15-.45-.13-.4-.27-.8-.42-1.2-.05-.12-.09-.25-.13-.37-.39-1.05-.82-2.1-1.29-3.13-.05-.1-.1-.21-.14-.31-.19-.41-.38-.81-.57-1.21-.04-.08-.08-.16-.12-.24-.02-.03-.03-.06-.05-.09-.51-1.02-1.04-2.03-1.6-3.02-.06-.1-.11-.2-.17-.3-.56-.99-1.14-1.96-1.74-2.91-.02-.03-.04-.06-.05-.08-.31-.49-.62-.98-.94-1.46-.17-.26-.34-.49-.51-.75-.34-.5-.68-.99-1.02-1.48-.16-.22-.31-.46-.47-.68h0s0,0,0,0t0,0c-.34-.47-.67-.93-1.02-1.39,0,0,0,0,0,0,0,0,0,0,0,0,0,0,0,0,0,0-.36-.49-.72-.96-1.09-1.43-.36-.47-.72-.93-1.08-1.38-.36-.45-.72-.89-1.07-1.32-.71-.86-1.4-1.68-2.08-2.45h0c-1.69-1.94-3.24-3.59-4.51-4.89h0c-.76-.78-1.42-1.43-1.95-1.94h0c-.35-.34-.64-.62-.87-.82-.11-.1-.21-.19-.29-.27l-.22-.19h0c-.76-.63-1.47-1.2-2.14-1.7h0c-.66-.51-1.27-.95-1.8-1.34-1.03-.73-2.44-.55-3.24.43-.57.7-1.45,1.58-2.58,2.62-1.69,1.55-3.94,3.44-6.57,5.73-2.64,2.29-5.67,5-8.95,8.21-3.92,3.83-8.2,7.72-12.62,11.25h0c-.68.54-1.36,1.07-2.04,1.6h0c-2.05,1.57-4.12,3.05-6.19,4.39h0c-.44.29-.9.57-1.38.87h0c-.93.58-1.84,1.14-2.74,1.64-2.43,1.37-4.82,2.5-7.14,3.36h0c-.12.05-.33.11-.64.22h0c-1.08.37-2.13.7-3.14.93-.5.12-.99.21-1.48.3-.12.02-.24.04-.36.06-.48.08-.96.14-1.43.19-.35.03-.7.06-1.04.07-.24,0-.48.01-.71.01-.1,0-.2,0-.31,0-.82-.01-1.61-.1-2.38-.24-.02-.02-.04-.04-.06-.05l-.14-.12s-.1-.08-.15-.11c-.52-.38-1.21-.84-2.08-1.25-.95-.44-2.12-.82-3.47-.82-.75,0-1.55.13-2.34.43-1.19.45-2.29,1.31-3.18,2.49-.79,1.05-1.42,2.35-1.95,3.94-.06.18-.13.36-.18.55h0s0,0,0,0l-.02.07c-.08.27-.11.45-.13.52v.02s-.06.18-.12.46c0,.03,0,.05-.01.07h0s-.04.24-.04.24v.06s-.05.22-.05.22h0c0,.05-.03.18-.06.37-.02.2-.03.34-.04.4-.01.15-.03.34-.04.58h0c0,.22,0,.35,0,.41v.02c0,.06,0,.14,0,.23,0,.08,0,.2,0,.32h0s0,0,0,.02c0,0,0,.01,0,.02h0c0,.16.02.31.02.42v.02s.02.25.02.25l.02.2h0s0,.04,0,.06c0,0,0,0,0,0,0,0,0,0,0,0,.02.17.04.31.06.43v.04s.03.19.03.19h0s.04.24.04.24c0,.02.01.04.01.06h0c.03.15.05.29.08.43,0,0,0,0,0,0h0s0,.03,0,.04l.05.2.05.22v.05c.05.16.09.3.12.43h0c.04.14.07.25.1.33h0s0,0,0,0h0s.04.14.04.14h0v.04s.01,0,.01,0h0s0,0,0,0c.04.13.09.27.14.42v.03s.08.2.08.2c0,0,0,0,0,0h0s0,0,0,0h0l.08.23v.04s.01,0,.01,0c0,0,0,.02.01.03h0s0,0,0,0c.04.11.09.22.14.36.08.19.15.36.22.5.02.04.04.09.06.14.02.03.03.07.05.1.02.06.04.1.07.16h0c.09.19.17.36.25.51.04.09.11.21.19.37h0s0,0,0,0c.1.2.2.36.28.5v.02c.06.08.12.19.21.34h0c.1.16.18.28.24.38,0,0,0,0,0,0h0s.08.14.08.14v.02s.17.26.17.26h0s.02.03.03.05c.12.18.23.33.31.45h0s.11.16.23.32h0s.11.16.11.16h0c.16.21.33.44.52.68l.03.03.2.24h0s0,0,0,0h0c.1.14.21.27.32.4v-.02s.05.08.05.08l.03.03c.11.13.2.23.26.3l.02.02.19.21h0s.16.18.16.18l.04.05c.1.11.2.21.29.3h.01s.17.19.17.19h0s.19.19.19.19l.03.03h0c.12.12.23.22.31.31h0s.01.02.01.02l.2.19h0s0,0,0,0l.17.16.02.02c.12.11.23.21.33.29h0c.13.12.27.24.43.38h0c.11.09.22.19.33.28,0,0,.02,0,.02.01h0s.03.02.03.02h0c.12.1.26.21.4.32h0c.11.08.22.17.33.25h.01c.13.11.25.2.37.29l.06.04.03.02c.1.08.21.15.33.23h0c.17.12.33.23.5.34h-.01c.1.06.21.13.34.21l.03.02.19.12h.01c.08.05.17.11.29.19,0,0,0,0,0,0,0,0,0,0,0,0,.08.05.18.11.31.19h0c.18.11.34.2.5.29h0s.06.03.06.03l.25.14.03.02c.13.07.23.12.31.16h0c.08.04.19.1.33.17h-.01s.19.09.19.09l.03.02c.26.13.52.24.78.36h0s.05.02.05.02l.05.02c.06.03.13.04.19.07.38.16.76.29,1.15.43,3.49,10.64,8.65,20.16,15.46,27.35h0c.96,1.12,1.97,2.18,3.04,3.2.11.11.22.22.33.32h0c.2.19.32.28.36.31h0c.48.43.99.88,1.54,1.33h0c.33.27.68.51,1.02.77v40.86l-3.42.43.58,3.37-.74-4.32c-.22-1.27-1.41-2.14-2.68-1.97-9.09,1.23-20.73,2.69-32.04,5.8-6.46,1.78-12.81,4.1-18.56,7.25-.1,0-.2,0-.3,0-3.67,0-7.72.74-12.21,2.29-.09.03-.18.07-.27.11-1.48.72-2.9,1.78-4.38,3.12-2.76,2.52-5.67,6.08-8.81,10.52-5.48,7.76-11.59,18.21-18,30.27-5.12,9.64-10.44,20.31-15.75,31.42-.31.09-.62.18-.92.28-.76-4.12-1.18-8.31-1.18-12.51,0-9.12,1.84-18.25,5.64-26.61ZM383.03,302.39c-6.56,0-13.65-1.07-20.97-3.85l-2.22-12.99,4.72-.6h.28c.63,0,1.25-.25,1.69-.7.45-.45.7-1.06.7-1.69v-44.21c0-.78-.38-1.51-1.02-1.96-.6-.42-1.19-.87-1.77-1.34h0c-.44-.36-.89-.75-1.34-1.17h0c-.18-.17-.29-.25-.31-.27-1.08-1-2.1-2.07-3.07-3.2l-.09-.1h0c-6.42-6.76-11.44-16.1-14.75-26.68-.25-.79-.88-1.39-1.68-1.6-.17-.04-.35-.1-.56-.16h0s-.02,0-.03,0h0c-.45-.14-.91-.31-1.37-.51h0s-.04-.02-.04-.02c-.21-.09-.42-.19-.63-.29l-.17-.08h-.02c-.06-.04-.14-.08-.26-.14h-.02c-.1-.06-.17-.1-.21-.12l-.22-.12h-.02c-.16-.1-.3-.18-.44-.26-.06-.03-.14-.08-.25-.15,0,0,0,0,0,0-.06-.04-.15-.09-.25-.16h0s-.17-.11-.17-.11c-.07-.05-.15-.1-.25-.17h-.01c-.13-.1-.27-.19-.4-.28h0c-.08-.06-.17-.12-.26-.19l-.03-.03-.02-.02c-.12-.09-.23-.17-.34-.25h0c-.09-.07-.18-.14-.26-.21h0c-.11-.09-.22-.18-.34-.27h-.02s-.02-.03-.02-.03c-.08-.07-.17-.14-.26-.22h0c-.11-.09-.22-.19-.35-.3-.1-.09-.19-.17-.26-.23l-.16-.15h0s-.19-.18-.19-.18c-.1-.1-.18-.18-.24-.24h0s-.17-.17-.17-.17h0s-.17-.17-.17-.17c-.08-.09-.16-.17-.23-.24l-.14-.16h0s-.17-.19-.17-.19v-.02c-.11-.1-.17-.18-.22-.23l-.04-.05v-.02c-.1-.1-.19-.21-.29-.33v-.02s-.2-.22-.2-.22c-.13-.17-.26-.34-.4-.53h0s-.11-.15-.11-.15c-.02-.02-.07-.1-.16-.24h0c-.1-.15-.17-.26-.23-.34l-.13-.21v-.02s-.09-.13-.09-.13h0c-.08-.13-.15-.23-.18-.3h0c-.03-.05-.08-.14-.15-.26v-.02c-.1-.15-.17-.28-.22-.38,0,0,0,0,0,0-.03-.06-.08-.15-.14-.28h0c-.07-.15-.13-.27-.18-.38-.03-.07-.08-.17-.13-.29h0c-.06-.15-.11-.27-.15-.36v-.02c-.04-.07-.08-.17-.12-.29l-.07-.2h0s-.06-.18-.06-.18c-.03-.08-.06-.17-.09-.27l-.04-.13h0c-.03-.11-.06-.19-.07-.24-.03-.1-.05-.2-.08-.28l-.04-.2h0s-.04-.18-.04-.18c-.02-.09-.04-.19-.06-.28l-.03-.2h0s-.03-.18-.03-.18c-.01-.1-.03-.19-.03-.25v-.15s-.03-.23-.03-.23c0-.12-.01-.2-.02-.26v-.03s0-.14,0-.14v-.2s0,.02,0,.02c0-.16,0-.25,0-.28,0-.09.01-.21.03-.37.01-.15.02-.23.02-.24h0s0,0,0,0c0,0,.01-.07.03-.19h0s.04-.24.04-.24v-.03s.03-.15.03-.15c0-.02.03-.11.07-.28v.02c.04-.21.07-.3.07-.31v-.02c.59-1.99,1.3-3.03,1.81-3.51.26-.24.47-.36.66-.44.2-.07.38-.11.61-.11.4,0,.94.13,1.46.38.51.23.99.56,1.32.81.13.11.25.22.36.31.14.11.25.2.25.2.3.24.63.39,1,.47,1.25.26,2.52.4,3.81.42.13,0,.26,0,.39,0,.3,0,.6,0,.9-.02h0c.43-.02.86-.05,1.3-.09,1.3-.12,2.61-.34,3.92-.65h0c1.22-.29,2.42-.66,3.61-1.07h0c.15-.06.39-.13.72-.25.65-.24,1.3-.5,1.95-.77,1.96-.82,3.92-1.8,5.88-2.9.99-.56,1.97-1.15,2.93-1.75h0c.47-.29.95-.59,1.46-.92h0c2.18-1.42,4.35-2.97,6.48-4.6.71-.54,1.42-1.1,2.12-1.66h0c4.58-3.66,8.97-7.65,12.98-11.56,4.27-4.17,8.09-7.46,11.23-10.17,1.57-1.35,2.97-2.56,4.18-3.67.54-.5,1.04-.97,1.5-1.43.61.47,1.28,1,1.98,1.58h0s.17.15.36.33c.19.18.45.42.76.72.49.48,1.12,1.09,1.84,1.83h0c1.21,1.24,2.7,2.83,4.32,4.68h0c.65.74,1.31,1.53,1.99,2.35.34.41.68.83,1.02,1.26.69.86,1.38,1.76,2.07,2.68h0c.32.43.64.87.96,1.32h0c.64.89,1.28,1.81,1.89,2.75h0c.31.47.61.94.91,1.42h0c3.62,5.74,6.53,12.12,7.19,18.08.1.86.66,1.61,1.46,1.94.8.33,1.73.2,2.41-.34,0,0,.24-.19.48-.39l.02-.02.12-.11c.21-.16.48-.35.79-.52.13-.08.27-.15.4-.21l.2-.09h.01c.13-.07.27-.12.41-.17h0c.35-.12.68-.18.96-.18.21,0,.38.03.56.09h0c.09.03.18.07.28.13.25.14.56.39.91.89h0c.11.15.22.32.33.51h0c.33.58.68,1.38.99,2.43v.04c.07.19.11.38.15.56h0s0,.07.03.19v.03c.03.16.05.28.07.37v.05s0,0,0,0l.02.21h0s0,.02,0,.02h0c.01.16.02.27.03.35h0s0,.12,0,.26h0s0,.19,0,.19v.15s0,.05,0,.05c0,.05,0,.13-.01.23h0c0,.15-.02.26-.03.36l-.02.16h0s-.02.14-.02.14c-.02.14-.04.25-.05.35h0c-.02.09-.03.18-.05.28v.02c-.03.11-.05.23-.08.35-.03.11-.06.22-.08.3h0c-.03.11-.07.23-.1.34l-.03.11h0s-.07.22-.07.22c-.03.1-.07.21-.13.34h0s-.06.15-.06.15h0s-.06.16-.06.16h0c-.04.09-.09.21-.14.34,0,0,0,.01-.01.02-.05.13-.1.22-.13.29h0c-.05.1-.11.23-.18.37,0,0,0,.01,0,.01l-.08.15h0s-.07.14-.07.14c-.06.11-.13.24-.21.37h0s-.08.16-.08.16l-.08.14c-.07.12-.16.25-.25.41h0c-.09.13-.13.21-.15.22h0c-.12.2-.25.39-.4.58l-.03.05-.08.11h0s-.01.01-.01.01c-.14.19-.27.36-.4.53h0s-.09.11-.17.21l-.02.03c-.12.15-.23.28-.32.39h0c-.04.05-.12.13-.23.25h0c-.11.13-.22.25-.31.34l-.05.05h0s-.19.2-.19.2h0c-.12.13-.22.24-.32.33h0c-.07.07-.15.15-.24.24l-.02.02c-.11.11-.22.21-.33.31h0s0,0,0,0c-.08.07-.16.15-.26.23h0c-.11.11-.22.21-.34.31h0c-.08.07-.17.15-.27.22h0c-.11.1-.22.19-.34.28,0,0,0,0,0,0l-.21.16h0s-.1.08-.1.08h.01c-.12.08-.24.17-.37.27h0c-.09.07-.18.14-.26.19-.13.09-.26.18-.39.27h-.02c-.1.08-.18.13-.25.18h0c-.13.09-.27.17-.42.27h0l-.12.07h.01s-.15.09-.15.09c-.14.08-.28.16-.44.25h0s-.09.04-.09.04h0s-.15.08-.15.08c-.15.08-.31.16-.49.25l-.03.02-.09.05-.06.03c-.2.1-.41.19-.62.28h-.01s0,0,0,0h-.01s-.02.01-.02.01c-.46.2-.92.36-1.36.5h-.03c-.2.07-.39.13-.56.17-.8.21-1.43.81-1.68,1.6-.24.78-.5,1.56-.77,2.34h0c-.08.22-.16.45-.24.7h0c-.2.56-.4,1.11-.6,1.66h0c-.1.25-.19.5-.27.72h0c-.26.66-.52,1.32-.79,1.97h0c-.05.14-.09.23-.11.28h0c-.3.72-.61,1.42-.93,2.13h0c-.1.23-.22.48-.34.74h0c-.22.47-.44.94-.67,1.39h0c-.14.27-.27.54-.4.79h0c-.25.5-.51.99-.77,1.48h0c-.13.23-.23.44-.32.6-.34.61-.68,1.21-1.03,1.81-.15.25-.31.52-.49.8h0c-.23.37-.45.74-.68,1.1h0c-.19.29-.37.57-.54.83h0c-.24.36-.48.72-.74,1.08h0c-.21.31-.41.6-.6.86h0c-.35.49-.7.96-1.06,1.42h0c-.19.25-.39.5-.61.78-.24.3-.48.59-.71.87-.22.26-.44.52-.66.78h0c-.24.28-.49.56-.76.85h0c-.23.26-.44.49-.63.69-.03.03-.05.07-.08.1h0c-1.95,2.28-4.1,4.3-6.5,5.98-.64.45-1.02,1.18-1.02,1.96v44.21c0,.63.25,1.25.7,1.69.45.45,1.06.7,1.69.7h2.58l1.65.23-1.8,12.55c-6.27,2.4-14.75,4.66-24.36,4.66ZM406.62,303.1l-19.95,139.11-23.6-137.79-.08-.47c6.98,2.31,13.76,3.22,20.04,3.22,9.13,0,17.23-1.88,23.59-4.07ZM218.93,411.2c0-9.15,3.1-17.55,8.31-24.25,3.78-4.86,8.68-8.79,14.29-11.45.14.5.27,1.01.41,1.51-8.02,17.09-15.91,34.85-23.01,51.26v-17.07ZM208.39,471.09c0-3.64.71-7.36,2.23-11.01,2.49-5.97,5.22-12.46,8.13-19.28.53-1.23,1.06-2.48,1.6-3.73.13-.29.25-.59.38-.88.42-.98.84-1.96,1.27-2.95.14-.33.28-.65.42-.98.53-1.24,1.07-2.49,1.62-3.74,0-.02.01-.04.02-.05.57-1.32,1.15-2.65,1.73-3.98.1-.22.19-.44.29-.66.51-1.16,1.02-2.33,1.53-3.5.09-.2.18-.41.27-.61,1.21-2.77,2.45-5.56,3.69-8.38.03-.08.07-.15.1-.23,5.81-13.1,11.93-26.53,18.06-39.38,0,0,0,0,0,0,1.73-3.62,3.45-7.19,5.17-10.69,8.04-16.37,15.93-31.29,22.95-42.61,3.51-5.66,6.79-10.42,9.73-13.99,1.47-1.78,2.84-3.26,4.09-4.4,1.2-1.1,2.27-1.86,3.14-2.3,4.03-1.37,7.52-1.97,10.49-1.97.27,0,.53,0,.79.01.44.02.88-.09,1.26-.31,5.43-3.06,11.65-5.36,18.07-7.13,9.99-2.75,20.43-4.19,29.12-5.37l.35,2.04,2.69,15.69.78,4.53,26.17,152.78c.2,1.16,1.21,2,2.39,1.99,1.18-.02,2.17-.89,2.34-2.05l21.64-150.87,1-7.01.04-.28h0s2.24-15.61,2.24-15.61l.17-1.2c9.19,1.24,20.31,2.79,30.79,5.85,3.27.96,6.48,2.05,9.53,3.32.56.24,1.2.25,1.77.03,1.38-.53,2.79-.79,4.24-.79,2.86,0,5.91,1.04,9.09,3.53,6.73,5.87,14.61,15.59,22.77,27.33,7.49,10.78,15.25,23.27,22.75,36.12h-9.14c-8.5,0-15.65,6.36-16.64,14.8l-4.22,35.89-1.8,15.3c-2.01-3.8-4.01-7.57-5.95-11.23-.49-.93-1.54-1.43-2.57-1.23-1.04.2-1.82,1.06-1.92,2.1-1.23,11.99-2.44,23.35-3.51,32.65-1.06,9.3-1.98,16.57-2.6,20.27-.05.3-.04.6.02.9,0,0,.2.95.58,2.68,1.1,5.16,3.69,17.28,6.76,32.02l-.71,6.02h-26.89c-.02-.51-.08-.99-.2-1.44.59-.27,1.19-.63,1.76-1.13.58-.51,1.1-1.16,1.51-1.93.35-.66.59-1.42.75-2.23.03-.14.07-.26.1-.41h0s0,0,0,0c.06-.42.09-.83.1-1.24,0-.02,0-.04,0-.06,0-1.22-.3-2.34-.8-3.22-.37-.67-.83-1.2-1.29-1.62-.7-.63-1.39-1.01-1.93-1.25-.36-.16-.65-.25-.83-.3-.06-.02-.15-.05-.26-.1,0,0-.02,0-.02,0-.33-.12-.88-.32-1.56-.57-.57-.2-1.23-.44-1.96-.69-.54-.19-1.11-.39-1.71-.59-1.52-.51-3.17-1.05-4.7-1.5-.45-.13-.87-.25-1.29-.36.07-.38.11-.75.11-1.13,0-.88-.21-1.78-.66-2.53-.33-.57-.78-1.05-1.27-1.41-.74-.55-1.55-.87-2.37-1.07-.82-.2-1.67-.27-2.54-.27-1.62,0-3.33.27-5.04.72-1.71.45-3.42,1.09-4.98,1.88-.45.22-.98.51-1.57.82-.34.18-.7.37-1.08.58-.52.29-1.08.59-1.67.92-.59.33-1.21.67-1.85,1.03-6.37,3.57-14.89,8.52-17.57,10.08l-.63-.16,1.79-7.96h0c.04-.16.05-.32.05-.48,0-.95-.63-1.82-1.58-2.1l-87.76-26.13c-.2-.06-.4-.09-.6-.09-.95,0-1.82.62-2.1,1.58-.06.2-.09.4-.09.6,0,.95.62,1.82,1.58,2.1l85.78,25.56-1.55,6.89-5.1,22.65-.25,1.11c-.03.16-.05.32-.05.48h-93.33s.01-.06.02-.08c.39-1.79.77-3.57,1.16-5.34.06-.26.11-.53.17-.79.38-1.75.76-3.49,1.14-5.2.04-.16.05-.32.06-.49,0-.49-.14-.97-.42-1.38-.37-.54-.95-.91-1.6-1.01l-56.21-8.92s-.02,0-.03,0c-.71-.11-1.4-.25-2.09-.41-.14-.03-.27-.06-.41-.09-.68-.16-1.34-.34-2-.55-.1-.03-.19-.06-.28-.09-1.4-.45-2.75-.98-4.04-1.6-.03-.01-.06-.03-.09-.04-2.7-1.31-5.14-2.97-7.27-4.9-.01-.01-.03-.02-.04-.03-.91-.83-1.77-1.7-2.56-2.63-4.55-5.27-7.15-11.97-7.14-18.93ZM287.3,513.6c-.02.07-.03.14-.04.21-.36,1.65-.72,3.32-1.09,5-.22.99-.43,1.99-.65,2.99-.13.59-.26,1.18-.38,1.77l-66.21.06v-24.27c1.05.7,2.14,1.35,3.27,1.95.02,0,.04.02.05.03,1.67.88,3.42,1.63,5.26,2.25.14.05.29.09.43.14.44.14.89.28,1.34.41.19.05.38.11.58.16.43.11.86.22,1.3.32.19.04.38.09.57.13.59.12,1.18.24,1.78.33.03,0,.06.01.08.02l53.7,8.52ZM131.3,423.84c.61,1.26,1.42,2.39,2.41,3.35.02.17.05.43.05.77,0,.5-.06,1.15-.26,1.84-.2.69-.55,1.44-1.14,2.18-.73.92-1.33,1.64-1.84,2.21l-1.63-2.59s-.1-.18-.21-.49c-.04-.1-.07-.22-.11-.36-.11-.42-.21-.97-.21-1.68,0-.71.11-1.59.41-2.62.19-.14.36-.31.54-.46.6-.51,1.18-1.07,1.69-1.73.11-.14.2-.29.3-.43ZM129.81,415.05v.02c0,2.55-.78,4.92-2.11,6.64-.47.61-1,1.11-1.57,1.52h-.02c-.14.12-.23.18-.27.2-.39.25-.68.62-.83,1.06-.21.6-.36,1.18-.49,1.74h0c-.11.49-.19.96-.24,1.42,0,.04-.01.08-.01.11-.05.46-.08.9-.08,1.31,0,.94.11,1.74.27,2.42.03.12.05.24.08.34h0c.31,1.14.7,1.8.82,1.98h0l3.06,4.86c.32.51.85.86,1.45.95.6.09,1.21-.08,1.67-.47.13-.11,1.46-1.26,4.1-4.59.95-1.2,1.53-2.45,1.87-3.6.34-1.15.43-2.19.43-3.01,0-1.11-.17-1.83-.2-1.95l-.09-.28-.04-.11c-.03-.07-.07-.18-.12-.31-.12-.32-.33-.61-.59-.84-1.67-1.4-2.84-3.98-2.84-6.96,0-.72.07-1.47.21-2.23h0c.47-2.53,1.7-4.72,3.34-6.16,1.39-1.22,2.84-1.77,4.25-1.78.33,0,.67.03,1.01.1h0c1.5.29,2.78,1.19,3.77,2.63.98,1.44,1.59,3.4,1.59,5.57,0,.73-.07,1.48-.21,2.24-.47,2.53-1.7,4.72-3.34,6.16-.58.51-1.19.91-1.81,1.2-.3.14-.55.34-.76.6l-.03.04c-1.35,1.7-3.32,4.45-5.18,7.39-.93,1.47-1.83,2.99-2.61,4.45-.78,1.46-1.43,2.86-1.87,4.15-.12.37-.26.83-.4,1.35h-5.81c0-.57-.01-1.11-.03-1.62h0c-.21-4.93-1.65-9.26-3.04-12.4-.15-.35-.3-.67-.46-.99-.05-.11-.11-.22-.16-.33-.09-.19-.18-.37-.27-.54-.18-.35-.35-.68-.51-.97-.79-1.46-1.39-2.33-1.48-2.46-.15-.22-.33-.39-.55-.53-.62-.42-1.2-.95-1.73-1.62-1.35-1.72-2.15-4.09-2.16-6.66v-.02s0-.02,0-.02c0-2.55.78-4.92,2.11-6.64.7-.9,1.48-1.56,2.29-1.99.82-.43,1.67-.65,2.56-.65.9,0,1.75.21,2.57.64.82.43,1.6,1.08,2.3,1.97h0s0,0,0,0c.02.02.06.1.15.21h0c1.25,1.7,1.99,3.98,2,6.44v.02ZM115.66,386.33l14.1,1.73-1.84,15.02h0c-.21-.13-.41-.26-.63-.38-1.39-.73-2.93-1.12-4.51-1.12h0c-1.58,0-3.12.4-4.51,1.14-1.39.74-2.62,1.8-3.64,3.12-.32.42-.61.85-.88,1.31-.05.09-.11.18-.16.27-.25.45-.49.91-.69,1.38,0,0,0,0,0,0l2.76-22.48ZM111.83,417.51s.01.05.01.08c.02.12.04.24.06.36.04.25.09.5.15.74.03.14.07.28.1.42.06.24.13.47.2.71.04.12.07.24.11.36.11.34.24.67.37,1,.03.08.07.15.11.23.11.26.23.51.36.76.06.11.11.22.17.32.12.22.25.45.39.66.06.1.12.19.18.29.2.3.4.6.63.88h0c.69.88,1.48,1.63,2.32,2.25.38.58,1.33,2.12,2.3,4.32,1.25,2.81,2.51,6.68,2.69,10.89h0c0,.07,0,.15,0,.23.01.37.02.78.02,1.21h-13.34l3.15-25.7ZM91.07,376.04c.08-.06.17-.12.24-.19.39-.39.61-.93.61-1.48v-3.45c0-.43-.14-.85-.38-1.2v-7.06h3.87v7.06c-.24.35-.38.77-.38,1.2v3.45c0,.55.22,1.09.61,1.48.07.07.16.13.24.19v67.17h-4.8v-67.17ZM75.66,428.46l-.21.02-3.13-28.13,2.25-.56c1-.25,1.66-1.18,1.57-2.2l-.23-2.71c.62-.41,1-1.12.93-1.91l-.03-.36,1.57-.13.03.36c.07.83.63,1.5,1.36,1.78l4.16,48.6h-4.02l-1.96-12.98c-.17-1.11-1.18-1.89-2.29-1.76ZM70.46,447.99h66.02l-6.48,75.64h-53.05l-6.48-75.64ZM825.47,564.95H4.79v-1.58c0-9.66,3.91-18.38,10.24-24.72,6.33-6.33,15.06-10.24,24.72-10.24h750.78c9.66,0,18.38,3.91,24.72,10.24,6.33,6.33,10.24,15.06,10.24,24.72v1.58Z"/>
        <polygon class="cls-15" points="432.77 177.36 432.76 177.36 432.76 177.37 432.77 177.36"/>
        <polygon class="cls-15" points="130.94 405.8 130.93 405.8 130.93 405.79 130.94 405.8"/>
        <path class="cls-15" d="M275.27,455.98l22.26,8.13c.78.29,1.66.14,2.31-.38.65-.52.99-1.35.88-2.17-1.06-8.3-2.54-21.93-4.11-37.43-.11-1.04-.87-1.89-1.9-2.1-1.03-.21-2.07.27-2.57,1.19-4.11,7.45-9.6,16.36-18.05,29.2-.4.61-.5,1.37-.27,2.07.23.7.76,1.24,1.45,1.5ZM292.61,432.01c1.07,10.31,2.07,19.43,2.88,26.26l-15.75-5.75c5.38-8.23,9.51-14.82,12.87-20.5Z"/>
        <path class="cls-15" d="M332.82,330.16l12.15,7.78-12.59,12.76c-.47.48-.73,1.11-.73,1.76,0,.34.07.69.22,1.01h0s43.74,103.17,43.74,103.17v.03c.46.95,1.4,1.49,2.38,1.49.35,0,.7-.07,1.04-.21.96-.41,1.56-1.33,1.56-2.32,0-.34-.07-.68-.22-1.01h0s-43.05-101.62-43.05-101.62l13.56-13.75c.46-.47.72-1.1.72-1.75,0-.1,0-.19-.02-.28h0c-.09-.76-.52-1.43-1.15-1.84l-13.19-8.44,8.53-30.51h0c.06-.22.09-.45.09-.67,0-1.14-.79-2.15-1.93-2.45-.22-.06-.45-.08-.67-.08-.57,0-1.11.18-1.55.5-.44.32-.79.8-.95,1.36h0s-9.02,32.29-9.02,32.29c-.06.22-.09.45-.09.67,0,.85.44,1.65,1.17,2.12Z"/>
        <path class="cls-15" d="M394.1,458.71h0c.31.12.64.18.95.18,1.01,0,1.98-.58,2.41-1.57v-.03s40.06-104.66,40.06-104.66h0c.12-.3.18-.62.18-.93,0-.68-.28-1.34-.79-1.82l-.66.69.66-.7-13.04-12.35,11.86-8.17c.69-.47,1.1-1.25,1.1-2.07,0-.25-.04-.5-.12-.75h0s-10.16-31.98-10.16-31.98c-.36-1.11-1.39-1.78-2.48-1.78-.25,0-.5.03-.75.11-1.1.32-1.85,1.31-1.85,2.42,0,.25.04.5.12.76h0s9.6,30.21,9.6,30.21l-12.88,8.87c-.62.43-1.03,1.11-1.09,1.86v.2c0,.69.28,1.34.78,1.82l14.04,13.29-39.41,103.09h0c-.12.3-.18.62-.18.93,0,1.02.64,1.97,1.64,2.36Z"/>
        <path class="cls-15" d="M579.72,485.66l-2.57,23.99c-.07.69.15,1.37.62,1.87.47.51,1.12.79,1.82.77,1.62-.04,3.53-.22,5.48-.75,1.95-.53,3.97-1.41,5.72-2.9,1.64-1.4,2.86-3.24,3.63-5.36.78-2.12,1.13-4.53,1.13-7.19,0-.24,0-.48,0-.73h0c-.05-1.84-.22-3.96-.75-5.98-.27-1.01-.63-2.01-1.15-2.95-.52-.93-1.23-1.82-2.21-2.49-.71-.48-1.49-.79-2.26-.98-.77-.19-1.54-.26-2.31-.26-1.89,0-3.74.42-5.43.9-.94.27-1.61,1.07-1.72,2.04ZM584.3,487.83c.93-.2,1.82-.33,2.57-.33.46,0,.87.04,1.18.12.31.08.54.18.7.29.21.14.47.42.73.88.39.69.73,1.77.94,2.97.21,1.2.31,2.53.34,3.73h0c0,.21,0,.41,0,.61,0,2.24-.3,4.09-.84,5.55-.54,1.46-1.28,2.53-2.24,3.36-1.06.9-2.41,1.53-3.87,1.92-.53.14-1.06.25-1.6.33l2.08-19.43Z"/>
      </g>
      <g>
        <g>
          <polygon class="cls-13" points="661.32 503.02 661.32 514.1 756.64 513.86 756.64 503.02 661.32 503.02"/>
          <path class="cls-13" d="M749.45,496.56c-1.46.93-3.19,1.48-5.05,1.48h-.7c-1.09,0-2.13-.32-3.02-.93l-81.5.21s-.02.05-.02.08c0,.43.3.68.56.78.11.04.2.06.27.06h99.03c1.32,0,2.39,1.07,2.39,2.39v15.62c0,1.32-1.07,2.39-2.39,2.39l-99.03.25c-.07,0-.16.02-.26.06-.27.09-.57.35-.57.78,0,.46.38.83.84.83l99.87-.25h0c.65,0,1.27.26,1.72.73.07.07.22.2.45.2h.69c2.57,0,4.66-2.09,4.66-4.66v-16.04c0-2.57-2.09-4.65-4.66-4.65h-.69c-.13,0-.26.05-.38.15-.42.34-.95.53-1.5.53h-10.72Z"/>
          <polygon class="cls-13" points="642.97 475.03 642.97 486.11 738.29 485.87 738.29 475.03 642.97 475.03"/>
          <path class="cls-5" d="M650.48,470.05h-.7c-1.86,0-3.58-.55-5.05-1.48h-3.08c-.46,0-.84.38-.84.84,0,.43.3.68.56.78.11.04.2.06.27.06h99.03c1.32,0,2.39,1.07,2.39,2.39v15.62c0,1.32-1.07,2.39-2.39,2.39l-99.03.25c-.07,0-.16.02-.27.06-.28.1-.56.38-.56.78,0,.46.38.83.84.83l99.87-.25h0c.65,0,1.27.26,1.72.73.09.09.23.2.44.2h.7c2.57,0,4.66-2.09,4.66-4.66v-16.04c0-1.24-.49-2.36-1.28-3.19l-94.27-.24c-.89.6-1.93.93-3.02.93Z"/>
          <polygon class="cls-13" points="655.89 447.05 655.89 457.89 751.21 458.13 751.21 447.05 655.89 447.05"/>
          <path class="cls-13" d="M663.92,440.59h-11.57c-.55,0-1.07-.19-1.5-.53-.12-.1-.25-.15-.38-.15h-.7c-2.57,0-4.66,2.09-4.66,4.65v16.04c0,2.57,2.09,4.65,4.66,4.65h.7c.21,0,.36-.11.45-.2.45-.47,1.04-.76,1.73-.73l99.87.25c.46,0,.84-.37.84-.84,0-.4-.28-.68-.56-.78-.11-.04-.2-.06-.27-.06l-99.04-.25c-1.32,0-2.39-1.07-2.39-2.39v-15.62c0-1.32,1.07-2.39,2.39-2.39h99.03c.07,0,.16-.02.27-.06.26-.09.57-.35.57-.78,0,0,0,0,0,0l-86.17.22c-1.22,0-2.34-.39-3.27-1.05Z"/>
          <polygon class="cls-13" points="668.49 419.31 668.49 430.39 763.81 430.15 763.81 419.31 668.49 419.31"/>
          <path class="cls-7" d="M675.99,414.33h-.7c-1.86,0-3.58-.55-5.04-1.47h-3.08c-.46,0-.84.38-.84.84,0,.43.3.69.56.78.11.04.2.06.28.06h99.03c1.32,0,2.39,1.07,2.39,2.39v15.62c0,1.32-1.07,2.39-2.39,2.39l-99.03.25c-.07,0-.16.02-.27.06-.26.09-.56.35-.56.78,0,.46.38.83.84.83l99.87-.25h0c.65,0,1.27.26,1.72.73.07.07.23.2.45.2h.7c2.57,0,4.66-2.09,4.66-4.65v-16.04c0-1.24-.49-2.36-1.28-3.19l-94.27-.24c-.89.6-1.93.93-3.02.93Z"/>
          <polygon class="cls-13" points="681.41 391.33 681.41 402.17 776.72 402.41 776.72 391.33 681.41 391.33"/>
          <path class="cls-8" d="M778.88,408.03c0-.43-.3-.69-.56-.78-.11-.04-.2-.06-.27-.06l-99.04-.25c-1.32,0-2.39-1.07-2.39-2.39v-15.62c0-1.32,1.07-2.39,2.39-2.39h99.03c.07,0,.17-.02.28-.06.26-.09.56-.35.56-.78,0-.46-.38-.84-.84-.84h-100.17c-.55,0-1.07-.19-1.5-.53-.12-.1-.25-.15-.38-.15h-.7c-2.57,0-4.65,2.09-4.65,4.65v16.04c0,2.57,2.09,4.65,4.65,4.65h.7c.21,0,.36-.11.45-.2.45-.47,1.07-.73,1.72-.73h0l99.87.25c.46,0,.84-.37.84-.83Z"/>
        </g>
        <path class="cls-15" d="M781.51,403.63v-13.52c1.33-1.05,2.15-2.66,2.15-4.4,0-3.1-2.52-5.62-5.62-5.62h-99.45c-.8-.44-1.68-.68-2.6-.68h-.7c-5.2,0-9.44,4.23-9.44,9.44v16.04c0,1.14.21,2.22.58,3.23-2.75.36-4.89,2.72-4.89,5.57,0,1.75.82,3.36,2.15,4.4v13.52c-1.28,1-2.07,2.53-2.14,4.19h-8.5c-.8-.45-1.68-.68-2.6-.68h-.7c-5.21,0-9.44,4.23-9.44,9.44v16.04c0,1.14.21,2.22.58,3.23-2.75.36-4.89,2.72-4.89,5.57,0,1.74.82,3.35,2.15,4.4v13.52c-1.33,1.05-2.16,2.67-2.15,4.42,0,3.09,2.53,5.61,5.63,5.61l12.71-.03s0,.05,0,.07c0,1.74.82,3.35,2.15,4.4v13.52c-1.33,1.05-2.16,2.66-2.15,4.42,0,3.09,2.53,5.61,5.64,5.61l99.01-.25c.89.6,1.93.93,3.02.93h.69c5.21,0,9.44-4.23,9.44-9.44v-16.04c0-5.21-4.23-9.44-9.44-9.44h-.69c-.9,0-1.8.24-2.59.68h-6.18c.36-1,.56-2.06.56-3.18v-16.04c0-1.14-.21-2.22-.58-3.23,2.75-.36,4.88-2.71,4.89-5.55,0-1.75-.82-3.37-2.15-4.42v-13.52c1.33-1.05,2.15-2.66,2.15-4.4,0,0,0-.01,0-.02l8.06-.02c.89.6,1.93.93,3.02.93h.7c5.21,0,9.44-4.23,9.44-9.44v-16.04c0-1.14-.21-2.22-.58-3.23,2.75-.36,4.88-2.71,4.89-5.56,0-1.75-.82-3.37-2.15-4.41ZM774.57,416.83v16.04c0,2.57-2.09,4.65-4.66,4.65h-.7c-.22,0-.38-.12-.45-.2-.45-.47-1.07-.73-1.72-.73h0l-99.87.25c-.46,0-.84-.37-.84-.83,0-.43.3-.69.56-.78.11-.04.2-.06.27-.06l99.03-.25c1.32,0,2.39-1.07,2.39-2.39v-15.62c0-1.32-1.07-2.39-2.39-2.39h-99.03c-.07,0-.17-.02-.28-.06-.26-.09-.56-.35-.56-.78,0-.46.38-.84.84-.84h3.08c1.46.93,3.19,1.47,5.04,1.47h.7c1.09,0,2.13-.32,3.02-.93l94.27.24c.79.83,1.28,1.95,1.28,3.19ZM655.89,457.89v-10.84h95.32v11.08l-95.32-.24ZM753.36,441.43c0,.43-.3.69-.57.78-.11.04-.2.06-.27.06h-99.03c-1.32,0-2.39,1.07-2.39,2.39v15.62c0,1.32,1.07,2.39,2.39,2.39l99.04.25c.07,0,.16.02.27.06.28.1.56.38.56.78,0,.46-.38.84-.84.84l-99.87-.25c-.68-.03-1.27.26-1.73.73-.09.09-.24.2-.45.2h-.7c-2.57,0-4.66-2.09-4.66-4.65v-16.04c0-2.57,2.09-4.65,4.66-4.65h.7c.13,0,.26.05.38.15.42.34.95.53,1.5.53h11.57c.92.66,2.05,1.05,3.27,1.05l86.17-.22s0,0,0,0ZM749.06,472.55v16.04c0,2.57-2.09,4.66-4.66,4.66h-.7c-.21,0-.36-.11-.44-.2-.45-.47-1.07-.73-1.72-.73h0l-99.87.25c-.46,0-.84-.37-.84-.83,0-.4.28-.68.56-.78.11-.04.2-.06.27-.06l99.03-.25c1.32,0,2.39-1.07,2.39-2.39v-15.62c0-1.32-1.07-2.39-2.39-2.39h-99.03c-.07,0-.17-.02-.27-.06-.26-.09-.56-.35-.56-.78,0-.46.38-.84.84-.84h3.08c1.46.93,3.19,1.48,5.05,1.48h.7c1.09,0,2.13-.32,3.02-.93l94.27.24c.79.83,1.28,1.95,1.28,3.19ZM762.05,495.88h.69c2.57,0,4.66,2.09,4.66,4.65v16.04c0,2.57-2.09,4.66-4.66,4.66h-.69c-.22,0-.38-.12-.45-.2-.45-.47-1.07-.73-1.72-.73h0l-99.87.25c-.46,0-.84-.37-.84-.83,0-.43.3-.69.57-.78.11-.04.2-.06.26-.06l99.03-.25c1.32,0,2.39-1.07,2.39-2.39v-15.62c0-1.32-1.07-2.39-2.39-2.39h-99.03c-.07,0-.17-.02-.27-.06-.26-.09-.56-.35-.56-.78,0-.03.01-.05.02-.08l81.5-.21c.89.6,1.93.93,3.02.93h.7c1.86,0,3.59-.55,5.05-1.48h10.72c.54,0,1.07-.19,1.5-.53.12-.1.25-.15.38-.15ZM661.32,514.1v-11.08h95.32v10.84l-95.32.24ZM642.97,486.11v-11.08h95.32v10.84l-95.32.24ZM668.49,430.39v-11.08h95.32v10.84l-95.32.24ZM678.17,408.62h0c-.65,0-1.27.26-1.72.73-.09.09-.24.2-.45.2h-.7c-2.57,0-4.65-2.09-4.65-4.65v-16.04c0-2.57,2.09-4.65,4.65-4.65h.7c.13,0,.26.05.38.15.42.34.95.53,1.5.53h100.17c.46,0,.84.38.84.84,0,.43-.3.69-.56.78-.11.04-.21.06-.28.06h-99.03c-1.32,0-2.39,1.07-2.39,2.39v15.62c0,1.32,1.07,2.39,2.39,2.39l99.04.25c.07,0,.16.02.27.06.26.09.56.35.56.78,0,.46-.38.83-.84.83l-99.87-.25ZM681.41,402.17v-10.84h95.32v11.08l-95.32-.24Z"/>
      </g>
    </g>
    <g>
      <g>
        <path class="cls-5" d="M620.36,220.57c0,2.95,1.2,5.61,3.14,7.56,1.95,1.94,4.61,3.14,7.56,3.14h80.35c.77,0,1.5.37,1.94,1,.45.62.57,1.43.32,2.16l-26.51,78.22c2.23-3,4.78-6.43,7.55-10.2,9.5-12.93,21.49-29.57,31.42-44.39,6.62-9.88,12.33-18.96,15.73-25.5.41-.79,1.23-1.29,2.12-1.29h141.34c2.95,0,5.61-1.2,7.56-3.14,1.94-1.95,3.14-4.61,3.14-7.56V80.6h-275.66v139.97Z"/>
        <path class="cls-14" d="M896.03,54.82c0-2.95-1.2-5.61-3.14-7.56-1.95-1.94-4.61-3.14-7.56-3.14h-254.27c-1.45,0-2.84.28-4.17.84-3.97,1.68-6.53,5.54-6.53,9.86v20.99h275.66v-20.99ZM857.53,65.48c-1.4,1.4-3.36,2.28-5.5,2.28-2.14,0-4.1-.87-5.5-2.28-1.4-1.4-2.28-3.36-2.28-5.5,0-4.29,3.48-7.77,7.77-7.77,2.14,0,4.1.87,5.5,2.28,1.4,1.4,2.28,3.36,2.28,5.5,0,2.14-.87,4.1-2.28,5.5ZM879.06,65.48c-1.4,1.4-3.36,2.28-5.5,2.28-2.14,0-4.1-.87-5.5-2.28-1.4-1.4-2.28-3.36-2.28-5.5,0-2.14.87-4.1,2.28-5.5,1.4-1.4,3.36-2.28,5.5-2.28,4.29,0,7.77,3.48,7.77,7.77,0,2.14-.87,4.1-2.28,5.5Z"/>
        <path class="cls-13" d="M852.03,56.99c-.83,0-1.57.33-2.11.88-.54.55-.87,1.28-.88,2.11,0,.83.33,1.57.88,2.11.55.54,1.28.87,2.11.88.83,0,1.57-.33,2.11-.88.54-.55.87-1.28.88-2.11,0-.83-.33-1.57-.88-2.11-.55-.54-1.28-.87-2.11-.88Z"/>
        <path class="cls-13" d="M873.56,56.99c-.83,0-1.57.33-2.11.88-.54.55-.87,1.28-.88,2.11,0,.83.33,1.57.88,2.11.55.54,1.28.87,2.11.88.83,0,1.57-.33,2.11-.88.54-.55.87-1.28.88-2.11,0-.83-.33-1.57-.88-2.11-.55-.54-1.28-.87-2.11-.88Z"/>
        <g>
          <path class="cls-15" d="M852.03,52.21c-4.3,0-7.77,3.48-7.77,7.77,0,2.14.87,4.1,2.28,5.5,1.4,1.4,3.36,2.28,5.5,2.28,2.14,0,4.1-.87,5.5-2.28,1.4-1.4,2.28-3.36,2.28-5.5,0-2.14-.87-4.1-2.28-5.5-1.4-1.4-3.36-2.28-5.5-2.28ZM854.15,62.1c-.55.55-1.28.87-2.11.88-.83,0-1.57-.33-2.11-.88-.54-.55-.87-1.28-.88-2.11,0-.83.33-1.57.88-2.11.55-.54,1.28-.87,2.11-.88.83,0,1.57.33,2.11.88.54.55.87,1.28.88,2.11,0,.83-.33,1.57-.88,2.11Z"/>
          <path class="cls-15" d="M896.27,43.88c-2.79-2.8-6.68-4.54-10.94-4.54h-254.27c-2.08,0-4.12.41-6.03,1.22h0c-5.74,2.43-9.45,8.03-9.45,14.26v165.75c0,4.26,1.74,8.15,4.54,10.94,2.79,2.8,6.68,4.54,10.94,4.54h77.01l-30.23,89.22c-.38,1.11.11,2.33,1.14,2.88,1.03.55,2.32.27,3.03-.66,0-.01,12.5-16.42,26.75-36.2,7.12-9.89,14.69-20.62,21.35-30.57,6.26-9.34,11.72-17.98,15.32-24.67h139.9c4.26,0,8.15-1.74,10.94-4.54,2.8-2.79,4.54-6.68,4.54-10.94V54.82c0-4.26-1.74-8.15-4.54-10.94ZM896.03,220.57c0,2.95-1.2,5.61-3.14,7.56-1.95,1.94-4.61,3.14-7.56,3.14h-141.34c-.89,0-1.71.5-2.12,1.29-3.4,6.54-9.11,15.63-15.73,25.5-9.93,14.82-21.92,31.47-31.42,44.39-2.77,3.76-5.31,7.2-7.55,10.2l26.51-78.22c.25-.73.13-1.54-.32-2.16-.45-.62-1.18-1-1.94-1h-80.35c-2.95,0-5.61-1.2-7.56-3.14-1.94-1.95-3.14-4.61-3.14-7.56V80.6h275.66v139.97ZM620.36,54.82c0-4.31,2.56-8.17,6.53-9.86,1.32-.56,2.71-.84,4.17-.84h254.27c2.95,0,5.61,1.19,7.56,3.14,1.94,1.95,3.14,4.61,3.14,7.56v20.99h-275.66v-20.99Z"/>
          <path class="cls-15" d="M873.56,52.21c-2.14,0-4.1.87-5.5,2.28-1.4,1.4-2.28,3.36-2.28,5.5,0,2.14.87,4.1,2.28,5.5,1.4,1.4,3.36,2.28,5.5,2.28,2.14,0,4.1-.87,5.5-2.28,1.4-1.4,2.28-3.36,2.28-5.5,0-4.29-3.48-7.77-7.77-7.77ZM875.68,62.1c-.55.54-1.28.87-2.11.88-.83,0-1.57-.33-2.11-.88-.54-.55-.87-1.28-.88-2.11,0-.83.33-1.57.88-2.11.55-.54,1.28-.87,2.11-.88.83,0,1.57.33,2.11.88.54.55.87,1.28.88,2.11,0,.83-.33,1.57-.88,2.11Z"/>
        </g>
      </g>
      <g>
        <path class="cls-8" d="M723.83,175.82l-1.54-13.04c-.62.15-1.32.33-2.11.54-2.36.62-5.4,1.45-8.82,2.43-6.84,1.96-15.19,4.51-22.56,7.09-4.91,1.71-9.38,3.44-12.63,4.98-1.85.87-3.31,1.7-4.12,2.31-.08.06-.17.12-.26.17-.9.51-1.95,1.42-3.01,2.68-1.07,1.26-2.15,2.84-3.21,4.63-2.11,3.58-4.1,7.98-5.79,12.28-2.31,5.84-4.09,11.5-5.07,14.83h73.7l-4.59-38.91Z"/>
        <path class="cls-8" d="M828.4,192.49c-1.78-3.71-3.75-7.07-5.68-9.38-1.1-1.32-2.19-2.28-3.11-2.8-.09-.05-.18-.11-.26-.17-.57-.43-1.46-.97-2.58-1.55-1.12-.58-2.48-1.21-4-1.86-3.05-1.3-6.77-2.69-10.76-4.07-7.98-2.76-17.03-5.47-24.07-7.45-3.76-1.06-6.94-1.9-9.07-2.43l-.49,4.3-1.89,16.66s0,0,0,0l-2.8,24.67-.72,6.31h73.71c-.42-1.43-.99-3.29-1.69-5.41-1.62-4.93-3.92-11.27-6.6-16.83Z"/>
        <path class="cls-13" d="M761.19,188.06c-4.2,2.11-9.29,3.47-15.33,3.46h-.06c-4.4,0-8.27-.71-11.63-1.91-1.47-.53-2.83-1.16-4.12-1.86l3.18,26.97h24.94s3.02-26.67,3.02-26.67Z"/>
        <path class="cls-13" d="M727.17,163.33l2.16,18.28c1.84,1.39,3.95,2.6,6.45,3.49,2.83,1.01,6.13,1.62,10.03,1.63h.06c6.86,0,11.98-1.91,16-4.63l2.2-19.4c-.12-.21-.21-.44-.25-.69-.73-3.73-5.85-30.35-6.03-31.25h0c-.05-.24-.07-.37-.07-.38,0-.02,0-.04,0-.05,0-.06-.01-.12-.02-.18,0-.08-.01-.16-.01-.24,0-.06,0-.12.01-.18,0-.08.02-.15.03-.23.01-.06.02-.12.04-.18.02-.07.05-.14.07-.21.02-.06.04-.12.07-.18.04-.07.08-.15.12-.22.03-.05.05-.1.08-.14.08-.11.17-.21.26-.31.03-.03.06-.06.1-.08.08-.07.15-.13.24-.19.02-.01.03-.02.04-.03l6.16-4.04c1.87-1.51,3.84-3.35,5.73-5.59,4.11-4.84,7.94-11.44,10.05-20.21.05-.2.12-.39.22-.57.03-.06.07-.11.11-.16.07-.11.15-.23.24-.33.05-.06.11-.1.17-.15.09-.08.18-.17.29-.24.07-.04.14-.07.21-.11.08-.04.16-.1.25-.13l.07-.02h.04s.02-.02.02-.02h.01s.01,0,.01,0l.05-.02s.12-.04.21-.07c.19-.06.47-.16.82-.29.71-.26,1.72-.65,2.87-1.18,2.3-1.05,5.18-2.64,7.4-4.65,1.49-1.33,2.66-2.83,3.3-4.4.37-.9.57-1.83.58-2.83h0s0-.15,0-.15c0-1.89-.34-3.15-.76-3.93-.43-.78-.87-1.13-1.44-1.37-.38-.16-.84-.25-1.38-.25-.22,0-.45.01-.69.04-.07,0-.15.03-.22.04-.17.03-.34.05-.52.1-.25.06-.5.14-.76.23,0,0,0,0-.01,0-.24.09-.49.19-.73.3-.02,0-.04.01-.06.02-1.05.49-2.08,1.2-2.9,2.03l-.12.11h0s-.06.05-.1.07c-.05.04-.09.07-.14.1-.05.04-.11.07-.17.1-.05.03-.1.06-.15.08-.06.03-.12.05-.18.08-.05.02-.1.04-.15.05-.06.02-.13.03-.2.05-.05.01-.1.02-.16.03-.07,0-.14.01-.21.02-.05,0-.1,0-.15,0-.07,0-.14,0-.21-.02-.05,0-.1,0-.15-.01-.08-.01-.16-.03-.23-.05-.04-.01-.08-.02-.12-.03-.12-.04-.23-.08-.34-.14-1.6-.81-3.74-2.12-6.67-4.01-2.93-1.88-6.62-4.32-11.18-7.33-8.79-5.8-20.83-13.72-36.79-23.77-5.52,7.27-9.56,12.2-13.02,16.87-3.73,5.04-6.81,9.81-10.52,17.17-.09.17-.19.33-.31.47-.24.29-.55.51-.9.66-.09.04-.18.05-.27.08-.09.03-.18.06-.27.08h0c-.08.01-.16,0-.24,0-.49.03-.97-.08-1.39-.33-.02-.01-.04-.04-.07-.05-.13-.09-.26-.18-.38-.3-.82-.83-1.85-1.54-2.9-2.03-1.05-.49-2.12-.74-2.99-.74-.61,0-1.11.11-1.52.31-.14.07-.27.14-.39.23-.48.35-.94.91-1.29,2.02-.23.74-.38,1.73-.38,2.98v.06s0,.09,0,.09h0c.01.97.2,1.87.54,2.74.17.43.38.86.63,1.28.25.42.53.83.84,1.24,1.26,1.62,3.05,3.08,4.93,4.28,3.76,2.41,7.8,3.75,8.26,3.89l.06.02h.05s.09.05.09.05c0,0,0,0,0,0h.04c.09.05.17.11.25.15.08.04.16.08.24.13.09.07.17.15.26.23.05.05.11.09.16.15.09.11.17.23.24.35.02.04.06.08.08.12.09.17.16.35.2.54,1.61,6.69,4.22,12.1,7.19,16.45.92,1.35,1.88,2.61,2.86,3.75,1.03,1.21,2.07,2.31,3.11,3.3.89.85,1.77,1.6,2.64,2.3l6.15,4.02s.03.02.04.04c.08.06.16.12.23.18.04.03.07.06.11.09.09.09.18.2.26.31.04.05.07.11.1.17.04.06.08.12.11.19.03.06.05.13.08.19.02.07.05.13.07.2.02.06.03.13.04.19.01.07.02.14.03.22,0,.06.01.13.01.19,0,.08,0,.16-.01.23,0,.06,0,.12-.02.18,0,.02,0,.04,0,.06l-.02.11h0c-.11.56-5.42,28.14-6.18,32.03-.06.3-.17.57-.33.81Z"/>
        <path class="cls-7" d="M801.71,55.28c-1.39-4.62-2.36-7.93-3.78-11.41-1.42-3.49-3.32-7.23-6.62-12.73l-.03-.04c-4.07-7.13-10.26-13.74-17.86-18.53-7.61-4.79-16.6-7.78-26.38-7.78-9.69,0-20.19,2.92-30.99,10.09-.2.14-.42.23-.65.3-3.79,1.11-7.18,3.4-10.25,6.59-3.06,3.19-5.77,7.25-8.13,11.73-4.73,8.95-8.06,19.47-10.56,27.67-1.89,6.18-2.67,11.6-2.67,16.34,0,6.2,1.32,11.25,3.28,15.42,1.96,4.16,4.59,7.44,7.25,9.97,5.32,5.07,10.81,7.14,10.97,7.19h0c.19.07.34.14.5.25l6.43,4.21c-2.36-3.97-4.39-8.65-5.81-14.04-.81-.29-1.95-.74-3.27-1.34-2.57-1.18-5.82-2.94-8.61-5.44-1.39-1.25-2.68-2.7-3.66-4.39-.33-.56-.62-1.15-.87-1.77-.57-1.4-.92-2.95-.93-4.59h0s0-.2,0-.2c0-2.44.43-4.5,1.32-6.17.88-1.68,2.27-2.92,3.84-3.55,1.04-.43,2.14-.61,3.21-.61,1.73,0,3.43.45,5,1.18.62.29,1.21.63,1.78,1,3.26-6.19,6.22-10.69,9.6-15.27,3.85-5.2,8.22-10.48,14.36-18.66.75-.99,2.13-1.25,3.18-.59,25.41,15.95,41.21,26.73,49.87,32.29,2.01,1.29,3.62,2.29,4.86,3,.9-.7,1.87-1.31,2.89-1.78,1.57-.73,3.27-1.18,5-1.18,1.61,0,3.28.42,4.7,1.44,1.43,1.02,2.5,2.6,3.08,4.52.39,1.29.58,2.74.58,4.37v.17s0,.03,0,.03c-.01,1.64-.36,3.19-.93,4.59-.57,1.41-1.37,2.67-2.29,3.81-1.84,2.27-4.16,4.04-6.42,5.43-3.08,1.89-6.07,3.11-7.71,3.7-1.42,5.39-3.45,10.06-5.8,14.03l8.76-5.74.11-.08c.11-.08.28-.21.49-.39.44-.36,1.07-.91,1.85-1.65,1.55-1.49,3.63-3.74,5.71-6.74,4.17-6.02,8.33-14.99,8.33-27.06,0-5.25-.79-11.11-2.75-17.59l2.29-.69-2.29.69Z"/>
        <path class="cls-15" d="M842.18,216.5s-2.23-8.37-5.77-17.5c-1.77-4.57-3.87-9.34-6.24-13.43-1.18-2.05-2.44-3.92-3.78-5.53-1.28-1.53-2.65-2.82-4.2-3.75-1.28-.95-2.92-1.85-4.93-2.79-3.53-1.66-8.13-3.42-13.16-5.17-7.53-2.62-15.99-5.19-22.94-7.17-3.47-.99-6.57-1.83-8.98-2.46-1.21-.31-2.24-.58-3.08-.78-.51-.12-.93-.22-1.29-.29-1.37-7.11-4.22-21.87-5.09-26.42.45-.26.91-.53,1.38-.83.83-.53,1.69-1.14,2.57-1.79.35-.26.7-.53,1.06-.81l22.89-15,.09-.06c.15-.11,4.73-3.43,9.33-10.05,4.59-6.61,9.19-16.59,9.19-29.79,0-5.74-.87-12.07-2.95-18.97h0c-1.39-4.59-2.4-8.06-3.93-11.83-1.54-3.77-3.57-7.76-6.95-13.39h0c-4.47-7.81-11.17-14.94-19.44-20.16C767.69,3.29,757.8,0,747.04,0c-10.58,0-21.96,3.2-33.36,10.71-4.62,1.43-8.59,4.21-11.98,7.75-5.23,5.45-9.19,12.69-12.37,20.1-3.18,7.41-5.55,15.03-7.45,21.21-2.01,6.57-2.87,12.47-2.87,17.74,0,6.99,1.53,12.86,3.84,17.68,3.47,7.24,8.66,12.07,12.95,15.09,3.65,2.57,6.66,3.84,7.58,4.2l20.3,13.29c1.75,1.39,3.44,2.53,4.99,3.42-.92,4.77-3.67,19.02-5.09,26.37-.28.06-.6.12-.99.22-2.09.49-5.91,1.49-10.62,2.82-7.07,2-16.13,4.73-24.21,7.53-4.04,1.4-7.83,2.82-11.02,4.19-1.6.68-3.05,1.35-4.31,2.01-1.26.66-2.33,1.29-3.23,1.96-1.54.93-2.9,2.21-4.18,3.74-2.35,2.81-4.43,6.45-6.32,10.37-2.83,5.87-5.18,12.37-6.84,17.42-1.66,5.05-2.62,8.65-2.62,8.68-.19.72-.04,1.48.41,2.07.45.59,1.15.93,1.9.93h79.56s0,0,.01,0h29.19s79.56,0,79.56,0c.74,0,1.44-.35,1.9-.93.45-.59.61-1.36.41-2.07ZM659.79,199.9c1.7-4.3,3.68-8.7,5.79-12.28,1.05-1.79,2.14-3.37,3.21-4.63,1.06-1.26,2.11-2.17,3.01-2.68.09-.05.18-.11.26-.17.81-.62,2.27-1.44,4.12-2.31,3.25-1.54,7.72-3.27,12.63-4.98,7.36-2.57,15.71-5.12,22.56-7.09,3.42-.98,6.47-1.82,8.82-2.43.79-.21,1.49-.39,2.11-.54l1.54,13.04,4.59,38.91h-73.7c.99-3.32,2.77-8.99,5.07-14.83ZM733.23,214.73l-3.18-26.97c1.28.7,2.64,1.33,4.12,1.86,3.36,1.2,7.23,1.9,11.63,1.91h.06c6.04,0,11.13-1.35,15.33-3.46l-3.02,26.67h-24.94ZM733.68,130.5h0s.02-.12.02-.12c0-.02,0-.04,0-.06.01-.06.01-.12.02-.18,0-.08.01-.16.01-.23,0-.06,0-.13-.01-.19,0-.07-.02-.15-.03-.22-.01-.07-.03-.13-.04-.19-.02-.07-.04-.13-.07-.2-.02-.06-.05-.13-.08-.19-.03-.07-.07-.13-.11-.19-.03-.06-.06-.11-.1-.17-.08-.11-.16-.21-.26-.31-.03-.03-.07-.06-.11-.09-.07-.07-.15-.13-.23-.18-.02-.01-.03-.03-.04-.04l-6.15-4.02c-.87-.7-1.75-1.45-2.64-2.3-1.04-.99-2.09-2.09-3.11-3.3-.98-1.15-1.93-2.4-2.86-3.75-2.97-4.35-5.59-9.76-7.19-16.45-.05-.19-.12-.37-.2-.54-.02-.04-.06-.08-.08-.12-.07-.12-.15-.24-.24-.35-.05-.06-.11-.1-.16-.15-.08-.08-.16-.16-.26-.23-.07-.05-.16-.09-.24-.13-.08-.05-.16-.1-.25-.14h-.04s0-.02,0-.02l-.09-.03h-.05s-.06-.03-.06-.03c-.46-.14-4.5-1.48-8.26-3.89-1.88-1.2-3.67-2.67-4.93-4.28-.31-.4-.6-.82-.84-1.24-.25-.42-.46-.85-.63-1.28-.34-.87-.53-1.76-.54-2.73h0s0-.09,0-.09v-.06c0-1.25.15-2.24.38-2.98.35-1.12.81-1.67,1.29-2.02.12-.09.25-.16.39-.23.42-.2.91-.31,1.52-.31.87,0,1.94.25,2.99.74,1.05.49,2.08,1.2,2.9,2.03.12.12.25.21.38.3.02.02.04.04.07.05.41.25.9.36,1.39.33.08,0,.16,0,.24,0h0c.09-.02.18-.05.27-.08.09-.03.19-.04.27-.08.35-.15.65-.37.9-.66.12-.14.23-.3.31-.47,3.71-7.37,6.79-12.13,10.52-17.17,3.46-4.67,7.5-9.6,13.02-16.87,15.96,10.05,28,17.97,36.79,23.77,4.56,3.01,8.25,5.45,11.18,7.33,2.93,1.88,5.07,3.2,6.67,4.01.11.06.23.1.34.14.04.01.08.02.12.03.08.02.16.04.23.05.05,0,.1,0,.15.01.07,0,.14.02.21.02.05,0,.1,0,.15,0,.07,0,.14,0,.21-.02.05,0,.1-.02.16-.03.07-.01.13-.03.2-.05.05-.02.1-.04.15-.05.06-.02.12-.05.18-.08.05-.02.1-.05.15-.08.06-.03.11-.07.17-.1.05-.03.09-.07.14-.1.03-.02.06-.04.1-.07h0s.12-.11.12-.11c.82-.82,1.85-1.54,2.9-2.03.02,0,.04-.01.06-.02.24-.11.49-.21.73-.3,0,0,0,0,.01,0,.26-.09.51-.17.76-.23.18-.04.35-.07.52-.1.07-.01.15-.03.22-.04.24-.03.47-.05.69-.04.54,0,1,.09,1.38.25.57.25,1.01.6,1.44,1.37.42.78.76,2.04.76,3.93v.15s0,0,0,0h0c-.01,1.01-.21,1.93-.58,2.83-.64,1.57-1.81,3.07-3.3,4.4-2.22,2-5.1,3.6-7.4,4.65-1.15.53-2.16.92-2.87,1.18-.35.13-.64.23-.82.29-.09.03-.16.05-.21.07l-.05.02h-.01s-.01,0-.01,0h-.02s-.04.02-.04.02l-.07.02c-.09.03-.17.09-.25.13-.07.04-.14.07-.21.11-.1.07-.2.15-.29.24-.06.05-.12.09-.17.15-.09.1-.16.21-.24.33-.04.05-.08.1-.11.16-.09.18-.17.37-.22.57-2.11,8.77-5.94,15.37-10.05,20.21-1.9,2.24-3.86,4.08-5.73,5.59l-6.16,4.04s-.03.02-.04.03c-.08.06-.16.12-.24.19-.03.03-.07.05-.1.08-.1.1-.18.2-.26.31-.03.05-.06.09-.08.14-.04.07-.09.14-.12.22-.03.06-.05.12-.07.18-.03.07-.05.14-.07.21-.02.06-.03.12-.04.18-.01.08-.03.15-.03.23,0,.06-.01.12-.01.18,0,.08,0,.16.01.24,0,.06,0,.12.02.18,0,.02,0,.04,0,.05,0,0,.03.14.07.38h0c.17.9,5.3,27.52,6.03,31.25.05.25.14.48.25.69l-2.2,19.4c-4.02,2.71-9.15,4.62-16,4.63h-.06c-3.9,0-7.2-.62-10.03-1.63-2.49-.89-4.61-2.1-6.45-3.49l-2.16-18.28c.15-.24.27-.52.33-.81.75-3.89,6.07-31.46,6.18-32.02ZM762.98,214.73l.72-6.31,2.8-24.67s0,0,0,0l1.89-16.66.49-4.3c2.13.53,5.31,1.37,9.07,2.43,7.04,1.98,16.09,4.69,24.07,7.45,3.99,1.38,7.71,2.77,10.76,4.07,1.52.65,2.88,1.28,4,1.86,1.12.58,2.02,1.12,2.58,1.55.08.06.17.12.26.17.93.52,2.01,1.48,3.11,2.8,1.93,2.31,3.9,5.67,5.68,9.38,2.68,5.56,4.98,11.91,6.6,16.83.7,2.12,1.27,3.98,1.69,5.41h-73.71ZM804.46,72.87c0,12.07-4.17,21.04-8.33,27.06-2.08,3-4.17,5.26-5.71,6.74-.77.74-1.41,1.3-1.85,1.65-.22.18-.39.31-.49.39l-.11.08-8.76,5.74c2.36-3.96,4.38-8.64,5.8-14.03,1.64-.59,4.63-1.81,7.71-3.7,2.26-1.4,4.58-3.17,6.42-5.43.92-1.13,1.71-2.4,2.29-3.81.57-1.4.92-2.95.93-4.59v-.2c0-1.63-.19-3.08-.58-4.37-.58-1.93-1.65-3.51-3.08-4.52-1.42-1.02-3.1-1.44-4.7-1.44-1.73,0-3.43.45-5,1.18-1.02.48-1.99,1.08-2.89,1.78-1.23-.71-2.85-1.71-4.86-3-8.66-5.56-24.47-16.34-49.87-32.29-1.05-.66-2.44-.4-3.18.59-6.15,8.18-10.52,13.46-14.36,18.66-3.39,4.57-6.34,9.08-9.6,15.27-.58-.37-1.17-.71-1.78-1-1.57-.73-3.27-1.18-5-1.18-1.07,0-2.17.18-3.21.61-1.57.63-2.96,1.88-3.84,3.55-.89,1.68-1.32,3.73-1.32,6.17v.2s0,0,0,0c.01,1.64.36,3.19.93,4.59.25.62.55,1.2.87,1.77.98,1.69,2.27,3.13,3.66,4.39,2.79,2.5,6.04,4.26,8.61,5.44,1.32.6,2.46,1.05,3.27,1.34,1.43,5.39,3.45,10.07,5.81,14.04l-6.43-4.21c-.17-.11-.31-.18-.5-.25h0c-.16-.05-5.65-2.12-10.97-7.19-2.66-2.54-5.29-5.81-7.25-9.97-1.96-4.16-3.27-9.22-3.28-15.42,0-4.75.78-10.17,2.67-16.34,2.51-8.21,5.83-18.73,10.56-27.67,2.36-4.47,5.07-8.54,8.13-11.73,3.07-3.19,6.45-5.49,10.25-6.59.24-.07.45-.17.65-.3,10.8-7.17,21.3-10.08,30.99-10.09,9.78,0,18.78,2.99,26.38,7.78,7.6,4.79,13.79,11.4,17.86,18.53l.03.04c3.3,5.51,5.2,9.25,6.62,12.73,1.42,3.48,2.39,6.79,3.78,11.41l2.29-.69-2.29.69c1.95,6.48,2.74,12.33,2.75,17.59Z"/>
      </g>
    </g>
  </g>
</svg>