<?xml version="1.0" encoding="UTF-8"?><svg id="_レイヤー_1" xmlns="http://www.w3.org/2000/svg" viewBox="0 0 54.65 104.32"><defs><style>.cls-1{fill:#e32090;fill-rule:evenodd;stroke-width:0px;}</style></defs><path class="cls-1" d="M46.77,30.22c.06.15.11.3.16.46l7.59,27c.55,2.01-.63,4.08-2.64,4.63-2.01.55-4.08-.63-4.63-2.63l-7.48-26.65h-1.7v1.69l10,39.74h-10v25c0,2.68-2.17,4.85-4.85,4.86h0c-2.68-.02-4.84-2.18-4.85-4.86v-25h-1.92v25c-.01,2.68-2.18,4.85-4.86,4.86h0c-2.65-.03-4.8-2.18-4.82-4.83v-25H6.15l10.62-40.79v-.64h-1.84l-7.52,26.62c-.55,2.01-2.63,3.19-4.63,2.63-2.01-.55-3.19-2.63-2.64-4.63l7.43-26.46h-.08c1.14-4.25,2.09-7.27,4.71-9.24,4.5-3.39,26.24-3.39,30.75,0,2.42,1.8,2.82,4.24,3.82,8.24Z"/><path class="cls-1" d="M27.34,0c4.85,0,8.78,3.93,8.78,8.78s-3.93,8.78-8.78,8.78-8.78-3.93-8.78-8.78h0C18.56,3.93,22.49,0,27.34,0Z"/></svg>