<?xml version="1.0" encoding="utf-8"?>
<!-- Generator: Adobe Illustrator 28.3.0, SVG Export Plug-In . SVG Version: 6.00 Build 0)  -->
<svg version="1.1" id="レイヤー_1" xmlns="http://www.w3.org/2000/svg" xmlns:xlink="http://www.w3.org/1999/xlink" x="0px"
	 y="0px" viewBox="0 0 24 24" style="enable-background:new 0 0 24 24;" xml:space="preserve">
<style type="text/css">
	.st0{fill-rule:evenodd;clip-rule:evenodd;fill:#4285F4;}
	.st1{fill-rule:evenodd;clip-rule:evenodd;fill:#34A853;}
	.st2{fill-rule:evenodd;clip-rule:evenodd;fill:#FBBC04;}
	.st3{fill-rule:evenodd;clip-rule:evenodd;fill:#EA4335;}
</style>
<path class="st0" d="M23.2,12.3c0-0.8-0.1-1.5-0.2-2.3H12.2v4.3h6.2c-0.3,1.4-1.1,2.6-2.3,3.4v2.8h3.7C22,18.5,23.2,15.6,23.2,12.3z
	"/>
<path class="st1" d="M12.2,23.1c3.1,0,5.7-1,7.6-2.7l-3.7-2.8c-1,0.7-2.4,1.1-3.9,1.1c-3,0-5.5-2-6.4-4.6H2V17
	C3.9,20.7,7.9,23.1,12.2,23.1z"/>
<path class="st2" d="M5.8,14.1c-0.5-1.4-0.5-2.9,0-4.3V7H2c-1.6,3.1-1.6,6.8,0,10L5.8,14.1z"/>
<path class="st3" d="M12.2,5.3c1.6,0,3.2,0.6,4.4,1.7l0,0l3.3-3.2c-2.1-1.9-4.8-2.9-7.7-2.9C7.9,0.9,3.9,3.3,2,7l3.8,2.9
	C6.7,7.2,9.2,5.3,12.2,5.3z"/>
</svg>
