<?xml version="1.0" encoding="UTF-8"?><svg id="_レイヤー_1" xmlns="http://www.w3.org/2000/svg" viewBox="0 0 39.33 104.35"><defs><style>.cls-1{fill:#037dc1;fill-rule:evenodd;stroke-width:0px;}</style></defs><path class="cls-1" d="M30.39,33.06v66.43c0,2.68-2.17,4.85-4.85,4.86h0c-2.68-.01-4.85-2.18-4.86-4.86v-39.06h-1.91v39.06c0,2.68-2.17,4.85-4.85,4.86h0c-2.68-.01-4.85-2.18-4.86-4.86V33.06h-1.69v24.41c-.01,2.03-1.66,3.67-3.69,3.68h0c-2.03-.01-3.67-1.65-3.68-3.68v-26.25c0-4.27,1.44-7.27,4.05-9.24,4.5-3.39,26.72-3.39,31.22,0,2.62,2,4.07,5,4.06,9.24v26.25c-.01,2.03-1.65,3.67-3.68,3.68h0c-2.02-.03-3.64-1.66-3.65-3.68v-24.41h-1.61Z"/><path class="cls-1" d="M19.66,0C24.51,0,28.44,3.93,28.44,8.78s-3.93,8.78-8.78,8.78-8.78-3.93-8.78-8.78h0C10.88,3.93,14.81,0,19.66,0h0Z"/></svg>