<?xml version="1.0" encoding="utf-8"?>
<!-- Generator: Adobe Illustrator 28.3.0, SVG Export Plug-In . SVG Version: 6.00 Build 0)  -->
<svg version="1.1" id="レイヤー_1" xmlns="http://www.w3.org/2000/svg" xmlns:xlink="http://www.w3.org/1999/xlink" x="0px"
	 y="0px" viewBox="0 0 24 24" style="enable-background:new 0 0 24 24;" xml:space="preserve">
<style type="text/css">
	.st0{fill:#465670;}
	.st1{fill:#FFFFFF;}
</style>
<path class="st0" d="M17.4,23.5H6.6c-3.3,0-6.1-2.7-6.1-6.1V6.6c0-3.3,2.7-6.1,6.1-6.1h11c3.2,0,6,2.7,6,6.1v11
	C23.5,20.8,20.8,23.5,17.4,23.5z"/>
<g>
	<path class="st1" d="M4,9.3c1.3-3.7,4.6-5.9,8.3-5.8l0,0l-1.2,1.4c-2.2,0.4-4,1.9-4.7,4c-1,3.2,0.7,6.7,4.1,7.8s6.9-0.5,8.1-3.8
		c0.7-2.2,0.1-4.4-1.4-6.1l0,0L17,5.1c2.9,2.1,4.3,6,3,9.6c-1.5,4.5-6.4,6.8-10.8,5.3S2.5,13.7,4,9.3z M14.5,4.3h0.1
		c0,0,0.1,0,0.1,0.1l0,0l0,0l0,0c0,0,0,0,0,0.1c0,0.1,0,0.2,0,0.3l0,0v0.1l0,0c0,0.1,0,0.2,0,0.2l0,0v1.3v1.5l0.1,2.5l0,0l0,0l0,0
		l0,0c0,0.1,0,1.2-0.7,1.9c-0.8,0.8-1.8,0.7-2.4,0.5c-0.6-0.2-1.5-0.7-1.7-1.9c-0.1-0.9,0.4-1.8,0.5-2l0,0l0,0l0,0l1.6-2L13,5.7
		l0.8-0.9c0,0,0.1-0.1,0.2-0.3l0,0l0.1-0.1l0,0C14.4,4.4,14.4,4.4,14.5,4.3C14.4,4.3,14.4,4.3,14.5,4.3L14.5,4.3L14.5,4.3L14.5,4.3z
		"/>
</g>
</svg>
