<svg id="exportSVG" visibility="visible" xmlns="http://www.w3.org/2000/svg" xmlns:xlink="http://www.w3.org/1999/xlink" version="1.1" data-info="draw.ninja" data-name="draw" viewBox="0 0 750 115" width="750" height="115" style="position: fixed; top: 0px; left: 0px;"><defs id="defsExport"><filter id="filter0"><feGaussianBlur stdDeviation="0"></feGaussianBlur></filter><pattern id="patternImage" patternUnits="userSpaceOnUse" x="0" y="0" width="1" height="1" data-x="0" data-y="0" data-width="1" data-height="1" data-multx="1" data-multy="1" patternTransform="matrix(1,0,0,1,0,0)" data-transs="0" data-transf="0" data-source="patternImage" data-draw="1" fill="#B3B3B3" fill-opacity="1"></pattern><pattern id="pattern0" patternUnits="userSpaceOnUse" x="0" y="0" width="10" height="10" data-x="0" data-y="0" data-width="10" data-height="10" data-multx="1" data-multy="1" stroke="none" patternTransform="matrix(1,0,0,1,0,0)" data-transs="0" data-transf="0" data-source="Pattern 0" data-draw="1" fill="#B3B3B3" fill-opacity="1"><path transform="matrix(1,0,0,1,0,0)" d="M0 0 L5 0 L5 5 L0 5 L0 0 Z"></path></pattern><pattern id="pattern1" patternUnits="userSpaceOnUse" x="0" y="0" width="10" height="10" data-x="0" data-y="0" data-width="10" data-height="10" data-multx="1" data-multy="1" stroke="none" patternTransform="matrix(1,0,0,1,0,0)" data-transs="0" data-transf="0" data-source="Pattern 1" data-draw="1" fill="#B3B3B3" fill-opacity="1"><path transform="matrix(1,0,0,1,0,0)" d="M0 5 L5 0 L10 5 L5 10 L0 5 Z"></path></pattern><pattern id="pattern2" patternUnits="userSpaceOnUse" x="0" y="0" width="10" height="10" data-x="0" data-y="0" data-width="10" data-height="10" data-multx="1" data-multy="1" stroke="none" patternTransform="matrix(1,0,0,1,0,0)" data-transs="0" data-transf="0" data-source="Pattern 2" data-draw="1" fill="#B3B3B3" fill-opacity="1"><path transform="matrix(1,0,0,1,0,0)" d="M0 9 L5 1 L10 9 L0 9 Z"></path></pattern><pattern id="pattern3" patternUnits="userSpaceOnUse" x="0" y="0" width="10" height="10" data-x="0" data-y="0" data-width="10" data-height="10" data-multx="1" data-multy="1" stroke="none" patternTransform="matrix(1,0,0,1,0,0)" data-transs="0" data-transf="0" data-source="Pattern 3" data-draw="1" fill="#B3B3B3" fill-opacity="1"><path transform="matrix(1,0,0,1,0,0)" d="M0 5 C0 2.25 2.25 0 5 0 C7.75 0 10 2.25 10 5 C10 7.75 7.75 10 5 10 C2.25 10 0 7.75 0 5 Z"></path></pattern><pattern id="pattern4" patternUnits="userSpaceOnUse" x="0" y="0" width="10" height="10" data-x="0" data-y="0" data-width="10" data-height="10" data-multx="1" data-multy="1" stroke="none" patternTransform="matrix(1,0,0,1,0,0)" data-transs="0" data-transf="0" data-source="Pattern 4" data-draw="1" fill="#B3B3B3" fill-opacity="1"><path transform="matrix(1,0,0,1,0,0)" d="M0 5 L4 4 L5 0 L6 4 L10 5 L6 6 L5 10 L4 6 L0 5 Z"></path></pattern><pattern id="pattern5" patternUnits="userSpaceOnUse" x="0" y="0" width="10" height="10" data-x="0" data-y="0" data-width="10" data-height="10" data-multx="1" data-multy="1" stroke="none" patternTransform="matrix(1,0,0,1,0,0)" data-transs="0" data-transf="0" data-source="Pattern 5" data-draw="1" fill="#B3B3B3" fill-opacity="1"><path transform="matrix(1,0,0,1,0,0)" d="M5 10 C-5 2.75 3 -1.75 5 1 C7 -1.75 15 2.75 5 10 Z"></path></pattern><pattern id="pattern6" patternUnits="userSpaceOnUse" x="0" y="0" width="10" height="10" data-x="0" data-y="0" data-width="10" data-height="10" data-multx="1" data-multy="1" stroke="none" patternTransform="matrix(1,0,0,1,0,0)" data-transs="0" data-transf="0" data-source="Pattern 6" data-draw="1" fill="#B3B3B3" fill-opacity="1"><path transform="matrix(1,0,0,1,0,0)" d="M3 0 L7 0 L7 10 L3 10 L3 0 Z"></path></pattern><pattern id="pattern7" patternUnits="userSpaceOnUse" x="0" y="0" width="10" height="10" data-x="0" data-y="0" data-width="10" data-height="10" data-multx="1" data-multy="1" stroke="none" patternTransform="matrix(1,0,0,1,0,0)" data-transs="0" data-transf="0" data-source="Pattern 7" data-draw="1" fill="#B3B3B3" fill-opacity="1"><path transform="matrix(1,0,0,1,0,0)" d="M10 3 L10 7 L0 7 L0 3 L10 3 Z"></path></pattern><pattern id="pattern8" patternUnits="userSpaceOnUse" x="0" y="0" width="10" height="10" data-x="0" data-y="0" data-width="10" data-height="10" data-multx="1" data-multy="1" stroke="none" patternTransform="matrix(1,0,0,1,0,0)" data-transs="0" data-transf="0" data-source="Pattern 8" data-draw="1" fill="#B3B3B3" fill-opacity="1"><path transform="matrix(1,0,0,1,0,0)" d="M0 10 L3 3 L10 0 L7 7 L0 10 Z"></path></pattern><pattern id="pattern9" patternUnits="userSpaceOnUse" x="0" y="0" width="10" height="10" data-x="0" data-y="0" data-width="10" data-height="10" data-multx="1" data-multy="1" stroke="none" patternTransform="matrix(1,0,0,1,0,0)" data-transs="0" data-transf="0" data-source="Pattern 9" data-draw="1" fill="#B3B3B3" fill-opacity="1"><path transform="matrix(1,0,0,1,0,0)" d="M0 4 L10 4 L10 6 L0 6 L0 4 Z M4 10 L4 0 L6 0 L6 10 L4 10 Z"></path></pattern><linearGradient id="linearSystem" gradientUnits="objectBoundingBox" x1="0%" y1="50%" x2="100%" y2="50%" spreadMethod="pad"><stop offset="50%" stop-color="#D0D0D0" stop-opacity="1"></stop><stop offset="100%" stop-color="transparent" stop-opacity="1"></stop></linearGradient><linearGradient id="linearSystem1" gradientUnits="objectBoundingBox" x1="0%" y1="50%" x2="100%" y2="50%" spreadMethod="pad"><stop offset="30%" stop-color="#D0D0D0" stop-opacity="1"></stop><stop offset="100%" stop-color="transparent" stop-opacity="1"></stop></linearGradient><linearGradient id="linearSystem2" gradientUnits="objectBoundingBox" x1="0%" y1="50%" x2="50%" y2="50%" spreadMethod="repeat"><stop offset="30%" stop-color="#D0D0D0" stop-opacity="1"></stop><stop offset="100%" stop-color="transparent" stop-opacity="1"></stop></linearGradient><linearGradient id="linearSystem3" gradientUnits="objectBoundingBox" x1="0%" y1="50%" x2="50%" y2="50%" spreadMethod="reflect"><stop offset="30%" stop-color="#D0D0D0" stop-opacity="1"></stop><stop offset="100%" stop-color="transparent" stop-opacity="1"></stop></linearGradient><radialGradient id="radialSystem" gradientUnits="objectBoundingBox" r="0.5" cx="0.5" fx="0.5" cy="0.5" fy="0.5" spreadMethod="pad"><stop offset="50%" stop-color="#D0D0D0" stop-opacity="1"></stop><stop offset="100%" stop-color="transparent" stop-opacity="1"></stop></radialGradient><pattern id="patternSystem" patternUnits="userSpaceOnUse" x="0" y="0" width="6" height="8"><path stroke="#D0D0D0" stroke-width="5" fill="none" d="M0 0 L0 10"></path></pattern><linearGradient id="linear0" gradientUnits="objectBoundingBox" x1="0%" y1="50%" x2="100%" y2="50%" spreadMethod="pad"><stop offset="0%" stop-color="#FF8000" stop-opacity="1"></stop><stop offset="100%" stop-color="#FFFF00" stop-opacity="1"></stop></linearGradient><linearGradient id="linear1" gradientUnits="objectBoundingBox" x1="0%" y1="50%" x2="100%" y2="50%" spreadMethod="pad"><stop offset="0%" stop-color="#FFFF00" stop-opacity="1"></stop><stop offset="100%" stop-color="#FF8000" stop-opacity="1"></stop></linearGradient><linearGradient id="linearImport" gradientUnits="objectBoundingBox" x1="0%" y1="50%" x2="100%" y2="50%" spreadMethod="pad"><stop offset="0%" stop-color="#FFFFFF" stop-opacity="0.1"></stop><stop offset="100%" stop-color="#000000" stop-opacity="0.1"></stop></linearGradient><radialGradient id="radial0" gradientUnits="objectBoundingBox" r="0.5" cx="0.5" fx="0.5" cy="0.5" fy="0.5" spreadMethod="pad"><stop offset="0%" stop-color="#FF8000" stop-opacity="1"></stop><stop offset="100%" stop-color="#FFFF00" stop-opacity="1"></stop></radialGradient><radialGradient id="radial1" gradientUnits="objectBoundingBox" r="0.5" cx="0.5" fx="0.5" cy="0.5" fy="0.5" spreadMethod="pad"><stop offset="0%" stop-color="#FFFF00" stop-opacity="1"></stop><stop offset="100%" stop-color="#FF8000" stop-opacity="1"></stop></radialGradient><radialGradient id="radialImport" gradientUnits="objectBoundingBox" r="0.5" cx="0.5" fx="0.5" cy="0.5" fy="0.5" spreadMethod="pad"><stop offset="0%" stop-color="#FFFFFF" stop-opacity="0.1"></stop><stop offset="100%" stop-color="#000000" stop-opacity="0.1"></stop></radialGradient></defs><rect id="pageExport" x="0" y="0" width="750" height="115" fill="none" fill-opacity="0" stroke="none" stroke-width="0"></rect><g id="objectsExport" visibility="visible"><g id="group22" visibility="visible" stroke="#000000" stroke-width="2" stroke-opacity="1" stroke-dasharray="none" fill="none" fill-opacity="1" data-name="group" data-title="group" deg="0" data-edit="1" data-centerx="374.99" data-centery="57.5"><path id="path0" d="M22 0 C30.265 3.8 38.265 8.133 46 13 C46.667 28.333 47.333 43.667 48 59 C53.249 56.126 58.415 53.126 63.5 50 C63.668 41.647 64.168 33.313 65 25 C72.738 19.967 80.738 15.801 89 12.5 C96 16.667 103 20.833 110 25 C111.165 34.316 111.332 43.649 110.5 53 C104.081 56.793 97.581 60.46 91 64 C90.168 72.313 89.668 80.647 89.5 89 C74.796 97.866 59.963 106.533 45 115 C29.92 106.712 15.087 98.045 0.5 89 C-0.167 63.667 -0.167 38.333 0.5 13 C8.012 9.005 15.179 4.671 22 0 Z M23 5 C28.639 8.155 34.306 11.321 40 14.5 C34.729 18.053 29.229 21.219 23.5 24 C17.771 21.219 12.271 18.053 7 14.5 C12.562 11.559 17.895 8.392 23 5 Z M87 17 C92.639 20.155 98.306 23.321 104 26.5 C98.729 30.053 93.229 33.219 87.5 36 C81.771 33.219 76.271 30.053 71 26.5 C76.562 23.559 81.895 20.392 87 17 Z M4 19 C9.686 21.594 15.186 24.594 20.5 28 C20.833 44.333 21.167 60.667 21.5 77 C28.203 81.199 35.037 85.199 42 89 C43.333 95.333 43.333 101.667 42 108 C29.829 100.747 17.496 93.747 5 87 C4 64.343 3.667 41.676 4 19 Z M41 19 C42.331 25.801 42.997 32.967 43 40.5 C42.833 47.667 42.667 54.833 42.5 62 C37.415 65.126 32.249 68.126 27 71 C25.834 56.678 25.667 42.345 26.5 28 C31.481 25.1 36.315 22.1 41 19 Z M68 31 C73.603 33.469 78.936 36.469 84 40 C85.333 46.333 85.333 52.667 84 59 C79.079 55.621 73.912 52.621 68.5 50 C68 43.675 67.834 37.342 68 31 Z M105 31 C106.318 33.758 106.985 36.924 107 40.5 C106.833 43.667 106.667 46.833 106.5 50 C101.415 53.126 96.249 56.126 91 59 C89.667 52.667 89.667 46.333 91 40 C95.731 36.976 100.398 33.976 105 31 Z M65 54 C71.104 56.886 77.104 60.053 83 63.5 C70.171 70.414 57.504 77.58 45 85 C39.333 81.833 33.667 78.667 28 75.5 C40.724 68.812 53.057 61.645 65 54 Z M83 68 C84.318 70.758 84.985 73.924 85 77.5 C84.667 80.667 84.333 83.833 84 87 C71.915 94.126 59.748 101.126 47.5 108 C46.833 101.667 46.833 95.333 47.5 89 C59.644 82.352 71.477 75.352 83 68 Z " data-centerx="-251.99" data-centery="137" stroke="none" stroke-width="0" data-sw="0" stroke-opacity="1" stroke-linecap="round" stroke-linejoin="round" fill="#ff2c20" fill-opacity="1" fill-rule="evenodd" filter="none" visibility="visible" stroke-dasharray="none" marker-start="none" marker-end="none" data-name="curve" data-title="curve" deg="0" data-grad="0" data-group="group22" data-edit="1"></path><path id="path1" d="M403 25 C397.556 24.392 392.556 25.058 388 27 C387.096 26.291 386.763 25.291 387 24 C392.526 23.679 397.86 24.012 403 25 Z " data-centerx="87.463" data-centery="104.941" stroke="none" stroke-width="0" data-sw="0" stroke-opacity="1" stroke-linecap="round" stroke-linejoin="round" fill="#a5a5a5" fill-opacity="1" fill-rule="evenodd" filter="none" visibility="visible" stroke-dasharray="none" marker-start="none" marker-end="none" data-name="curve" data-title="curve" deg="0" data-grad="0" data-group="group22" data-edit="1"></path><path id="path2" d="M456 66 C455.869 66.739 456.036 67.406 456.5 68 C457.688 66.937 458.188 65.603 458 64 C461.54 50.833 465.54 37.833 470 25 C474.667 25 479.333 25 484 25 C484 26 484 27 484 28 C477.471 48.421 470.637 68.754 463.5 89 C459.099 89.967 454.599 90.3 450 90 C445.611 76.332 441.111 62.665 436.5 49 C431.578 62.262 426.745 75.595 422 89 C417.45 90.3 412.95 90.3 408.5 89 C401.157 68.471 394.324 47.805 388 27 C392.556 25.058 397.556 24.392 403 25 C407.257 38.607 411.424 52.274 415.5 66 C420.35 52.452 425.016 38.785 429.5 25 C431.743 24.363 434.076 24.03 436.5 24 C439.125 24.081 441.459 24.748 443.5 26 C447.969 39.263 452.136 52.596 456 66 Z " data-centerx="128.5" data-centery="136.553" stroke="none" stroke-width="0" data-sw="0" stroke-opacity="1" stroke-linecap="round" stroke-linejoin="round" fill="#111111" fill-opacity="1" fill-rule="evenodd" filter="none" visibility="visible" stroke-dasharray="none" marker-start="none" marker-end="none" data-name="curve" data-title="curve" deg="0" data-grad="0" data-group="group22" data-edit="1"></path><path id="path3" d="M470 25 C474.805 24.013 479.805 23.679 485 24 C485.268 25.599 484.934 26.932 484 28 C484 27 484 26 484 25 C479.333 25 474.667 25 470 25 Z " data-centerx="170.045" data-centery="105.441" stroke="none" stroke-width="0" data-sw="0" stroke-opacity="1" stroke-linecap="round" stroke-linejoin="round" fill="#a3a3a3" fill-opacity="1" fill-rule="evenodd" filter="none" visibility="visible" stroke-dasharray="none" marker-start="none" marker-end="none" data-name="curve" data-title="curve" deg="0" data-grad="0" data-group="group22" data-edit="1"></path><path id="path4" d="M518 23 C541.231 22.4 554.564 33.567 558 56.5 C557.011 74.147 548.011 85.147 531 89.5 C508.191 92.668 494.025 83.168 488.5 61 C488.1 40.248 497.933 27.582 518 23 Z M518 37 C536.74 37.244 544.24 46.577 540.5 65 C534.485 75.977 525.652 79.144 514 74.5 C503.586 66.57 501.419 56.737 507.5 45 C510.355 41.289 513.855 38.623 518 37 Z " data-centerx="215.744" data-centery="136.036" stroke="none" stroke-width="0" data-sw="0" stroke-opacity="1" stroke-linecap="round" stroke-linejoin="round" fill="#111111" fill-opacity="1" fill-rule="evenodd" filter="none" visibility="visible" stroke-dasharray="none" marker-start="none" marker-end="none" data-name="curve" data-title="curve" deg="0" data-grad="0" data-group="group22" data-edit="1"></path><path id="path5" d="M676 25 C681.846 23.683 687.846 23.683 694 25 C693.876 25.607 693.543 25.94 693 26 C687.525 25.011 681.858 24.678 676 25 Z " data-centerx="377.5" data-centery="104.506" stroke="none" stroke-width="0" data-sw="0" stroke-opacity="1" stroke-linecap="round" stroke-linejoin="round" fill="#a5a5a5" fill-opacity="1" fill-rule="evenodd" filter="none" visibility="visible" stroke-dasharray="none" marker-start="none" marker-end="none" data-name="curve" data-title="curve" deg="0" data-grad="0" data-group="group22" data-edit="1"></path><path id="path6" d="M700 81 C700 80 700 79 700 78 C702.492 75.031 704.992 72.031 707.5 69 C715.509 77.025 724.509 78.691 734.5 74 C735.308 71.921 735.141 69.921 734 68 C725.817 64.548 717.484 61.382 709 58.5 C700.661 51.556 698.827 43.056 703.5 33 C712.057 23.566 722.557 20.733 735 24.5 C739.529 26.014 743.695 28.181 747.5 31 C745.749 35.145 743.416 39.145 740.5 43 C733.758 37.287 726.258 35.621 718 38 C715.333 40.667 715.333 43.333 718 46 C726.505 48.71 734.838 51.876 743 55.5 C750.95 63.375 752.117 72.208 746.5 82 C743.335 86.166 739.168 88.666 734 89.5 C721.174 91.96 709.841 89.127 700 81 Z " data-centerx="417.494" data-centery="136.122" stroke="none" stroke-width="0" data-sw="0" stroke-opacity="1" stroke-linecap="round" stroke-linejoin="round" fill="#121212" fill-opacity="1" fill-rule="evenodd" filter="none" visibility="visible" stroke-dasharray="none" marker-start="none" marker-end="none" data-name="curve" data-title="curve" deg="0" data-grad="0" data-group="group22" data-edit="1"></path><path id="path7" d="M162 25 C166.667 25 171.333 25 176 25 C175.67 42.175 176.003 59.175 177 76 C187.667 76 198.333 76 209 76 C209 80.333 209 84.667 209 89 C193.333 89 177.667 89 162 89 C162 67.667 162 46.333 162 25 Z " data-centerx="-122" data-centery="136.5" stroke="none" stroke-width="0" data-sw="0" stroke-opacity="1" stroke-linecap="round" stroke-linejoin="round" fill="#050505" fill-opacity="1" fill-rule="evenodd" filter="none" visibility="visible" stroke-dasharray="none" marker-start="none" marker-end="none" data-name="curve" data-title="curve" deg="0" data-grad="0" data-group="group22" data-edit="1"></path><path id="path8" d="M162 25 C166.805 24.013 171.805 23.679 177 24 C177 41.333 177 58.667 177 76 C176.003 59.175 175.67 42.175 176 25 C171.333 25 166.667 25 162 25 Z " data-centerx="-138" data-centery="129.441" stroke="none" stroke-width="0" data-sw="0" stroke-opacity="1" stroke-linecap="round" stroke-linejoin="round" fill="#9e9e9e" fill-opacity="1" fill-rule="evenodd" filter="none" visibility="visible" stroke-dasharray="none" marker-start="none" marker-end="none" data-name="curve" data-title="curve" deg="0" data-grad="0" data-group="group22" data-edit="1"></path><path id="path9" d="M596 69 C592.202 68.017 588.202 67.683 584 68 C584 75 584 82 584 89 C579.333 89 574.667 89 570 89 C570 67.333 570 45.667 570 24 C581.671 23.833 593.338 24 605 24.5 C620.282 27.46 626.448 36.626 623.5 52 C621.487 58.681 617.32 63.514 611 66.5 C616.247 73.66 621.247 80.993 626 88.5 C619.972 89.33 613.972 89.164 608 88 C603.947 81.632 599.947 75.298 596 69 Z M601 38 C608.767 39.872 610.934 44.539 607.5 52 C605.458 54.104 602.958 55.271 600 55.5 C595.011 55.999 590.011 56.166 585 56 C585 50 585 44 585 38 C590.333 38 595.667 38 601 38 Z " data-centerx="290.5" data-centery="135.978" stroke="none" stroke-width="0" data-sw="0" stroke-opacity="1" stroke-linecap="round" stroke-linejoin="round" fill="#0b0b0b" fill-opacity="1" fill-rule="evenodd" filter="none" visibility="visible" stroke-dasharray="none" marker-start="none" marker-end="none" data-name="curve" data-title="curve" deg="0" data-grad="0" data-group="group22" data-edit="1"></path><path id="path10" d="M651 25 C646.333 25 641.667 25 637 25 C637 46.333 637 67.667 637 89 C636.003 67.506 635.669 45.84 636 24 C641.195 23.679 646.195 24.013 651 25 Z " data-centerx="335.938" data-centery="135.941" stroke="none" stroke-width="0" data-sw="0" stroke-opacity="1" stroke-linecap="round" stroke-linejoin="round" fill="#c1c1c1" fill-opacity="1" fill-rule="evenodd" filter="none" visibility="visible" stroke-dasharray="none" marker-start="none" marker-end="none" data-name="curve" data-title="curve" deg="0" data-grad="0" data-group="group22" data-edit="1"></path><path id="path11" d="M651 25 C650.834 33.673 651 42.34 651.5 51 C659.533 42.136 667.7 33.469 676 25 C681.858 24.678 687.525 25.011 693 26 C684.455 34.377 676.455 43.21 669 52.5 C677.601 64.772 686.601 76.772 696 88.5 C689.641 89.331 683.307 89.164 677 88 C670.639 79.472 664.473 70.806 658.5 62 C656.167 64.333 653.833 66.667 651.5 69 C651 75.658 650.834 82.325 651 89 C646.333 89 641.667 89 637 89 C637 67.667 637 46.333 637 25 C641.667 25 646.333 25 651 25 Z " data-centerx="359" data-centery="136.45" stroke="none" stroke-width="0" data-sw="0" stroke-opacity="1" stroke-linecap="round" stroke-linejoin="round" fill="#0b0b0b" fill-opacity="1" fill-rule="evenodd" filter="none" visibility="visible" stroke-dasharray="none" marker-start="none" marker-end="none" data-name="curve" data-title="curve" deg="0" data-grad="0" data-group="group22" data-edit="1"></path><path id="path12" d="M601 38 C595.667 38 590.333 38 585 38 C585 44 585 50 585 56 C584.01 49.855 583.677 43.522 584 37 C589.858 36.678 595.525 37.011 601 38 Z " data-centerx="284.94" data-centery="125.941" stroke="none" stroke-width="0" data-sw="0" stroke-opacity="1" stroke-linecap="round" stroke-linejoin="round" fill="#a8a8a8" fill-opacity="1" fill-rule="evenodd" filter="none" visibility="visible" stroke-dasharray="none" marker-start="none" marker-end="none" data-name="curve" data-title="curve" deg="0" data-grad="0" data-group="group22" data-edit="1"></path><path id="path13" d="M247 89 C247.16 87.301 246.994 85.634 246.5 84 C245.783 84.544 245.283 85.211 245 86 C243.227 87.392 241.227 88.559 239 89.5 C225.689 92.854 217.355 88.021 214 75 C214.556 66.615 218.889 61.448 227 59.5 C232.749 58.715 238.416 58.882 244 60 C244.709 60.904 245.709 61.237 247 61 C247.268 59.401 246.934 58.068 246 57 C244.827 54.996 243.16 53.496 241 52.5 C235.047 51.649 229.214 52.149 223.5 54 C221.249 51.277 219.749 48.111 219 44.5 C219.32 42.847 220.32 41.847 222 41.5 C232.498 37.848 242.832 38.181 253 42.5 C256.369 44.865 258.536 48.032 259.5 52 C260.815 64.295 261.315 76.628 261 89 C256.333 89 251.667 89 247 89 Z M234 68 C238.105 67.734 242.105 68.234 246 69.5 C247.374 75.161 245.041 78.495 239 79.5 C232.265 81.083 229.099 78.583 229.5 72 C230.407 69.891 231.907 68.558 234 68 Z " data-centerx="-69.954" data-centery="144.26" stroke="none" stroke-width="0" data-sw="0" stroke-opacity="1" stroke-linecap="round" stroke-linejoin="round" fill="#141414" fill-opacity="1" fill-rule="evenodd" filter="none" visibility="visible" stroke-dasharray="none" marker-start="none" marker-end="none" data-name="curve" data-title="curve" deg="0" data-grad="0" data-group="group22" data-edit="1"></path><path id="path14" d="M286 40 C285.835 43.018 286.002 46.018 286.5 49 C287.013 47.973 287.513 46.973 288 46 C291.071 40.791 295.738 38.124 302 38 C302 43.333 302 48.667 302 54 C296.023 53.571 291.523 55.904 288.5 61 C287.083 70.252 286.583 79.585 287 89 C282 89 277 89 272 89 C272 72.667 272 56.333 272 40 C276.667 40 281.333 40 286 40 Z " data-centerx="-20.5" data-centery="143" stroke="none" stroke-width="0" data-sw="0" stroke-opacity="1" stroke-linecap="round" stroke-linejoin="round" fill="#0e0e0e" fill-opacity="1" fill-rule="evenodd" filter="none" visibility="visible" stroke-dasharray="none" marker-start="none" marker-end="none" data-name="curve" data-title="curve" deg="0" data-grad="0" data-group="group22" data-edit="1"></path><path id="path15" d="M322 39 C328.842 38.539 335.509 39.372 342 41.5 C346.162 44.312 348.995 48.145 350.5 53 C351 64.995 351.167 76.995 351 89 C346.333 89 341.667 89 337 89 C337.157 87.627 336.99 86.293 336.5 85 C334.548 87.394 332.048 88.894 329 89.5 C309.753 92.264 302.587 84.431 307.5 66 C312.322 60.725 318.322 58.391 325.5 59 C329.364 58.83 333.031 59.497 336.5 61 C337.253 57.007 335.753 54.174 332 52.5 C326.047 51.649 320.214 52.149 314.5 54 C313.728 53.855 313.061 53.522 312.5 53 C311.525 49.74 310.358 46.573 309 43.5 C313.253 41.527 317.587 40.027 322 39 Z M324 68 C328.381 67.872 332.715 68.205 337 69 C337.219 75.785 333.886 79.452 327 80 C321.131 79.635 318.964 76.635 320.5 71 C321.645 69.864 322.812 68.864 324 68 Z " data-centerx="21.032" data-centery="143.959" stroke="none" stroke-width="0" data-sw="0" stroke-opacity="1" stroke-linecap="round" stroke-linejoin="round" fill="#111111" fill-opacity="1" fill-rule="evenodd" filter="none" visibility="visible" stroke-dasharray="none" marker-start="none" marker-end="none" data-name="curve" data-title="curve" deg="0" data-grad="0" data-group="group22" data-edit="1"></path><path id="path16" d="M286 40 C286.667 42 287.333 44 288 46 C287.513 46.973 287.013 47.973 286.5 49 C286.002 46.018 285.835 43.018 286 40 Z " data-centerx="-20.531" data-centery="124" stroke="none" stroke-width="0" data-sw="0" stroke-opacity="1" stroke-linecap="round" stroke-linejoin="round" fill="#b6b6b6" fill-opacity="1" fill-rule="evenodd" filter="none" visibility="visible" stroke-dasharray="none" marker-start="none" marker-end="none" data-name="curve" data-title="curve" deg="0" data-grad="0" data-group="group22" data-edit="1"></path><path id="path17" d="M246 57 C246.934 58.068 247.268 59.401 247 61 C245.709 61.237 244.709 60.904 244 60 C245.548 59.679 246.215 58.679 246 57 Z " data-centerx="-61.955" data-centery="138.537" stroke="none" stroke-width="0" data-sw="0" stroke-opacity="1" stroke-linecap="round" stroke-linejoin="round" fill="#c4c4c4" fill-opacity="1" fill-rule="evenodd" filter="none" visibility="visible" stroke-dasharray="none" marker-start="none" marker-end="none" data-name="curve" data-title="curve" deg="0" data-grad="0" data-group="group22" data-edit="1"></path><path id="path18" d="M458 64 C458.188 65.603 457.688 66.937 456.5 68 C456.036 67.406 455.869 66.739 456 66 C456.667 65.333 457.333 64.667 458 64 Z " data-centerx="149.498" data-centery="145.5" stroke="none" stroke-width="0" data-sw="0" stroke-opacity="1" stroke-linecap="round" stroke-linejoin="round" fill="#858585" fill-opacity="1" fill-rule="evenodd" filter="none" visibility="visible" stroke-dasharray="none" marker-start="none" marker-end="none" data-name="curve" data-title="curve" deg="0" data-grad="0" data-group="group22" data-edit="1"></path><path id="path19" d="M596 69 C592.333 69 588.667 69 585 69 C585.324 75.854 584.991 82.521 584 89 C584 82 584 75 584 68 C588.202 67.683 592.202 68.017 596 69 Z " data-centerx="282.5" data-centery="157.942" stroke="none" stroke-width="0" data-sw="0" stroke-opacity="1" stroke-linecap="round" stroke-linejoin="round" fill="#9b9b9b" fill-opacity="1" fill-rule="evenodd" filter="none" visibility="visible" stroke-dasharray="none" marker-start="none" marker-end="none" data-name="curve" data-title="curve" deg="0" data-grad="0" data-group="group22" data-edit="1"></path><path id="path20" d="M700 78 C700 79 700 80 700 81 C697.333 80 697.333 79 700 78 Z " data-centerx="391.5" data-centery="159" stroke="none" stroke-width="0" data-sw="0" stroke-opacity="1" stroke-linecap="round" stroke-linejoin="round" fill="#777777" fill-opacity="1" fill-rule="evenodd" filter="none" visibility="visible" stroke-dasharray="none" marker-start="none" marker-end="none" data-name="curve" data-title="curve" deg="0" data-grad="0" data-group="group22" data-edit="1"></path><path id="path21" d="M247 89 C246.333 88 245.667 87 245 86 C245.283 85.211 245.783 84.544 246.5 84 C246.994 85.634 247.16 87.301 247 89 Z " data-centerx="-61.471" data-centery="166" stroke="none" stroke-width="0" data-sw="0" stroke-opacity="1" stroke-linecap="round" stroke-linejoin="round" fill="#d1d1d1" fill-opacity="1" fill-rule="evenodd" filter="none" visibility="visible" stroke-dasharray="none" marker-start="none" marker-end="none" data-name="curve" data-title="curve" deg="0" data-grad="0" data-group="group22" data-edit="1"></path></g></g><g id="settings" visibility="hidden" data-dn0="primalDraw" data-dn1="#FAFAFA" data-dn2="#D2D2D2" data-dn3="18" data-dn4="#000000" data-dn5="#B3B3B3" data-dn6="1" data-dn7="1" data-dn8="2" data-dn9="round" data-dn10="round" data-dn11="none" data-dn12="none" data-dn13="none" data-dn14="evenodd" data-dn15="10" data-dn16="1" data-dn17="750" data-dn18="115" data-dn19="10" data-dn20="0" data-dn21="1" data-dn22="1" data-dn23="23" data-dn24="group22" data-dn25="2" data-dn26="url(#linear0)" data-dn27="url(#linear1)" data-dn28="url(#radial0)" data-dn29="url(#radial1)" data-dn30="#FF8000" data-dn31="#FFFF00" data-dn32="#000000" data-dn33="1" data-dn34="1" data-dn35="10" data-dn36="" data-dn37="0" data-dn38="85"></g></svg>