<?xml version="1.0" encoding="UTF-8"?><svg id="Layer_1" xmlns="http://www.w3.org/2000/svg" xmlns:xlink="http://www.w3.org/1999/xlink" viewBox="0 0 6000 3000"><defs><style>.cls-1{fill:#1e2138;}.cls-1,.cls-2,.cls-3,.cls-4,.cls-5,.cls-6,.cls-7,.cls-8,.cls-9,.cls-10,.cls-11,.cls-12{stroke-width:0px;}.cls-2{fill:#b395c0;}.cls-13{mask:url(#mask);}.cls-3{fill:#3e4168;}.cls-4{fill:#fdd4e7;}.cls-5{fill:url(#linear-gradient);}.cls-14{filter:url(#luminosity-noclip);}.cls-6{fill:url(#radial-gradient);mix-blend-mode:multiply;}.cls-7{fill:#676990;}.cls-8{fill:#fff;opacity:.15;}.cls-9{fill:#000;opacity:.1;}.cls-10{fill:url(#radial-gradient-2);}.cls-11{fill:#d5b6d8;}.cls-12{fill:#54597f;}.cls-15{mask:url(#mask-1);}</style><linearGradient id="linear-gradient" x1="3000" y1="1736.13" x2="3000" y2="13.25" gradientUnits="userSpaceOnUse"><stop offset=".33" stop-color="#fdf0f6"/><stop offset=".54" stop-color="#faeef5"/><stop offset=".69" stop-color="#f0ebf5"/><stop offset=".82" stop-color="#e1e5f5"/><stop offset=".94" stop-color="#cadcf5"/><stop offset="1" stop-color="#bed8f5"/></linearGradient><filter id="luminosity-noclip" x="2498.27" y="196.66" width="2094.86" height="2094.86" color-interpolation-filters="sRGB" filterUnits="userSpaceOnUse"><feFlood flood-color="#fff" result="bg"/><feBlend in="SourceGraphic" in2="bg"/></filter><filter id="luminosity-noclip-2" x="2498.27" y="-9692" width="2094.86" height="32766" color-interpolation-filters="sRGB" filterUnits="userSpaceOnUse"><feFlood flood-color="#fff" result="bg"/><feBlend in="SourceGraphic" in2="bg"/></filter><mask id="mask-1" x="2498.27" y="-9692" width="2094.86" height="32766" maskUnits="userSpaceOnUse"/><radialGradient id="radial-gradient" cx="3545.7" cy="1244.09" fx="3545.7" fy="1244.09" r="1047.43" gradientUnits="userSpaceOnUse"><stop offset=".79" stop-color="#fff"/><stop offset=".84" stop-color="#b6b6b6"/><stop offset=".88" stop-color="#767676"/><stop offset=".92" stop-color="#434343"/><stop offset=".95" stop-color="#1e1e1e"/><stop offset=".98" stop-color="#080808"/><stop offset="1" stop-color="#000"/></radialGradient><mask id="mask" x="2498.27" y="196.66" width="2094.86" height="2094.86" maskUnits="userSpaceOnUse"><g class="cls-14"><g class="cls-15"><circle class="cls-6" cx="3545.7" cy="1244.09" r="1047.43"/></g></g></mask><radialGradient id="radial-gradient-2" cx="3545.7" cy="1244.09" fx="3545.7" fy="1244.09" r="1047.43" gradientUnits="userSpaceOnUse"><stop offset=".79" stop-color="#fff"/><stop offset=".9" stop-color="#f3f2f9"/><stop offset="1" stop-color="#eceaf6"/></radialGradient></defs><rect class="cls-5" width="6000" height="3000"/><g class="cls-13"><circle class="cls-10" cx="3545.7" cy="1244.09" r="1047.43"/></g><path class="cls-8" d="M4129.39,643.94c-105.18-17.7-207.85-50.25-314.37-57.55-113.37-7.77-226.37,13.34-339.74,20.4-132.26,8.23-264.99-2.71-397.1-13.63,141.53-47.3,291.42-72.49,441.73-74.25,98.22-1.15,196.58,7.63,294.61,2.02,74.08-4.23,148.02-16.66,222.07-11.46,111.86,7.85,215.33,53.49,321.84,82.79,26.17,7.2,52.65,13.51,79.52,17.91,15.52,2.54,40.64.58,32.57,21.6-7.28,18.96-27.72,23.7-46.45,25.04-30.57,2.19-61.22,3.36-91.89,3.44-67.9.16-135.88-5.04-202.78-16.3Z"/><path class="cls-4" d="M6000,1034.91v1965.09H0v-1652.04s199.61-12.53,331.09-68.87c23.33-10,48.64-21.97,74.69-35,120.74-60.42,257.54-143.64,288.44-159.09,37.56-18.78,212.87-37.57,212.87-37.57l206.36,56.35,170.57,43.83,148.98-56.35,221.84-43.83,222.1,118.96,256.23,6.26,188.87-75.13,241.93-131.48,179.34-31.3,241.61,37.56,322.58,68.87,420.3,12.53,412.42-37.57,408.66,62.61,277.51,62.61,406.28-68.87,345.03-50.09,422.3,12.52Z"/><path class="cls-2" d="M5702.91,1635.96l-125.21-413.22s-181.57-81.39-244.18-131.48c-62.61-50.09-278.75,11.37-278.75,11.37l-240.9-268.06-149.88-87.44-.38-.22s-58.64-54.73-93.52-86.96c-9.26-8.56-16.84-15.53-21.21-19.47-20.81-18.78-76.91-106.44-76.91-106.44l-329.55-83.36-110.85,53.29c-31.89,50.13-76.53,119.85-118.79,184.3h-.01c-58.62,89.4-112.67,168.65-121.76,171.34-21.03,6.24-263.03,136.71-264.92,137.73h0s-77.09,150.27-86.15,150.27-296.11,131.48-296.11,131.48l-254.38,201.08-262.69,162.05-217.06,287.58-149.87,438.68-126.66,631.52h3866.83v-399.87l-297.09-964.17Z"/><path class="cls-11" d="M6000,859.61v2140.39H0v-1251.35h362.39l300.52-37.56,147.63-66.04h0s90.29-40.4,90.29-40.4h713.74l262.37-68.87,187.39-118.95,195.5-181.57h190.32l207.46,68.87,187.76,156.52h0c2.43,1.07,312.92,137.81,336.14,156.52,1,.81,2.79,1.73,5.31,2.75,56.16,22.87,472.72,97.43,472.72,97.43l397.04,31.3,287.71-118.95,162.79-137.74,206.61-125.22,250.43-56.35,231.65-75.13,137.74-144,103.04-106.59,78.53-81.24,344.34-43.82h140.57Z"/><path class="cls-7" d="M6000,1886.39v1113.61H0v-1339s249.7-131.48,268.48-131.48,175.3-100.17,175.3-100.17l156.46-37.57h112.76l125.22,325.15,237.91,144.42,207.89,331.82,743.76,256.7h661.78l412.08,62.61,275.17-93.91s159.33-125.22,165.85-144c6.51-18.79,116.89-206.61,116.89-206.61l184.56-336.06,162.88-231.9,133.23-51.87,83.62-231.65,148.29-125.22,176.75-125.22,146.03-106.43s93.92-169.04,112.7-206.61c18.78-37.57,62.61-75.13,62.61-75.13h325.56l36.89,156.52,113.37,200.35,100.18,106.43,219.13,356.87,62.13,114.94,63.09,116.72,100.17,200.34,109.26,56.35Z"/><path class="cls-12" d="M6000,2600.13v399.87H0v-531.35h481.35l294.26-169.04,175.3-187.83,244.18-144.41,189.44-178.44h152.87s282.9-171.76,289.6-159.23c6.7,12.52,172.15,118.95,172.15,118.95l373.67,218.72,370.49,81.48,334.57,62.93,217.36,144,300.09,212.87,480.64,131.48,557.16-31.3,599.54,31.3h767.33Z"/><path class="cls-3" d="M6000,2559.43v440.57H0v-825.61l205.87,56.35,219.13,162.78s132.47,31.4,143.88,24.84c11.42-6.55,250.55,75.34,250.55,75.34l400.7-74.43,434.71-144.7s298.06-18.79,322.98,6.26c24.92,25.04,312.92,87.65,312.92,87.65l428.48,85.9,397.61,75.54,105.92,20.12,372.58-81.39,256.64-206.61,258.4-12.52,200.44-156.52s171.23,37.57,190.02,56.35c18.78,18.78,95.56,87.65,132.3,106.43.19.1.39.2.59.3,37.79,18.62,192.87,31.19,230.24,65.44,3.68,3.38,12.18,8.05,24.51,13.73,113.45,52.23,551.49,189.75,551.49,189.75h187.82l212.87-25.04,159.35,59.47Z"/><path class="cls-8" d="M713,1391.78l-112.7,93.92s-89.21,5.13-89.21,14.3-73.57,112.48-73.57,112.48l-65.74,86.09-78.26,70.43-100.17,7.83-78.26,65.74-106.44,29.73-8.65-3.87v-207.43s249.7-131.48,268.48-131.48,175.3-100.17,175.3-100.17l156.46-37.57h112.76Z"/><path class="cls-8" d="M907.09,1047.43l-86.48,49.31s-38.74,0-44.61,5.87c-5.87,5.87-119.74,38.74-119.74,38.74l-44.61,44.61-100.95,46.95s-57.66,6.55-104.92,11.18c120.74-60.42,257.54-143.64,288.44-159.09,37.56-18.78,212.87-37.57,212.87-37.57Z"/><polygon class="cls-8" points="1654.84 1047.43 1638.04 1083.43 1572.3 1099.09 1505.78 1119.43 1469.78 1175 1397 1189.87 1327.35 1180.48 1284.02 1147.61 1433 1091.26 1654.84 1047.43"/><polygon class="cls-9" points="4719.96 2202.57 4574.39 2113.35 4483.61 1938.04 4408.48 1826.91 4278.57 1689.17 4118.91 1615.61 4006.99 1500 4140.22 1448.13 4237.87 1500 4286.39 1589 4410.04 1728.3 4535.26 1806.57 4601 1929.8 4694.91 2085.17 4719.96 2202.57"/><path class="cls-9" d="M3931.48,1424.26c0,3.52-24.65,66.91-24.65,66.91,0,0-21.13-34.04-36.4-72.78-15.26-38.74-44.6-133.82-44.6-133.82,0,0-46.96-89.22-48.13-92.74-1.18-3.53-177.27-89.22-177.27-89.22l-74.34-105.26h0c1.89-1.03,243.89-131.5,264.92-137.74l17.2,83.35s66.91,89.21,71.61,96.26c4.69,7.04,3.52,84.52,3.52,84.52l-5.87,88.04v54l48.13,61.05s5.87,93.91,5.87,97.43Z"/><path class="cls-8" d="M1670.91,2105.52l-104.87-120.52-108-55.2-73.51-140.87h152.87s-10.49,23.9-10.49,31.72,68.87,68.87,70.44,73.57c1.56,4.69,57.49,109.56,57.49,109.56l16.07,101.74Z"/><polygon class="cls-9" points="3077.88 2111.78 3000 2268.3 2913.7 2340.3 2816.65 2190.04 2534.91 2093 2372.82 1967.37 2743.31 2048.85 3077.88 2111.78"/><polygon class="cls-8" points="2743.31 934.74 2699.26 980.13 2657 1013 2635.09 1077.17 2574.04 1158.57 2362.74 1158.57 2179.61 1189.87 2133.17 1172.65 2322.04 1097.52 2563.97 966.04 2743.31 934.74"/><path class="cls-9" d="M1076.13,1861.35l-114.26,10.95-32.87,57.5-108,56.77-97.04,50.08-39.13,86.09-57.92-7.83s59.48-79.82,67.31-89.21c7.82-9.4,34.43-95.9,34.43-95.9l42.26-93.5,59.48-59.47,7.83-59.9,237.91,144.42Z"/><path class="cls-8" d="M2450.15,1235.26l-50.63,62.22-83.35,30.52-51.65,44.61-19.95,49.3-55.18,7.05s-137.35,42.26-140.87,48.13-82.17,63.39-82.17,63.39l-89.41-4.7,187.39-118.95,195.5-181.57h190.32Z"/><path class="cls-9" d="M3444.3,1883.26l-95.47-32.87-65.74-25.04-165.92-97.05-84.52-28.17-54.78-93.91-70.44-50.09-62.05-95.47c2.43,1.06,312.92,137.8,336.14,156.51,1,.81,2.79,1.73,5.31,2.75l14.87,52.04,76.69,89.21,67.3,64.18,98.6,57.91Z"/><polygon class="cls-9" points="5890.74 1830.04 5869.61 1909.09 5860.22 2012.39 5794.48 2136.83 5677.09 2214.3 5733.43 2003 5794.48 1862.13 5780.39 1716.93 5727.48 1512.98 5790.57 1629.7 5890.74 1830.04"/><polygon class="cls-8" points="1395.43 1604.65 1151.26 1645.35 1027.61 1645.35 935.26 1709.52 838.22 1716.93 810.54 1645.05 810.54 1645.04 900.83 1604.65 1395.43 1604.65"/><path class="cls-8" d="M4889,699.96l-50.09,90.78v237.91l-156.52,125.22-194.09,56.35,144-162.79,34.44-112.69,28.17-75.13s93.92-169.04,112.7-206.61c18.78-37.57,62.61-75.13,62.61-75.13l18.78,122.09Z"/><polygon class="cls-8" points="6000 859.61 5911.09 878.39 5832.83 925.35 5760.83 956.65 5648.13 956.65 5599.61 992.65 5436.56 984.67 5515.09 903.43 5859.43 859.61 6000 859.61"/><path class="cls-9" d="M4663.99,747.13l-19.95,46.74-56.34,38.74-109.18,49.3-133.82,44.22,73.95-84.13,105.65-44.61,45.79-57.52v-79.92c34.88,32.23,93.52,86.96,93.52,86.96l.38.22Z"/><path class="cls-8" d="M4142.42,450.68l-110.85,53.29c-31.89,50.13-76.53,119.85-118.79,184.3l99.69-62.27,119.74-65.74,55.17-52.83,126.78,32.87,157.8-6.26-329.55-83.36Z"/><polygon class="cls-8" points="1654.84 2274.57 1596.57 2392.74 1371.17 2472.57 1169.26 2472.57 957.96 2514.83 819.43 2493.7 1220.13 2419.27 1654.84 2274.57"/><polygon class="cls-8" points="3931.48 2340.3 3852.83 2394.7 3790.22 2546.5 3636.83 2587.61 3444.3 2597 3355.09 2634.57 3222.75 2550.04 3595.33 2468.65 3851.97 2262.04 3931.48 2340.3"/><path class="cls-9" d="M4888.47,2335.25c-23.46,20.03-71.47,47.32-71.47,47.32-3.91,22.69-21.91,104.08-21.91,104.08l-198,41.48,80.61-131.48s9.39-62.61,9.39-67.3-40.7-39.13-40.7-39.13l-12.67-34.14c37.79,18.62,192.87,31.19,230.24,65.44,3.68,3.38,12.18,8.05,24.51,13.73Z"/><polygon class="cls-8" points="5840.65 2499.96 5769.83 2546.5 5745.17 2582.91 5660.65 2582.91 5573.78 2564.91 5526.04 2546.13 5439.96 2525 5627.78 2525 5840.65 2499.96"/><path class="cls-8" d="M2338.96,413.58c20.96,26.03-25.59,53.02-58.99,54.32-203.69,7.92-407.82,4.6-611.15-9.92,15.31,86.2,100.7,142.5,184.7,167.2,83.99,24.7,174.05,28.72,254.39,63.51-216.51,12.73-433.72,13.46-650.31,2.18-44.3-2.3-93.87-3.35-126.64,26.53-32.78,29.89-21.22,100.88,23.13,100.13-220.47,51.67-464.1-55.58-673.06,31.68,9.48,27.12,18.95,54.23,28.43,81.35-117.19,10.84-234.37,21.68-351.55,32.52-17.62,1.63-36.34,3.68-50.21,14.67-20.23,16.03-23.3,44.9-33.61,68.56-33.61,77.21-136.05,89.51-220.25,90.42-17.72.19-35.77.28-53.84-.2V0h2761.95c-11.48,8.01-22.36,16.86-32.52,26.49,66.03,31.11,137.97,49.63,210.81,54.27-34.4,68.71-127.84,76.11-204.66,74.15-72.4-1.85-144.81-3.7-217.21-5.55-18.81-.48-38.88-.63-54.76,9.47-38.76,24.65-19.25,91.02,22.16,110.89,41.42,19.87,90.11,9.56,135.49,2.44,132.12-20.76,269.04-10.39,396.53,30.04-222.89,54.87-450.1,92.14-678.83,111.38Z"/><path class="cls-8" d="M6000,173.09v253.92c-232.94,12.6-465.96,23.55-699.16,29.14-265.64,6.37-546.48,1.86-774.45-134.65,202.85-39.37,417.09,19.16,617.19-32.43,52.21-13.46,102.42-34.23,155.1-45.68,95.91-20.85,195.39-10.04,293.46-6.18,57.1,2.25,114.7,2.06,170.85-8.61,79.38-15.08,158.36-50.96,237.01-55.51Z"/><path class="cls-8" d="M1346.34,320.17c-121.7,39.14-243.4,78.28-365.1,117.42-23.85,7.67-48.85,16.05-65.71,34.58-10.08,11.07-16.52,25.04-26.54,36.17-22.4,24.87-58.26,31.44-91.43,35.93-105.09,14.26-211.04,22.15-317.09,23.63-61.39.85-125.06,0-181.07,25.16-40.74,18.31-74.51,49.21-113.72,70.59-56.41,30.76-120.86,40.21-185.68,38.23v-359.05c151.44,14.2,302.88,28.41,454.31,42.61,80.55,7.56,163.87,14.82,240.59-10.86,47.81-16,90.89-44.21,138.94-59.47,63.66-20.21,132.09-16.62,198.77-12.82,104.57,5.96,209.15,11.92,313.73,17.88Z"/><path class="cls-3" d="M2438.24,893.36c-78.73-84.39-181.18-13.75-181.18-13.75,130.49-34.51,181.18,56.55,181.18,56.55,0,0,50.69-91.06,181.18-56.55,0,0-102.45-70.64-181.18,13.75Z"/><path class="cls-3" d="M2628.66,765.81c-42.94-63.75-117.73-28.02-117.73-28.02,89.44-9.03,113.24,56.17,113.24,56.17,0,0,42.88-54.58,125.09-18.21,0,0-59.99-57.19-120.61-9.94Z"/><path class="cls-3" d="M2804.28,694.12c-18.94-28.12-51.93-12.36-51.93-12.36,39.45-3.98,49.95,24.78,49.95,24.78,0,0,18.91-24.07,55.17-8.03,0,0-26.46-25.23-53.2-4.38Z"/><path class="cls-3" d="M2850.76,613.38c-19.24-16.57-39.96,1.32-39.96,1.32,27.72-10.67,40.98,8.04,40.98,8.04,0,0,8.91-21.13,38.28-16.7,0,0-24.1-13-39.3,7.34Z"/><path class="cls-3" d="M3379.8,763.69c-42.7-33.47-85.16,6.79-85.16,6.79,58.1-25.52,88.27,13.09,88.27,13.09,0,0,16.92-45.98,80.05-39.44,0,0-52.73-25.36-83.16,19.56Z"/><path class="cls-3" d="M3370.04,705.31c-22.22-17.42-44.32,3.53-44.32,3.53,30.24-13.28,45.93,6.81,45.93,6.81,0,0,8.81-23.93,41.66-20.52,0,0-27.44-13.2-43.27,10.18Z"/><path class="cls-3" d="M3330.44,635.74c-12.05-9.44-24.03,1.92-24.03,1.92,16.39-7.2,24.9,3.69,24.9,3.69,0,0,4.77-12.97,22.58-11.13,0,0-14.88-7.16-23.46,5.52Z"/><path class="cls-3" d="M5468.25,859.27c-39.09-41.9-89.95-6.83-89.95-6.83,64.79-17.13,89.95,28.07,89.95,28.07,0,0,25.17-45.21,89.95-28.07,0,0-50.87-35.07-89.95,6.83Z"/><path class="cls-3" d="M5464.6,767.69c-26.52-24.02-56.33.48-56.33.48,39.41-14.06,57.45,12.75,57.45,12.75,0,0,13.29-29.45,54.5-22.19,0,0-33.49-19.15-55.61,8.97Z"/><path class="cls-3" d="M5472.21,701.83c-8.65-16.03-27.11-9.34-27.11-9.34,21.3-.05,25.4,15.88,25.4,15.88,0,0,11.38-11.87,29.92-1.39,0,0-12.82-14.88-28.21-5.14Z"/><path class="cls-3" d="M1626.56,795.96c-28.97-18.9-53.71,9.02-53.71,9.02,35.49-19.42,56.78,3.44,56.78,3.44,0,0,8.21-30.14,48.66-29.47,0,0-34.89-13.19-51.73,17.02Z"/><path class="cls-1" d="M5974.27,1764.86c6.39-13.07,12.93-27.05,10.78-41.27-2.16-14.23-16.92-27.75-31.75-23.87,21.03-12.71,20.89-46.47-.25-59.01,21.9-9.16,18.51-41.01,2.06-57.31-16.45-16.3-40.49-24.17-58.04-39.44-35.89-31.21-35.83-82.99-39.07-128.67-4.16-58.57-18.02-116.54-40.95-171.19-44.44,133.77-88.88,267.53-133.33,401.3-3.26,9.83-6.09,21.77,1.33,29.4,4.24,4.36,11.19,6.36,14.03,11.62,3.31,6.15-.65,13.46-5.02,19-37.69,47.71-113.73,67.81-132.03,124.56,26.48-9.56,48.36,28.01,35.92,51.81-12.45,23.82-40.97,35.39-65.16,49.27-22.66,13-44.27,31.36-49.41,55.71-5.14,24.35,14.14,53.6,40.69,52.17-27.88,28.15-55.75,56.31-83.63,84.46-5.06,5.11-10.44,10.97-10.29,17.93.2,9.61,10.51,15.91,19.59,20.46,28.67,14.35,57.34,28.7,86.01,43.03-9.71,20.66-32.81,32.41-54.17,42.99-21.36,10.58-44.19,23.24-52.4,44.46-8.2,21.23,9.86,50.84,33.43,45.8-20.24,14.26-41.01,29.06-53.87,49.46-12.87,20.4-16,48.03-.75,66.94-10.58,6.46-18.71,15.92-23.81,26.68-23.41-9.2-46.27-21.77-68.22-37.55-8.37-6.02-17.85-15.55-17.63-30.07.26-16.67,12.69-24.81,19.59-37.43,12.82-23.46.29-67.18-19.32-67.89,16.32-16.35,32.32-33.53,47.96-51.48-23.78-12.27-47.56-24.53-71.34-36.79,12.31-9.14,23.79-21.05,34-35.24-5.2-3.71-10.41-7.43-15.61-11.13,8.19-15.32,16.38-30.64,24.57-45.95-23.31-8.96-46.61-17.91-69.92-26.87,8.2-16.53,15.45-34.25,21.63-52.84-19.87-3.19-39.74-6.37-59.61-9.55,3.97-12.34,7.94-24.67,11.91-37.02-15.59.71-31.2-9.47-27.08-33.35,3.97-22.98-.72-41.88-8.3-66.9-7.85,54.34-.11,48.89-13.6,84.84-16.58,44.16-35.33,86.27-56.04,125.84,6.37,5.32,12.73,10.64,19.1,15.95-20.92,12.24-39.77,33.2-54.12,60.18-31.81,11.01-62.57,29.61-90.91,54.97,15.64,11.4,31.27,22.8,46.9,34.21-18.8,12.77-37.6,25.55-56.41,38.32,13.2,6.88,26.39,13.76,39.58,20.64-27.27,15.27-53.85,33.56-79.5,54.69,24.64,18.35,49.28,36.7,73.92,55.05-20.19,12.98-39.91,27.74-59.05,44.21,10.74,10.08,21.49,20.17,32.23,30.25-11.18,4.61-13.9,27.33-14.46,45.58-.4,12.98-.79,25.95-1.19,38.93-17.26,9.94-34.51,19.88-51.77,29.82-.12-3.81-.23-7.61-.35-11.42-.3-9.9-1.78-22.22-7.84-24.72,5.82-5.47,11.65-10.94,17.48-16.41-10.38-8.93-21.08-16.94-32.03-23.98,13.36-9.95,26.73-19.91,40.09-29.86-13.91-11.47-28.33-21.38-43.11-29.67,7.15-3.73,14.3-7.46,21.46-11.19-10.2-6.92-20.4-13.85-30.6-20.78,8.48-6.18,16.96-12.37,25.44-18.55-15.37-13.75-32.05-23.84-49.3-29.81-7.79-14.63-18.01-26-29.36-32.63,3.45-2.89,6.91-5.77,10.36-8.66-11.23-21.46-21.4-44.3-30.39-68.25-7.32-19.5,6.52-35.22-7.38-46.02-4.11,13.57-6.66,23.83-4.5,36.29,2.24,12.95-6.23,18.47-14.69,18.09,2.16,6.69,4.31,13.39,6.46,20.08-10.77,1.73-21.55,3.45-32.33,5.18,3.35,10.09,7.29,19.69,11.73,28.66-12.64,4.86-25.28,9.72-37.92,14.58,4.44,8.3,8.88,16.61,13.33,24.92-2.83,2.02-5.65,4.02-8.47,6.04,5.54,7.7,11.77,14.15,18.44,19.11-12.9,6.65-25.79,13.3-38.69,19.95,8.48,9.74,17.16,19.05,26.01,27.92-10.64.38-17.43,24.09-10.48,36.82,3.74,6.85,10.48,11.25,10.62,20.3.13,7.86-5.02,13.04-9.55,16.3-6.29,4.52-12.71,8.55-19.24,12.08v-.92c-2.02-.21-4.04-.42-6.06-.64,1.51-3.08,3.05-6.38,2.54-9.73-.51-3.35-3.99-6.54-7.48-5.63,4.96-2.99,4.92-10.95-.06-13.91,5.16-2.16,4.36-9.67.49-13.51-3.88-3.84-9.54-5.7-13.68-9.3-8.46-7.36-8.44-19.56-9.21-30.33-.98-13.8-4.25-27.47-9.65-40.35-10.47,31.53-20.95,63.05-31.42,94.58-.77,2.32-1.44,5.13.31,6.93,1,1.03,2.64,1.5,3.31,2.74.78,1.45-.15,3.17-1.18,4.48-8.88,11.24-26.8,15.98-31.12,29.36,6.24-2.25,11.4,6.6,8.47,12.21-2.93,5.61-9.66,8.34-15.36,11.61-5.34,3.06-10.43,7.39-11.65,13.13-1.21,5.74,3.33,12.63,9.59,12.29-6.57,6.64-13.14,13.27-19.71,19.91-1.19,1.2-2.46,2.59-2.43,4.23.05,2.26,2.48,3.75,4.62,4.82,6.76,3.38,13.51,6.76,20.27,10.14-2.29,4.87-7.73,7.64-12.77,10.13-5.03,2.49-10.42,5.48-12.35,10.48-1.93,5,2.32,11.98,7.88,10.79-4.77,3.36-9.67,6.85-12.7,11.66-3.03,4.81-3.77,11.32-.18,15.78-2.49,1.52-4.41,3.75-5.61,6.29-5.52-2.17-10.9-5.13-16.08-8.85-1.97-1.42-4.21-3.67-4.16-7.09.06-3.93,2.99-5.85,4.62-8.82,3.02-5.53.07-15.83-4.55-16,3.85-3.85,7.62-7.9,11.3-12.13-5.6-2.89-11.21-5.78-16.81-8.67,2.9-2.15,5.61-4.96,8.01-8.3-1.23-.88-2.45-1.75-3.68-2.62,1.93-3.61,3.86-7.22,5.79-10.83-5.49-2.11-10.99-4.22-16.48-6.33,1.93-3.9,3.64-8.07,5.1-12.45-4.68-.75-9.37-1.5-14.05-2.25.94-2.91,1.87-5.82,2.81-8.72-3.67.17-7.35-2.23-6.38-7.86.94-5.42-.17-9.87-1.96-15.77-6.04,4.69-.03,11.52-3.21,19.99-3.91,10.41-8.33,20.33-13.21,29.66,1.5,1.25,3,2.51,4.5,3.76-4.93,2.88-9.37,7.83-12.76,14.18-7.5,2.59-14.75,6.98-21.43,12.96,3.69,2.69,7.37,5.37,11.05,8.06-4.43,3.01-8.86,6.02-13.29,9.03,3.11,1.62,6.22,3.24,9.33,4.86-6.43,3.6-12.69,7.91-18.74,12.89,5.81,4.32,11.61,8.65,17.42,12.97-4.76,3.06-9.41,6.54-13.92,10.42,2.53,2.38,5.06,4.75,7.6,7.13-2.64,1.09-3.28,6.44-3.41,10.74-.09,3.06-.19,6.12-.28,9.18-4.07,2.34-8.13,4.69-12.2,7.03-.03-.9-.05-1.79-.08-2.69-.07-2.33-.42-5.24-1.85-5.83,1.37-1.29,2.75-2.58,4.12-3.87-2.45-2.1-4.97-3.99-7.55-5.65,3.15-2.35,6.3-4.69,9.45-7.04-3.28-2.7-6.68-5.04-10.16-6.99,1.69-.88,3.37-1.76,5.06-2.64-2.4-1.63-4.81-3.27-7.21-4.9,2-1.46,4-2.92,6-4.37-3.62-3.24-7.55-5.62-11.62-7.03-1.84-3.45-4.24-6.13-6.92-7.69.81-.68,1.63-1.36,2.44-2.04-2.65-5.06-5.04-10.44-7.16-16.09-1.73-4.59,1.54-8.3-1.74-10.85-.97,3.2-1.57,5.62-1.06,8.55.53,3.05-1.47,4.35-3.46,4.26.51,1.58,1.02,3.16,1.52,4.73-2.54.41-5.08.81-7.62,1.22.79,2.38,1.72,4.64,2.76,6.75-2.98,1.15-5.96,2.29-8.94,3.44,1.05,1.96,2.09,3.92,3.14,5.87-.67.47-1.33.95-2,1.42,1.31,1.81,2.77,3.34,4.35,4.5-3.04,1.57-6.08,3.14-9.12,4.7,2,2.3,4.04,4.49,6.13,6.58-2.51.09-4.11,5.68-2.47,8.68.88,1.61,2.47,2.65,2.5,4.78.03,1.85-1.18,3.07-2.25,3.84-3.73,2.68-7.67,4.64-11.71,5.82,1.27,1.92,2.78,3.43,4.42,4.42-2.96,1.7-5.91,3.41-8.87,5.11,1.81,2.69,3.62,5.38,5.43,8.07.41.61.84,1.34.97,2.15-5.78.36-11.57.71-17.36,1.05-.57-3.43-1.92-6.7-5.03-7.53,4-2.43,7.99-4.86,11.99-7.28-7.12-3.96-14.46-7.52-21.97-10.64,9.17-4.42,18.34-8.84,27.5-13.26-9.54-5.09-19.43-9.49-29.58-13.17,4.91-1.66,9.82-3.31,14.72-4.97-7-3.08-13.99-6.15-20.99-9.23,5.82-2.75,11.63-5.49,17.45-8.24-10.54-6.11-21.99-10.59-33.82-13.24-5.34-6.5-12.35-11.54-20.14-14.49,2.37-1.28,4.74-2.56,7.1-3.84-7.7-9.53-14.68-19.67-20.85-30.3-5.02-8.65,4.48-15.63-5.06-20.43-2.82,6.02-4.57,10.57-3.09,16.11,1.54,5.75-4.28,8.2-10.07,8.03,1.48,2.97,2.95,5.94,4.43,8.91-7.39.77-14.79,1.53-22.18,2.3,2.3,4.48,5,8.74,8.05,12.72-8.67,2.16-17.34,4.31-26.02,6.47,3.05,3.69,6.09,7.38,9.14,11.06-1.94.89-3.87,1.79-5.81,2.68,3.8,3.42,8.07,6.28,12.65,8.49-6.61,2.21-13.22,4.41-19.83,6.62-6.04-5.02-12.5-8.77-19.15-11.1-3.41-6.5-7.89-11.54-12.87-14.49,1.51-1.28,3.03-2.56,4.54-3.84-4.92-9.53-9.38-19.67-13.32-30.3-3.21-8.65,2.86-15.63-3.23-20.43-1.8,6.02-2.92,10.57-1.97,16.11.98,5.75-2.73,8.2-6.44,8.03.94,2.97,1.89,5.94,2.83,8.91-4.72.77-9.45,1.53-14.17,2.3,1.47,4.48,3.19,8.74,5.14,12.72-5.54,2.16-11.08,4.31-16.62,6.47,1.95,3.69,3.89,7.38,5.84,11.06-1.24.89-2.47,1.79-3.71,2.68,2.43,3.42,5.16,6.28,8.08,8.49-5.65,2.95-11.31,5.91-16.96,8.86,3.72,4.32,7.52,8.46,11.4,12.39-4.66.17-7.64,10.7-4.59,16.35,1.64,3.04,4.59,5,4.66,9.01.05,3.49-2.2,5.79-4.19,7.24-3.53,2.57-7.16,4.78-10.86,6.64-1.12-.92-2.26-1.82-3.41-2.66,4.03-2.71,8.06-5.41,12.1-8.12-3.81-3.56-7.8-6.68-11.92-9.32,2.13-.98,4.26-1.96,6.39-2.95-2.82-2.18-5.64-4.36-8.46-6.54,2.56-1.68,5.11-3.36,7.67-5.04-4.19-4.25-8.83-7.45-13.71-9.46-1.99-4.4-4.74-7.87-7.9-9.99l3.14-2.37c-2.86-6.44-5.4-13.27-7.57-20.41-1.77-5.81,2.5-10.19-1.32-13.56-1.43,3.9-2.34,6.86-1.94,10.54.42,3.82-2.12,5.31-4.56,5.07.5,1.99,1.01,3.98,1.51,5.97-3.14.34-6.28.68-9.42,1.03.79,3,1.76,5.87,2.88,8.55-3.73,1.23-7.47,2.46-11.2,3.69,1.14,2.5,2.27,4.99,3.41,7.49-.85.55-1.7,1.09-2.55,1.64,1.46,2.33,3.15,4.32,4.99,5.87-3.84,1.75-7.68,3.5-11.52,5.25,2.28,2.97,4.62,5.83,7.02,8.55-3.08-.05-5.46,6.78-3.67,10.6.96,2.06,2.83,3.45,2.71,6.09-.1,2.3-1.68,3.74-3.05,4.62-3.35,2.17-6.8,3.88-10.3,5.13-.09-2.97-.18-5.94-.27-8.9-.15-4.95-.88-11.11-3.87-12.36,2.88-2.73,5.75-5.47,8.63-8.2-5.12-4.46-10.4-8.47-15.81-11.99,6.6-4.98,13.19-9.95,19.79-14.93-6.87-5.73-13.98-10.69-21.28-14.83,3.53-1.87,7.06-3.73,10.59-5.6-5.03-3.46-10.07-6.93-15.1-10.39,4.19-3.09,8.37-6.18,12.56-9.28-7.59-6.88-15.82-11.92-24.34-14.9-3.84-7.32-8.89-13-14.49-16.32,1.7-1.44,3.41-2.88,5.11-4.33-5.54-10.73-10.56-22.15-15-34.12-3.61-9.75,3.22-17.6-3.64-23.01-2.03,6.78-3.29,11.91-2.22,18.14,1.1,6.48-3.08,9.24-7.25,9.04,1.06,3.35,2.13,6.69,3.19,10.04-5.32.86-10.64,1.73-15.96,2.59,1.65,5.04,3.6,9.84,5.79,14.33-6.24,2.43-12.48,4.86-18.72,7.29,2.19,4.15,4.39,8.31,6.58,12.46-1.39,1.01-2.79,2.01-4.18,3.02,2.73,3.85,5.81,7.08,9.1,9.56-6.37,3.32-12.73,6.65-19.1,9.98,4.19,4.87,8.47,9.52,12.84,13.96-5.25.19-8.61,12.05-5.17,18.41,1.85,3.42,5.17,5.63,5.24,10.15.06,3.93-2.48,6.52-4.72,8.15-3.04,2.21-6.14,4.18-9.29,5.92-3.55-3.25-7.39-5.78-11.41-7.48-1.94-4.41-4.65-7.92-7.78-10.06,1.06-.78,2.11-1.56,3.17-2.34-2.79-6.47-5.25-13.33-7.34-20.48-1.7-5.83,2.62-10.17-1.16-13.57-1.47,3.89-2.42,6.84-2.06,10.52.37,3.82-2.18,5.29-4.61,5.02.48,1.99.96,3.99,1.44,5.98-3.14.31-6.29.62-9.43.93.76,3.01,1.69,5.88,2.78,8.58-3.75,1.19-7.5,2.38-11.24,3.58,1.11,2.51,2.22,5.01,3.32,7.52-.86.54-1.71,1.07-2.57,1.61,1.44,2.35,3.1,4.35,4.92,5.92-3.86,1.71-7.72,3.42-11.58,5.13,2.24,3,4.55,5.87,6.92,8.62-3.08-.08-5.53,6.72-3.79,10.57.94,2.07,2.79,3.48,2.64,6.12-.13,2.3-1.72,3.72-3.1,4.59-1.24.78-2.49,1.51-3.76,2.17-1.73-1.63-3.51-3.13-5.34-4.47,2.75-1.85,5.51-3.7,8.26-5.55-2.6-2.43-5.33-4.56-8.15-6.37,1.46-.67,2.91-1.34,4.37-2.01-1.93-1.49-3.85-2.98-5.78-4.47,1.75-1.15,3.49-2.3,5.24-3.44-2.87-2.91-6.03-5.09-9.36-6.46-1.36-3-3.24-5.38-5.4-6.82.72-.54,1.43-1.08,2.15-1.62-1.96-4.4-3.69-9.07-5.17-13.94-1.21-3.97,1.71-6.97-.9-9.27-.97,2.67-1.6,4.69-1.32,7.2.29,2.61-1.45,3.63-3.11,3.46.34,1.36.69,2.72,1.03,4.08-2.15.23-4.29.47-6.44.7.54,2.05,1.2,4.01,1.97,5.84-2.55.84-5.1,1.68-7.65,2.52.78,1.7,1.55,3.41,2.33,5.11-.58.37-1.16.75-1.74,1.12,1,1.59,2.15,2.95,3.41,4.01-2.62,1.2-5.25,2.39-7.87,3.58,1.56,2.03,3.15,3.98,4.79,5.84-2.1-.03-3.73,4.63-2.51,7.25.66,1.41,1.93,2.36,1.85,4.16-.07,1.57-1.15,2.55-2.08,3.16-3.26,2.11-6.66,3.6-10.09,4.42.97,1.68,2.15,3.03,3.47,3.94-2.56,1.31-5.12,2.63-7.68,3.94,1.38,2.36,2.75,4.72,4.13,7.08.41.7.85,1.58.69,2.54-.15.89-.73,1.41-1.25,1.82-2.19,1.73-4.38,3.47-6.57,5.2-.49.39-1.08,1.06-.97,1.88.06.43.3.72.53.96.6.64,1.19,1.27,1.79,1.91-1.77-.99-3.53-1.97-5.3-2.96,1.47-.87,2.83-2.19,3.98-3.86-3.63-1.03-7.18-2.74-10.54-5.08-.96-.67-2.05-1.74-2.03-3.35.03-1.86,1.46-2.77,2.25-4.18,1.48-2.62.03-7.5-2.22-7.58,1.88-1.83,3.72-3.74,5.52-5.74-2.74-1.37-5.47-2.74-8.21-4.1,1.42-1.02,2.74-2.35,3.91-3.93-.6-.41-1.2-.83-1.8-1.24.94-1.71,1.88-3.42,2.83-5.13-2.68-1-5.36-2-8.05-3,.94-1.84,1.78-3.82,2.49-5.9-2.29-.36-4.57-.71-6.86-1.07.46-1.38.91-2.75,1.37-4.13-1.79.08-3.59-1.06-3.12-3.72.46-2.56-.08-4.67-.96-7.46-2.95,2.22-.01,5.46-1.56,9.47-1.91,4.93-4.07,9.63-6.45,14.04.73.59,1.46,1.19,2.2,1.78-2.41,1.37-4.58,3.7-6.23,6.72-3.66,1.23-7.2,3.3-10.46,6.13,1.8,1.27,3.6,2.54,5.4,3.82-2.16,1.43-4.33,2.85-6.49,4.28,1.52.77,3.04,1.54,4.55,2.3-3.14,1.7-6.2,3.74-9.15,6.1,2.84,2.05,5.67,4.1,8.51,6.14-2.32,1.45-4.59,3.1-6.79,4.93,1.24,1.13,2.47,2.25,3.71,3.38-1.29.51-1.6,3.05-1.66,5.09-.05,1.45-.09,2.9-.14,4.34-2.06,1.15-4.11,2.3-6.17,3.44,1.86.69,3.71,1.38,5.57,2.07-4.04.09-8.08.18-12.13.27-.91-.41-1.81-.82-2.71-1.23-.04-1-.08-1.99-.12-2.99-.05-1.4-.32-3.15-1.41-3.5,1.05-.77,2.1-1.55,3.15-2.32-1.87-1.26-3.79-2.4-5.76-3.4,2.4-1.41,4.81-2.82,7.21-4.23-2.5-1.62-5.1-3.03-7.76-4.2,1.29-.53,2.57-1.06,3.86-1.59-1.83-.98-3.67-1.96-5.5-2.94,1.53-.88,3.05-1.75,4.58-2.63-2.77-1.95-5.77-3.38-8.87-4.22-1.4-2.07-3.24-3.68-5.28-4.62.62-.41,1.24-.82,1.86-1.23-2.02-3.04-3.85-6.27-5.47-9.67-1.32-2.76,1.17-4.99-1.33-6.52-.74,1.92-1.2,3.37-.81,5.14.4,1.83-1.12,2.62-2.64,2.56.39.95.78,1.9,1.16,2.84-1.94.24-3.88.49-5.82.73.6,1.43,1.31,2.79,2.11,4.06-2.27.69-4.55,1.38-6.82,2.06.8,1.18,1.6,2.35,2.4,3.53-.51.28-1.02.57-1.52.85,1,1.09,2.12,2,3.32,2.71-2.32.94-4.64,1.88-6.96,2.83,1.53,1.38,3.09,2.7,4.68,3.95-1.91.05-3.14,3.41-1.89,5.21.67.97,1.89,1.59,1.91,2.87.02,1.11-.9,1.85-1.72,2.31-2.85,1.61-5.86,2.79-8.94,3.5.97,1.15,2.12,2.06,3.37,2.66-.37.17-.75.34-1.12.51-3.61-1.3-7.23-2.6-10.84-3.9,2.53-.76,5.07-1.53,7.6-2.29-2.53-1.15-5.06-2.3-7.6-3.44-.06-1.45-.11-2.9-.17-4.34-.08-2.04-.46-4.57-2.05-5.09,1.52-1.13,3.05-2.25,4.57-3.38-2.71-1.84-5.51-3.49-8.37-4.93,3.49-2.05,6.99-4.1,10.48-6.14-3.64-2.36-7.41-4.4-11.27-6.1,1.87-.77,3.74-1.54,5.61-2.3-2.67-1.43-5.33-2.85-8-4.28,2.22-1.27,4.43-2.55,6.65-3.82-4.02-2.83-8.38-4.91-12.89-6.13-2.04-3.01-4.71-5.35-7.67-6.72.9-.59,1.81-1.19,2.71-1.78-2.94-4.41-5.59-9.11-7.94-14.04-1.91-4.01,1.71-7.24-1.93-9.47-1.07,2.79-1.74,4.9-1.18,7.46.59,2.66-1.63,3.8-3.84,3.72.56,1.38,1.13,2.75,1.69,4.13-2.82.36-5.63.71-8.45,1.07.88,2.08,1.9,4.05,3.07,5.9-3.3,1-6.61,2-9.91,3,1.16,1.71,2.32,3.42,3.48,5.13-.74.41-1.48.83-2.21,1.24,1.45,1.58,3.08,2.91,4.82,3.93-3.37,1.37-6.74,2.74-10.11,4.11,2.22,2,4.48,3.92,6.8,5.74-2.78.08-4.56,4.96-2.74,7.58.98,1.41,2.74,2.32,2.78,4.18.03,1.62-1.31,2.68-2.5,3.35-3.88,2.19-7.96,3.83-12.14,4.87,1.31-.99,2.62-1.98,3.93-2.97-2.34-1.95-4.77-3.64-7.26-5.06,1.2-.64,2.41-1.27,3.61-1.91-1.72-1.18-3.43-2.36-5.15-3.54,1.43-1.05,2.85-2.11,4.28-3.16-2.59-2.35-5.39-4.06-8.3-5.08-1.31-2.49-3.03-4.43-4.94-5.56.58-.49,1.16-.98,1.74-1.48-1.89-3.66-3.6-7.55-5.12-11.63-1.23-3.32,1.1-6-1.24-7.84-.69,2.31-1.12,4.06-.76,6.18.38,2.21-1.05,3.15-2.47,3.08.36,1.14.73,2.28,1.09,3.42-1.81.29-3.63.59-5.44.88.56,1.72,1.23,3.36,1.97,4.89-2.13.83-4.26,1.66-6.38,2.48.75,1.42,1.5,2.83,2.24,4.25-.48.34-.95.69-1.43,1.03.93,1.31,1.98,2.41,3.1,3.26-2.17,1.13-4.34,2.27-6.51,3.4,1.43,1.66,2.89,3.25,4.38,4.76-1.79.07-2.93,4.11-1.76,6.28.63,1.17,1.76,1.92,1.79,3.46.02,1.34-.85,2.22-1.61,2.78-2.67,1.94-5.48,3.36-8.36,4.21.91,1.38,1.99,2.48,3.16,3.2-1.86,1.08-3.72,2.17-5.57,3.25-1.73-1.45-3.49-2.78-5.3-3.95,2.53-1.91,5.07-3.82,7.6-5.73-2.64-2.2-5.37-4.11-8.17-5.69,1.36-.72,2.71-1.43,4.07-2.15-1.93-1.33-3.87-2.66-5.8-3.99,1.61-1.19,3.21-2.37,4.82-3.56-2.91-2.64-6.07-4.58-9.34-5.72-1.48-2.81-3.41-4.99-5.56-6.27.65-.55,1.31-1.11,1.96-1.66-2.13-4.12-4.06-8.5-5.76-13.1-1.39-3.74,1.24-6.76-1.4-8.83-.78,2.61-1.26,4.57-.85,6.97.42,2.49-1.18,3.55-2.78,3.47.41,1.28.82,2.57,1.22,3.85-2.04.33-4.09.66-6.13.99.64,1.94,1.38,3.78,2.22,5.5-2.4.93-4.79,1.87-7.19,2.8.84,1.59,1.68,3.19,2.53,4.78-.53.39-1.07.77-1.6,1.16,1.05,1.48,2.23,2.72,3.5,3.67-2.44,1.28-4.89,2.55-7.33,3.83,1.61,1.87,3.25,3.66,4.93,5.36-2.02.07-3.3,4.62-1.99,7.07.71,1.31,1.99,2.16,2.01,3.9.02,1.51-.95,2.5-1.81,3.13-3,2.19-6.17,3.78-9.41,4.74,1.02,1.56,2.24,2.79,3.55,3.6-2.26,1.32-4.51,2.63-6.77,3.95-1.01-.33-2-.76-2.95-1.3-.39-.22-.84-.58-.83-1.11.01-.62.6-.92.92-1.39.6-.87.01-2.49-.91-2.52.77-.61,1.52-1.24,2.26-1.91-1.12-.45-2.24-.91-3.36-1.36.58-.34,1.12-.78,1.6-1.31-.25-.14-.49-.27-.74-.41.39-.57.77-1.14,1.16-1.7-1.1-.33-2.2-.66-3.29-1,.39-.61.73-1.27,1.02-1.96-.94-.12-1.87-.24-2.81-.35.19-.46.37-.91.56-1.37-.73.03-1.47-.35-1.27-1.24.19-.85-.03-1.55-.39-2.48-1.21.74,0,1.81-.64,3.14-.78,1.64-1.66,3.2-2.64,4.66.3.2.6.39.9.59-.99.45-1.87,1.23-2.55,2.23-1.5.41-2.95,1.1-4.28,2.04.74.42,1.47.85,2.21,1.27-.89.47-1.77.95-2.66,1.42.62.26,1.24.51,1.86.76-1.28.57-2.54,1.24-3.74,2.03,1.16.68,2.32,1.36,3.48,2.04-.95.48-1.88,1.03-2.78,1.64.51.37,1.01.75,1.52,1.12-.53.17-.65,1.01-.68,1.69-.02.48-.04.96-.06,1.44-.84.38-1.68.76-2.52,1.14.84.25,1.68.51,2.52.76-1.09.39-2.19.79-3.28,1.18-1.98-.71-3.95-1.42-5.93-2.13,2.39-.72,4.79-1.44,7.18-2.16-2.39-1.08-4.79-2.17-7.18-3.25-.05-1.37-.11-2.74-.16-4.11-.07-1.92-.44-4.32-1.94-4.81,1.44-1.06,2.88-2.13,4.32-3.19-2.56-1.74-5.21-3.29-7.91-4.66,3.3-1.93,6.6-3.87,9.9-5.81-3.44-2.23-7-4.16-10.65-5.77,1.77-.73,3.53-1.45,5.3-2.18-2.52-1.35-5.04-2.69-7.56-4.04,2.09-1.2,4.19-2.4,6.28-3.61-3.8-2.67-7.92-4.64-12.18-5.8-1.92-2.85-4.45-5.05-7.25-6.35.85-.56,1.71-1.12,2.56-1.68-2.77-4.17-5.29-8.61-7.51-13.27-1.81-3.79,1.61-6.85-1.82-8.95-1.02,2.64-1.64,4.63-1.11,7.05.55,2.52-1.54,3.59-3.63,3.52.53,1.3,1.06,2.6,1.6,3.9-2.66.34-5.32.67-7.99,1.01.83,1.96,1.8,3.83,2.9,5.57-3.12.94-6.25,1.89-9.37,2.83,1.1,1.61,2.19,3.23,3.29,4.84-.7.39-1.39.78-2.09,1.17,1.37,1.5,2.91,2.75,4.56,3.72-3.19,1.29-6.37,2.59-9.56,3.88,2.09,1.89,4.24,3.7,6.42,5.43-2.63.07-4.31,4.68-2.59,7.16.92,1.33,2.59,2.19,2.62,3.95.03,1.53-1.24,2.54-2.36,3.17-3.91,2.21-8.04,3.83-12.27,4.8,1.33,1.58,2.91,2.83,4.63,3.65-3.1,1.4-6.2,2.81-9.3,4.21,1.9,2.22,3.79,4.44,5.69,6.66.56.66,1.17,1.49,1.05,2.43-.06.42-.25.76-.5,1.05-2.87-1.03-5.74-2.07-8.61-3.1,1.94-.58,3.88-1.17,5.82-1.75-1.94-.88-3.88-1.76-5.82-2.64-.04-1.11-.09-2.22-.13-3.33-.06-1.56-.36-3.5-1.57-3.89,1.17-.86,2.33-1.72,3.5-2.58-2.08-1.41-4.22-2.67-6.41-3.78,2.67-1.57,5.35-3.14,8.02-4.7-2.78-1.81-5.67-3.37-8.63-4.67,1.43-.59,2.86-1.18,4.29-1.76-2.04-1.09-4.08-2.18-6.12-3.27,1.7-.97,3.39-1.95,5.09-2.92-3.08-2.17-6.41-3.76-9.87-4.7-1.56-2.3-3.6-4.1-5.87-5.14.69-.45,1.38-.91,2.07-1.36-2.25-3.38-4.28-6.98-6.08-10.75-1.46-3.07,1.31-5.55-1.48-7.25-.82,2.14-1.33,3.75-.9,5.71.45,2.04-1.25,2.91-2.94,2.85.43,1.05.86,2.11,1.29,3.16-2.16.27-4.31.54-6.47.82.67,1.59,1.46,3.1,2.35,4.51-2.53.77-5.06,1.53-7.59,2.3.89,1.31,1.78,2.62,2.67,3.93-.56.32-1.13.63-1.69.95,1.11,1.21,2.35,2.23,3.69,3.01-2.58,1.05-5.16,2.1-7.74,3.14,1.7,1.53,3.43,3,5.2,4.4-2.13.06-3.49,3.79-2.1,5.8.75,1.08,2.1,1.77,2.13,3.2.02,1.24-1.01,2.05-1.91,2.57-2.42,1.37-4.95,2.45-7.53,3.24-.92-.33-1.84-.66-2.76-.99,3.48-1.05,6.95-2.09,10.43-3.14-3.48-1.58-6.95-3.15-10.43-4.73-.08-1.99-.15-3.98-.23-5.96-.11-2.8-.64-6.28-2.81-6.98,2.09-1.54,4.18-3.09,6.27-4.63-3.73-2.52-7.56-4.78-11.49-6.77,4.8-2.81,9.59-5.62,14.39-8.43-4.99-3.24-10.17-6.04-15.47-8.38,2.57-1.05,5.13-2.11,7.7-3.16-3.66-1.96-7.32-3.91-10.98-5.87,3.04-1.75,6.09-3.49,9.13-5.24-5.52-3.89-11.5-6.73-17.69-8.42-2.79-4.13-6.46-7.34-10.53-9.22,1.24-.81,2.48-1.63,3.72-2.44-4.03-6.06-7.68-12.51-10.91-19.28-2.63-5.51,2.34-9.95-2.65-13-1.48,3.83-2.39,6.73-1.62,10.25.8,3.66-2.24,5.22-5.27,5.11.77,1.89,1.55,3.78,2.32,5.67-3.87.49-7.74.98-11.6,1.46,1.2,2.85,2.61,5.56,4.21,8.09-4.54,1.37-9.07,2.74-13.61,4.12,1.59,2.35,3.19,4.69,4.78,7.04-1.01.57-2.03,1.14-3.04,1.7,1.99,2.17,4.22,4,6.62,5.4-4.63,1.88-9.26,3.76-13.88,5.64,3.04,2.75,6.16,5.38,9.33,7.89-3.82.11-6.26,6.81-3.76,10.4,1.34,1.93,3.76,3.18,3.81,5.73.04,2.22-1.8,3.68-3.43,4.61-5.33,3.01-10.93,5.25-16.67,6.69,1.8-1.36,3.6-2.72,5.4-4.07-3.21-2.68-6.55-5-9.96-6.94,1.65-.87,3.31-1.75,4.96-2.62-2.36-1.62-4.71-3.24-7.07-4.86,1.96-1.45,3.92-2.89,5.88-4.34-3.55-3.22-7.41-5.58-11.39-6.98-1.8-3.42-4.16-6.08-6.78-7.64.8-.68,1.6-1.35,2.39-2.03-2.59-5.02-4.94-10.37-7.02-15.97-1.69-4.56,1.51-8.24-1.7-10.77-.95,3.18-1.54,5.57-1.04,8.49.52,3.03-1.44,4.32-3.39,4.23.5,1.57,1,3.13,1.49,4.7-2.49.4-4.98.81-7.47,1.21.77,2.36,1.68,4.61,2.71,6.71-2.92,1.14-5.84,2.27-8.76,3.41,1.03,1.94,2.05,3.89,3.08,5.83-.65.47-1.3.94-1.96,1.41,1.28,1.8,2.72,3.31,4.26,4.47-2.98,1.56-5.96,3.11-8.94,4.67,1.96,2.28,3.96,4.46,6.01,6.53-2.46.09-4.03,5.64-2.42,8.62.86,1.6,2.42,2.63,2.45,4.75.03,1.84-1.16,3.05-2.21,3.82-3.66,2.66-7.52,4.61-11.48,5.78,1.25,1.9,2.73,3.4,4.33,4.39-2.55,1.49-5.1,2.97-7.65,4.46-2.37-1.99-4.8-3.81-7.28-5.43,3.48-2.62,6.95-5.25,10.43-7.87-3.62-3.02-7.37-5.64-11.22-7.82,1.86-.98,3.72-1.97,5.58-2.95-2.65-1.83-5.31-3.65-7.96-5.48,2.21-1.63,4.41-3.26,6.62-4.89-4-3.63-8.34-6.28-12.83-7.86-2.03-3.86-4.69-6.85-7.64-8.6.9-.76,1.8-1.52,2.69-2.28-2.92-5.65-5.57-11.67-7.91-17.99-1.9-5.14,1.7-9.28-1.92-12.13-1.07,3.58-1.73,6.28-1.17,9.56.58,3.41-1.62,4.87-3.82,4.77.56,1.76,1.12,3.53,1.68,5.29-2.8.46-5.61.91-8.41,1.37.87,2.66,1.9,5.19,3.05,7.55-3.29,1.28-6.58,2.56-9.87,3.84,1.16,2.19,2.31,4.38,3.47,6.57-.73.53-1.47,1.06-2.2,1.59,1.44,2.03,3.06,3.73,4.8,5.04-3.36,1.75-6.71,3.51-10.07,5.26,2.21,2.57,4.46,5.02,6.77,7.36-2.77.1-4.54,6.35-2.73,9.7.97,1.8,2.73,2.97,2.76,5.35.03,2.07-1.31,3.44-2.49,4.3-3.87,2.81-7.94,4.91-12.1,6.25-.16-.11-.32-.24-.49-.35,1.44-1.09,2.89-2.18,4.33-3.27-1.5-1.25-3.06-2.34-4.66-3.25.77-.41,1.55-.82,2.32-1.23-1.1-.76-2.2-1.52-3.31-2.28.92-.68,1.83-1.35,2.75-2.03-1.66-1.51-3.46-2.61-5.33-3.26-.84-1.6-1.95-2.85-3.17-3.57.37-.32.75-.63,1.12-.95-1.21-2.35-2.31-4.85-3.28-7.47-.79-2.13.71-3.85-.8-5.04-.44,1.49-.72,2.61-.49,3.97.24,1.42-.67,2.02-1.59,1.98.23.73.47,1.46.7,2.2-1.16.19-2.33.38-3.49.57.36,1.1.79,2.16,1.27,3.14-1.37.53-2.73,1.06-4.1,1.6.48.91.96,1.82,1.44,2.73-.31.22-.61.44-.92.66.6.84,1.27,1.55,1.99,2.09-1.39.73-2.79,1.46-4.18,2.18.92,1.07,1.85,2.08,2.81,3.06-1.15.04-1.88,2.64-1.13,4.03.4.75,1.13,1.23,1.15,2.22.01.86-.54,1.43-1.03,1.78-1.71,1.25-3.52,2.16-5.37,2.7.58.89,1.28,1.59,2.03,2.05-1.36.79-2.71,1.58-4.07,2.37.83,1.25,1.66,2.5,2.49,3.75.25.37.51.84.46,1.37-.05.49-.35.79-.62,1.03-.3.27-.61.54-.91.81-1.22-.57-2.45-1.13-3.67-1.7.78-.3,1.56-.6,2.33-.9-.78-.45-1.56-.91-2.33-1.36-.02-.57-.03-1.14-.05-1.72-.02-.8-.14-1.81-.63-2.01.47-.44.94-.89,1.4-1.33-.83-.73-1.69-1.38-2.57-1.95,1.07-.81,2.15-1.62,3.22-2.43-1.12-.93-2.27-1.74-3.46-2.41.57-.3,1.15-.61,1.72-.91-.82-.56-1.64-1.13-2.46-1.69.68-.5,1.36-1.01,2.04-1.51-1.23-1.12-2.57-1.94-3.96-2.42-.62-1.19-1.45-2.11-2.36-2.65.28-.23.55-.47.83-.7-.9-1.74-1.72-3.6-2.44-5.55-.59-1.58.52-2.86-.59-3.74-.33,1.1-.53,1.94-.36,2.95.18,1.05-.5,1.5-1.18,1.47.17.54.35,1.09.52,1.63-.86.14-1.73.28-2.6.42.27.82.58,1.6.94,2.33-1.01.39-2.03.79-3.04,1.18.36.68.71,1.35,1.07,2.03-.23.16-.45.33-.68.49.44.63.94,1.15,1.48,1.55-1.04.54-2.07,1.08-3.11,1.62.68.79,1.38,1.55,2.09,2.27-.85.03-1.4,1.96-.84,2.99.3.56.84.92.85,1.65.01.64-.4,1.06-.77,1.33-1.27.93-2.61,1.6-3.99,2.01.43.66.95,1.18,1.5,1.53-1.01.59-2.01,1.17-3.02,1.76.62.93,1.23,1.86,1.85,2.78.18.28.38.62.34,1.02-.04.36-.26.59-.46.77-.77.69-1.55,1.37-2.32,2.06.09-.1.18-.22.21-.39.09-.45-.21-.83-.47-1.06-1.14-1.01-2.28-2.02-3.42-3.03-.27-.24-.57-.54-.62-1.03-.06-.53.21-1,.46-1.37.83-1.25,1.66-2.5,2.49-3.75-1.36-.79-2.71-1.58-4.07-2.37.75-.46,1.44-1.17,2.03-2.05-1.85-.55-3.66-1.46-5.37-2.7-.49-.36-1.05-.92-1.03-1.78.02-.99.74-1.47,1.15-2.22.75-1.39.02-3.99-1.13-4.03.96-.97,1.89-1.99,2.81-3.06-1.39-.73-2.79-1.46-4.18-2.18.72-.54,1.39-1.25,1.99-2.09-.31-.22-.61-.44-.92-.66.48-.91.96-1.82,1.44-2.73-1.37-.53-2.73-1.06-4.1-1.6.48-.98.91-2.03,1.27-3.14-1.16-.19-2.33-.38-3.49-.57.23-.73.47-1.46.7-2.2-.91.04-1.83-.56-1.59-1.98.23-1.36-.04-2.49-.49-3.97-1.5,1.18,0,2.9-.8,5.04-.97,2.62-2.07,5.12-3.28,7.47.37.32.75.63,1.12.95-1.23.73-2.33,1.97-3.17,3.57-1.86.65-3.67,1.76-5.33,3.26.92.68,1.83,1.35,2.75,2.03-1.1.76-2.2,1.52-3.31,2.28.77.41,1.55.82,2.32,1.22-1.6.91-3.16,1.99-4.66,3.25,1.44,1.09,2.89,2.18,4.33,3.27-1.18.77-2.34,1.65-3.46,2.62.63.6,1.26,1.2,1.89,1.8-.66.27-.81,1.62-.85,2.71-.01.34-.02.69-.03,1.03-4.3-1.99-8.6-3.99-12.9-5.98,1.84-.71,3.67-1.42,5.51-2.13-1.84-1.07-3.67-2.14-5.51-3.21-.04-1.35-.08-2.7-.12-4.05-.06-1.9-.34-4.27-1.49-4.75,1.1-1.05,2.21-2.1,3.31-3.15-1.97-1.71-4-3.25-6.07-4.6,2.53-1.91,5.07-3.82,7.6-5.73-2.64-2.2-5.37-4.11-8.17-5.69,1.36-.72,2.71-1.43,4.07-2.15-1.93-1.33-3.87-2.66-5.8-3.99,1.61-1.19,3.21-2.37,4.82-3.56-2.91-2.64-6.07-4.58-9.34-5.72-1.48-2.81-3.41-4.99-5.56-6.27.65-.55,1.31-1.11,1.96-1.66-2.13-4.12-4.06-8.5-5.76-13.1-1.39-3.74,1.24-6.76-1.4-8.83-.78,2.61-1.26,4.57-.85,6.97.42,2.49-1.18,3.55-2.78,3.47.41,1.28.82,2.57,1.22,3.85-2.04.33-4.09.66-6.13.99.64,1.94,1.38,3.78,2.22,5.5-2.4.93-4.79,1.87-7.19,2.8.84,1.59,1.68,3.19,2.53,4.78-.53.39-1.07.77-1.61,1.16,1.05,1.48,2.23,2.72,3.5,3.67-2.44,1.28-4.89,2.55-7.33,3.83,1.61,1.87,3.25,3.66,4.93,5.36-2.02.07-3.3,4.62-1.99,7.07.71,1.31,1.99,2.16,2.01,3.9.02,1.51-.95,2.5-1.81,3.13-3,2.19-6.17,3.78-9.41,4.74,1.02,1.56,2.24,2.79,3.55,3.6-2.38,1.39-4.76,2.77-7.13,4.16,1.45,2.19,2.91,4.38,4.36,6.57.43.65.9,1.47.8,2.4-.09.86-.62,1.39-1.09,1.81-1.24,1.1-2.49,2.2-3.73,3.3-.68-.69-1.36-1.38-2.04-2.07,1.07-1.07,2.14-2.15,3.2-3.22.22-.23.46-.48.54-.9.15-.79-.35-1.47-.78-1.87-1.92-1.79-3.83-3.59-5.75-5.38-.46-.43-.96-.97-1.05-1.83-.09-.95.36-1.78.77-2.43,1.4-2.22,2.79-4.44,4.19-6.66-2.28-1.4-4.56-2.81-6.84-4.21,1.26-.82,2.43-2.07,3.41-3.65-3.11-.97-6.15-2.59-9.03-4.8-.82-.63-1.76-1.64-1.74-3.17.03-1.76,1.25-2.62,1.93-3.95,1.26-2.47.03-7.08-1.91-7.16,1.61-1.72,3.19-3.54,4.73-5.43-2.34-1.29-4.69-2.59-7.03-3.88,1.21-.96,2.35-2.22,3.35-3.72-.51-.39-1.03-.78-1.54-1.17.81-1.61,1.62-3.23,2.42-4.84-2.3-.94-4.6-1.89-6.9-2.83.81-1.74,1.52-3.61,2.13-5.57-1.96-.34-3.92-.67-5.88-1.01.39-1.3.78-2.6,1.17-3.9-1.54.08-3.08-1-2.67-3.52.39-2.42-.07-4.42-.82-7.05-2.53,2.1-.01,5.16-1.34,8.95-1.63,4.66-3.48,9.1-5.53,13.27.63.56,1.26,1.12,1.88,1.68-2.06,1.29-3.92,3.5-5.34,6.35-3.14,1.16-6.17,3.12-8.96,5.8,1.54,1.2,3.08,2.4,4.62,3.61-1.85,1.35-3.71,2.69-5.56,4.04,1.3.73,2.6,1.45,3.9,2.18-2.69,1.61-5.31,3.54-7.84,5.77,2.43,1.94,4.86,3.87,7.29,5.81-1.99,1.37-3.94,2.93-5.82,4.66,1.06,1.06,2.12,2.13,3.18,3.19-1.1.49-1.37,2.88-1.43,4.81-.04,1.37-.08,2.74-.12,4.1-1.76,1.08-3.51,2.16-5.27,3.24-1.75-.79-3.5-1.59-5.25-2.38-.04-1.11-.09-2.22-.13-3.33-.06-1.56-.36-3.5-1.57-3.89,1.17-.86,2.33-1.72,3.5-2.58-2.08-1.41-4.22-2.67-6.41-3.78,2.67-1.57,5.35-3.14,8.02-4.7-2.78-1.81-5.67-3.37-8.63-4.67,1.43-.59,2.86-1.18,4.29-1.76-2.04-1.09-4.08-2.18-6.12-3.27,1.7-.97,3.39-1.95,5.09-2.92-3.08-2.17-6.41-3.76-9.87-4.7-1.56-2.3-3.6-4.1-5.87-5.14.69-.45,1.38-.91,2.07-1.36-2.25-3.38-4.28-6.98-6.08-10.75-1.46-3.07,1.31-5.55-1.48-7.25-.82,2.14-1.33,3.75-.9,5.71.45,2.04-1.25,2.91-2.94,2.85.43,1.05.86,2.11,1.29,3.16-2.16.27-4.31.54-6.47.82.67,1.59,1.46,3.1,2.35,4.51-2.53.77-5.06,1.53-7.59,2.3.89,1.31,1.78,2.62,2.67,3.93-.56.32-1.13.63-1.69.95,1.11,1.21,2.35,2.23,3.69,3.01-2.58,1.05-5.16,2.1-7.74,3.14,1.7,1.53,3.43,3,5.21,4.4-1.37.04-2.41,1.59-2.62,3.23-8.33-3.73-16.67-7.45-25-11.18,3.48-1.3,6.95-2.6,10.43-3.9-3.48-1.96-6.95-3.91-10.43-5.87-.08-2.47-.15-4.94-.23-7.4-.11-3.47-.64-7.79-2.81-8.67,2.09-1.92,4.18-3.84,6.27-5.75-3.73-3.13-7.56-5.94-11.49-8.41,4.8-3.49,9.59-6.98,14.39-10.47-4.99-4.02-10.17-7.5-15.47-10.4,2.57-1.31,5.13-2.62,7.7-3.93-3.66-2.43-7.32-4.86-10.98-7.29,3.04-2.17,6.09-4.34,9.13-6.51-5.52-4.82-11.5-8.36-17.69-10.45-2.79-5.13-6.46-9.12-10.53-11.45,1.24-1.01,2.48-2.02,3.72-3.03-4.03-7.52-7.68-15.53-10.91-23.93-2.63-6.84,2.34-12.35-2.65-16.14-1.48,4.76-2.39,8.35-1.62,12.72.8,4.54-2.24,6.48-5.27,6.34.77,2.35,1.55,4.69,2.32,7.04-3.87.61-7.73,1.21-11.6,1.82,1.2,3.54,2.61,6.91,4.21,10.05-4.54,1.7-9.07,3.41-13.61,5.11,1.59,2.91,3.19,5.83,4.78,8.74-1.01.71-2.03,1.41-3.04,2.12,1.99,2.7,4.22,4.96,6.62,6.7-4.63,2.33-9.26,4.66-13.88,7,3.04,3.41,6.16,6.68,9.33,9.79-3.82.13-6.26,8.45-3.76,12.91,1.34,2.4,3.76,3.95,3.81,7.12.04,2.76-1.8,4.57-3.43,5.72-5.68,3.99-11.68,6.91-17.82,8.67,1.93,2.85,4.23,5.1,6.73,6.58-3.62,2.04-7.24,4.07-10.85,6.11-.12-.08-.23-.16-.35-.24,3.09-2.33,6.18-4.66,9.26-6.99-3.21-2.68-6.55-5-9.96-6.94,1.65-.87,3.31-1.75,4.96-2.62-2.36-1.62-4.71-3.24-7.07-4.86,1.96-1.45,3.92-2.89,5.88-4.34-3.55-3.22-7.41-5.58-11.39-6.98-1.8-3.42-4.16-6.08-6.78-7.64.8-.67,1.6-1.35,2.39-2.03-2.59-5.02-4.94-10.37-7.02-15.97-1.69-4.56,1.51-8.24-1.7-10.77-.95,3.18-1.54,5.57-1.04,8.49.52,3.03-1.44,4.32-3.39,4.23.5,1.57,1,3.13,1.49,4.7-2.49.4-4.98.81-7.47,1.21.77,2.36,1.68,4.61,2.71,6.71-2.92,1.14-5.84,2.27-8.76,3.41,1.03,1.94,2.05,3.89,3.08,5.83-.65.47-1.3.94-1.96,1.41,1.28,1.8,2.72,3.31,4.26,4.47-2.98,1.56-5.96,3.11-8.94,4.67,1.96,2.28,3.96,4.46,6.01,6.53-2.46.09-4.03,5.64-2.42,8.62.86,1.6,2.42,2.63,2.45,4.75.03,1.84-1.16,3.05-2.21,3.82-3.66,2.66-7.52,4.61-11.48,5.78,1.25,1.9,2.73,3.4,4.33,4.39-2.9,1.69-5.8,3.38-8.7,5.07.18.27.36.54.54.81-5.13-2.38-10.26-4.75-15.38-7.13,2.52-.98,5.04-1.95,7.56-2.93-2.52-1.47-5.04-2.94-7.56-4.41-.06-1.85-.11-3.71-.17-5.56-.08-2.61-.46-5.86-2.04-6.52,1.52-1.44,3.03-2.88,4.55-4.32-2.7-2.35-5.48-4.46-8.33-6.32,3.48-2.62,6.95-5.25,10.43-7.87-3.62-3.02-7.37-5.64-11.22-7.82,1.86-.98,3.72-1.97,5.58-2.95-2.65-1.83-5.31-3.65-7.96-5.48,2.21-1.63,4.41-3.26,6.62-4.89-4-3.63-8.34-6.28-12.83-7.86-2.03-3.86-4.69-6.85-7.64-8.6.9-.76,1.8-1.52,2.69-2.28-2.92-5.65-5.57-11.67-7.91-17.99-1.9-5.14,1.7-9.28-1.92-12.13-1.07,3.58-1.73,6.28-1.17,9.56.58,3.41-1.62,4.87-3.82,4.77.56,1.76,1.12,3.53,1.68,5.29-2.8.45-5.61.91-8.41,1.37.87,2.66,1.9,5.19,3.05,7.55-3.29,1.28-6.58,2.56-9.87,3.84,1.16,2.19,2.31,4.38,3.47,6.57-.73.53-1.47,1.06-2.2,1.59,1.44,2.03,3.06,3.73,4.8,5.04-3.36,1.75-6.71,3.51-10.07,5.26,2.21,2.57,4.46,5.02,6.77,7.36-2.77.1-4.54,6.35-2.73,9.7.97,1.8,2.73,2.97,2.76,5.35.03,2.07-1.31,3.44-2.49,4.3-4.12,3-8.47,5.19-12.92,6.51,1.4,2.14,3.07,3.83,4.88,4.95-3.26,1.9-6.53,3.81-9.79,5.71,2,3.01,3.99,6.02,5.99,9.02.59.89,1.24,2.02,1.1,3.3-.12,1.18-.85,1.91-1.5,2.49-1.18,1.04-2.36,2.09-3.53,3.13,1-1.71,2-3.43,3-5.14-2.91-1.49-5.83-2.99-8.74-4.48,1.5-1.04,2.85-2.58,3.95-4.49-3.91-.94-7.77-2.63-11.48-5.03-1.06-.69-2.29-1.8-2.37-3.59-.09-2.06,1.36-3.14,2.11-4.74,1.39-2.97-.46-8.28-2.86-8.24,1.86-2.12,3.68-4.34,5.45-6.65-2.98-1.36-5.97-2.72-8.95-4.08,1.43-1.21,2.74-2.75,3.88-4.56-.66-.42-1.32-.85-1.98-1.27.88-1.94,1.77-3.88,2.65-5.82-2.9-.96-5.81-1.91-8.71-2.87.88-2.09,1.63-4.32,2.24-6.65-2.44-.27-4.88-.53-7.33-.8.39-1.55.78-3.09,1.18-4.64-1.89.19-3.87-.97-3.54-3.94.31-2.86-.4-5.16-1.51-8.19-2.97,2.62.35,6.03-1.03,10.54-1.69,5.55-3.66,10.86-5.89,15.87.81.61,1.63,1.23,2.44,1.84-2.46,1.64-4.59,4.35-6.14,7.76-3.79,1.56-7.4,4.05-10.66,7.36,1.99,1.31,3.97,2.61,5.96,3.92-2.19,1.69-4.39,3.39-6.58,5.08,1.66.76,3.31,1.53,4.97,2.29-3.2,2.06-6.3,4.48-9.27,7.25,3.13,2.1,6.27,4.21,9.4,6.31-2.36,1.73-4.65,3.67-6.86,5.83,1.38,1.17,2.76,2.35,4.15,3.52-.62.3-.98,1.09-1.19,2.06-2.65-2.05-5.3-4.11-7.95-6.16-.88-.68-1.85-1.54-2.11-3.02-.29-1.61.43-3.08,1.09-4.25,2.25-3.95,4.49-7.9,6.74-11.85-4.29-2.14-8.58-4.29-12.87-6.43,2.18-1.55,4.13-3.81,5.71-6.62-5.74-1.32-11.42-3.74-16.89-7.2-1.57-.99-3.38-2.61-3.53-5.22-.17-3.01,1.94-4.61,3-6.97,1.98-4.37-.82-12.12-4.32-12.03,2.69-3.13,5.32-6.4,7.87-9.81-4.39-1.95-8.78-3.89-13.17-5.84,2.07-1.79,3.96-4.06,5.6-6.73-.97-.61-1.95-1.22-2.92-1.83,1.26-2.85,2.52-5.7,3.78-8.56-4.26-1.36-8.53-2.71-12.79-4.07,1.25-3.07,2.31-6.35,3.17-9.77-3.58-.35-7.16-.71-10.73-1.06.55-2.27,1.1-4.54,1.64-6.81-2.77.3-5.68-1.36-5.25-5.71.41-4.19-.67-7.54-2.34-11.97-4.31,3.88.61,8.82-1.33,15.45-2.38,8.15-5.18,15.95-8.35,23.31,1.2.89,2.4,1.78,3.61,2.66-3.57,2.44-6.65,6.43-8.86,11.45-5.52,2.34-10.76,6.03-15.47,10.92,2.93,1.88,5.86,3.77,8.79,5.65-1.06.84-2.12,1.68-3.18,2.51-1.16-.8-2.32-1.62-3.46-2.49-2.47-1.85-5.27-4.8-5.2-9.28.08-5.15,3.74-7.65,5.78-11.55,3.78-7.24.09-20.73-5.7-20.95,4.82-5.05,9.54-10.35,14.15-15.88-7.02-3.78-14.03-7.57-21.05-11.35,3.63-2.82,7.02-6.5,10.03-10.87-1.54-1.14-3.07-2.29-4.61-3.43,2.42-4.73,4.83-9.45,7.25-14.18-6.88-2.76-13.76-5.53-20.63-8.29,2.42-5.1,4.56-10.57,6.38-16.3-5.86-.98-11.73-1.97-17.59-2.95,1.17-3.81,2.34-7.61,3.52-11.42-4.6.22-9.21-2.92-7.99-10.29,1.17-7.09-.21-12.92-2.45-20.64-7.56,6.15-.03,15.09-4.01,26.18-4.89,13.63-10.43,26.62-16.54,38.83,1.88,1.64,3.76,3.28,5.63,4.92-6.17,3.78-11.73,10.24-15.97,18.57-9.39,3.4-18.46,9.13-26.83,16.96,4.61,3.52,9.23,7.04,13.84,10.56-5.55,3.94-11.1,7.88-16.65,11.83,3.89,2.12,7.78,4.25,11.68,6.37-8.05,4.71-15.89,10.35-23.46,16.88,7.27,5.66,14.54,11.32,21.81,16.99-4.97,3.34-9.84,7.09-14.6,11.18-1.14-.58-2.28-1.17-3.42-1.75,2.2-1.53,4.17-3.77,5.78-6.57-5.72-1.37-11.38-3.85-16.81-7.37-1.55-1.01-3.35-2.64-3.47-5.26-.14-3.01,1.99-4.59,3.08-6.94,2.03-4.35-.68-12.12-4.18-12.07,2.73-3.1,5.39-6.35,7.98-9.73-4.37-1.99-8.74-3.98-13.11-5.97,2.09-1.77,4.01-4.02,5.67-6.68-.97-.62-1.93-1.24-2.9-1.86,1.29-2.84,2.59-5.68,3.88-8.52-4.25-1.4-8.5-2.8-12.75-4.2,1.28-3.06,2.38-6.32,3.28-9.73-3.57-.39-7.15-.78-10.72-1.17.57-2.26,1.15-4.53,1.72-6.79-2.77.27-5.66-1.42-5.19-5.76.46-4.18-.58-7.55-2.21-11.99-4.35,3.83.51,8.82-1.5,15.43-2.47,8.12-5.36,15.89-8.61,23.23,1.19.9,2.38,1.8,3.57,2.7-3.59,2.4-6.72,6.36-8.99,11.36-5.55,2.28-10.82,5.92-15.6,10.77,2.91,1.91,5.82,3.82,8.73,5.73-3.21,2.48-6.42,4.96-9.63,7.44,2.42,1.12,4.85,2.24,7.27,3.35-2.73,1.75-5.4,3.7-8.01,5.81-4.89-2.28-9.67-5.11-14.31-8.48-2.26-1.65-4.83-4.26-4.77-8.24.07-4.57,3.43-6.8,5.3-10.26,3.47-6.43.08-18.41-5.23-18.6,4.42-4.48,8.74-9.19,12.97-14.1-6.43-3.36-12.87-6.72-19.3-10.08,3.33-2.51,6.44-5.77,9.2-9.66-1.41-1.02-2.82-2.03-4.22-3.05,2.22-4.2,4.43-8.39,6.65-12.59-6.31-2.45-12.61-4.91-18.92-7.36,2.22-4.53,4.18-9.38,5.85-14.48-5.38-.87-10.75-1.75-16.13-2.62,1.07-3.38,2.15-6.76,3.22-10.14-4.22.2-8.44-2.6-7.32-9.14,1.07-6.3-.2-11.47-2.25-18.33-6.93,5.46-.03,13.4-3.68,23.25-4.48,12.1-9.56,23.64-15.16,34.48,1.72,1.46,3.44,2.91,5.17,4.37-5.66,3.35-10.76,9.1-14.64,16.49-8.61,3.02-16.93,8.11-24.59,15.06,4.23,3.12,8.46,6.25,12.69,9.37-5.09,3.5-10.17,7-15.26,10.5,3.57,1.88,7.14,3.77,10.71,5.65-7.38,4.18-14.57,9.19-21.51,14.99,2.98,2.25,5.95,4.49,8.93,6.74-4.82-1.72-9.56-3.66-14.2-5.82-3.54-1.65-7.56-4.26-7.46-8.24.11-4.57,5.37-6.8,8.29-10.26,5.43-6.43.12-18.41-8.18-18.6,6.91-4.48,13.68-9.19,20.3-14.1-10.07-3.36-20.14-6.72-30.2-10.08,5.21-2.51,10.07-5.77,14.4-9.66-2.2-1.02-4.41-2.03-6.61-3.05,3.47-4.2,6.94-8.39,10.4-12.59-9.87-2.45-19.74-4.91-29.61-7.36,3.47-4.53,6.54-9.38,9.16-14.48-8.41-.87-16.83-1.75-25.24-2.62,1.68-3.38,3.36-6.76,5.04-10.14-6.6.2-13.21-2.6-11.46-9.14,1.68-6.3-.31-11.47-3.52-18.33-10.85,5.46-.05,13.4-5.76,23.25-7.02,12.1-14.96,23.64-23.73,34.48,2.69,1.46,5.39,2.91,8.08,4.37-8.86,3.35-16.84,9.1-22.91,16.49-13.47,3.02-26.49,8.11-38.49,15.06,6.62,3.12,13.24,6.25,19.86,9.37-7.96,3.5-15.92,7-23.88,10.5,5.58,1.88,11.17,3.77,16.75,5.65-11.54,4.18-22.8,9.19-33.66,14.99,10.43,5.03,20.87,10.06,31.3,15.08-8.55,3.56-16.9,7.6-25,12.11,4.55,2.76,9.1,5.53,13.65,8.29-4.74,1.26-5.89,7.49-6.12,12.49-.17,3.56-.34,7.11-.5,10.67-7.56,2.82-15.13,5.64-22.69,8.46,7.56,1.87,15.13,3.74,22.69,5.62-13.43,3.98-26.85,7.95-40.28,11.93-1.17-.6-2.33-1.2-3.5-1.8,2.41-1.68,4.58-4.14,6.35-7.21-6.28-1.51-12.49-4.23-18.45-8.08-1.71-1.1-3.68-2.9-3.8-5.77-.15-3.3,2.18-5.04,3.38-7.61,2.23-4.78-.74-13.31-4.59-13.24,3-3.41,5.92-6.97,8.76-10.68-4.8-2.18-9.59-4.37-14.38-6.55,2.3-1.94,4.4-4.41,6.23-7.33-1.06-.68-2.12-1.36-3.19-2.04l4.26-9.35c-4.66-1.53-9.33-3.07-13.99-4.6,1.41-3.36,2.61-6.94,3.6-10.68-3.92-.43-7.85-.85-11.77-1.28.63-2.48,1.26-4.97,1.89-7.45-3.04.3-6.21-1.56-5.69-6.33.5-4.59-.64-8.28-2.42-13.16-4.77,4.21.56,9.68-1.65,16.94-2.71,8.91-5.88,17.44-9.45,25.49,1.31.99,2.62,1.98,3.92,2.96-3.94,2.64-7.38,6.98-9.86,12.47-6.09,2.51-11.88,6.5-17.12,11.82,3.19,2.1,6.38,4.2,9.58,6.29-3.52,2.72-7.05,5.44-10.57,8.17,2.66,1.23,5.32,2.45,7.98,3.68-5.15,3.3-10.13,7.2-14.89,11.64,5.04,3.38,10.07,6.76,15.11,10.14-3.35,2.45-6.6,5.19-9.75,8.17-2.31-1.21-4.6-2.53-6.87-3.96-2.52-1.59-5.43-4.19-5.66-8.39-.27-4.83,3.11-7.41,4.82-11.19,3.18-7.02-1.31-19.46-6.93-19.32,4.33-5.03,8.55-10.29,12.65-15.76-7.05-3.13-14.11-6.26-21.16-9.38,3.33-2.87,6.37-6.52,8.99-10.81-1.57-.98-3.13-1.96-4.7-2.94,2.02-4.58,4.05-9.16,6.07-13.75-6.85-2.18-13.7-4.36-20.55-6.54,2-4.94,3.71-10.19,5.09-15.69-5.75-.57-11.5-1.14-17.24-1.7.88-3.64,1.76-7.29,2.64-10.93-4.44.48-9.12-2.19-8.43-9.18.66-6.73-1.07-12.12-3.76-19.23-6.92,6.23.98,14.16-2.13,24.82-3.82,13.09-8.31,25.62-13.41,37.44,1.93,1.43,3.86,2.85,5.79,4.28-5.73,3.92-10.68,10.32-14.23,18.4-7.34,3.11-14.36,7.73-20.86,13.68-5.76-3.18-11.43-6.79-16.98-10.83-4.09-2.98-8.74-7.71-8.62-14.9.13-8.27,6.21-12.29,9.59-18.55,6.28-11.63.14-33.3-9.46-33.65,7.99-8.11,15.82-16.62,23.47-25.52-11.64-6.08-23.27-12.16-34.91-18.24,6.02-4.53,11.64-10.43,16.64-17.47-2.55-1.84-5.09-3.68-7.64-5.52,4.01-7.59,8.02-15.18,12.03-22.78-11.41-4.44-22.81-8.88-34.22-13.32,4.01-8.2,7.56-16.97,10.59-26.19-9.72-1.58-19.45-3.16-29.17-4.74,1.94-6.12,3.89-12.23,5.83-18.35-7.63.35-15.27-4.7-13.25-16.53,1.94-11.39-.35-20.76-4.06-33.16-12.55,9.87-.05,24.24-6.66,42.05-8.11,21.89-17.29,42.76-27.42,62.37,3.12,2.64,6.23,5.27,9.35,7.91-10.24,6.07-19.46,16.46-26.49,29.83-15.57,5.45-30.62,14.67-44.49,27.25,7.65,5.65,15.3,11.31,22.95,16.96-9.2,6.33-18.4,12.66-27.61,19,6.46,3.41,12.91,6.82,19.37,10.23-13.34,7.57-26.36,16.63-38.91,27.11,12.06,9.1,24.12,18.19,36.18,27.29-9.88,6.43-19.53,13.75-28.9,21.91,5.26,5,10.52,10,15.77,14.99-5.47,2.29-6.8,13.55-7.08,22.59-.16,5.43-.33,10.85-.49,16.28-6.39-2.28-12.7-5.41-18.83-9.37-2.5-1.62-5.38-4.24-5.57-8.45-.22-4.84,3.2-7.38,4.95-11.14,3.26-6.99-1.09-19.47-6.71-19.39,4.39-4.99,8.66-10.2,12.82-15.64-7.02-3.2-14.04-6.39-21.06-9.59,3.36-2.84,6.44-6.46,9.12-10.72-1.55-1-3.11-1.99-4.66-2.99,2.08-4.56,4.15-9.12,6.23-13.69-6.83-2.25-13.65-4.49-20.48-6.74,2.06-4.91,3.82-10.16,5.27-15.64-5.74-.62-11.48-1.25-17.22-1.88.92-3.64,1.84-7.27,2.76-10.91-4.45.44-9.09-2.28-8.33-9.26.74-6.72-.94-12.13-3.54-19.26-6.99,6.16.82,14.17-2.41,24.79-3.97,13.05-8.6,25.53-13.84,37.31,1.91,1.45,3.83,2.89,5.74,4.34-5.77,3.86-10.8,10.22-14.44,18.25-8.91,3.67-17.39,9.52-25.05,17.29,4.67,3.07,9.34,6.14,14.02,9.21-5.16,3.98-10.31,7.97-15.47,11.95,3.89,1.8,7.79,3.59,11.68,5.39-7.54,4.83-14.82,10.53-21.79,17.04,7.37,4.95,14.74,9.9,22.11,14.85-2.11,1.54-4.18,3.18-6.24,4.87-6.77-3.39-13.4-7.44-19.85-12.13-3.63-2.65-7.76-6.84-7.66-13.23.11-7.34,5.51-10.92,8.51-16.47,5.57-10.33.13-29.57-8.4-29.88,7.09-7.2,14.05-14.76,20.84-22.66-10.33-5.4-20.67-10.8-31-16.19,5.35-4.03,10.34-9.27,14.78-15.51-2.26-1.63-4.52-3.27-6.79-4.9,3.56-6.74,7.12-13.48,10.68-20.22-10.13-3.94-20.26-7.88-30.39-11.83,3.56-7.28,6.71-15.07,9.4-23.26-8.64-1.4-17.27-2.8-25.91-4.21,1.73-5.43,3.45-10.86,5.18-16.29-6.77.31-13.56-4.17-11.77-14.68,1.73-10.11-.31-18.43-3.61-29.45-11.14,8.77-.05,21.52-5.91,37.34-7.2,19.44-15.35,37.97-24.35,55.39,2.77,2.34,5.53,4.68,8.3,7.02-9.09,5.39-17.28,14.61-23.52,26.49-12.16,4.26-23.97,11.11-35.01,20.29-12.08-4.03-24.17-8.07-36.25-12.1,8.37-4.03,16.18-9.27,23.13-15.51-3.54-1.63-7.08-3.27-10.62-4.9,5.57-6.74,11.14-13.48,16.71-20.22-15.85-3.94-31.71-7.89-47.56-11.83,5.58-7.28,10.51-15.07,14.71-23.26-13.51-1.4-27.03-2.8-40.54-4.21,2.7-5.43,5.4-10.86,8.1-16.29-10.6.31-21.22-4.17-18.42-14.68,2.7-10.11-.49-18.43-5.65-29.45-17.43,8.77-.07,21.52-9.25,37.34-11.27,19.44-24.03,37.97-38.11,55.39,4.33,2.34,8.66,4.68,12.99,7.02-14.23,5.39-27.05,14.61-36.81,26.49-21.64,4.84-42.56,13.03-61.83,24.2,10.63,5.02,21.27,10.04,31.9,15.06-12.79,5.62-25.58,11.25-38.37,16.87,8.97,3.03,17.94,6.06,26.91,9.08-7.95,2.88-15.81,6.02-23.58,9.39-8.91-5.13-17.82-10.26-26.73-15.4,6.94-4.23,13.35-10.64,18.74-18.77-17.11-5.01-33.83-13.32-49.67-24.71-4.53-3.26-9.68-8.43-9.55-16.3.14-9.05,6.88-13.45,10.62-20.3,6.95-12.73.16-36.44-10.48-36.82,8.85-8.87,17.53-18.18,26.01-27.92-12.9-6.65-25.79-13.3-38.69-19.95,6.68-4.96,12.9-11.42,18.44-19.11-2.82-2.02-5.64-4.02-8.47-6.04,4.45-8.3,8.89-16.61,13.33-24.92-12.64-4.86-25.28-9.72-37.92-14.58,4.44-8.96,8.37-18.56,11.73-28.66-10.78-1.73-21.56-3.45-32.33-5.18,2.15-6.69,4.3-13.39,6.46-20.08-8.46.38-16.93-5.14-14.69-18.09,2.16-12.46-.39-22.72-4.5-36.29-13.9,10.8-.06,26.52-7.38,46.02-8.99,23.95-19.16,46.79-30.39,68.25,3.45,2.88,6.91,5.77,10.36,8.66-11.35,6.63-21.57,18-29.36,32.63-17.25,5.97-33.93,16.06-49.3,29.81,8.48,6.18,16.96,12.37,25.44,18.55-10.2,6.93-20.4,13.86-30.6,20.78,7.16,3.73,14.31,7.46,21.46,11.19-14.78,8.28-29.2,18.2-43.11,29.67,13.36,9.95,26.73,19.91,40.09,29.86-10.95,7.03-21.65,15.05-32.03,23.98,5.83,5.47,11.66,10.94,17.48,16.41-6.06,2.5-7.54,14.82-7.84,24.72-.12,3.81-.23,7.61-.35,11.42-17.26-9.94-34.51-19.87-51.77-29.82-.4-12.98-.79-25.95-1.19-38.93-.56-18.25-3.27-40.97-14.46-45.58,10.74-10.08,21.49-20.17,32.23-30.25-19.14-16.47-38.86-31.23-59.05-44.21,24.64-18.35,49.28-36.7,73.92-55.05-25.65-21.14-52.23-39.42-79.5-54.69,13.19-6.88,26.38-13.76,39.58-20.64-18.81-12.77-37.61-25.55-56.41-38.32,15.63-11.41,31.26-22.81,46.9-34.21-28.34-25.36-59.1-43.97-90.91-54.97-14.35-26.98-33.2-47.94-54.12-60.18,6.37-5.32,12.73-10.63,19.1-15.95-20.71-39.56-39.46-81.67-56.04-125.84-13.49-35.94-5.79-17.72-13.6-84.84-7.58,25.02-12.27,43.92-8.3,66.9,4.12,23.88-11.49,34.06-27.08,33.35,3.97,12.34,7.94,24.67,11.91,37.02-19.87,3.18-39.74,6.36-59.61,9.55,6.18,18.59,13.43,36.31,21.63,52.84-23.3,8.96-46.61,17.91-69.92,26.87,8.19,15.32,16.38,30.64,24.57,45.95-5.2,3.7-10.41,7.42-15.61,11.13,10.21,14.19,21.69,26.09,34,35.24-23.78,12.27-47.56,24.53-71.34,36.79,15.64,17.95,31.64,35.12,47.96,51.48-19.61.71-32.14,44.42-19.32,67.89,6.9,12.62,19.33,20.76,19.59,37.43.22,14.52-9.26,24.05-17.63,30.07-21.95,15.77-44.82,28.35-68.22,37.55-5.1-10.76-13.23-20.22-23.81-26.68,15.25-18.91,12.12-46.54-.75-66.94-12.86-20.4-33.63-35.2-53.87-49.46,23.57,5.05,41.63-24.56,33.43-45.8-8.21-21.22-31.04-33.88-52.4-44.46-21.36-10.58-44.46-22.32-54.17-42.99,28.67-14.34,57.34-28.69,86.01-43.03,9.08-4.54,19.39-10.85,19.59-20.46.16-6.96-5.23-12.82-10.29-17.93-27.88-28.15-55.75-56.31-83.63-84.46,26.55,1.44,45.83-27.82,40.69-52.17-5.14-24.35-26.75-42.72-49.41-55.71-24.19-13.87-52.71-25.45-65.16-49.27-12.44-23.81,9.44-61.37,35.92-51.81-18.3-56.75-94.34-76.85-132.03-124.56-4.37-5.54-8.33-12.86-5.02-19,2.84-5.26,9.79-7.27,14.03-11.62,7.42-7.63,4.59-19.57,1.33-29.4-44.45-133.77-88.89-267.53-133.33-401.3-22.93,54.66-36.79,112.63-40.95,171.19-3.24,45.68-3.18,97.46-39.07,128.67-17.55,15.27-41.59,23.14-58.04,39.44-16.45,16.3-19.84,48.15,2.06,57.31-21.14,12.55-21.28,46.31-.25,59.01-14.82-3.88-29.59,9.65-31.75,23.87-2.15,14.22,4.39,28.2,10.78,41.27-8.58.9-17.15,1.8-25.73,2.7v1232.44h6000v-1232.44c-8.58-.9-17.15-1.8-25.73-2.7ZM4263.05,2736.66c-2.47-1.65-4.98-3.2-7.5-4.63,2.62-1.38,5.24-2.77,7.86-4.15-1.33,2.78-1.62,6.08-.36,8.79ZM4271.47,2747.44s0,0,0,0c.08,3.49-3.45,5.79-6.56,7.24-2.34,1.09-4.72,2.1-7.11,3.06,4.56-3.44,9.11-6.87,13.67-10.31ZM4258.07,2713.01c4.36,3.13,8.8,6.16,13.3,9.08-3.01.07-5.57,1.9-7.2,4.42-4.21-2.9-8.42-5.79-12.62-8.69,2.17-1.61,4.35-3.21,6.52-4.82ZM3727.58,2787.29s0-.06,0-.08c.02.04.03.08.05.11-.02,0-.03-.02-.05-.03ZM3725.91,2770.93c1.36,1.55,2.95,2.79,4.67,3.61-.87.39-1.74.79-2.61,1.19-1.39-1.14-2.81-2.19-4.26-3.13.73-.55,1.47-1.11,2.2-1.66ZM3685.44,2784.51c1.07,1.61,2.13,3.21,3.2,4.82.38.58.8,1.3.71,2.13-.08.76-.55,1.23-.97,1.61-1.09.96-2.17,1.92-3.26,2.89-.18-.1-.36-.21-.54-.31-.04-1.35-.08-2.7-.12-4.05-.06-1.9-.34-4.27-1.49-4.75.82-.78,1.64-1.56,2.46-2.34ZM3244.96,2785.13c.07-.07.14-.13.21-.2-.05.06-.08.13-.11.21-.03,0-.06,0-.09,0ZM3413.82,2775.39s0-.08,0-.12c.03.05.05.1.07.16-.02-.01-.05-.03-.07-.04ZM3637.09,2792.46c.21.31.41.62.62.93-.41-.19-.83-.37-1.24-.56.21-.1.42-.23.62-.37ZM3641.53,2800.35c-.09.86-.62,1.39-1.09,1.81-.03.03-.07.06-.1.09-.34,0-.68,0-1.01,0-.04-.03-.08-.06-.13-.09.51-.38,1.02-.75,1.53-1.13.11-.08.22-.17.26-.32.07-.28-.17-.52-.37-.66-.92-.63-1.83-1.26-2.75-1.89-.22-.15-.46-.34-.5-.64-.04-.33.17-.62.37-.86.4-.47.8-.94,1.2-1.4.6.9,1.19,1.8,1.79,2.7.43.65.9,1.47.8,2.4ZM3411.52,2752.93c1.87,2.13,4.06,3.82,6.42,4.95-1.2.54-2.39,1.08-3.59,1.63-1.91-1.57-3.86-3.01-5.85-4.3,1.01-.76,2.01-1.52,3.02-2.28ZM3355.96,2771.57c1.46,2.21,2.93,4.41,4.39,6.62.53.79,1.1,1.79.98,2.93-.11,1.04-.75,1.69-1.33,2.21-1.49,1.32-2.98,2.64-4.47,3.96-.25-.14-.49-.29-.74-.43-.06-1.85-.11-3.71-.17-5.56-.08-2.61-.46-5.86-2.04-6.52,1.12-1.07,2.25-2.14,3.37-3.21ZM3296.25,2776.53c-.05-1.01-.24-2.14-.83-2.38.23-.22.46-.44.69-.66.73.7,1.49,1.3,2.28,1.79-.71.42-1.43.83-2.14,1.25ZM3214.54,2778.55c.73.28,1.46.56,2.18.85-1.52.71-3.05,1.41-4.57,2.12-.56-.42-1.11-.85-1.67-1.27,1.34-.65,2.69-1.2,4.05-1.69ZM1322.13,2687.84c-1.37-1.2-2.74-2.4-4.12-3.6,1.76,1.07,3.51,2.13,5.27,3.2-.4.11-.78.25-1.15.4ZM1533.74,2640.44c8.35,6.3,16.7,12.59,25.04,18.89-4.4-1.77-8.76-3.64-13.06-5.64-5.69-2.65-12.14-6.84-11.99-13.23,0,0,0,0,0-.02ZM1548.47,2604.67c4.79,2.53,9.58,5.06,14.37,7.59-4.62,2.62-9.19,5.45-13.72,8.47,2.3-4.95,1.77-10.98-.66-16.06ZM2194.73,2686.35c.13-.22.25-.43.38-.65.52.14,1.04.28,1.55.42-.65.07-1.28.15-1.93.22ZM2504.6,2636.54c-.89.65-1.78,1.33-2.66,2.03-1.48-.86-2.96-1.72-4.43-2.59,1.03-.63,2.03-1.37,3-2.19,1.37.92,2.73,1.83,4.1,2.75ZM2575,2665.62c1.1-1.89,2.2-3.78,3.3-5.66.29.29.59.57.88.86-2.77,1.2-3.78,6.34-4.13,11.29-.55-.57-1.03-1.28-1.19-2.25-.27-1.61.46-3.07,1.14-4.24ZM3104.12,2757.01s-.09-.04-.14-.06c1.61.66,3.22,1.32,4.84,1.98-1.42.7-2.84,1.39-4.27,2.09-2.08-.75-4.17-1.5-6.25-2.25,1.94-.58,3.88-1.17,5.82-1.75ZM3062.27,2736.36c.41.47.74.99.75,1.68.02,1.24-1.01,2.05-1.91,2.57-2.97,1.68-6.1,2.92-9.31,3.72-1.3-.95-2.59-1.91-3.89-2.86,4.7-2.21,9.5-3.91,14.36-5.1ZM2953.85,2719.91c-.12,1.11-.65,1.91-1.27,2.56-.3-.17-.59-.35-.89-.52-.05-1.65-.1-3.29-.15-4.94-.03-1-.11-2.11-.31-3.09.37.53.73,1.06,1.1,1.59.82,1.19,1.71,2.68,1.52,4.39ZM2896.52,2722.18c.57.86,1.14,1.72,1.71,2.57.53.79,1.1,1.79.98,2.93-.11,1.04-.75,1.69-1.33,2.21-1.72,1.53-3.45,3.06-5.17,4.58-.28-.22-.56-.43-.83-.65,1.25-.14,2.47-.76,3.54-1.79-2.75-2.1-5.51-4.2-8.26-6.31,3.07-1.5,6.2-2.68,9.37-3.55ZM1558.24,2577.5c3.97,2.94,7.95,5.87,11.92,8.81-7.69,5.29-15.38,10.59-23.08,15.88-2.99-4.61-7.67-7.96-13.16-8.09,8.23-5.34,16.34-10.88,24.32-16.6ZM1306.04,2671.56c-.31-.85-.55-1.77-.66-2.78-.52-4.87,1.96-9.13,4.24-12.52,2.87-4.27,5.75-8.55,8.62-12.82,7.76,3.74,15.52,7.48,23.28,11.22-12.09,5.03-23.94,10.67-35.49,16.9Z"/></svg>