<?xml version="1.0" encoding="UTF-8"?>
<svg version="1.1" xmlns="http://www.w3.org/2000/svg" width="640" height="408">
<path d="M0 0 C211.2 0 422.4 0 640 0 C640 134.64 640 269.28 640 408 C428.8 408 217.6 408 0 408 C0 273.36 0 138.72 0 0 Z " fill="#3E2621" transform="translate(0,0)"/>
<path d="M0 0 C0.97426941 -0.0143811 1.94853882 -0.02876221 2.95233154 -0.0435791 C4.03020432 -0.05412323 5.10807709 -0.06466736 6.21861267 -0.07553101 C7.34707611 -0.09013367 8.47553955 -0.10473633 9.63819885 -0.11978149 C20.0663772 -0.24592222 30.49535192 -0.31597891 40.92415714 -0.36762428 C48.63105494 -0.40648567 56.33648533 -0.47472889 64.04273897 -0.58217204 C70.1173282 -0.66399772 76.19133224 -0.69633994 82.26643181 -0.71201706 C84.84729031 -0.72611771 87.42811279 -0.75577106 90.00860786 -0.80131912 C93.62669013 -0.86205297 97.2407498 -0.86604517 100.85923767 -0.85678101 C101.92294083 -0.88756744 102.98664398 -0.91835388 104.08258057 -0.95007324 C108.52428503 -0.88833165 111.36300618 -0.72541887 114.8975811 2.11224747 C119.0609076 6.70118156 122.37497448 11.73035326 125.17930603 17.24331665 C125.55450378 17.96720581 125.92970154 18.69109497 126.31626892 19.43692017 C131.48059399 29.73987714 134.68907924 40.8120884 136.49180603 52.18081665 C136.65801453 53.17138062 136.82422302 54.16194458 136.99546814 55.18252563 C138.82141446 67.58448922 138.86404067 79.95967567 138.8624115 92.47744751 C138.86676916 96.21172249 138.90315543 99.94479758 138.94102478 103.67886353 C139.03810703 124.21511384 137.72187652 144.49347393 128.49180603 163.18081665 C128.16180603 163.51081665 127.83180603 163.84081665 127.49180603 164.18081665 C123.49178238 185.6881902 127.98322709 206.12970724 135.39170837 226.28945923 C141.93706192 244.16002495 142.8308662 262.54033096 142.75254822 281.36978149 C142.74187043 284.41246694 142.7524819 287.45455575 142.76524353 290.4972229 C142.77782278 306.33145763 142.68781919 322.8058774 138.17930603 338.11831665 C137.85337463 339.28221924 137.85337463 339.28221924 137.52085876 340.46963501 C132.9750023 356.30232067 126.57430434 373.5461775 111.51914978 382.15737915 C100.44673625 387.74692124 89.00196395 388.62401358 76.74180603 388.61831665 C75.70234833 388.6194194 75.70234833 388.6194194 74.64189148 388.62054443 C41.71067168 388.5299425 -3.58367179 382.10512578 -28.82460022 358.8956604 C-35.34912058 352.25003525 -37.6746408 345.07827127 -37.94569397 335.99331665 C-37.50640296 319.52803866 -29.509816 304.86219516 -18.25892639 293.03970337 C-16.54240023 291.21713606 -14.90324662 289.34755225 -13.26991272 287.4503479 C-1.9986381 274.53964213 10.14893587 263.66260386 24.44102478 254.23550415 C32.90401317 248.59351189 38.52644651 241.96092949 41.05821228 231.93862915 C42.72469223 221.33921616 41.42192978 209.81080233 40.49180603 199.18081665 C39.23368103 198.99519165 37.97555603 198.80956665 36.67930603 198.61831665 C21.5744218 195.20371174 10.64549841 181.45632044 2.49180603 169.18081665 C-14.0508447 141.78205138 -15.10713409 110.97366427 -15.47242737 79.96957397 C-15.50996659 77.04260355 -15.55762903 74.115914 -15.60682678 71.18911743 C-15.69185863 65.98206586 -15.75048917 60.77522962 -15.7922821 55.56765747 C-15.8109337 53.54943845 -15.83593475 51.5312661 -15.86790466 49.51321411 C-16.1204714 32.53347776 -15.36398163 15.70673138 -5.50819397 1.18081665 C-3.9092879 -0.41808942 -2.21654129 0.02802956 0 0 Z " fill="#FEA727" transform="translate(242.50819396972656,-0.180816650390625)"/>
<path d="M0 0 C73.59 0 147.18 0 223 0 C220.36 6.93 217.72 13.86 215 21 C213.81813847 24.84887289 212.72392174 28.54123647 211.8125 32.4375 C211.45998169 33.90183472 211.45998169 33.90183472 211.1003418 35.39575195 C208.05895127 48.47751889 205.91265651 61.71243728 204 75 C203.83338867 76.12341797 203.66677734 77.24683594 203.49511719 78.40429688 C200.05134246 102.48933005 200.70026941 126.73411879 201 151 C199.83952148 151.26554688 198.67904297 151.53109375 197.48339844 151.8046875 C195.94201898 152.16129279 194.40067996 152.51807288 192.859375 152.875 C192.0967334 153.04902344 191.3340918 153.22304687 190.54833984 153.40234375 C185.41283615 154.59638982 180.53877718 156.1089753 175.62109375 158.0234375 C172.88001721 159.04470298 170.12803923 159.83324521 167.3125 160.625 C142.76857787 168.08471412 120.21021166 180.18500998 99.46533203 195.09521484 C81.21994613 208.18826564 62.52470307 219.58253443 40.75 225.75 C40.00500244 225.96108398 39.26000488 226.17216797 38.49243164 226.38964844 C37.76789795 226.5859082 37.04336426 226.78216797 36.296875 226.984375 C35.66104492 227.15678711 35.02521484 227.32919922 34.37011719 227.50683594 C22.7295313 229.92896032 12.3091612 229 0 229 C0 153.43 0 77.86 0 0 Z " fill="#727853" transform="translate(0,0)"/>
<path d="M0 0 C69.3 0 138.6 0 210 0 C210 65.34 210 130.68 210 198 C182.28 198.33 154.56 198.66 126 199 C123.69 199.33 121.38 199.66 119 200 C116.43861386 200.14605581 113.87587903 200.26955248 111.3125 200.375 C104.60694894 200.71170235 98.01446595 201.44407291 91.375 202.4375 C90.54653564 202.5597998 89.71807129 202.68209961 88.86450195 202.80810547 C85.27955071 203.36815169 81.9487684 204.01582903 78.47265625 205.08984375 C74.23470393 206.20057816 70.41586177 206.22199007 66.0625 206.125 C65.28326172 206.11597656 64.50402344 206.10695312 63.70117188 206.09765625 C61.80064553 206.07433691 59.90027992 206.03847586 58 206 C58 206.66 58 207.32 58 208 C56.83597656 208.05607422 56.83597656 208.05607422 55.6484375 208.11328125 C47.16296407 208.62970028 39.26206778 210.03048159 31 212 C28.93796914 200.56260219 27.65026335 189.15462972 26.9296875 177.5546875 C26.88703262 176.87475613 26.84437775 176.19482475 26.8004303 175.4942894 C25.67852485 157.2586649 25.60479882 139.01119683 25.48431396 120.74719238 C25.4733526 95.2971012 25.4733526 95.2971012 23 70 C22.87463867 69.07799805 22.74927734 68.15599609 22.62011719 67.20605469 C22.32186759 65.06727954 21.98906493 62.94092023 21.625 60.8125 C21.49907471 60.07531738 21.37314941 59.33813477 21.2434082 58.57861328 C17.52333595 37.6534882 9.44293277 18.88586554 0 0 Z " fill="#485242" transform="translate(430,0)"/>
<path d="M0 0 C0 69.3 0 138.6 0 210 C-14.52 210 -29.04 210 -44 210 C-46.18625 205.215 -48.3725 200.43 -50.625 195.5 C-62.08395079 170.86225152 -75.19970066 146.61461681 -94.26953125 126.96875 C-96 125 -96 125 -96 123 C-96.56460938 122.74476563 -97.12921875 122.48953125 -97.7109375 122.2265625 C-100.28436936 120.84762461 -102.36473217 119.22297142 -104.625 117.375 C-105.50929688 116.65570313 -106.39359375 115.93640625 -107.3046875 115.1953125 C-108.19414063 114.47085938 -109.08359375 113.74640625 -110 113 C-111.58280184 111.74932707 -113.16613159 110.49932194 -114.75 109.25 C-143.65431567 86.04512686 -172.96784794 56.80054091 -178 18 C-178.02800725 16.33356867 -178.03532775 14.66629221 -178 13 C-169.17634256 10.57385524 -161.14504844 9.59588166 -152 10 C-152 9.34 -152 8.68 -152 8 C-150.91203125 7.96261719 -149.8240625 7.92523438 -148.703125 7.88671875 C-140.83833153 7.55699757 -133.61902346 6.88566301 -126.00390625 4.76171875 C-116.52211357 2.357363 -106.63945407 1.7870465 -96.89770508 1.34130859 C-64.63110519 -0.17757782 -32.30232939 0 0 0 Z " fill="#89472A" transform="translate(640,198)"/>
<path d="M0 0 C2.06543044 23.86719623 -12.77774475 48.88249623 -27.40722656 66.54443359 C-29.56489523 69.06721158 -31.77451485 71.53670383 -34 74 C-35.16829473 75.35276232 -36.3351668 76.70675589 -37.5 78.0625 C-40.9248911 81.95666705 -44.44274804 85.7657022 -47.95532227 89.58056641 C-50.48757996 92.33473864 -52.99039077 95.10746903 -55.4375 97.9375 C-58.99722899 102.05210281 -62.72215064 106.00700692 -66.43481445 109.98291016 C-70.61547662 114.49752469 -74.4757523 119.19505928 -78.2578125 124.05078125 C-78.83273438 124.69402344 -79.40765625 125.33726562 -80 126 C-80.66 126 -81.32 126 -82 126 C-82.0928125 126.56976563 -82.185625 127.13953125 -82.28125 127.7265625 C-83.17684826 130.55937874 -84.56363916 132.12359633 -86.5 134.375 C-89.76237692 138.35521656 -92.76024245 142.43593423 -95.5625 146.75 C-96.58537109 148.32007813 -96.58537109 148.32007813 -97.62890625 149.921875 C-101.0405592 155.78969325 -103.9645209 161.9290418 -107 168 C-140.33 168 -173.66 168 -208 168 C-208 127.08 -208 86.16 -208 44 C-202.79346573 45.04130685 -198.42005279 46.79939249 -193.546875 48.84375 C-185.16479638 51.57623378 -176.29900832 51.21140692 -167.5625 51.25 C-166.39912109 51.270625 -165.23574219 51.29125 -164.03710938 51.3125 C-154.31076892 51.35628769 -146.56220576 49.67029405 -138 45 C-134.25515034 43.04344825 -130.77024628 41.52168907 -126.6875 40.4375 C-122.60076476 39.33722513 -119.82525547 37.71046539 -116.50390625 35.12890625 C-113.91121328 33.18270296 -111.06218001 32.34156377 -108.0078125 31.359375 C-103.26135355 29.81554406 -98.74661236 28.04959653 -94.203125 25.984375 C-85.28571429 22 -85.28571429 22 -80 22 C-80 21.34 -80 20.68 -80 20 C-79.21753906 19.79503906 -78.43507812 19.59007812 -77.62890625 19.37890625 C-76.61699219 19.10949219 -75.60507813 18.84007812 -74.5625 18.5625 C-73.55316406 18.29566406 -72.54382813 18.02882813 -71.50390625 17.75390625 C-69.08247999 17.24021923 -69.08247999 17.24021923 -68 16 C-66.15144551 15.67465441 -64.29564858 15.39011757 -62.4375 15.125 C-57.230486 14.29731331 -52.85885631 13.01056123 -48 11 C-47.04996094 10.68804687 -46.09992188 10.37609375 -45.12109375 10.0546875 C-42.14549951 9.04916754 -39.32439895 7.85831465 -36.4375 6.625 C-30.45393043 4.30188601 -24.48690225 2.89415538 -18.1875 1.6875 C-17.30441162 1.51621582 -16.42132324 1.34493164 -15.51147461 1.16845703 C-10.25633254 0.21765377 -5.33864059 -0.16741382 0 0 Z " fill="#89472A" transform="translate(208,240)"/>
<path d="M0 0 C0.33 0 0.66 0 1 0 C1.07516846 0.81750732 1.15033691 1.63501465 1.2277832 2.47729492 C1.58769714 6.38085134 1.94948951 10.28423056 2.3125 14.1875 C2.37902771 14.90340302 2.44555542 15.61930603 2.51409912 16.35690308 C3.48378967 26.76650939 4.52590342 37.16567757 5.625 47.5625 C7.31717258 63.77502223 8.14894913 79.69834542 8 96 C6.741875 96.17015625 5.48375 96.3403125 4.1875 96.515625 C-15.59884011 98.93521164 -15.59884011 98.93521164 -34 106.05859375 C-37.57164939 107.73978028 -41.42577724 108.44350017 -45.265625 109.2890625 C-47.95821874 109.88593118 -47.95821874 109.88593118 -50.09375 111.05859375 C-52.2533031 112.12509436 -53.85677343 112.29545598 -56.25 112.4375 C-59.53814945 112.73002071 -62.24712781 113.33635112 -65.3125 114.5625 C-69 116 -69 116 -73 116 C-73 116.66 -73 117.32 -73 118 C-75.73240174 119.15920074 -78.37944801 120.10215908 -81.25 120.875 C-84.92549828 121.97764948 -88.20857995 123.40067047 -91.68359375 125 C-93.91170455 125.96188257 -96.1211933 126.71850533 -98.4375 127.4375 C-104.46839471 129.37034366 -110.10963269 132.20488194 -115.484375 135.54296875 C-117.96695217 136.98085894 -120.28411345 137.90582446 -123 138.8125 C-128.54383378 140.75058823 -133.77419685 143.1680685 -139.0546875 145.73046875 C-145.84387867 148.65684425 -152.79215526 148.18356796 -160.0625 148.1875 C-161.22716797 148.19974609 -162.39183594 148.21199219 -163.59179688 148.22460938 C-177.82452605 148.24839667 -187.24806296 145.50077482 -201 140 C-201 121.85 -201 103.7 -201 85 C-193.08 84.67 -185.16 84.34 -177 84 C-148.44719751 79.9514683 -125.47703461 66.92698597 -102.27709961 50.41821289 C-96.63592254 46.41371652 -90.88821441 42.63239773 -85 39 C-84.43579346 38.63221436 -83.87158691 38.26442871 -83.2902832 37.88549805 C-77.83459365 34.36816829 -72.16992899 31.47582737 -66.3125 28.6875 C-64.81323975 27.97291626 -64.81323975 27.97291626 -63.28369141 27.24389648 C-49.30835492 20.68545971 -34.87528876 15.15469412 -20 11 C-19.36803711 10.81953125 -18.73607422 10.6390625 -18.08496094 10.453125 C-5.02278391 6.73364025 -5.02278391 6.73364025 0 7 C0 4.69 0 2.38 0 0 Z " fill="#485242" transform="translate(201,144)"/>
<path d="M0 0 C69.3 0 138.6 0 210 0 C210 39.27 210 78.54 210 119 C192.51 119 175.02 119 157 119 C152.71 112.73 148.42 106.46 144 100 C136.07399222 89.2998895 127.73836197 78.44381664 118.11328125 69.1875 C116 67 116 67 116 65 C114.515 64.505 114.515 64.505 113 64 C113 63.34 113 62.68 113 62 C112.45601562 61.77699219 111.91203125 61.55398437 111.3515625 61.32421875 C108.26851226 59.58808249 105.90772544 57.2453031 103.375 54.8125 C83.66666518 36.38949136 61.84856501 26.9232176 34.86767578 27.79443359 C28.05605294 28.28271781 21.52405858 30.06181814 15 32 C14.6596875 31.2471875 14.319375 30.494375 13.96875 29.71875 C10.67264358 22.49536785 7.22991069 15.37069629 3.62890625 8.29492188 C2.23990909 5.55247275 0.97380096 2.92140287 0 0 Z " fill="#AFAE76" transform="translate(430,0)"/>
<path d="M0 0 C73.59 0 147.18 0 223 0 C220.36 6.93 217.72 13.86 215 21 C213.81820525 24.8486554 212.7253092 28.54174099 211.8125 32.4375 C211.57893799 33.39487061 211.34537598 34.35224121 211.10473633 35.33862305 C208.24384358 47.52620032 206.36434351 59.91755631 204.47729492 72.28637695 C204 75 204 75 203 78 C177.98268782 75.4533275 153.64399727 68.51220992 129.72680664 60.99023438 C119.80598524 57.88644637 109.79511645 55.1848947 99.74609375 52.53125 C95.24418303 51.34181851 90.77601144 50.07549721 86.3125 48.75 C71.81873849 44.56011609 57.67259888 42.82084124 42.625 42.8125 C41.47 42.80025391 40.315 42.78800781 39.125 42.77539062 C25.44875142 42.75223671 13.53154533 45.99298993 0 49 C0 32.83 0 16.66 0 0 Z " fill="#AFAE76" transform="translate(0,0)"/>
<path d="M0 0 C5.3132183 3.90874521 10.240606 8.27225924 15.17480469 12.64355469 C16.76387036 14.02931202 18.38307835 15.36905507 20.015625 16.703125 C22.23219667 18.5798847 24.07270873 20.33634212 25.91796875 22.5546875 C28.49513167 25.58963594 31.15977547 28.50829506 33.90454102 31.39257812 C44.41056376 42.49686286 53.41483304 54.78426488 61.98828125 67.41796875 C63.12213767 69.07457716 64.29942356 70.70308592 65.53515625 72.28515625 C66.79296875 74.0546875 66.79296875 74.0546875 66.79296875 76.0546875 C84.28296875 76.0546875 101.77296875 76.0546875 119.79296875 76.0546875 C119.79296875 76.3846875 119.79296875 76.7146875 119.79296875 77.0546875 C118.59663818 77.06277435 117.40030762 77.07086121 116.16772461 77.07919312 C104.64514289 77.15819087 93.12265764 77.24624835 81.60020447 77.34221458 C75.68270992 77.39123392 69.76522578 77.43753199 63.84765625 77.4765625 C38.96982144 77.64272887 14.1197516 77.96759396 -10.73828125 79.0234375 C-11.73139313 79.06539623 -12.724505 79.10735497 -13.74771118 79.15058517 C-27.14702317 79.72794042 -40.51836895 80.46244948 -53.85742188 81.90283203 C-57.30996567 82.12597025 -60.74752756 82.07598094 -64.20703125 82.0546875 C-64.22685059 81.02811035 -64.24666992 80.0015332 -64.26708984 78.94384766 C-64.34464727 75.04081483 -64.4330958 71.1380846 -64.52441406 67.23535156 C-64.56209758 65.56386396 -64.5970408 63.89231176 -64.62890625 62.22070312 C-64.91632727 47.31073759 -66.07053531 32.58338384 -68.58203125 17.8671875 C-68.70433105 17.13798096 -68.82663086 16.40877441 -68.95263672 15.6574707 C-70.05161372 9.39438854 -71.60445717 3.30561712 -73.33984375 -2.80859375 C-74.08754214 -5.51310639 -74.69992042 -8.18725053 -75.20703125 -10.9453125 C-48.52792193 -21.61695623 -23.27997445 -15.28518746 0 0 Z " fill="#737853" transform="translate(520.20703125,42.9453125)"/>
<path d="M0 0 C0.89118936 3.01358182 1.06537354 5.55127018 0.921875 8.68359375 C0.34265677 26.75044185 3.47230975 42.6344501 10.1796875 59.3828125 C11 62 11 62 10 65 C8.67696283 65.3721042 7.34262065 65.70630173 6 66 C5.67 66.66 5.34 67.32 5 68 C3.948125 68.4021875 3.948125 68.4021875 2.875 68.8125 C-0.18732127 69.9288782 -0.18732127 69.9288782 -3.0625 72.375 C-7.0650966 75.35509921 -11.37393106 76.57991699 -16.1015625 78.0390625 C-18.52743037 78.84332597 -20.5815127 79.71971217 -22.8125 80.9375 C-36.2857474 88.02426007 -54.08050589 92.52423508 -69.19921875 89.5703125 C-73.26204655 88.14259427 -75.54282408 85.59351298 -77.95703125 82.20703125 C-81.56464445 74.5729434 -81.35005205 66.59050889 -81.5 58.3125 C-81.67072591 49.03806607 -82.36048097 40.13841217 -84 31 C-82.1128125 31.05220703 -82.1128125 31.05220703 -80.1875 31.10546875 C-68.99849851 31.3208955 -58.931766 30.57928214 -48 28 C-46.57818018 27.68334586 -45.15630405 27.36694453 -43.734375 27.05078125 C-36.76032154 25.45354181 -30.13619213 23.79800602 -24 20 C-22.6078125 19.17435547 -22.6078125 19.17435547 -21.1875 18.33203125 C-15.72894746 15.18734959 -15.72894746 15.18734959 -11.36328125 10.78125 C-10.91339844 10.1934375 -10.46351563 9.605625 -10 9 C-9.01 9 -8.02 9 -7 9 C-6.773125 8.443125 -6.54625 7.88625 -6.3125 7.3125 C-4.64103234 4.36753316 -2.44723648 2.31843456 0 0 Z " fill="#FA8B02" transform="translate(368,167)"/>
<path d="M0 0 C4.14587123 1.50661815 8.05375478 1.75133077 12.4375 1.86328125 C15.11153842 2.10893839 16.73940171 2.74483156 19.03125 4.1015625 C19.46875 6.2265625 19.46875 6.2265625 19.03125 9.1015625 C16.27042552 12.44656143 13.1820055 14.65126687 9.15625 16.2265625 C1.77667294 15.93137942 -3.62190601 11.81187744 -8.96875 7.1015625 C-15.09185632 5.06052706 -23.49440704 4.94848346 -29.6640625 6.99609375 C-31.48032881 7.94443944 -33.23316117 9.01256559 -34.96875 10.1015625 C-35.62875 10.1015625 -36.28875 10.1015625 -36.96875 10.1015625 C-36.96875 10.7615625 -36.96875 11.4215625 -36.96875 12.1015625 C-37.62875 12.1015625 -38.28875 12.1015625 -38.96875 12.1015625 C-39.29875 13.4215625 -39.62875 14.7415625 -39.96875 16.1015625 C-40.62875 16.1015625 -41.28875 16.1015625 -41.96875 16.1015625 C-42.95875 20.0615625 -43.94875 24.0215625 -44.96875 28.1015625 C-46.28875 27.7715625 -47.60875 27.4415625 -48.96875 27.1015625 C-49.29875 25.7815625 -49.62875 24.4615625 -49.96875 23.1015625 C-50.62875 23.1015625 -51.28875 23.1015625 -51.96875 23.1015625 C-52.53414081 14.38197973 -52.82570779 6.17615099 -46.96875 -0.8984375 C-44.796875 -1.66015625 -44.796875 -1.66015625 -42.96875 -1.8984375 C-42.96875 -2.5584375 -42.96875 -3.2184375 -42.96875 -3.8984375 C-29.33406906 -9.21722945 -12.84748196 -5.78136688 0 0 Z " fill="#F98C03" transform="translate(340.96875,57.8984375)"/>
<path d="M0 0 C0 0.66 0 1.32 0 2 C0.5775 2.20625 1.155 2.4125 1.75 2.625 C4.80459709 4.49169822 6.09416428 7.0141907 8 10 C8.66 10.33 9.32 10.66 10 11 C10 13.64 10 16.28 10 19 C9.01 19 8.02 19 7 19 C7 17.68 7 16.36 7 15 C6.34 15 5.68 15 5 15 C3.31267723 13.01739574 1.64633943 11.0167658 0 9 C-3.2392114 7.3803943 -6.75704381 7.77376245 -10.3125 7.75 C-11.45235352 7.7190625 -11.45235352 7.7190625 -12.61523438 7.6875 C-17.23265898 7.65540669 -20.27500719 7.97080773 -24 11 C-25.82629794 14.06680799 -25.82629794 14.06680799 -27 17 C-27.66 17 -28.32 17 -29 17 C-28.88753286 12.30705277 -28.72248142 8.97747486 -25.875 5.125 C-18.51951411 -0.31166348 -8.8927365 -2.9642455 0 0 Z " fill="#F78E07" transform="translate(264,57)"/>
<path d="M0 0 C0.33 0 0.66 0 1 0 C5.21820872 16.42289262 6.33102295 32.29184885 6.26074219 49.18896484 C6.2500644 52.23165029 6.26067587 55.2737391 6.2734375 58.31640625 C6.28601784 74.15200859 6.19357598 90.62330715 1.6875 105.9375 C1.47311279 106.70763428 1.25872559 107.47776855 1.0378418 108.27124023 C-4.04259418 126.04259418 -4.04259418 126.04259418 -8 130 C-7.67 126.7 -7.34 123.4 -7 120 C-6.01 120 -5.02 120 -4 120 C-3.87625 118.948125 -3.7525 117.89625 -3.625 116.8125 C-3 113 -3 113 -2 110.6875 C-0.69698925 107.18565862 -0.51502375 103.81951133 -0.24609375 100.109375 C0 98 0 98 1 97 C1.07244053 94.98035801 1.08377188 92.95832876 1.0625 90.9375 C1.05347656 89.83277344 1.04445313 88.72804688 1.03515625 87.58984375 C1.02355469 86.73519531 1.01195312 85.88054687 1 85 C2.485 84.505 2.485 84.505 4 84 C3.67 64.53 3.34 45.06 3 25 C2.34 25 1.68 25 1 25 C1.01160156 24.18015625 1.02320313 23.3603125 1.03515625 22.515625 C1.04417969 21.43796875 1.05320312 20.3603125 1.0625 19.25 C1.07410156 18.18265625 1.08570313 17.1153125 1.09765625 16.015625 C1.01393347 13.43026541 0.64781033 11.4697769 0 9 C-0.06548492 7.41788427 -0.08578381 5.83329919 -0.0625 4.25 C-0.05347656 3.45078125 -0.04445313 2.6515625 -0.03515625 1.828125 C-0.02355469 1.22484375 -0.01195312 0.6215625 0 0 Z " fill="#E7A13D" transform="translate(379,232)"/>
<path d="M0 0 C2 1 2 1 3 3.58984375 C5.0225473 10.36063687 6.85182042 17.02763486 8 24 C8.25233398 25.49490967 8.25233398 25.49490967 8.50976562 27.02001953 C10.33049342 39.41562983 10.37223374 51.78582786 10.37060547 64.29663086 C10.37496313 68.03090584 10.4113494 71.76398093 10.44921875 75.49804688 C10.53872997 94.55125163 10.05427677 114.74492337 1 132 C-0.21334563 128.24595749 0.5083962 126.53820221 2.16796875 122.9765625 C4.68595993 116.99485576 5.26222684 110.47830714 5.75390625 104.06640625 C6 102 6 102 7 100 C7.11174893 98.09000282 7.15928672 96.17612089 7.17700195 94.26293945 C7.18983719 93.0559993 7.20267242 91.84905914 7.21589661 90.60554504 C7.22328354 89.28809799 7.23067047 87.97065094 7.23828125 86.61328125 C7.24235678 85.93773886 7.2464323 85.26219646 7.25063133 84.56618309 C7.27154807 80.96705812 7.28580634 77.36797151 7.29516602 73.76879883 C7.30390403 70.83531119 7.32447153 67.90231634 7.35668945 64.96899414 C7.57118022 45.00022428 7.61629942 25.00331345 0.58003235 6.00849915 C0 4 0 4 0 0 Z " fill="#E4A03E" transform="translate(371,28)"/>
<path d="M0 0 C1.258125 -0.020625 2.51625 -0.04125 3.8125 -0.0625 C4.52019531 -0.07410156 5.22789062 -0.08570313 5.95703125 -0.09765625 C8 0 8 0 11 1 C12.33363703 1.14403348 13.67218046 1.24590423 15.01171875 1.31640625 C16.14770508 1.37924805 16.14770508 1.37924805 17.30664062 1.44335938 C18.48516602 1.50233398 18.48516602 1.50233398 19.6875 1.5625 C20.88342773 1.62727539 20.88342773 1.62727539 22.10351562 1.69335938 C24.06881447 1.79927368 26.03438496 1.90012551 28 2 C27 4 27 4 24.8046875 4.81640625 C16.53885121 6.92143923 8.51338266 7.70580103 0 8 C-1.54300781 8.061875 -1.54300781 8.061875 -3.1171875 8.125 C-8.78748282 8.25065751 -13.56767165 7.63994818 -19 6 C-19 4.68 -19 3.36 -19 2 C-17.35492782 1.80593522 -15.70890406 1.61992065 -14.0625 1.4375 C-12.68771484 1.28087891 -12.68771484 1.28087891 -11.28515625 1.12109375 C-10.53105469 1.08113281 -9.77695312 1.04117188 -9 1 C-8.67 1.33 -8.34 1.66 -8 2 C-5.32941149 2.14115161 -2.67567762 2.04247107 0 2 C0 1.34 0 0.68 0 0 Z " fill="#F79009" transform="translate(285,150)"/>
<path d="M0 0 C0.33 0.33 0.66 0.66 1 1 C2.68608966 1.07205511 4.37500659 1.08386068 6.0625 1.0625 C6.98160156 1.05347656 7.90070313 1.04445312 8.84765625 1.03515625 C9.55792969 1.02355469 10.26820313 1.01195312 11 1 C10.390625 2.859375 10.390625 2.859375 9 5 C0.5396733 8.87167493 -9.81367171 10.60267169 -19 9 C-22.07335943 7.29312622 -23.64941107 5.68638735 -26 3 C-25.67 2.34 -25.34 1.68 -25 1 C-24.34 1.33 -23.68 1.66 -23 2 C-23 2.66 -23 3.32 -23 4 C-14.73634705 3.58030484 -7.91297117 -0.60869009 0 0 Z " fill="#F78F08" transform="translate(293,129)"/>
<path d="M0 0 C0.33 0 0.66 0 1 0 C0.99476318 1.29695801 0.98952637 2.59391602 0.98413086 3.93017578 C0.49836023 52.39677139 0.49836023 52.39677139 4.74047852 100.61352539 C5.01025167 103.09427103 5.04412295 105.50663688 5 108 C-7.83842056 88.74236917 -1.08543674 45.46538498 -1.125 23.3125 C-1.12776947 22.26074585 -1.13053894 21.2089917 -1.13339233 20.12536621 C-1.13915068 17.14213401 -1.1374285 14.15901345 -1.1328125 11.17578125 C-1.13576576 9.82529442 -1.13576576 9.82529442 -1.13877869 8.44752502 C-1.11537921 2.23075841 -1.11537921 2.23075841 0 0 Z " fill="#EBA646" transform="translate(228,28)"/>
<path d="M0 0 C0.66 0.33 1.32 0.66 2 1 C4.3592677 8.74700069 4.30731852 16.91768351 4.25 24.9375 C4.25773437 26.04673828 4.26546875 27.15597656 4.2734375 28.29882812 C4.27085937 29.36423828 4.26828125 30.42964844 4.265625 31.52734375 C4.26336914 32.48374756 4.26111328 33.44015137 4.25878906 34.42553711 C3.98870144 37.11239933 3.458642 38.74103262 2 41 C1.34 41.309375 0.68 41.61875 0 41.9375 C-2.74986668 43.39836667 -3.08833304 45.11305462 -4 48 C-4.66 48 -5.32 48 -6 48 C-6.2475 48.598125 -6.495 49.19625 -6.75 49.8125 C-8.16370012 52.28647521 -9.65055383 53.43370255 -12 55 C-12.66 54.67 -13.32 54.34 -14 54 C-13.113125 53.319375 -12.22625 52.63875 -11.3125 51.9375 C-4.55470471 46.27944026 -0.35973503 38.71466541 1 30 C1.38137378 19.96089614 0.87507493 10.00085631 0 0 Z " fill="#E38B21" transform="translate(283,199)"/>
<path d="M0 0 C7.56947787 -0.34406718 15.08001728 0.8175639 22.328125 3.00390625 C26.47484662 4.12881477 30.48632572 4.63464438 34.75 5.0625 C42.63336431 5.8777881 42.63336431 5.8777881 46 7 C47.84466442 7.14889747 49.69357275 7.2479101 51.54296875 7.31640625 C53.15268555 7.37924805 53.15268555 7.37924805 54.79492188 7.44335938 C55.91447266 7.48267578 57.03402344 7.52199219 58.1875 7.5625 C59.31865234 7.60568359 60.44980469 7.64886719 61.61523438 7.69335938 C64.41003354 7.79949099 67.20492162 7.90154385 70 8 C70 8.33 70 8.66 70 9 C45.78468684 9.91746057 23.48122861 7.18478789 0 1 C0 0.67 0 0.34 0 0 Z " fill="#E19E40" transform="translate(260,379)"/>
<path d="M0 0 C-3.6880373 2.45869154 -7.09005859 2.7264044 -11.375 3.3125 C-19.49636546 4.53726022 -26.46980191 6.65445613 -34 10 C-40.56131362 12.86068405 -46.88523904 14.95881547 -54 16 C-49.47219658 11.47219658 -44.10067317 9.52516829 -38 8 C-34.35621675 7.02398663 -31.05268295 6.02439025 -27.625 4.4375 C-23.98697462 2.99483476 -21.11024149 2.56363173 -17.26171875 2.25 C-15.03676389 2.00406371 -13.02856087 1.53733127 -10.875 0.9375 C-6.96045914 -0.00956634 -3.98138383 -0.16589099 0 0 Z " fill="#5B4D39" transform="translate(200,240)"/>
<path d="M0 0 C0 0.33 0 0.66 0 1 C-9.78690805 4.16801648 -18.84823738 4.32476018 -29 4 C-29 4.66 -29 5.32 -29 6 C-30.16402344 6.05607422 -30.16402344 6.05607422 -31.3515625 6.11328125 C-39.83703593 6.62970028 -47.73793222 8.03048159 -56 10 C-56 9.01 -56 8.02 -56 7 C-49.26869712 5.43493409 -42.68344872 4.64897376 -35.78515625 4.24609375 C-32.91708675 4.10097396 -32.91708675 4.10097396 -30 3 C-28.66474283 2.92026524 -27.32587917 2.89228662 -25.98828125 2.90234375 C-24.85229492 2.90717773 -24.85229492 2.90717773 -23.69335938 2.91210938 C-22.51483398 2.92467773 -22.51483398 2.92467773 -21.3125 2.9375 C-20.51521484 2.94201172 -19.71792969 2.94652344 -18.89648438 2.95117188 C-16.93095743 2.9629415 -14.96546915 2.98087652 -13 3 C-13 2.34 -13 1.68 -13 1 C-8.61414671 0.29826347 -4.44209357 -0.10834375 0 0 Z " fill="#5D4D39" transform="translate(517,202)"/>
<path d="M0 0 C-3.288246 1.770594 -6.50461509 3.20968696 -10.0625 4.3125 C-14.0459553 5.56444309 -17.63748672 7.26732733 -21.375 9.125 C-27.29879795 11.94386263 -32.46818108 12.97382037 -39 13 C-39 12.67 -39 12.34 -39 12 C-37.35 12 -35.7 12 -34 12 C-34 11.34 -34 10.68 -34 10 C-31.12254909 8.74111522 -28.43057582 7.86864142 -25.359375 7.16015625 C-19.97223998 5.84171287 -15.04764923 3.57022578 -10.00390625 1.30273438 C-9.28589844 0.99271484 -8.56789063 0.68269531 -7.828125 0.36328125 C-7.1877832 0.07751221 -6.54744141 -0.20825684 -5.88769531 -0.50268555 C-3.59775957 -1.10597048 -2.22026918 -0.73793472 0 0 Z " fill="#634C37" transform="translate(87,279)"/>
<path d="M0 0 C1.16396733 3.6997351 0.51738166 6.01838738 -0.50634766 9.73876953 C-1.38868041 13.78039462 -1.2470972 17.8190198 -1.1875 21.9375 C-1.18685547 22.77990234 -1.18621094 23.62230469 -1.18554688 24.49023438 C-1.14695922 30.05971951 -0.69694028 35.47465743 0 41 C0.66 41 1.32 41 2 41 C2 43.97 2 46.94 2 50 C-3.73944646 44.26055354 -3.18334264 32.80530717 -3.25537109 25.13549805 C-3.22082083 5.36803471 -3.22082083 5.36803471 0 0 Z " fill="#5A2C07" transform="translate(371,160)"/>
<path d="M0 0 C0.82514784 2.83384108 1.07936233 5.16935251 0.87890625 8.109375 C0.83056641 8.86347656 0.78222656 9.61757812 0.73242188 10.39453125 C0.64831055 11.56048828 0.64831055 11.56048828 0.5625 12.75 C0.51029297 13.54277344 0.45808594 14.33554688 0.40429688 15.15234375 C0.27510676 17.10193997 0.13830035 19.05102886 0 21 C-2 20 -2 20 -2.62109375 18.234375 C-3.02399618 15.85849677 -3.09791478 13.65820483 -3.0625 11.25 C-3.05347656 10.45078125 -3.04445313 9.6515625 -3.03515625 8.828125 C-3.02355469 8.22484375 -3.01195312 7.6215625 -3 7 C-4.98 7.99 -4.98 7.99 -7 9 C-5.44499019 5.18315774 -2.96404505 2.80804268 0 0 Z " fill="#E18515" transform="translate(368,167)"/>
<path d="M0 0 C8.25 0.33 16.5 0.66 25 1 C18.45635066 5.36243289 10.4333409 4.48666818 3 3 C3 2.34 3 1.68 3 1 C2.01 0.67 1.02 0.34 0 0 Z " fill="#714B33" transform="translate(23,291)"/>
<path d="M0 0 C0.33 0 0.66 0 1 0 C1.02578125 0.82242187 1.0515625 1.64484375 1.078125 2.4921875 C1.63681666 13.4882551 4.22367346 21.34136053 11 30 C7.45034523 28.56323497 5.92912058 26.88698102 3.875 23.6875 C3.37742188 22.92824219 2.87984375 22.16898437 2.3671875 21.38671875 C-0.63696712 16.14232312 -1.19354818 12.77096553 -0.625 6.6875 C-0.51414063 5.43324219 -0.40328125 4.17898438 -0.2890625 2.88671875 C-0.14597656 1.45779297 -0.14597656 1.45779297 0 0 Z M-1 18 C-0.01 18.495 -0.01 18.495 1 19 C0.67 19.66 0.34 20.32 0 21 C-0.33 20.01 -0.66 19.02 -1 18 Z " fill="#552E0C" transform="translate(204,330)"/>
<path d="M0 0 C0.33 0 0.66 0 1 0 C1.50488515 4.06190843 2.0030519 8.12461351 2.5 12.1875 C2.64308594 13.33798828 2.78617188 14.48847656 2.93359375 15.67382812 C3.06894531 16.78564453 3.20429688 17.89746094 3.34375 19.04296875 C3.46943359 20.06414795 3.59511719 21.08532715 3.72460938 22.13745117 C3.97897068 24.78141061 4.05115721 27.3462199 4 30 C2.09969234 27.1495385 1.65054824 25.99594392 1.1484375 22.76171875 C1.01953125 21.94123047 0.890625 21.12074219 0.7578125 20.27539062 C0.63148438 19.42138672 0.50515625 18.56738281 0.375 17.6875 C0.2409375 16.84509766 0.106875 16.00269531 -0.03125 15.13476562 C-1.79915189 3.59830379 -1.79915189 3.59830379 0 0 Z " fill="#E7A13C" transform="translate(229,106)"/>
<path d="M0 0 C0.33 0 0.66 0 1 0 C1.6875 2.8125 1.6875 2.8125 2 6 C0.6875 7.875 0.6875 7.875 -1 9 C-1.66 9 -2.32 9 -3 9 C-3.66 10.65 -4.32 12.3 -5 14 C-5.66 14 -6.32 14 -7 14 C-7.2475 14.598125 -7.495 15.19625 -7.75 15.8125 C-9.16370012 18.28647521 -10.65055383 19.43370255 -13 21 C-13.66 20.67 -14.32 20.34 -15 20 C-14.113125 19.319375 -13.22625 18.63875 -12.3125 17.9375 C-6.45806359 13.03354856 -3.2280236 6.8147165 0 0 Z " fill="#E09E40" transform="translate(284,233)"/>
<path d="M0 0 C-2.36723947 2.36723947 -8.06877761 2.26540859 -11.390625 2.80664062 C-16.04024328 3.58832732 -20.47022191 4.66379863 -25 6 C-27.32787927 6.36950465 -29.66045145 6.71352467 -32 7 C-26.97832953 1.97832953 -18.38444617 1.41085556 -11.625 0.25 C-10.42907227 0.04032593 -10.42907227 0.04032593 -9.20898438 -0.17358398 C-3.37003501 -1.123345 -3.37003501 -1.123345 0 0 Z " fill="#794C31" transform="translate(200,242)"/>
<path d="M0 0 C5.01515734 0.70736768 9.7248727 1.98832431 14.5625 3.4375 C15.30435547 3.65470703 16.04621094 3.87191406 16.81054688 4.09570312 C20.62496114 5.22678055 24.33378701 6.43913704 28 8 C28 8.66 28 9.32 28 10 C18.2850736 7.90245907 9.22533938 4.61755059 0 1 C0 0.67 0 0.34 0 0 Z " fill="#E29E3E" transform="translate(230,369)"/>
<path d="M0 0 C-0.99 0 -1.98 0 -3 0 C-3 0.66 -3 1.32 -3 2 C-8.39459439 5.08467498 -12.79011871 6.55643705 -19 7 C-15.77987811 4.23989552 -12.99856022 2.39949608 -9 1 C-8.154375 0.608125 -7.30875 0.21625 -6.4375 -0.1875 C-3.7695961 -1.0768013 -2.59567945 -0.96136276 0 0 Z " fill="#6A4C36" transform="translate(107,271)"/>
<path d="M0 0 C0 4.13351845 -1.39476132 5.84629002 -4 9 C-7.1875 9.8125 -7.1875 9.8125 -10 10 C-10.33 10.33 -10.66 10.66 -11 11 C-12.99958364 11.04080783 -15.00045254 11.04254356 -17 11 C-14.69528263 9.46352175 -12.66906524 8.33773241 -10.1875 7.1875 C-6.25118965 5.25936277 -3.25126786 2.92614107 0 0 Z " fill="#4C290E" transform="translate(363,374)"/>
<path d="M0 0 C2 1 2 1 3.4375 3.9375 C4.79632842 7.21743175 4.79632842 7.21743175 8 9 C8 9.66 8 10.32 8 11 C8.556875 11.226875 9.11375 11.45375 9.6875 11.6875 C12.63246684 13.35896766 14.68156544 15.55276352 17 18 C9.98493151 15.5626658 4.12181241 10.46070498 0.4375 4 C-0.036875 3.01 -0.51125 2.02 -1 1 C-0.67 0.67 -0.34 0.34 0 0 Z " fill="#DE9D40" transform="translate(209,349)"/>
<path d="M0 0 C0 3.75803653 -0.90605184 4.28380887 -3.4375 6.9375 C-6.06026822 9.68743274 -7.09798728 11.36939879 -8 15 C-11.0625 17.25 -11.0625 17.25 -14 19 C-14.66 18.67 -15.32 18.34 -16 18 C-15.62190186 17.5968457 -15.24380371 17.19369141 -14.85424805 16.77832031 C-13.12995293 14.9374509 -11.40870626 13.09375761 -9.6875 11.25 C-9.09259766 10.61578125 -8.49769531 9.9815625 -7.88476562 9.328125 C-5.08572094 6.32579774 -2.35829368 3.37142346 0 0 Z " fill="#49271C" transform="translate(175,312)"/>
<path d="M0 0 C-2.18164552 0.97456727 -4.36461001 1.94576988 -6.55078125 2.91015625 C-8.03389455 3.57010619 -9.51212069 4.2414139 -10.98046875 4.93359375 C-14.4697266 6.54342795 -17.15030704 7.34997209 -21 7 C-18.37823086 4.37823086 -15.38155465 3.35130351 -12 2 C-11.30777344 1.70480469 -10.61554688 1.40960938 -9.90234375 1.10546875 C-8.86787109 0.68201172 -8.86787109 0.68201172 -7.8125 0.25 C-7.17957031 -0.01296875 -6.54664062 -0.2759375 -5.89453125 -0.546875 C-3.61447303 -1.09220851 -2.20288622 -0.72289836 0 0 Z " fill="#704C34" transform="translate(128,263)"/>
<path d="M0 0 C0.99 0.33 1.98 0.66 3 1 C2.59007812 1.7734375 2.18015625 2.546875 1.7578125 3.34375 C-1.27006138 9.19667368 -3.75379763 14.5197477 -5 21 C-5.33 21 -5.66 21 -6 21 C-6 18.03 -6 15.06 -6 12 C-5.34 12 -4.68 12 -4 12 C-3.896875 11.319375 -3.79375 10.63875 -3.6875 9.9375 C-2.85274981 6.37084011 -1.50527246 3.33777806 0 0 Z " fill="#532D0E" transform="translate(211,307)"/>
<path d="M0 0 C0.33 0 0.66 0 1 0 C2.81774185 7.09784913 4.43230491 13.65081658 4 21 C0.30876429 17.30876429 0.11293762 11.40345379 -0.125 6.33984375 C-0.125 4.22615178 -0.06814816 2.11259309 0 0 Z " fill="#D79639" transform="translate(379,232)"/>
<path d="M0 0 C1.98 0.66 3.96 1.32 6 2 C6 2.66 6 3.32 6 4 C7.11375 4.144375 8.2275 4.28875 9.375 4.4375 C13 5 13 5 15 6 C15 6.66 15 7.32 15 8 C8.87903309 6.94513949 4.24493326 5.34782974 -1 2 C-0.67 1.34 -0.34 0.68 0 0 Z " fill="#DF9B38" transform="translate(268,191)"/>
<path d="M0 0 C2.64 0 5.28 0 8 0 C8.2361959 6.40353322 7.823321 11.84629161 6 18 C4 15 4 15 4.4609375 11.64453125 C4.76257813 10.37996094 5.06421875 9.11539063 5.375 7.8125 C5.81972656 5.90404297 5.81972656 5.90404297 6.2734375 3.95703125 C6.51320312 2.98121094 6.75296875 2.00539062 7 1 C4.69 1 2.38 1 0 1 C0 0.67 0 0.34 0 0 Z " fill="#7F4731" transform="translate(200,240)"/>
<path d="M0 0 C-6.52506431 2.92962071 -12.88944539 4.95943103 -20 6 C-15.22029379 1.22029379 -10.48219068 -0.42072959 -3.91796875 -1.01953125 C-2 -1 -2 -1 0 0 Z " fill="#744C32" transform="translate(166,250)"/>
<path d="M0 0 C0.33 0 0.66 0 1 0 C1 3.96 1 7.92 1 12 C-0.98 12.99 -0.98 12.99 -3 14 C-2.58846263 9.02906176 -2.20399168 4.55491614 0 0 Z " fill="#473624" transform="translate(211,35)"/>
<path d="M0 0 C0 0.99 0 1.98 0 3 C-1.64556566 4.03435556 -3.3170608 5.02763513 -5 6 C-5.845625 6.845625 -6.69125 7.69125 -7.5625 8.5625 C-9.75460081 10.75460081 -11.25397965 11.74019785 -14 13 C-3.15384615 0 -3.15384615 0 0 0 Z " fill="#EDA740" transform="translate(251,267)"/>
<path d="M0 0 C1.4540625 0.0309375 1.4540625 0.0309375 2.9375 0.0625 C-0.52317375 3.18234982 -3.79281812 3.87117297 -8.3125 4.75 C-10.20742187 5.12705078 -10.20742187 5.12705078 -12.140625 5.51171875 C-13.10484375 5.69347656 -14.0690625 5.87523437 -15.0625 6.0625 C-15.0625 5.4025 -15.0625 4.7425 -15.0625 4.0625 C-14.28003906 3.85753906 -13.49757812 3.65257812 -12.69140625 3.44140625 C-11.67949219 3.17199219 -10.66757813 2.90257812 -9.625 2.625 C-8.61566406 2.35816406 -7.60632813 2.09132813 -6.56640625 1.81640625 C-0.57248185 0.0116833 -0.57248185 0.0116833 0 0 Z " fill="#724B33" transform="translate(143.0625,255.9375)"/>
<path d="M0 0 C0.33 0 0.66 0 1 0 C1.26486134 3.09004896 1.2545614 4.6100336 -0.46875 7.25 C-2.31803931 10.57117264 -2.49671433 13.03494379 -2.6875 16.8125 C-2.75324219 17.97394531 -2.81898438 19.13539062 -2.88671875 20.33203125 C-2.92410156 21.21246094 -2.96148437 22.09289062 -3 23 C-3.33 23 -3.66 23 -4 23 C-4.43995881 14.40858218 -4.46309065 7.53146548 0 0 Z " fill="#F8940F" transform="translate(293,58)"/>
<path d="M0 0 C0.66 0.33 1.32 0.66 2 1 C2 1.66 2 2.32 2 3 C2.66 3.33 3.32 3.66 4 4 C2.35 5.98 0.7 7.96 -1 10 C-2.1875 8.375 -2.1875 8.375 -3 6 C-1.625 2.75 -1.625 2.75 0 0 Z " fill="#482816" transform="translate(228,281)"/>
<path d="M0 0 C0.33 0.66 0.66 1.32 1 2 C-0.19955833 4.99889584 -1.85048123 7.59253898 -4 10 C-4.99 10 -5.98 10 -7 10 C-5.33248852 6.05860922 -2.77289351 3.2107188 0 0 Z " fill="#EBA13C" transform="translate(231,285)"/>
<path d="M0 0 C2.31 0 4.62 0 7 0 C7 2.64 7 5.28 7 8 C4.35247996 5.42215154 2.05567935 3.08351902 0 0 Z " fill="#4F2D14" transform="translate(355,0)"/>
<path d="M0 0 C0.66 0 1.32 0 2 0 C0.68775452 3.93673644 -0.91910327 6.22719294 -4 9 C-4.99 8.67 -5.98 8.34 -7 8 C-5.88200014 6.66079162 -4.75538103 5.32877444 -3.625 4 C-2.68527344 2.88625 -2.68527344 2.88625 -1.7265625 1.75 C-1.15679687 1.1725 -0.58703125 0.595 0 0 Z " fill="#4A271C" transform="translate(153,336)"/>
<path d="M0 0 C0.33 0.66 0.66 1.32 1 2 C1.66 2 2.32 2 3 2 C3 4.64 3 7.28 3 10 C2.34 8.68 1.68 7.36 1 6 C0.34 6 -0.32 6 -1 6 C-0.67 4.02 -0.34 2.04 0 0 Z " fill="#E79D33" transform="translate(381,251)"/>
<path d="M0 0 C2.125 0.375 2.125 0.375 4 1 C2.35830472 3.02054804 0.69088222 5.02043058 -1 7 C-1.33 7 -1.66 7 -2 7 C-2.125 4.625 -2.125 4.625 -2 2 C-1.34 1.34 -0.68 0.68 0 0 Z " fill="#E9A139" transform="translate(363,369)"/>
<path d="M0 0 C-1.26418246 0.69965443 -2.53665402 1.38434763 -3.8125 2.0625 C-4.52019531 2.44535156 -5.22789062 2.82820313 -5.95703125 3.22265625 C-8 4 -8 4 -11 3 C-10.34 3 -9.68 3 -9 3 C-9 2.34 -9 1.68 -9 1 C-5.47051709 -0.66670026 -3.71727674 -1.13583456 0 0 Z " fill="#E19D3E" transform="translate(357,380)"/>
<path d="M0 0 C0.33 0.66 0.66 1.32 1 2 C3.01669827 3.13350534 3.01669827 3.13350534 5 4 C3.35 5.65 1.7 7.3 0 9 C-0.33 7.68 -0.66 6.36 -1 5 C-0.34 4.67 0.32 4.34 1 4 C0.67 2.68 0.34 1.36 0 0 Z " fill="#482913" transform="translate(274,240)"/>
<path d="M0 0 C0.33 0 0.66 0 1 0 C1.33 1.98 1.66 3.96 2 6 C0.68 6.99 -0.64 7.98 -2 9 C-2.25 3.375 -2.25 3.375 0 0 Z " fill="#EDA233" transform="translate(284,233)"/>
<path d="M0 0 C1.98 0.99 1.98 0.99 4 2 C4 2.99 4 3.98 4 5 C4.66 5 5.32 5 6 5 C6.33 6.65 6.66 8.3 7 10 C3.66442368 7.0094833 1.84916079 4.06815373 0 0 Z " fill="#DE9C3C" transform="translate(244,166)"/>
<path d="M0 0 C4.33168317 -0.26252625 7.8803623 0.70756464 12 2 C12 2.33 12 2.66 12 3 C10.56344146 3.08131463 9.1255517 3.13933559 7.6875 3.1875 C6.48673828 3.23970703 6.48673828 3.23970703 5.26171875 3.29296875 C2.52148416 2.93801608 1.70828921 2.10633718 0 0 Z " fill="#EBA438" transform="translate(274,381)"/>
<path d="M0 0 C1 3 1 3 -0.1875 5.5625 C-2 8 -2 8 -6 10 C-4.02 6.7 -2.04 3.4 0 0 Z " fill="#572F0C" transform="translate(371,362)"/>
<path d="M0 0 C-2.97 2.475 -2.97 2.475 -6 5 C-6 3.35 -6 1.7 -6 0 C-2.25 -1.125 -2.25 -1.125 0 0 Z " fill="#4B2810" transform="translate(250,267)"/>
<path d="M0 0 C0.33 0.66 0.66 1.32 1 2 C-1.40436026 5.60654039 -2.94679607 5.85452932 -7 7 C-4.66666667 4.66666667 -2.33333333 2.33333333 0 0 Z " fill="#E7A03F" transform="translate(258,260)"/>
<path d="M0 0 C0.66 0.33 1.32 0.66 2 1 C0.875 2.9375 0.875 2.9375 -1 5 C-4.1875 5.75 -4.1875 5.75 -7 6 C-4.74259377 3.66475218 -2.7194239 1.81294927 0 0 Z " fill="#E4A140" transform="translate(267,254)"/>
</svg>
