<?xml version="1.0" encoding="UTF-8"?>
<svg id="_レイヤー_2" data-name=" レイヤー 2" xmlns="http://www.w3.org/2000/svg" version="1.1" viewBox="0 0 163.7 141.9">
  <defs>
    <style>
      .cls-1 {
        fill: #535350;
      }

      .cls-1, .cls-2, .cls-3, .cls-4, .cls-5, .cls-6, .cls-7, .cls-8 {
        stroke-width: 0px;
      }

      .cls-2 {
        fill: #efb824;
      }

      .cls-3 {
        fill: #262626;
      }

      .cls-4 {
        fill: #e2d1b5;
      }

      .cls-5 {
        fill: #d9d2aa;
      }

      .cls-6 {
        fill: #1e79b5;
      }

      .cls-7 {
        fill: #000;
      }

      .cls-8 {
        fill: #fff;
      }
    </style>
  </defs>
  <g id="_レイヤー_1-2" data-name=" レイヤー 1-2">
    <g>
      <g>
        <path class="cls-2" d="M148.5,8.3h-.6l-25-6.6c-3-.8-6.2,1-7,4.1-1.7,6.4-3.3,12.8-5,19.3h0l-.9,3.5h0l-6.8,26.1c-.9,3.4,1.2,6.9,4.6,7.8l9.1,2.4c3.4.9,6.9-1.2,7.8-4.6l2.6-9.9c1.2-4.6,5.8-7.3,10.4-6.1l.8.2c9.9,2.7,20.3-3.2,23-13.1s-3.2-20.3-13.1-23h.1q0-.1,0-.1ZM154,29.6c-1.7,5.8-7.8,9.2-13.7,7.4l-5-1.3c-6.4-1.7-12.9,2.2-14.5,8.5l-2.9,11.1c-.2.9-1.2,1.5-2.1,1.2l-3.1-.8c-.9-.2-1.5-1.2-1.2-2.1l6-23.2h0l.7-2.7.4-1.4h0c1.1-4.3,2.3-8.7,3.4-13,.5-2,2.5-3.2,4.5-2.6l19.4,5c.2,0,.5,0,.7.2,5.8,1.7,9.2,7.8,7.4,13.7Z"/>
        <path class="cls-7" d="M118.5,66.6c-.7,0-1.3,0-2-.3l-9.1-2.4c-4.2-1.1-6.8-5.4-5.7-9.6l7.7-29.6c.7-2.8,1.4-5.5,2.1-8.3.9-3.7,1.9-7.4,2.9-11,.5-1.9,1.7-3.4,3.3-4.4,1.7-1,3.6-1.2,5.5-.8l24.8,6.6h1.9v.5c10,3.4,15.8,14.1,12.9,24.5-1.4,5.2-4.8,9.5-9.5,12.2-4.7,2.7-10.2,3.4-15.3,2l-.8-.2c-3.8-1-7.6,1.2-8.6,5l-2.6,9.9c-.5,2-1.8,3.8-3.7,4.8-1.2.7-2.6,1.1-4,1.1h0ZM121.4,3c-.7,0-1.5.2-2.1.6-1,.6-1.7,1.5-2,2.6-1,3.7-1.9,7.3-2.9,11-.7,2.8-1.4,5.5-2.1,8.3l-.9,3.5-6.8,26.1c-.7,2.6.9,5.3,3.5,6l9.1,2.4c1.2.3,2.6.1,3.7-.5,1.1-.7,1.9-1.7,2.3-3l2.6-9.9c1.4-5.4,6.8-8.6,12.2-7.2l.8.2c4.4,1.2,9.1.6,13.1-1.7,4-2.3,6.9-6,8.1-10.4,2.5-9.2-2.9-18.7-12.1-21.2h-.5c0-.1-25-6.7-25-6.7-.3,0-.7-.1-1.1-.1h0ZM116.3,58.1c-.3,0-.6,0-.9-.1l-3.1-.8c-.8-.2-1.6-.7-2-1.5-.4-.8-.5-1.7-.3-2.5l7.1-27.3c.5-2.1,1.1-4.3,1.7-6.5.6-2.2,1.1-4.3,1.7-6.4.3-1.4,1.2-2.5,2.4-3.2,1.2-.7,2.6-.8,3.9-.4l19.2,4.9c.3,0,.8,0,1.2.3,3.1,1,5.7,3.1,7.2,6,1.6,2.9,1.9,6.3.9,9.5-.9,3.2-3.1,5.9-6,7.5-2.9,1.6-6.3,1.9-9.5.9l-4.9-1.3c-2.7-.7-5.5-.3-7.9,1.1-2.4,1.4-4.1,3.7-4.8,6.3l-2.9,11.1c-.2.8-.7,1.5-1.5,2-.5.3-1,.4-1.6.4h0ZM125.4,12.1c-.3,0-.7,0-1,.3-.5.3-.9.8-1,1.4-.6,2.2-1.1,4.3-1.7,6.5-.6,2.2-1.2,4.4-1.7,6.5l-.4,1.4-6.7,26c0,.1,0,.2,0,.2l3.2.8c.1,0,.2,0,.2,0l2.9-11.2c.9-3.5,3.1-6.4,6.2-8.2,3.1-1.8,6.7-2.3,10.2-1.4l5,1.3c2.5.8,5.1.5,7.3-.7,2.2-1.2,3.9-3.2,4.6-5.7h0c.8-2.5.5-5-.7-7.2-1.2-2.2-3.2-3.9-5.7-4.6l-.6-.2-19.4-5c-.2,0-.5-.1-.7-.1h0Z"/>
      </g>
      <g>
        <path class="cls-6" d="M55,63.5l-3.3-17.3c-1.4-7.4-8.6-12.3-16-10.9l-5.2,1c-1,.2-2.1.4-3.3.6-5.6.8-12.9.8-15.7-6.3-.4-1.1-.7-2.4-.9-3.9-.2-1.4-.2-2.7-.2-3.7.8-8.5,9.9-10.2,15.5-11.3l16.5-3.1c1.2-.2,2-1.4,1.7-2.6l-.5-2.6c-.2-1.3-1.5-2.1-2.7-1.9l-16.9,3.2c-8.5,1.6-13.4,3.6-17.4,7.6S1.7,19.7,1.5,24.1h0v.5h0c0,1.6.1,2.8.2,3.6.2,1.1.3,1.6.4,2.1.2.8.5,1.5.7,2,4.3,12.8,17.5,12.6,25.8,11.4,1.6-.2,3.1-.5,4.2-.7l1.3-.2c.6,0,1.2-.2,1.9,0,3.6.2,6.6,2.8,7.2,6.3l3,16c.3,1.5,1.7,2.5,3.2,2.2l3.4-.6c1.5-.3,2.5-1.7,2.2-3.2Z"/>
        <path class="cls-7" d="M48.9,68.9c-2,0-3.7-1.4-4.1-3.5l-3-16c-.5-2.8-2.9-4.9-5.8-5.1h-.3c-.2-.1-.4,0-.7,0-.2,0-.4,0-.6,0l-1.8.3c-1,.2-2.3.4-3.7.6-14.7,2.1-23.9-2-27.4-12.4h0c-.2-.6-.5-1.3-.7-2.1h0c-.1-.6-.2-1.1-.4-2.2-.2-1.2-.2-2.5-.2-3.9v-.5c.2-4.8,1.2-8.5,5.5-12.9C9.7,7.1,14.6,5,23.7,3.3L40.6,0c1-.2,2.1,0,3,.7.8.6,1.4,1.5,1.5,2.5l.5,2.5c.2.9,0,1.9-.5,2.8-.5.8-1.4,1.4-2.4,1.6l-16.6,3.1c-5.3,1.1-13.4,2.6-14.1,9.9,0,1,0,2.1.2,3.4.2,1.4.5,2.6.8,3.6,1.9,4.8,6.2,6.5,14.1,5.3,1.1-.2,2.2-.4,3.2-.6l5.2-1c4-.8,8,0,11.4,2.4s5.6,5.7,6.4,9.7l3.3,17.3c.5,2.3-1.1,4.5-3.4,5l-3.4.6c-.3,0-.5,0-.8,0h0ZM36.2,41.3c4.3.3,7.7,3.4,8.4,7.5l3,16c.1.7.8,1.1,1.4,1l3.4-.6c.7-.1,1.1-.8,1-1.4h0l-3.3-17.3c-.6-3.2-2.4-6-5.1-7.8s-5.9-2.5-9.1-1.9l-5.2,1c-1,.2-2.1.4-3.3.6-3.4.5-13.7,2-17.3-7.2-.4-1.2-.8-2.6-1-4.2-.2-1.5-.2-2.9-.2-3.9h0c.9-9.7,10.7-11.6,16.5-12.7h.2s16.5-3.1,16.5-3.1c.2,0,.4-.2.4-.3,0,0,.1-.3,0-.5l-.5-2.7c0-.3-.2-.5-.3-.5-.2-.1-.5-.2-.7-.2l-16.9,3.2c-8.5,1.6-13,3.5-16.6,7.2s-4.5,6.6-4.7,10.8v.4c0,1.6,0,2.7.2,3.4.2,1,.3,1.5.4,1.9.2.6.4,1.2.6,1.6v.2c3.1,8.9,11.2,12.4,24.3,10.5,1.3-.2,2.5-.4,3.5-.6l2.2-.3c.1,0,.3,0,.4,0,.4,0,1-.1,1.7,0Z"/>
      </g>
      <g>
        <path class="cls-4" d="M119,54.7H46.7c-7.1,0-12.9,5.8-12.9,12.9v30.4h-11.1c-5.3,0-9.6,4.3-9.6,9.6v23.2c0,5.3,4.3,9.6,9.6,9.6h99.8c5.7,0,10.3-4.6,10.3-10.3v-61.8c0-7.6-6.1-13.7-13.7-13.7h0s0,0,0,0Z"/>
        <path class="cls-7" d="M122.5,141.9H22.7c-6.1,0-11.1-5-11.1-11.1v-23.2c0-6.1,5-11.1,11.1-11.1h9.6v-28.9c0-7.9,6.5-14.4,14.4-14.4h70.8c0,0,1.5,0,1.5,0,8.5,0,15.3,6.8,15.3,15.2v61.8c0,6.5-5.3,11.8-11.8,11.8ZM22.7,99.5c-4.5,0-8.1,3.6-8.1,8.1v23.2c0,4.5,3.6,8.1,8.1,8.1h99.8c4.8,0,8.8-3.9,8.8-8.8v-61.8c0-6.2-4.7-11.4-10.8-12.1h0s-73.8,0-73.8,0c-6.3,0-11.4,5.1-11.4,11.4v31.9s-12.6,0-12.6,0Z"/>
      </g>
      <g>
        <ellipse class="cls-8" cx="92.3" cy="90" rx="15.7" ry="21.1"/>
        <path class="cls-7" d="M92.3,112.6c-9.5,0-17.2-10.1-17.2-22.6s7.7-22.6,17.2-22.6,17.2,10.1,17.2,22.6-7.7,22.6-17.2,22.6ZM92.3,70.4c-7.8,0-14.2,8.8-14.2,19.6s6.4,19.6,14.2,19.6,14.2-8.8,14.2-19.6-6.4-19.6-14.2-19.6Z"/>
      </g>
      <g>
        <ellipse class="cls-8" cx="55.8" cy="89.6" rx="15.7" ry="20.7"/>
        <path class="cls-7" d="M55.8,111.8c-9.5,0-17.2-10-17.2-22.2s7.7-22.2,17.2-22.2,17.2,10,17.2,22.2-7.7,22.2-17.2,22.2ZM55.8,70.4c-7.8,0-14.2,8.6-14.2,19.2s6.4,19.2,14.2,19.2,14.2-8.6,14.2-19.2-6.4-19.2-14.2-19.2Z"/>
      </g>
      <ellipse class="cls-5" cx="13.6" cy="100.7" rx="6.2" ry="7.8"/>
      <g>
        <ellipse class="cls-1" cx="10.7" cy="98.1" rx="9.1" ry="10.7"/>
        <path class="cls-1" d="M10.7,109.8c-5.6,0-10.1-5.2-10.1-11.7s4.5-11.7,10.1-11.7,10.1,5.2,10.1,11.7-4.5,11.7-10.1,11.7ZM10.7,88.4c-4.5,0-8.1,4.3-8.1,9.7s3.6,9.7,8.1,9.7,8.1-4.3,8.1-9.7-3.6-9.7-8.1-9.7Z"/>
      </g>
      <ellipse class="cls-7" cx="51.8" cy="84.1" rx="9.5" ry="12"/>
      <circle class="cls-8" cx="8.2" cy="94.4" r="2.7"/>
      <path class="cls-3" d="M11.2,106.8c-.6,0-1.2-.4-1.4-1-.3-.8.2-1.6.9-1.9.4-.1,1.8-.7,2.9-2.1,1.1-1.5,1.1-3,1.1-3.5,0-.8.7-1.5,1.5-1.5s1.5.7,1.5,1.5c0,2-.6,3.8-1.7,5.3-1.6,2.1-3.6,2.9-4.3,3.1-.2,0-.3,0-.5,0h0Z"/>
      <ellipse class="cls-7" cx="87.8" cy="84.1" rx="9.6" ry="12"/>
    </g>
  </g>
</svg>