<?xml version="1.0" encoding="UTF-8"?>
<svg id="_レイヤー_1" data-name=" レイヤー 1" xmlns="http://www.w3.org/2000/svg" version="1.1" viewBox="0 0 162.7 218.1">
  <defs>
    <style>
      .cls-1 {
        fill: #58cddd;
      }

      .cls-1, .cls-2, .cls-3, .cls-4, .cls-5, .cls-6, .cls-7, .cls-8, .cls-9, .cls-10, .cls-11, .cls-12 {
        stroke-width: 0px;
      }

      .cls-13 {
        stroke: #535350;
        stroke-width: 2px;
      }

      .cls-13, .cls-2 {
        fill: #535350;
      }

      .cls-13, .cls-14, .cls-15, .cls-16, .cls-17, .cls-18, .cls-19 {
        stroke-miterlimit: 10;
      }

      .cls-3, .cls-14 {
        fill: #efb824;
      }

      .cls-4 {
        fill: #262626;
      }

      .cls-14, .cls-15, .cls-16, .cls-18 {
        stroke: #000;
      }

      .cls-14, .cls-15, .cls-16, .cls-18, .cls-19 {
        stroke-width: 3px;
      }

      .cls-5, .cls-15 {
        fill: #e2d1b5;
      }

      .cls-6 {
        fill: #d9d2aa;
      }

      .cls-7, .cls-18 {
        fill: #1e79b5;
      }

      .cls-8 {
        fill: #000;
      }

      .cls-9 {
        fill: #e4e4e4;
      }

      .cls-16, .cls-10 {
        fill: #fff;
      }

      .cls-17 {
        stroke: #d6c39d;
        stroke-width: 4px;
      }

      .cls-17, .cls-19 {
        fill: none;
        stroke-linecap: round;
      }

      .cls-19 {
        stroke: #262626;
      }

      .cls-11 {
        fill: #d6c39d;
      }

      .cls-12 {
        fill: #e5e5e5;
      }
    </style>
  </defs>
  <ellipse class="cls-9" cx="83.3" cy="210.2" rx="49.1" ry="7.9"/>
  <circle class="cls-15" cx="116.7" cy="190.4" r="14.1"/>
  <path class="cls-14" d="M148,7.8h-.6l-25-6.6c-3-.8-6.2,1-7,4.1-1.7,6.4-3.3,12.8-5,19.3h0l-.9,3.5h0l-6.8,26.1c-.9,3.4,1.2,6.9,4.6,7.8l9.1,2.4c3.4.9,6.9-1.2,7.8-4.6l2.6-9.9c1.2-4.6,5.8-7.3,10.4-6.1l.8.2c9.9,2.7,20.3-3.2,23-13.1s-3.2-20.3-13.1-23h.1ZM153.5,29.1c-1.7,5.8-7.8,9.2-13.7,7.4l-5-1.3c-6.4-1.7-12.9,2.2-14.5,8.5l-2.9,11.1c-.2.9-1.2,1.5-2.1,1.2l-3.1-.8c-.9-.2-1.5-1.2-1.2-2.1l6-23.2h0l.7-2.7.4-1.4h0c1.1-4.3,2.3-8.7,3.4-13,.5-2,2.5-3.2,4.5-2.6l19.4,5c.2,0,.5,0,.7.2,5.8,1.7,9.2,7.8,7.4,13.7Z"/>
  <path class="cls-15" d="M110.2,137.8l-2.3,2h-59.9l-2.5-2-19.6,23.7c-1,1.2-.8,3,.4,4l7.3,6c1,.8,2.4.7,3.3-.3l8.9-10.7v46.5c0,1.3,1.1,2.4,2.4,2.4h13.9c1.5,0,2.8-1.2,2.8-2.8v-14.7h27.6v15.1c0,1.3,1.1,2.4,2.4,2.4h13.9c1.5,0,2.8-1.2,2.8-2.8v-44.1l7,8.4c1.1,1.2,2.9,1.4,4.3.4l7-5.8c1.1-.9,1.2-2.4.4-3.5l-20.2-24.1h.1Z"/>
  <line class="cls-17" x1="48.5" y1="143" x2="107.7" y2="143"/>
  <path class="cls-18" d="M54.5,63l-3.3-17.3c-1.4-7.4-8.6-12.3-16-10.9l-5.2,1c-1,.2-2.1.4-3.3.6-5.6.8-12.9.8-15.7-6.3-.4-1.1-.7-2.4-.9-3.9-.2-1.4-.2-2.7-.2-3.7.8-8.5,9.9-10.2,15.5-11.3l16.5-3.1c1.2-.2,2-1.4,1.7-2.6l-.5-2.6c-.2-1.3-1.5-2.1-2.7-1.9l-16.9,3.2c-8.5,1.6-13.4,3.6-17.4,7.6-4,4-4.9,7.4-5.1,11.8h0v.5h0c0,1.6.1,2.8.2,3.6.2,1.1.3,1.6.4,2.1.2.8.5,1.5.7,2,4.3,12.8,17.5,12.6,25.8,11.4,1.6-.2,3.1-.5,4.2-.7l1.3-.2c.6,0,1.2-.2,1.9,0,3.6.2,6.6,2.8,7.2,6.3l3,16c.3,1.5,1.7,2.5,3.2,2.2l3.4-.6c1.5-.3,2.5-1.7,2.2-3.2Z"/>
  <path class="cls-15" d="M118.5,54.2H46.2c-7.1,0-12.9,5.8-12.9,12.9v30.4h-11.1c-5.3,0-9.6,4.3-9.6,9.6v23.2c0,5.3,4.3,9.6,9.6,9.6h99.8c5.7,0,10.3-4.6,10.3-10.3v-61.8c0-7.6-6.1-13.7-13.7-13.7h-.1Z"/>
  <ellipse class="cls-16" cx="91.8" cy="89.5" rx="15.7" ry="21.1"/>
  <ellipse class="cls-16" cx="55.3" cy="89.1" rx="15.7" ry="20.7"/>
  <ellipse class="cls-6" cx="13.1" cy="100.2" rx="6.2" ry="7.8"/>
  <ellipse class="cls-13" cx="10.2" cy="97.6" rx="9.1" ry="10.7"/>
  <ellipse class="cls-8" cx="60.9" cy="91.2" rx="9.5" ry="12"/>
  <circle class="cls-10" cx="7.7" cy="93.9" r="2.7"/>
  <path class="cls-19" d="M10.7,104.8c.6-.2,2.3-.9,3.6-2.6,1.4-1.9,1.4-3.8,1.4-4.4"/>
  <ellipse class="cls-8" cx="96.9" cy="91.2" rx="9.6" ry="12"/>
  <line class="cls-17" x1="65.5" y1="187.4" x2="90.7" y2="187.4"/>
  <g>
    <ellipse class="cls-9" cx="-446.3" cy="-10.5" rx="68.9" ry="11.1"/>
    <g>
      <circle class="cls-5" cx="-399.5" cy="-38.3" r="19.8"/>
      <path class="cls-8" d="M-399.5-16.4c-12.1,0-21.9-9.8-21.9-21.9s9.8-21.9,21.9-21.9,21.9,9.8,21.9,21.9-9.8,21.9-21.9,21.9ZM-399.5-55.9c-9.7,0-17.7,7.9-17.7,17.7s7.9,17.7,17.7,17.7,17.7-7.9,17.7-17.7-7.9-17.7-17.7-17.7Z"/>
    </g>
    <g>
      <path class="cls-3" d="M-355.6-294.4h-.8l-35.1-9.3c-4.2-1.1-8.7,1.4-9.8,5.8-2.4,9-4.6,18-7,27.1h0l-1.3,4.9h0l-9.5,36.6c-1.3,4.8,1.7,9.7,6.5,10.9l12.8,3.4c4.8,1.3,9.7-1.7,10.9-6.5l3.6-13.9c1.7-6.5,8.1-10.2,14.6-8.6l1.1.3c13.9,3.8,28.5-4.5,32.3-18.4,3.8-13.9-4.5-28.5-18.4-32.3h0ZM-347.9-264.5c-2.4,8.1-10.9,12.9-19.2,10.4l-7-1.8c-9-2.4-18.1,3.1-20.3,11.9l-4.1,15.6c-.3,1.3-1.7,2.1-2.9,1.7l-4.3-1.1c-1.3-.3-2.1-1.7-1.7-2.9l8.4-32.5h0l1-3.8.6-2h0c1.5-6,3.2-12.2,4.8-18.2.7-2.8,3.5-4.5,6.3-3.6l27.2,7c.3,0,.7,0,1,.3,8.1,2.4,12.9,10.9,10.4,19.2l-.2-.2h0Z"/>
      <path class="cls-8" d="M-397.6-212.6c-.9,0-1.9,0-2.8-.4l-12.8-3.4c-2.9-.8-5.3-2.6-6.8-5.1-1.5-2.6-1.9-5.5-1.2-8.4l10.8-41.5c1-3.9,2-7.7,3-11.5,1.3-5.2,2.7-10.4,4-15.6.7-2.6,2.3-4.8,4.7-6.2s5.1-1.8,7.7-1.1l34.8,9.2h2.7v.7c6.5,2.2,11.9,6.7,15.4,12.8,3.8,6.6,4.7,14.2,2.8,21.5-4.1,15.1-19.7,24-34.8,19.8l-1.1-.3c-5.4-1.4-10.6,1.7-12,7l-3.6,13.9c-1.3,5-5.8,8.3-10.7,8.3v.3h-.1ZM-393.5-301.8c-1,0-2.1.3-3,.8-1.4.8-2.4,2.1-2.7,3.6-1.4,5.2-2.7,10.4-4,15.6-1,3.8-2,7.6-3,11.5l-1.3,4.9-9.5,36.6c-.5,1.8-.2,3.6.7,5.2s2.4,2.7,4.2,3.2l12.8,3.4c3.6,1,7.4-1.3,8.4-5l3.6-13.9c2-7.6,9.5-12,17.2-10.1l1.1.3c12.9,3.5,26.2-4.1,29.7-16.9,1.7-6.2.8-12.7-2.4-18.3-3.2-5.6-8.4-9.7-14.5-11.4h-.7c0-.1-35.1-9.4-35.1-9.4-.5-.1-1-.2-1.5-.2h0ZM-400.8-224.5c-.4,0-.9,0-1.3-.2l-4.3-1.1c-1.1-.2-2.2-1-2.8-2.1s-.7-2.3-.4-3.4l10-38.3c.8-3,1.6-6,2.4-9,.8-3.1,1.6-6.1,2.4-9.1.5-1.9,1.7-3.6,3.4-4.5,1.7-1,3.7-1.2,5.5-.6l26.9,6.9c.4,0,1,0,1.7.5,4.4,1.4,7.9,4.3,10.1,8.4s2.7,8.9,1.3,13.4c-1.3,4.5-4.3,8.2-8.5,10.5-4.1,2.2-8.9,2.7-13.4,1.3l-6.9-1.8c-3.8-1-7.7-.5-11.1,1.5s-5.7,5.1-6.7,8.9l-4.1,15.6c-.2,1.1-1,2.2-2.1,2.8-.7.4-1.4.6-2.2.6v-.3h.1ZM-387.9-289.1c-.5,0-1,.1-1.4.4-.7.4-1.2,1.1-1.4,1.9-.8,3-1.6,6.1-2.4,9.2-.8,3-1.6,6.1-2.4,9.1l-.6,2-9.4,36.4c0,.2.1.2.1.2l4.6,1.2h.2l4.1-15.6c1.2-4.8,4.3-8.9,8.6-11.5s9.4-3.2,14.3-2l7,1.8c3.5,1.1,7.1.7,10.2-1,3.1-1.7,5.4-4.5,6.4-8h0c1-3.4.7-7-1-10.2-1.7-3.1-4.5-5.4-8-6.4l-.9-.3-27.2-7c-.3,0-.6-.1-.9-.1h0Z"/>
    </g>
    <g>
      <path class="cls-5" d="M-408.6-112l-3.2,2.8h-84l-3.5-2.8-27.5,33.2c-1.4,1.7-1.1,4.2.6,5.6l10.2,8.4c1.4,1.1,3.4,1,4.6-.4l12.5-15V-15c0,1.8,1.5,3.4,3.4,3.4h19.5c2.1,0,3.9-1.7,3.9-3.9v-20.6h38.7V-14.9c0,1.8,1.5,3.4,3.4,3.4h19.5c2.1,0,3.9-1.7,3.9-3.9v-61.9l9.8,11.8c1.5,1.7,4.1,2,6,.6l9.8-8.1c1.5-1.3,1.7-3.4.6-4.9l-28.3-33.8h.1v-.3h0Z"/>
      <path class="cls-8" d="M-410.6-9.5h-19.5c-3,0-5.5-2.5-5.5-5.5v-19.1h-34.5V-15.6c0,3.3-2.7,6-6,6h-19.5c-3,0-5.5-2.5-5.5-5.5v-59.4l-8.8,10.5c-2,2.3-5.3,2.6-7.6.7l-10.3-8.4c-2.6-2.2-3-6-.8-8.6l28.8-34.8,4.5,3.6h82.5l.9-.8-1.6-1.9h3.7l3.1-2.7v4.2l27.8,33.2c1.8,2.5,1.4,5.8-.9,7.8l-9.9,8.2c-2.8,2-6.5,1.6-8.8-.9l-6.2-7.4V-15.8c0,3.3-2.7,6-6,6v.3h0ZM-474.2-38.3h42.9V-15c0,.7.6,1.3,1.3,1.3h19.5c.9,0,1.8-.7,1.8-1.8v-67.7l13.5,16.2c.8.8,2.1,1,3.1.2l9.8-8.1c.7-.6.6-1.4.2-2l-26.9-32.1-2.1,1.8h-85.5l-2.5-2-26.2,31.6c-.3.4-.5.9-.4,1.4,0,.5.3,1,.7,1.3l10.2,8.4c.5.4,1.2.3,1.7-.2l16.1-19.4V-15.1c0,.7.6,1.3,1.3,1.3h19.5c.9,0,1.8-.7,1.8-1.8v-22.7h.2Z"/>
    </g>
    <path class="cls-11" d="M-412.1-101.9h-83c-1.5,0-2.8-1.3-2.8-2.8s1.3-2.8,2.8-2.8h83c1.5,0,2.8,1.3,2.8,2.8s-1.3,2.8-2.8,2.8Z"/>
    <g>
      <path class="cls-7" d="M-486.7-216.9l-4.6-24.3c-2-10.4-12.1-17.3-22.4-15.3l-7.3,1.4c-1.4.3-2.9.6-4.6.8-7.9,1.1-18.1,1.1-22-8.8-.6-1.5-1-3.4-1.3-5.5-.3-2-.3-3.8-.3-5.2,1.1-11.9,13.9-14.3,21.7-15.8l23.1-4.3c1.7-.3,2.8-2,2.4-3.6l-.7-3.6c-.3-1.8-2.1-2.9-3.8-2.7l-23.7,4.5c-11.9,2.2-18.8,5-24.4,10.7-5.6,5.6-6.9,10.4-7.2,16.6h0v.7h0c0,2.2,0,3.9.3,5,.3,1.5.4,2.2.6,2.9.3,1.1.7,2.1,1,2.8,6,18,24.5,17.7,36.2,16,2.2-.3,4.3-.7,5.9-1l1.8-.3c.8,0,1.7-.3,2.7,0,5,.3,9.3,3.9,10.1,8.8l4.2,22.4c.4,2.1,2.4,3.5,4.5,3.1l4.8-.8c2.1-.4,3.5-2.4,3.1-4.5h-.1Z"/>
      <path class="cls-8" d="M-495.3-209.4c-1.2,0-2.3-.4-3.3-1.1-1.3-.9-2.2-2.2-2.5-3.8l-4.2-22.5c-.7-4-4-6.9-8.1-7.1h-.5c-.3-.2-.5,0-1,0h-.9l-2.5.4c-1.4.3-3.2.6-5.2.8-20.6,3-33.6-2.9-38.4-17.4h0c-.3-.9-.7-1.8-1-3-.2-.8-.3-1.5-.6-3.1-.2-1.2-.3-3-.3-5.4v-.7c.3-6.7,1.7-12,7.8-18s12.7-8.8,25.5-11.2l23.7-4.5c1.5-.2,3,.1,4.1,1,1.2.8,1.9,2.1,2.1,3.4l.7,3.6c.3,1.3,0,2.7-.7,3.9-.8,1.2-2,2-3.4,2.2l-23.3,4.4c-7.5,1.5-18.8,3.7-19.8,13.8,0,1.4,0,3,.3,4.8.3,2,.7,3.7,1.2,5,2.7,6.7,8.7,9,19.7,7.5,1.6-.3,3.1-.5,4.5-.8l7.3-1.4c11.5-2.2,22.7,5.4,24.9,17l4.6,24.3c.3,1.6,0,3.2-.9,4.5s-2.2,2.2-3.8,2.5l-4.8.9h-1.2ZM-513-248.1c6,.4,10.8,4.7,11.8,10.6l4.2,22.4c0,.5.4.9.7,1.1.3.2.7.4,1.3.3l4.8-.9c.9-.2,1.6-1.1,1.4-2h0l-4.6-24.3c-.8-4.5-3.4-8.3-7.2-10.9s-8.3-3.5-12.8-2.7l-7.3,1.4c-1.4.3-3,.6-4.7.9-4.8.7-19.2,2.8-24.3-10.1-.6-1.7-1.1-3.7-1.4-6-.3-2.1-.3-4-.3-5.5v-.2c1.3-13.4,15-16.1,23.2-17.7h.2l23.2-4.4c.4,0,.5-.3.6-.4,0-.1.2-.4.1-.7l-.7-3.8c0-.4-.3-.6-.4-.8-.3-.2-.6-.3-.9-.2l-23.7,4.5c-11.9,2.2-18.2,5-23.3,10.1-5.2,5.2-6.3,9.3-6.5,15.2v.6c0,2.2,0,3.8.3,4.8.3,1.4.4,2.1.5,2.8.2.7.5,1.5.8,2.2v.3c4.3,12.4,15.7,17.3,34,14.7,1.8-.2,3.6-.6,4.9-.8l3.1-.5h.6c.6,0,1.4-.2,2.4,0h0Z"/>
    </g>
    <g>
      <path class="cls-5" d="M-397-229.3h-101.4c-10,0-18.1,8.1-18.1,18.1v42.7h-15.6c-7.4,0-13.5,6-13.5,13.5v32.5c0,7.4,6,13.5,13.5,13.5h140c8,0,14.4-6.5,14.4-14.4v-86.7c0-10.7-8.6-19.2-19.2-19.2h-.1Z"/>
      <path class="cls-8" d="M-392-107h-140c-8.6,0-15.6-7-15.6-15.6v-32.5c0-8.6,7-15.6,15.6-15.6h13.5v-40.5c0-11.1,9.1-20.2,20.2-20.2h101.4c11.9,0,21.5,9.6,21.5,21.3v86.7c0,9.1-7.4,16.6-16.6,16.6h0v-.2ZM-532-166.4c-6.3,0-11.4,5.1-11.4,11.4v32.5c0,6.3,5.1,11.4,11.4,11.4h140c6.8,0,12.3-5.5,12.3-12.3v-86.7c0-9-7-16.4-15.8-17.1h-102.8c-8.8,0-16,7.2-16,16v44.8h-17.7Z"/>
    </g>
    <g>
      <ellipse class="cls-10" cx="-434.4" cy="-179.8" rx="22" ry="29.6"/>
      <path class="cls-8" d="M-434.4-148.1c-13.3,0-24.1-14.2-24.1-31.7s10.8-31.7,24.1-31.7,24.1,14.2,24.1,31.7-10.8,31.7-24.1,31.7ZM-434.4-207.3c-11,0-19.9,12.3-19.9,27.5s8.9,27.5,19.9,27.5,19.9-12.3,19.9-27.5-8.9-27.5-19.9-27.5Z"/>
    </g>
    <g>
      <ellipse class="cls-10" cx="-485.6" cy="-180.3" rx="22" ry="29"/>
      <path class="cls-8" d="M-485.6-149.2c-13.3,0-24.1-14-24.1-31.1s10.8-31.1,24.1-31.1,24.1,14,24.1,31.1-10.8,31.1-24.1,31.1ZM-485.6-207.3c-11,0-19.9,12.1-19.9,26.9s8.9,26.9,19.9,26.9,19.9-12.1,19.9-26.9-8.9-26.9-19.9-26.9Z"/>
    </g>
    <ellipse class="cls-6" cx="-544.8" cy="-164.8" rx="8.7" ry="10.9"/>
    <g>
      <ellipse class="cls-2" cx="-548.9" cy="-168.4" rx="12.8" ry="15"/>
      <path class="cls-2" d="M-548.9-152c-7.8,0-14.2-7.4-14.2-16.4s6.4-16.4,14.2-16.4,14.2,7.4,14.2,16.4-6.4,16.4-14.2,16.4ZM-548.9-182c-6.3,0-11.4,6.1-11.4,13.6s5.1,13.6,11.4,13.6,11.4-6.1,11.4-13.6-5.1-13.6-11.4-13.6Z"/>
    </g>
    <ellipse class="cls-8" cx="-493.2" cy="-171.8" rx="13.3" ry="16.8"/>
    <circle class="cls-10" cx="-552.4" cy="-173.6" r="3.8"/>
    <path class="cls-4" d="M-548.2-156.2c-.9,0-1.7-.6-2-1.4-.4-1.1.2-2.3,1.3-2.7.6-.2,2.5-1,4-2.9,1.5-2.1,1.5-4.2,1.5-4.9,0-1.2.9-2.1,2.1-2.1s2.1.9,2.1,2.1c0,2.8-.8,5.3-2.4,7.4-2.2,2.9-5,4-6.1,4.4-.2,0-.4.1-.7.1h.2Z"/>
    <ellipse class="cls-8" cx="-442.7" cy="-171.8" rx="13.5" ry="16.8"/>
    <path class="cls-11" d="M-435.9-39.7h-35.3c-1.5,0-2.8-1.3-2.8-2.8s1.3-2.8,2.8-2.8h35.3c1.5,0,2.8,1.3,2.8,2.8s-1.3,2.8-2.8,2.8Z"/>
  </g>
  <g>
    <path class="cls-3" d="M118.1-360.4h-.6l-25-6.6c-3-.8-6.2,1-7,4.1-1.7,6.4-3.3,12.8-5,19.3h0l-.9,3.5h0l-6.8,26.1c-.9,3.4,1.2,6.9,4.6,7.8l9.1,2.4c3.4.9,6.9-1.2,7.8-4.6l2.6-9.9c1.2-4.6,5.8-7.3,10.4-6.1l.8.2c9.9,2.7,20.3-3.2,23-13.1s-3.2-20.3-13.1-23h0,0ZM123.6-339.1c-1.7,5.8-7.8,9.2-13.7,7.4l-5-1.3c-6.4-1.7-12.9,2.2-14.5,8.5l-2.9,11.1c-.2.9-1.2,1.5-2.1,1.2l-3.1-.8c-.9-.2-1.5-1.2-1.2-2.1l6-23.2h0l.7-2.7.4-1.4h0c1.1-4.3,2.3-8.7,3.4-13,.5-2,2.5-3.2,4.5-2.6l19.4,5c.2,0,.5,0,.7.2,5.8,1.7,9.2,7.8,7.4,13.7h0Z"/>
    <path class="cls-8" d="M88.1-302.1c-.7,0-1.3,0-2-.3l-9.1-2.4c-2-.5-3.7-1.8-4.8-3.6-1.1-1.8-1.4-4-.8-6l7.7-29.6c.7-2.8,1.4-5.5,2.1-8.3.9-3.7,1.9-7.4,2.9-11,.5-1.9,1.7-3.4,3.3-4.4,1.7-1,3.6-1.3,5.5-.8l24.8,6.5h1.9v.5c4.6,1.6,8.5,4.8,11,9.1,2.7,4.7,3.4,10.2,2,15.3-1.4,5.2-4.8,9.5-9.5,12.2-4.7,2.7-10.2,3.4-15.3,2l-.8-.2c-1.9-.5-3.7-.2-5.4.7s-2.8,2.5-3.2,4.3l-2.6,9.9c-.5,2-1.8,3.7-3.6,4.8-1.2.7-2.6,1.1-4,1.1ZM91-365.7c-.7,0-1.5.2-2.1.6-1,.6-1.7,1.5-2,2.6-1,3.7-1.9,7.3-2.9,11-.7,2.7-1.4,5.5-2.1,8.3l-.9,3.5-6.8,26.1c-.7,2.6.9,5.3,3.5,6l9.1,2.4c1.2.3,2.6.1,3.7-.5,1.1-.7,1.9-1.7,2.3-3l2.6-9.9c.7-2.6,2.3-4.8,4.6-6.1s5-1.7,7.6-1l.8.2c4.4,1.2,9.1.6,13.1-1.7,4-2.3,6.9-6,8.1-10.4,1.2-4.4.6-9-1.7-13.1-2.3-4-6-6.9-10.4-8.1h-.5c0,0-25-6.7-25-6.7-.4,0-.7-.1-1.1-.1ZM85.9-310.6c-.3,0-.6,0-.9-.1l-3.1-.8c-.8-.2-1.5-.7-2-1.5-.4-.8-.5-1.6-.3-2.5l7.1-27.3c.5-2.1,1.1-4.3,1.7-6.5.6-2.2,1.1-4.3,1.7-6.5.3-1.4,1.2-2.5,2.4-3.2,1.2-.7,2.6-.8,3.9-.4l19.2,4.9c.3,0,.7,0,1.2.3,3.1,1,5.7,3.1,7.2,6,1.6,2.9,1.9,6.3.9,9.5-.9,3.2-3.1,5.9-6,7.5-2.9,1.6-6.3,1.9-9.5.9l-4.9-1.3c-2.7-.7-5.5-.3-7.9,1.1-2.4,1.4-4.1,3.7-4.8,6.3l-2.9,11.1c-.2.8-.7,1.5-1.5,2-.5.3-1,.4-1.6.4ZM95-356.7c-.4,0-.7,0-1,.3-.5.3-.9.8-1,1.4-.6,2.2-1.1,4.3-1.7,6.5-.6,2.2-1.1,4.3-1.7,6.5l-.4,1.4-6.7,26c0,.1,0,.2.1.2l3.2.8c.1,0,.2,0,.2-.1l2.9-11.2c.9-3.4,3.1-6.4,6.2-8.2,3.1-1.8,6.7-2.3,10.2-1.4l5,1.3c2.5.8,5.1.5,7.3-.7,2.2-1.2,3.9-3.2,4.6-5.7h0c.7-2.5.5-5-.7-7.2-1.2-2.2-3.2-3.9-5.7-4.6l-.7-.2-19.4-5c-.2,0-.5-.1-.7-.1Z"/>
  </g>
  <g>
    <path class="cls-7" d="M24.6-305.2l-3.3-17.3c-1.4-7.4-8.6-12.3-16-10.9l-5.2,1c-1,.2-2.1.4-3.3.6-5.6.8-12.9.8-15.7-6.3-.4-1.1-.7-2.4-.9-3.9-.2-1.4-.2-2.7-.2-3.7.8-8.5,9.9-10.2,15.5-11.3l16.5-3.1c1.2-.2,2-1.4,1.7-2.6l-.5-2.6c-.2-1.3-1.5-2.1-2.7-1.9l-16.9,3.2c-8.5,1.6-13.4,3.6-17.4,7.6s-4.9,7.4-5.1,11.8h0v.5h0c0,1.6.1,2.8.2,3.6.2,1.1.3,1.6.4,2.1.2.8.5,1.5.7,2,4.3,12.8,17.5,12.6,25.8,11.4,1.6-.2,3.1-.5,4.2-.7l1.3-.2c.6,0,1.2-.2,1.9,0,3.6.2,6.6,2.8,7.2,6.3l3,16c.3,1.5,1.7,2.5,3.2,2.2l3.4-.6c1.5-.3,2.5-1.7,2.2-3.2Z"/>
    <path class="cls-8" d="M18.5-299.8c-2,0-3.7-1.4-4.1-3.5l-3-16c-.5-2.8-2.9-4.9-5.8-5.1h-.3c-.2-.1-.4,0-.7,0-.2,0-.4,0-.6,0l-1.8.3c-1,.2-2.3.4-3.7.6-14.7,2.1-23.9-2.1-27.4-12.4h0c-.2-.6-.5-1.3-.7-2.1-.1-.6-.2-1.1-.4-2.2-.2-1.2-.2-2.5-.2-3.9v-.5c.2-4.8,1.2-8.5,5.5-12.9,4.1-4.1,9.1-6.3,18.2-8l16.9-3.2c1-.2,2.1,0,2.9.7.8.6,1.4,1.5,1.5,2.5l.5,2.5c.2.9,0,1.9-.5,2.8-.6.8-1.4,1.4-2.4,1.6l-16.6,3.1c-5.3,1-13.4,2.6-14.1,9.9,0,1,0,2.2.2,3.4.2,1.4.5,2.6.8,3.6,1.9,4.8,6.2,6.4,14.1,5.3,1.1-.2,2.2-.4,3.2-.6l5.2-1c8.2-1.6,16.2,3.9,17.8,12.1l3.3,17.3c.4,2.3-1.1,4.5-3.4,5l-3.4.6c-.3,0-.5,0-.8,0ZM5.8-327.4c4.3.3,7.7,3.4,8.4,7.5l3,16c0,.3.3.6.5.8.2.1.5.3.9.2l3.4-.6c.7-.1,1.1-.8,1-1.4h0s-3.3-17.3-3.3-17.3c-1.2-6.6-7.6-11-14.2-9.7l-5.2,1c-1,.2-2.1.4-3.3.6-3.4.5-13.7,2-17.3-7.2-.4-1.2-.8-2.7-1-4.3-.2-1.5-.2-2.9-.2-3.9h0c.9-9.7,10.7-11.6,16.5-12.7h.2s16.5-3.1,16.5-3.1c.3,0,.4-.2.4-.3,0,0,.1-.3,0-.5l-.5-2.7c0-.3-.2-.4-.3-.5-.2-.1-.4-.2-.7-.2l-16.9,3.2c-8.5,1.6-13,3.5-16.6,7.2-3.7,3.7-4.5,6.6-4.7,10.8v.4c0,1.6.1,2.7.2,3.4.2,1,.3,1.5.4,2,.1.5.4,1.1.5,1.5v.2c3.1,8.9,11.2,12.4,24.3,10.5,1.3-.2,2.5-.4,3.5-.6l2.2-.3c.1,0,.3,0,.4,0,.4,0,1-.1,1.7,0Z"/>
  </g>
  <g>
    <path class="cls-5" d="M88.6-314H16.3c-7.1,0-12.9,5.8-12.9,12.9v30.4H-7.7c-5.3,0-9.6,4.3-9.6,9.6v23.2c0,5.3,4.3,9.6,9.6,9.6h99.8c5.7,0,10.3-4.6,10.3-10.3v-61.8c0-7.6-6.1-13.7-13.7-13.7h-.1Z"/>
    <path class="cls-8" d="M92.1-226.8H-7.7c-6.1,0-11.1-5-11.1-11.1v-23.2c0-6.1,5-11.1,11.1-11.1H1.9v-28.9c0-7.9,6.5-14.4,14.4-14.4h70.8c0-.1,1.6-.1,1.6-.1,8.4,0,15.2,6.8,15.2,15.2v61.8c0,6.5-5.3,11.8-11.8,11.8ZM-7.7-269.2c-4.5,0-8.1,3.6-8.1,8.1v23.2c0,4.5,3.6,8.1,8.1,8.1h99.8c4.9,0,8.8-3.9,8.8-8.8v-61.8c0-6.3-4.7-11.4-10.8-12.1h0s-73.8,0-73.8,0c-6.3,0-11.4,5.1-11.4,11.4v31.9H-7.7Z"/>
  </g>
  <g>
    <ellipse class="cls-10" cx="61.9" cy="-278.7" rx="15.7" ry="21.1"/>
    <path class="cls-8" d="M61.9-256.1c-9.5,0-17.2-10.1-17.2-22.6s7.7-22.6,17.2-22.6,17.2,10.1,17.2,22.6-7.7,22.6-17.2,22.6ZM61.9-298.3c-7.8,0-14.2,8.8-14.2,19.6s6.4,19.6,14.2,19.6,14.2-8.8,14.2-19.6-6.4-19.6-14.2-19.6Z"/>
  </g>
  <g>
    <ellipse class="cls-10" cx="25.4" cy="-279.1" rx="15.7" ry="20.7"/>
    <path class="cls-8" d="M25.4-256.9c-9.5,0-17.2-10-17.2-22.2s7.7-22.2,17.2-22.2,17.2,10,17.2,22.2-7.7,22.2-17.2,22.2ZM25.4-298.3c-7.8,0-14.2,8.6-14.2,19.2s6.4,19.2,14.2,19.2,14.2-8.6,14.2-19.2-6.4-19.2-14.2-19.2Z"/>
  </g>
  <ellipse class="cls-6" cx="-16.8" cy="-268" rx="6.2" ry="7.8"/>
  <g>
    <ellipse class="cls-2" cx="-19.7" cy="-270.6" rx="9.1" ry="10.7"/>
    <path class="cls-2" d="M-19.7-258.9c-5.6,0-10.1-5.2-10.1-11.7s4.5-11.7,10.1-11.7,10.1,5.2,10.1,11.7-4.5,11.7-10.1,11.7ZM-19.7-280.3c-4.5,0-8.1,4.4-8.1,9.7s3.6,9.7,8.1,9.7,8.1-4.4,8.1-9.7-3.6-9.7-8.1-9.7Z"/>
  </g>
  <ellipse class="cls-8" cx="21.4" cy="-286.3" rx="9.5" ry="12"/>
  <circle class="cls-10" cx="-22.2" cy="-274.3" r="2.7"/>
  <path class="cls-4" d="M-19.2-261.9c-.6,0-1.2-.4-1.4-1-.3-.8.2-1.6.9-1.9.4-.1,1.8-.7,2.9-2.1,1.1-1.5,1.1-3,1.1-3.5,0-.8.7-1.5,1.5-1.5s1.5.7,1.5,1.5c0,2-.6,3.8-1.7,5.3-1.6,2-3.6,2.9-4.3,3.1-.2,0-.3,0-.5,0Z"/>
  <ellipse class="cls-8" cx="57.4" cy="-286.3" rx="9.6" ry="12"/>
  <g>
    <path class="cls-12" d="M180.2-147.8c-8.2.1-15.1-1.5-15.1-1.5-3.8-.9-8.5-2.1-12.4-5.4-6.3-5.4-9.2-15.8-6.3-24.2,3.8-10.9,17.1-18.1,31.1-14.8,9.2,2.8,13.1,7.1,14.9,10.5,2.4,4.4,3,10.2,3.7,17.4.6,5.5.4,9.3,3.3,12.9,2,2.4,4.2,3.2,3.9,4.1-.4,1.3-23.1.9-23.3.9h.2Z"/>
    <path class="cls-8" d="M179.4-146.3c-7.9,0-14.4-1.5-14.7-1.5-3.5-.8-8.7-2.1-13-5.7-6.9-5.9-9.8-17-6.7-25.8,4.2-12.2,18.7-19.1,32.9-15.8,7.9,2.4,13.2,6.2,15.9,11.3,2.6,4.7,3.2,10.9,3.9,18,.1.9.2,1.8.3,2.7.3,3.9.6,6.8,2.7,9.4.8,1,1.7,1.7,2.4,2.2,1.1.9,2.3,1.8,1.8,3.3-.4,1.2-.7,2.2-20.5,2h-4c-.3,0-.5,0-.8,0ZM175.8-149.4h4.3c9.3.1,16.9,0,20.4-.3-.7-.6-1.5-1.3-2.3-2.3-2.7-3.4-3-6.7-3.4-11,0-.8-.2-1.7-.3-2.7-.7-6.8-1.2-12.6-3.5-16.8-2.3-4.4-7-7.7-14-9.8-12.6-3-25.5,3.1-29.2,13.9-2.7,7.7-.1,17.4,5.9,22.6,3.5,2.9,7.5,4.1,11.8,5.1,0,0,4.5,1,10.4,1.4Z"/>
  </g>
  <g>
    <path class="cls-3" d="M348.6-234.4h-.6l-25-6.6c-3-.8-6.2,1-7,4.1-1.7,6.4-3.3,12.8-5,19.3h0l-.9,3.5h0l-6.8,26.1c-.9,3.4,1.2,6.9,4.6,7.8l9.1,2.4c3.4.9,6.9-1.2,7.8-4.6l2.6-9.9c1.2-4.6,5.8-7.3,10.4-6.1l.8.2c9.9,2.7,20.3-3.2,23-13.1s-3.2-20.3-13.1-23h0,0ZM354.1-213.1c-1.7,5.8-7.8,9.2-13.7,7.4l-5-1.3c-6.4-1.7-12.9,2.2-14.5,8.5l-2.9,11.1c-.2.9-1.2,1.5-2.1,1.2l-3.1-.8c-.9-.2-1.5-1.2-1.2-2.1l6-23.2h0l.7-2.7.4-1.4h0c1.1-4.3,2.3-8.7,3.4-13,.5-2,2.5-3.2,4.5-2.6l19.4,5c.2,0,.5,0,.7.2,5.8,1.7,9.2,7.8,7.4,13.7h0Z"/>
    <path class="cls-8" d="M318.6-176.1c-.7,0-1.3,0-2-.3l-9.1-2.4c-2-.5-3.7-1.8-4.8-3.6-1.1-1.8-1.4-4-.8-6l7.7-29.6c.7-2.8,1.4-5.5,2.1-8.3.9-3.7,1.9-7.4,2.9-11,.5-1.9,1.7-3.4,3.3-4.4,1.7-1,3.6-1.3,5.5-.8l24.8,6.5h1.9v.5c4.6,1.6,8.5,4.8,11,9.1,2.7,4.7,3.4,10.2,2,15.3-2.9,10.7-14.1,17.1-24.8,14.2l-.8-.2c-3.8-1-7.6,1.2-8.6,5l-2.6,9.9c-.9,3.6-4.2,5.9-7.6,5.9ZM321.5-239.7c-.7,0-1.5.2-2.1.6-1,.6-1.7,1.5-2,2.6-1,3.7-1.9,7.3-2.9,11-.7,2.7-1.4,5.5-2.1,8.3l-.9,3.5-6.8,26.1c-.3,1.3-.1,2.6.5,3.7.7,1.1,1.7,1.9,3,2.3l9.1,2.4c2.6.7,5.3-.9,6-3.5l2.6-9.9c1.4-5.4,6.8-8.6,12.2-7.2l.8.2c9.2,2.5,18.7-2.9,21.2-12,1.2-4.4.6-9-1.7-13.1-2.3-4-6-6.9-10.4-8.1h-.5c0,0-25-6.7-25-6.7-.4,0-.7-.1-1.1-.1ZM316.4-184.7c-.3,0-.6,0-.9-.1l-3.1-.8c-.8-.2-1.5-.7-2-1.5-.4-.8-.5-1.6-.3-2.5l7.1-27.3c.5-2.1,1.1-4.3,1.7-6.5.6-2.2,1.1-4.3,1.7-6.5.3-1.4,1.2-2.5,2.4-3.2,1.2-.7,2.6-.8,3.9-.4l19.2,4.9c.3,0,.7,0,1.2.3,3.1,1,5.7,3.1,7.2,6,1.6,2.9,1.9,6.3.9,9.5-.9,3.2-3.1,5.9-6,7.5-2.9,1.6-6.3,1.9-9.5.9l-4.9-1.3c-2.7-.7-5.5-.3-7.9,1.1-2.4,1.4-4.1,3.7-4.8,6.3l-2.9,11.1c-.2.8-.7,1.5-1.5,2-.5.3-1,.4-1.6.4ZM325.5-230.7c-.4,0-.7,0-1,.3-.5.3-.9.8-1,1.4-.6,2.2-1.1,4.3-1.7,6.5-.6,2.2-1.1,4.3-1.7,6.5l-.4,1.4-6.7,26c0,.1,0,.2.1.2l3.2.8c.1,0,.2,0,.2-.1l2.9-11.2c.9-3.4,3.1-6.4,6.2-8.2,3.1-1.8,6.7-2.3,10.2-1.4l5,1.3c2.5.8,5.1.5,7.3-.7,2.2-1.2,3.9-3.2,4.6-5.7h0c.7-2.5.5-5-.7-7.2-1.2-2.2-3.2-3.9-5.7-4.6l-.7-.2-19.4-5c-.2,0-.5-.1-.7-.1Z"/>
  </g>
  <g>
    <path class="cls-7" d="M255.1-179.2l-3.3-17.3c-1.4-7.4-8.6-12.3-16-10.9l-5.2,1c-1,.2-2.1.4-3.3.6-5.6.8-12.9.8-15.7-6.3-.4-1.1-.7-2.4-.9-3.9-.2-1.4-.2-2.7-.2-3.7.8-8.5,9.9-10.2,15.5-11.3l16.5-3.1c1.2-.2,2-1.4,1.7-2.6l-.5-2.6c-.2-1.3-1.5-2.1-2.7-1.9l-16.9,3.2c-8.5,1.6-13.4,3.6-17.4,7.6s-4.9,7.4-5.1,11.8h0v.5h0c0,1.6.1,2.8.2,3.6.2,1.1.3,1.6.4,2.1.2.8.5,1.5.7,2,4.3,12.8,17.5,12.6,25.8,11.4,1.6-.2,3.1-.5,4.2-.7l1.3-.2c.6,0,1.2-.2,1.9,0,3.6.2,6.6,2.8,7.2,6.3l3,16c.3,1.5,1.7,2.5,3.2,2.2l3.4-.6c1.5-.3,2.5-1.7,2.2-3.2Z"/>
    <path class="cls-8" d="M249-173.9c-.8,0-1.7-.3-2.4-.8-.9-.6-1.5-1.6-1.8-2.7l-3-16c-.5-2.8-2.9-4.9-5.8-5.1h-.3c-.2-.1-.4,0-.7,0-.2,0-.4,0-.6,0l-1.8.3c-1,.2-2.3.4-3.7.6-14.7,2.1-23.9-2.1-27.4-12.4h0c-.2-.6-.5-1.3-.7-2.1-.1-.6-.2-1.1-.4-2.2-.2-1.2-.2-2.5-.2-3.9v-.5c.2-4.8,1.2-8.5,5.5-12.9,4.1-4.1,9.1-6.3,18.2-8l16.9-3.2c1-.2,2.1,0,2.9.7.8.6,1.4,1.5,1.5,2.5l.5,2.5c.2.9,0,1.9-.5,2.8s-1.4,1.4-2.4,1.6l-16.6,3.1c-5.3,1-13.4,2.6-14.1,9.9,0,1,0,2.2.2,3.4.2,1.4.5,2.6.8,3.6,1.9,4.8,6.2,6.4,14.1,5.3,1.1-.2,2.2-.4,3.2-.6l5.2-1c4-.8,8,0,11.4,2.4,3.4,2.3,5.6,5.7,6.4,9.7l3.3,17.3c.2,1.1,0,2.3-.7,3.2-.6.9-1.6,1.5-2.7,1.8l-3.4.6c-.3,0-.5,0-.8,0ZM236.3-201.4c4.3.3,7.7,3.4,8.4,7.5l3,16c0,.3.3.6.5.8.2.1.5.3.9.2l3.4-.6c.3,0,.6-.3.8-.5.1-.2.3-.5.2-.9h0s-3.3-17.3-3.3-17.3c-.6-3.2-2.4-6-5.1-7.8-2.7-1.8-5.9-2.5-9.1-1.9l-5.2,1c-1,.2-2.1.4-3.3.6-3.4.5-13.7,2-17.3-7.2-.4-1.2-.8-2.7-1-4.3-.2-1.5-.2-2.9-.2-3.9h0c.9-9.7,10.7-11.6,16.5-12.7h.2s16.5-3.1,16.5-3.1c.3,0,.4-.2.4-.3,0,0,.1-.3,0-.5l-.5-2.7c0-.3-.2-.4-.3-.5-.2-.1-.4-.2-.7-.2l-16.9,3.2c-8.5,1.6-13,3.5-16.6,7.2-3.7,3.7-4.5,6.6-4.7,10.8v.4c0,1.6.1,2.7.2,3.4.2,1,.3,1.5.4,2,.1.5.4,1.1.5,1.5v.2c3.1,8.9,11.2,12.4,24.3,10.5,1.3-.2,2.5-.4,3.5-.6l2.2-.3c.1,0,.3,0,.4,0,.4,0,1-.1,1.7,0Z"/>
  </g>
  <g>
    <path class="cls-5" d="M319.1-188h-72.3c-7.1,0-12.9,5.8-12.9,12.9v30.4h-11.1c-5.3,0-9.6,4.3-9.6,9.6v23.2c0,5.3,4.3,9.6,9.6,9.6h99.8c5.7,0,10.3-4.6,10.3-10.3v-61.8c0-7.6-6.1-13.7-13.7-13.7h-.1Z"/>
    <path class="cls-8" d="M322.6-100.8h-99.8c-6.1,0-11.1-5-11.1-11.1v-23.2c0-6.1,5-11.1,11.1-11.1h9.6v-28.9c0-7.9,6.5-14.4,14.4-14.4h70.8c0,0,1.6,0,1.6,0,8.4,0,15.2,6.8,15.2,15.2v61.8c0,6.5-5.3,11.8-11.8,11.8ZM222.8-143.2c-4.5,0-8.1,3.6-8.1,8.1v23.2c0,4.5,3.6,8.1,8.1,8.1h99.8c4.9,0,8.8-3.9,8.8-8.8v-61.8c0-6.4-5-11.7-11.3-12.2h-1c0,0-72.3,0-72.3,0-6.3,0-11.4,5.1-11.4,11.4v31.9h-12.6Z"/>
  </g>
  <g>
    <ellipse class="cls-5" cx="292.4" cy="-152.7" rx="15.7" ry="21.1"/>
    <path class="cls-8" d="M292.4-130.1c-9.5,0-17.2-10.1-17.2-22.6s7.7-22.6,17.2-22.6,17.2,10.1,17.2,22.6-7.7,22.6-17.2,22.6ZM292.4-172.3c-7.8,0-14.2,8.8-14.2,19.6s6.4,19.6,14.2,19.6,14.2-8.8,14.2-19.6-6.4-19.6-14.2-19.6Z"/>
  </g>
  <g>
    <ellipse class="cls-5" cx="255.9" cy="-153.1" rx="15.7" ry="20.7"/>
    <path class="cls-8" d="M255.9-130.9c-9.5,0-17.2-10-17.2-22.2s7.7-22.2,17.2-22.2,17.2,10,17.2,22.2-7.7,22.2-17.2,22.2ZM255.9-172.3c-7.8,0-14.2,8.6-14.2,19.2s6.4,19.2,14.2,19.2,14.2-8.6,14.2-19.2-6.4-19.2-14.2-19.2Z"/>
  </g>
  <ellipse class="cls-6" cx="213.7" cy="-142" rx="6.2" ry="7.8"/>
  <g>
    <ellipse class="cls-2" cx="210.8" cy="-144.6" rx="9.1" ry="10.7"/>
    <path class="cls-2" d="M210.8-132.9c-5.6,0-10.1-5.2-10.1-11.7s4.5-11.7,10.1-11.7,10.1,5.2,10.1,11.7-4.5,11.7-10.1,11.7ZM210.8-154.3c-4.5,0-8.1,4.4-8.1,9.7s3.6,9.7,8.1,9.7,8.1-4.4,8.1-9.7-3.6-9.7-8.1-9.7Z"/>
  </g>
  <circle class="cls-10" cx="208.3" cy="-148.3" r="2.7"/>
  <path class="cls-4" d="M211.3-135.9c-.6,0-1.2-.4-1.4-1-.3-.8.2-1.6,1-1.9.4-.1,1.8-.7,2.9-2.1,1.1-1.5,1.1-3,1.1-3.5,0-.8.7-1.5,1.5-1.5s1.5.7,1.5,1.5c0,2-.6,3.8-1.7,5.3-1.6,2.1-3.6,2.9-4.3,3.1-.2,0-.3,0-.5,0Z"/>
  <rect class="cls-8" x="240.2" y="-154.2" width="31.4" height="3"/>
  <rect class="cls-8" x="276.7" y="-154.2" width="31.4" height="3"/>
  <g>
    <path class="cls-1" d="M69.3-240.3c-.5,2.8-3,4.8-6,4.8-2.9,0-5.4-2-5.9-4.8,0-5.2,5.8-15.7,5.9-15.7s6,10.5,6,15.7Z"/>
    <path class="cls-8" d="M63.3-234h0c-3.7,0-6.8-2.6-7.4-6v-.3c0-2.4,1-5.9,3-10.4,3-6.8,3.4-6.8,4.3-6.8s1.3,0,4.4,6.8c2.1,4.5,3.1,8.1,3.1,10.5v.3c-.6,3.4-3.8,6-7.4,6ZM58.9-240.4c.4,1.9,2.3,3.4,4.4,3.4h0c2.2,0,4-1.5,4.4-3.4,0-3.3-2.8-9.1-4.5-12.4-1.7,3.3-4.3,9.2-4.4,12.4Z"/>
  </g>
  <g>
    <path class="cls-3" d="M-81.1-258.9h-.6l-25-6.6c-3-.8-6.2,1-7,4.1-1.7,6.4-3.3,12.8-5,19.3h0l-.9,3.5h0l-6.8,26.1c-.9,3.4,1.2,6.9,4.6,7.8l9.1,2.4c3.4.9,6.9-1.2,7.8-4.6l2.6-9.9c1.2-4.6,5.8-7.3,10.4-6.1l.8.2c9.9,2.7,20.3-3.2,23-13.1s-3.2-20.3-13.1-23h0,0ZM-75.6-237.6c-1.7,5.8-7.8,9.2-13.7,7.4l-5-1.3c-6.4-1.7-12.9,2.2-14.5,8.5l-2.9,11.1c-.2.9-1.2,1.5-2.1,1.2l-3.1-.8c-.9-.2-1.5-1.2-1.2-2.1l6-23.2h0l.7-2.7.4-1.4h0c1.1-4.3,2.3-8.7,3.4-13,.5-2,2.5-3.2,4.5-2.6l19.4,5c.2,0,.5,0,.7.2,5.8,1.7,9.2,7.8,7.4,13.7h0Z"/>
    <path class="cls-8" d="M-111.1-200.6c-.7,0-1.3,0-2-.3l-9.1-2.4c-4.2-1.1-6.8-5.4-5.7-9.6l7.7-29.6c.7-2.8,1.4-5.5,2.1-8.2,1-3.7,1.9-7.4,2.9-11.1.5-1.9,1.7-3.4,3.3-4.4,1.7-1,3.6-1.3,5.5-.8l24.8,6.5h1.9v.5c4.6,1.6,8.5,4.8,11,9.1,2.7,4.7,3.4,10.2,2,15.3-2.9,10.7-14.1,17.1-24.8,14.2l-.8-.2c-1.9-.5-3.7-.2-5.4.7-1.6.9-2.8,2.5-3.2,4.3l-2.6,9.9c-.5,2-1.8,3.7-3.6,4.8-1.2.7-2.6,1.1-4,1.1ZM-108.1-264.2c-.7,0-1.5.2-2.1.6-1,.6-1.7,1.5-2,2.6-1,3.7-1.9,7.4-2.9,11.1-.7,2.7-1.4,5.5-2.1,8.2l-.9,3.5-6.8,26.1c-.7,2.6.9,5.3,3.5,6l9.1,2.4c2.6.7,5.3-.9,6-3.5l2.6-9.9c.7-2.6,2.3-4.8,4.6-6.1,2.3-1.3,5-1.7,7.6-1l.8.2c9.2,2.5,18.7-2.9,21.2-12,1.2-4.4.6-9-1.7-13.1-2.3-4-6-6.9-10.4-8.1h-.5c0,0-25-6.7-25-6.7-.4,0-.7-.1-1.1-.1ZM-113.3-209.1c-.3,0-.6,0-.9-.1l-3.1-.8c-.8-.2-1.5-.7-2-1.5-.4-.8-.5-1.6-.3-2.5l7.1-27.3c.5-2.1,1.1-4.3,1.7-6.5.6-2.2,1.1-4.3,1.7-6.5.3-1.4,1.2-2.5,2.4-3.2,1.2-.7,2.6-.8,3.9-.4l19.2,4.9c.3,0,.7,0,1.2.3,3.1,1,5.7,3.1,7.2,6,1.6,2.9,1.9,6.3.9,9.5h0c-.9,3.2-3.1,5.9-6,7.5-2.9,1.6-6.3,1.9-9.5.9l-4.9-1.3c-2.7-.7-5.5-.3-7.9,1.1-2.4,1.4-4.1,3.7-4.8,6.3l-2.9,11.1c-.2.8-.7,1.5-1.5,2-.5.3-1,.4-1.6.4ZM-104.1-255.1c-.4,0-.7,0-1,.3-.5.3-.9.8-1,1.4-.6,2.2-1.1,4.3-1.7,6.5-.6,2.2-1.1,4.3-1.7,6.5l-.4,1.4-6.7,26c0,.1,0,.2.1.2l3.2.8c.1,0,.2,0,.2-.1l2.9-11.2c.9-3.4,3.1-6.4,6.2-8.2,3.1-1.8,6.7-2.3,10.2-1.4l5,1.3c2.5.8,5.1.5,7.3-.7,2.2-1.2,3.9-3.2,4.6-5.7h0c.7-2.5.5-5-.7-7.2-1.2-2.2-3.2-3.9-5.7-4.6l-.7-.2-19.4-5c-.2,0-.5-.1-.7-.1Z"/>
  </g>
  <g>
    <path class="cls-7" d="M-174.6-203.7l-3.3-17.3c-1.4-7.4-8.6-12.3-16-10.9l-5.2,1c-1,.2-2.1.4-3.3.6-5.6.8-12.9.8-15.7-6.3-.4-1.1-.7-2.4-.9-3.9-.2-1.4-.2-2.7-.2-3.7.8-8.5,9.9-10.2,15.5-11.3l16.5-3.1c1.2-.2,2-1.4,1.7-2.6l-.5-2.6c-.2-1.3-1.5-2.1-2.7-1.9l-16.9,3.2c-8.5,1.6-13.4,3.6-17.4,7.6s-4.9,7.4-5.1,11.8h0v.5h0c0,1.6.1,2.8.2,3.6.2,1.1.3,1.6.4,2.1.2.8.5,1.5.7,2,4.3,12.8,17.5,12.6,25.8,11.4,1.6-.2,3.1-.5,4.2-.7l1.3-.2c.6,0,1.2-.2,1.9,0,3.6.2,6.6,2.8,7.2,6.3l3,16c.3,1.5,1.7,2.5,3.2,2.2l3.4-.6c1.5-.3,2.5-1.7,2.2-3.2Z"/>
    <path class="cls-8" d="M-180.7-198.3c-2,0-3.7-1.4-4.1-3.5l-3-16c-.5-2.8-2.9-4.9-5.8-5.1h-.3c-.2-.1-.4,0-.7,0-.2,0-.4,0-.6,0l-1.8.3c-1,.2-2.3.4-3.7.6-14.7,2.1-23.9-2-27.4-12.4h0c-.2-.6-.5-1.3-.7-2.1h0c0-.6-.2-1.1-.4-2.2-.2-1.2-.2-2.5-.2-3.9v-.5c.2-4.8,1.2-8.5,5.5-12.9,4.1-4.1,9.1-6.3,18.2-8l16.9-3.2c1-.2,2.1,0,2.9.7.8.6,1.4,1.5,1.5,2.5l.5,2.5c.2.9,0,1.9-.5,2.8-.6.8-1.4,1.4-2.4,1.6l-16.6,3.1c-5.3,1-13.4,2.6-14.1,9.9,0,1,0,2.2.2,3.4.2,1.4.5,2.6.8,3.6,1.9,4.8,6.2,6.4,14.1,5.3,1.1-.2,2.2-.4,3.2-.6l5.2-1c4-.8,8,0,11.4,2.4,3.4,2.3,5.6,5.7,6.4,9.7l3.3,17.3c.2,1.1,0,2.3-.7,3.2-.6.9-1.6,1.5-2.7,1.8l-3.4.6c-.3,0-.5,0-.8,0ZM-193.3-225.9c4.3.3,7.7,3.4,8.4,7.5l3,16c.1.7.8,1.1,1.4,1l3.4-.6c.3,0,.6-.3.8-.5.1-.2.3-.5.2-.9h0s-3.3-17.3-3.3-17.3c-1.2-6.6-7.6-11-14.2-9.7l-5.2,1c-1,.2-2.1.4-3.3.6-3.4.5-13.7,2-17.3-7.2-.4-1.2-.8-2.6-1-4.3-.2-1.5-.2-2.9-.2-3.9h0c.9-9.7,10.7-11.6,16.5-12.7h.2s16.5-3.1,16.5-3.1c.3,0,.4-.2.4-.3s.1-.3,0-.5l-.5-2.7c0-.3-.2-.4-.3-.5-.2-.1-.4-.2-.7-.2l-16.9,3.2c-8.5,1.6-13,3.5-16.6,7.2s-4.5,6.6-4.7,10.8v.4c0,1.6.1,2.7.2,3.4.2,1,.3,1.5.4,2,.1.6.4,1.1.6,1.6v.2c3.1,8.9,11.2,12.4,24.3,10.5,1.3-.2,2.5-.4,3.5-.6l2.2-.3c.1,0,.3,0,.4,0,.4,0,1-.1,1.7,0Z"/>
  </g>
  <g>
    <path class="cls-5" d="M-110.6-212.5h-72.3c-7.1,0-12.9,5.8-12.9,12.9v30.4h-11.1c-5.3,0-9.6,4.3-9.6,9.6v23.2c0,5.3,4.3,9.6,9.6,9.6h99.8c5.7,0,10.3-4.6,10.3-10.3v-61.8c0-7.6-6.1-13.7-13.7-13.7h-.1Z"/>
    <path class="cls-8" d="M-107.1-125.3h-99.8c-6.1,0-11.1-5-11.1-11.1v-23.2c0-6.1,5-11.1,11.1-11.1h9.6v-28.9c0-7.9,6.5-14.4,14.4-14.4h70.8c0-.1,1.5-.1,1.5-.1,8.5,0,15.3,6.8,15.3,15.2v61.8c0,6.5-5.3,11.8-11.8,11.8ZM-206.9-167.7c-4.5,0-8.1,3.6-8.1,8.1v23.2c0,4.5,3.6,8.1,8.1,8.1h99.8c4.9,0,8.8-3.9,8.8-8.8v-61.8c0-6.3-4.7-11.4-10.8-12.1h0s-73.8,0-73.8,0c-6.3,0-11.4,5.1-11.4,11.4v31.9h-12.6Z"/>
  </g>
  <g>
    <ellipse class="cls-10" cx="-173.8" cy="-177.6" rx="15.7" ry="20.7"/>
    <path class="cls-8" d="M-173.8-155.4c-9.5,0-17.2-10-17.2-22.2s7.7-22.2,17.2-22.2,17.2,10,17.2,22.2-7.7,22.2-17.2,22.2ZM-173.8-196.8c-7.8,0-14.2,8.6-14.2,19.2s6.4,19.2,14.2,19.2,14.2-8.6,14.2-19.2-6.4-19.2-14.2-19.2Z"/>
  </g>
  <ellipse class="cls-6" cx="-216" cy="-166.5" rx="6.2" ry="7.8"/>
  <g>
    <ellipse class="cls-2" cx="-218.9" cy="-169.1" rx="9.1" ry="10.7"/>
    <path class="cls-2" d="M-218.9-157.4c-5.6,0-10.1-5.2-10.1-11.7s4.5-11.7,10.1-11.7,10.1,5.2,10.1,11.7-4.5,11.7-10.1,11.7ZM-218.9-178.8c-4.5,0-8.1,4.4-8.1,9.7s3.6,9.7,8.1,9.7,8.1-4.4,8.1-9.7-3.6-9.7-8.1-9.7Z"/>
  </g>
  <ellipse class="cls-8" cx="-168.3" cy="-175.5" rx="9.5" ry="12"/>
  <circle class="cls-10" cx="-221.4" cy="-172.8" r="2.7"/>
  <path class="cls-4" d="M-218.4-160.4c-.6,0-1.2-.4-1.4-1-.3-.8.2-1.6.9-1.9.4-.1,1.8-.7,2.9-2.1,1.1-1.5,1.1-3,1.1-3.5,0-.8.7-1.5,1.5-1.5s1.5.7,1.5,1.5c0,2-.6,3.8-1.7,5.3-1.6,2-3.6,2.9-4.3,3.1-.2,0-.3,0-.5,0Z"/>
  <path class="cls-8" d="M-149.9-170.5c-.4,0-.8-.2-1.1-.5-.6-.6-.5-1.6,0-2.1,1.4-1.4,6.7-5.8,14.9-6,8.7-.2,14.5,4.5,16,6,.6.6.6,1.5,0,2.1-.6.6-1.5.6-2.1,0-1.3-1.3-6.2-5.4-13.9-5.2-7.1.2-11.6,4-12.9,5.2-.3.3-.7.4-1,.4Z"/>
  <g>
    <g>
      <circle class="cls-5" cx="607.9" cy="176.3" r="14.1"/>
      <path class="cls-8" d="M607.9,191.9c-8.6,0-15.6-7-15.6-15.6s7-15.6,15.6-15.6,15.6,7,15.6,15.6-7,15.6-15.6,15.6ZM607.9,163.7c-6.9,0-12.6,5.7-12.6,12.6s5.7,12.6,12.6,12.6,12.6-5.7,12.6-12.6-5.7-12.6-12.6-12.6Z"/>
    </g>
    <g>
      <path class="cls-5" d="M533,146.7l-10.7,20.8c-.4.8,0,1.7.8,2.1l9.6,4.9c.7.4,1.5.1,1.9-.5l11-21.3"/>
      <path class="cls-8" d="M533.3,176.3c-.5,0-1-.1-1.4-.3l-9.6-4.9c-1.6-.8-2.2-2.7-1.4-4.2l10.7-20.8c.4-.7,1.3-1,2-.6.7.4,1,1.3.6,2l-10.7,20.8s0,0,.1.1l9.5,4.9,10.9-21.2c.4-.7,1.3-1,2-.6.7.4,1,1.3.6,2l-11,21.3c-.3.7-1,1.2-1.7,1.4-.2,0-.5.1-.8.1Z"/>
    </g>
    <g>
      <path class="cls-5" d="M521.1,190.4h69.2c5.4,0,9.7-4.4,9.7-9.7v-40.8h-65.8v34.3h-13.8"/>
      <path class="cls-8" d="M590.3,191.9h-69.2v-3h69.2c4.5,0,8.2-3.7,8.2-8.2v-39.3h-62.8v34.3h-15.3v-3h12.3v-34.3h68.8v42.3c0,6.2-5,11.2-11.2,11.2Z"/>
    </g>
    <g>
      <path class="cls-5" d="M599.6,148.2l10.7,20.8c.4.8,0,1.7-.8,2.1l-9.6,4.9c-.7.4-1.5.1-1.9-.5l-11-21.3"/>
      <path class="cls-8" d="M599.2,177.7c-1,0-2-.5-2.5-1.5l-11-21.3c-.4-.7,0-1.6.6-2,.7-.4,1.6,0,2,.6l10.9,21.1,9.5-4.9c.1,0,.1-.1.1-.1l-10.7-20.7c-.4-.7,0-1.6.6-2,.7-.4,1.6,0,2,.6l10.7,20.8c.4.7.4,1.6.1,2.4-.3.8-.8,1.4-1.6,1.8l-9.6,4.9c-.4.2-.9.3-1.4.3Z"/>
    </g>
    <g>
      <path class="cls-3" d="M638.2,13.9h-.6l-25-6.6c-3-.8-6.2,1-7,4.1-1.7,6.4-3.3,12.8-5,19.3h0l-.9,3.5h0l-6.8,26.1c-.9,3.4,1.2,6.9,4.6,7.8l9.1,2.4c3.4.9,6.9-1.2,7.8-4.6l2.6-9.9c1.2-4.6,5.8-7.3,10.4-6.1l.8.2c9.9,2.7,20.3-3.2,23-13.1s-3.2-20.3-13.1-23h.1ZM643.7,35.2c-1.7,5.8-7.8,9.2-13.7,7.4l-5-1.3c-6.4-1.7-12.9,2.2-14.5,8.5l-2.9,11.1c-.2.9-1.2,1.5-2.1,1.2l-3.1-.8c-.9-.2-1.5-1.2-1.2-2.1l6-23.2h0l.7-2.7.4-1.4h0c1.1-4.3,2.3-8.7,3.4-13,.5-2,2.5-3.2,4.5-2.6l19.4,5c.2,0,.5,0,.7.2,5.8,1.7,9.2,7.8,7.4,13.7Z"/>
      <path class="cls-8" d="M608.2,72.2c-.7,0-1.3,0-2-.3l-9.1-2.4c-4.2-1.1-6.8-5.4-5.7-9.6l7.7-29.6c.7-2.8,1.4-5.5,2.1-8.3.9-3.7,1.9-7.4,2.9-11,.5-1.9,1.7-3.4,3.3-4.4,1.7-1,3.6-1.3,5.5-.8l24.8,6.5h1.9v.5c10,3.4,15.8,14.1,12.9,24.5-1.4,5.2-4.8,9.5-9.5,12.2-4.7,2.7-10.2,3.4-15.3,2l-.8-.2c-3.8-1-7.6,1.2-8.6,5l-2.6,9.9c-.5,2-1.8,3.7-3.6,4.8-1.2.7-2.6,1.1-4,1.1ZM611.2,8.6c-.7,0-1.5.2-2.1.6-1,.6-1.7,1.5-2,2.6-1,3.7-1.9,7.3-2.9,11-.7,2.7-1.4,5.5-2.1,8.3l-.9,3.5-6.8,26.1c-.7,2.6.9,5.3,3.5,6l9.1,2.4c1.2.3,2.6.1,3.7-.5,1.1-.7,1.9-1.7,2.3-3l2.6-9.9c1.4-5.4,6.8-8.6,12.2-7.2l.8.2c4.4,1.2,9.1.6,13.1-1.7,4-2.3,6.9-6,8.1-10.4,2.5-9.2-2.9-18.7-12-21.2h-.5c0,0-25-6.7-25-6.7-.4,0-.7-.1-1.1-.1ZM606,63.6c-.3,0-.6,0-.9-.1l-3.1-.8c-.8-.2-1.5-.7-2-1.5-.4-.8-.5-1.6-.3-2.5l7.1-27.3c.5-2.1,1.1-4.3,1.7-6.5.6-2.2,1.1-4.3,1.7-6.5.3-1.4,1.2-2.5,2.4-3.2,1.2-.7,2.6-.8,3.9-.4l19.2,4.9c.3,0,.7,0,1.2.3,3.1,1,5.7,3.1,7.2,6,1.6,2.9,1.9,6.3.9,9.5-.9,3.2-3.1,5.9-6,7.5-2.9,1.6-6.3,1.9-9.5.9l-4.9-1.3c-2.7-.7-5.5-.3-7.9,1.1-2.4,1.4-4.1,3.7-4.8,6.3l-2.9,11.1c-.2.8-.7,1.5-1.5,2-.5.3-1,.4-1.6.4ZM615.2,17.6c-.4,0-.7,0-1,.3-.5.3-.9.8-1,1.4-.5,2.1-1.1,4.3-1.7,6.5-.6,2.2-1.2,4.4-1.7,6.5l-.4,1.4-6.7,26c0,.1,0,.2.1.2l3.2.8c.1,0,.2,0,.2-.1l2.9-11.2c.9-3.4,3.1-6.4,6.2-8.2,3.1-1.8,6.7-2.3,10.2-1.4l5,1.3c2.5.8,5.1.5,7.3-.7,2.2-1.2,3.9-3.2,4.6-5.7h0c.7-2.5.5-5-.7-7.2-1.2-2.2-3.2-3.9-5.7-4.6l-.7-.2-19.4-5c-.2,0-.5-.1-.7-.1Z"/>
    </g>
    <g>
      <path class="cls-7" d="M544.7,69.1l-3.3-17.3c-1.4-7.4-8.6-12.3-16-10.9l-5.2,1c-1,.2-2.1.4-3.3.6-5.6.8-12.9.8-15.7-6.3-.4-1.1-.7-2.4-.9-3.9-.2-1.4-.2-2.7-.2-3.7.8-8.5,9.9-10.2,15.5-11.3l16.5-3.1c1.2-.2,2-1.4,1.7-2.6l-.5-2.6c-.2-1.3-1.5-2.1-2.7-1.9l-16.9,3.2c-8.5,1.6-13.4,3.6-17.4,7.6-4,4-4.9,7.4-5.1,11.8h0v.5h0c0,1.6.1,2.8.2,3.6.2,1.1.3,1.6.4,2.1.2.8.5,1.5.7,2,4.3,12.8,17.5,12.6,25.8,11.4,1.6-.2,3.1-.5,4.2-.7l1.3-.2c.6,0,1.2-.2,1.9,0,3.6.2,6.6,2.8,7.2,6.3l3,16c.3,1.5,1.7,2.5,3.2,2.2l3.4-.6c1.5-.3,2.5-1.7,2.2-3.2Z"/>
      <path class="cls-8" d="M538.6,74.4c-2,0-3.7-1.4-4.1-3.5l-3-16c-.5-2.8-2.9-4.9-5.8-5.1h-.3c-.2-.1-.4,0-.7,0-.2,0-.4,0-.6,0l-1.8.3c-1,.2-2.3.4-3.7.6-14.7,2.1-23.9-2-27.4-12.4h0c-.2-.6-.5-1.3-.7-2.1h0c0-.6-.2-1.1-.4-2.2-.2-1.2-.2-2.5-.2-3.9v-.5c.2-4.8,1.2-8.5,5.5-12.9,4.1-4.1,9.1-6.3,18.2-8l16.9-3.2c1-.2,2.1,0,2.9.7.8.6,1.4,1.5,1.5,2.5l.5,2.5c.2.9,0,1.9-.5,2.8s-1.4,1.4-2.4,1.6l-16.6,3.1c-5.3,1-13.4,2.6-14.1,9.9,0,1,0,2.2.2,3.4.2,1.4.5,2.6.8,3.6,1.9,4.8,6.2,6.5,14.1,5.3,1.1-.2,2.2-.4,3.2-.6l5.2-1c4-.8,8,0,11.4,2.4,3.4,2.3,5.6,5.7,6.4,9.7l3.3,17.3c.4,2.3-1.1,4.5-3.4,5l-3.4.6c-.3,0-.5,0-.8,0ZM525.9,46.9c4.3.3,7.7,3.4,8.4,7.5l3,16c.1.7.8,1.1,1.4,1l3.4-.6c.7-.1,1.1-.8,1-1.4h0s-3.3-17.3-3.3-17.3c-.6-3.2-2.4-6-5.1-7.8-2.7-1.8-5.9-2.5-9.1-1.9l-5.2,1c-1,.2-2.1.4-3.3.6-3.4.5-13.7,2-17.3-7.2-.4-1.2-.8-2.7-1-4.3-.2-1.5-.2-2.9-.2-3.9h0c.9-9.7,10.7-11.6,16.5-12.7h.2s16.5-3.1,16.5-3.1c.3,0,.4-.2.4-.3,0,0,.1-.3,0-.5l-.5-2.7c0-.3-.2-.4-.3-.5-.2-.1-.4-.2-.7-.2l-16.9,3.2c-8.5,1.6-13,3.5-16.6,7.2s-4.5,6.6-4.7,10.8v.4c0,1.6.1,2.7.2,3.4.2,1,.3,1.4.4,1.9.1.6.4,1.2.6,1.6v.2c3.1,8.9,11.2,12.4,24.3,10.5,1.3-.2,2.5-.4,3.5-.6l2.2-.3c.1,0,.3,0,.4,0,.4,0,1-.1,1.7,0Z"/>
    </g>
    <g>
      <path class="cls-5" d="M608.7,60.3h-72.3c-7.1,0-12.9,5.8-12.9,12.9v30.4h-11.1c-5.3,0-9.6,4.3-9.6,9.6v23.2c0,5.3,4.3,9.6,9.6,9.6h99.8c5.7,0,10.3-4.6,10.3-10.3v-61.8c0-7.6-6.1-13.7-13.7-13.7h-.1Z"/>
      <path class="cls-8" d="M612.2,147.5h-99.8c-6.1,0-11.1-5-11.1-11.1v-23.2c0-6.1,5-11.1,11.1-11.1h9.6v-28.9c0-7.9,6.5-14.4,14.4-14.4h70.8c0-.1,1.5-.1,1.5-.1,8.5,0,15.3,6.8,15.3,15.2v61.8c0,6.5-5.3,11.8-11.8,11.8ZM512.4,105.1c-4.5,0-8.1,3.6-8.1,8.1v23.2c0,4.5,3.6,8.1,8.1,8.1h99.8c4.9,0,8.8-3.9,8.8-8.8v-61.8c0-6.3-4.7-11.4-10.8-12.1h0s-73.8,0-73.8,0c-6.3,0-11.4,5.1-11.4,11.4v31.9h-12.6Z"/>
    </g>
    <g>
      <ellipse class="cls-10" cx="582" cy="95.6" rx="15.7" ry="21.1"/>
      <path class="cls-8" d="M582,118.2c-9.5,0-17.2-10.1-17.2-22.6s7.7-22.6,17.2-22.6,17.2,10.1,17.2,22.6-7.7,22.6-17.2,22.6ZM582,76c-7.8,0-14.2,8.8-14.2,19.6s6.4,19.6,14.2,19.6,14.2-8.8,14.2-19.6-6.4-19.6-14.2-19.6Z"/>
    </g>
    <g>
      <ellipse class="cls-10" cx="545.5" cy="95.2" rx="15.7" ry="20.7"/>
      <path class="cls-8" d="M545.5,117.4c-9.5,0-17.2-10-17.2-22.2s7.7-22.2,17.2-22.2,17.2,10,17.2,22.2-7.7,22.2-17.2,22.2ZM545.5,76c-7.8,0-14.2,8.6-14.2,19.2s6.4,19.2,14.2,19.2,14.2-8.6,14.2-19.2-6.4-19.2-14.2-19.2Z"/>
    </g>
    <ellipse class="cls-6" cx="503.3" cy="106.3" rx="6.2" ry="7.8"/>
    <g>
      <ellipse class="cls-2" cx="500.4" cy="103.7" rx="9.1" ry="10.7"/>
      <path class="cls-2" d="M500.4,115.4c-5.6,0-10.1-5.2-10.1-11.7s4.5-11.7,10.1-11.7,10.1,5.2,10.1,11.7-4.5,11.7-10.1,11.7ZM500.4,94c-4.5,0-8.1,4.4-8.1,9.7s3.6,9.7,8.1,9.7,8.1-4.4,8.1-9.7-3.6-9.7-8.1-9.7Z"/>
    </g>
    <ellipse class="cls-8" cx="541.6" cy="89.7" rx="9.5" ry="12"/>
    <circle class="cls-10" cx="497.9" cy="100" r="2.7"/>
    <path class="cls-4" d="M500.9,112.4c-.6,0-1.2-.4-1.4-1-.3-.8.2-1.6.9-1.9.4-.1,1.8-.7,2.9-2.1,1.1-1.5,1.1-3,1.1-3.5,0-.8.7-1.5,1.5-1.5s1.5.7,1.5,1.5c0,2-.6,3.8-1.7,5.3-1.6,2-3.6,2.9-4.3,3.1-.2,0-.3,0-.5,0Z"/>
    <ellipse class="cls-8" cx="577.6" cy="89.7" rx="9.6" ry="12"/>
    <g>
      <path class="cls-5" d="M580,190.3h-17.6c-.6,0-1.2-.8-1.2-1.9v-12c0-.9.4-1.6,1-1.6h18.1"/>
      <path class="cls-8" d="M580,191.8h-17.6c-1.5,0-2.7-1.5-2.7-3.4v-12c0-1.8,1.1-3.1,2.5-3.1h18.1c.8,0,1.5.7,1.5,1.5s-.7,1.5-1.5,1.5h-17.6s0,0,0,.1v12c0,.2,0,.3,0,.4h17.2c.8,0,1.5.7,1.5,1.5s-.7,1.5-1.5,1.5Z"/>
    </g>
    <g>
      <path class="cls-5" d="M538.6,190.4h-17c-.6,0-1.1-.9-1.1-2v-12.6c0-.9.4-1.7,1-1.7h17.5"/>
      <path class="cls-8" d="M538.6,191.9h-17c-1.5,0-2.6-1.5-2.6-3.5v-12.6c0-1.8,1.1-3.2,2.5-3.2h17.5c.8,0,1.5.7,1.5,1.5s-.7,1.5-1.5,1.5h-16.9c0,0,0,.1,0,.2v12.6c0,.2,0,.3,0,.5h16.6c.8,0,1.5.7,1.5,1.5s-.7,1.5-1.5,1.5Z"/>
    </g>
  </g>
  <path class="cls-11" d="M593.8,152h-54.9c-1.1,0-2-.9-2-2s.9-2,2-2h54.9c1.1,0,2,.9,2,2s-.9,2-2,2Z"/>
</svg>